<?xml version="1.0" encoding="utf-8"?>
<!-- Generator: Adobe Illustrator 19.0.0, SVG Export Plug-In . SVG Version: 6.00 Build 0)  -->
<svg version="1.1" id="Camada_1" xmlns="http://www.w3.org/2000/svg" xmlns:xlink="http://www.w3.org/1999/xlink" x="0px" y="0px"
	 viewBox="0 0 80 80" style="enable-background:new 0 0 80 80;" xml:space="preserve">
<style type="text/css">
	.st0{fill:#5D5D5D;}
</style>
<rect id="XMLID_1_" x="20.9" y="76.3" class="st0" width="38.2" height="3.8"/>
<rect id="XMLID_6_" x="20.9" y="0" class="st0" width="38.2" height="3.8"/>
<rect id="XMLID_4_" x="76.2" y="20.9" class="st0" width="3.8" height="38.2"/>
<rect id="XMLID_12_" x="0.2" y="20.9" class="st0" width="3.8" height="38.2"/>
<polygon id="XMLID_15_" class="st0" points="16.1,16.2 0.2,16.2 0.2,20.9 20.9,20.9 20.9,0 16.1,0 "/>
<polygon id="XMLID_29_" class="st0" points="63.9,0 59,0 59,20.9 80,20.9 80,16.1 63.9,16.1 "/>
<polygon id="XMLID_32_" class="st0" points="79.8,63.8 79.8,59.1 59,59.1 59,80 63.7,80 63.7,63.8 "/>
<polygon id="XMLID_35_" class="st0" points="0.2,63.8 16.2,63.8 16.2,80 20.9,80 20.9,59.1 0.2,59.1 "/>
<circle id="XMLID_13_" class="st0" cx="7.2" cy="73.5" r="4.7"/>
<circle id="XMLID_16_" class="st0" cx="7.2" cy="6.5" r="4.7"/>
<circle id="XMLID_17_" class="st0" cx="74.1" cy="6.5" r="4.7"/>
<circle id="XMLID_18_" class="st0" cx="74.1" cy="73.5" r="4.7"/>
</svg>
