<?xml version="1.0" encoding="utf-8"?>
<!-- Generator: Adobe Illustrator 19.0.0, SVG Export Plug-In . SVG Version: 6.00 Build 0)  -->
<svg version="1.1" id="Camada_1" xmlns="http://www.w3.org/2000/svg" xmlns:xlink="http://www.w3.org/1999/xlink" x="0px" y="0px"
	 viewBox="906 -451 1891 982" style="enable-background:new 906 -451 1891 982;" xml:space="preserve">
<style type="text/css">
	.st0{fill:#2C2B2B;}
	.st1{fill:none;}
	.st2{fill:#FAFAFA;}
	.st3{fill:#FDFDFD;}
</style>
<path class="st0" d="M3069.8,370c0,0-37.4-56.9-42-42.1c9-62.2-182.9-151.2-376.3-162.6c1.7-70,22.2-49,22.2-49
	S3164.1,181.8,3069.8,370z"/>
<line id="XMLID_76_" class="st1" x1="838.7" y1="-481.9" x2="1785.2" y2="-481.9"/>
<line id="XMLID_78_" class="st1" x1="1893.4" y1="-499.5" x2="2845.3" y2="-499.5"/>
<path class="st0" d="M2583.8-357.3c3.2-10.1,11.3-13.5,19.9-15.9c4.8-1.3,9.1,1.3,13.3,3.1c2.9,1.2,4.4,0.9,6.3-1.7
	c6.5-8.7,20.3-15.6,31.8-12.7c5.7,1.5,10.3,5.4,12.8,10.3c3.4,6.6,5.3,14,4.9,21.6c-0.1,2.5,0.3,4.3,1.6,6.4
	c6.3,9.6,6.2,9.8,14.4,2.1c4.6-4.3,10.6-6,16.2-8.4c10.3-4.4,21-6.9,31.8-3.1c11.4,3.9,19.2,11.2,21,23.6c1.8,12.2-9,18.9-19,15.3
	c-5.8-2.1-11.7-2.5-17.7-2.2c-15.6,0.7-30.3,11-33.5,27.2c-1.8,8.9-5,17-11.9,23.3c-0.9,0.8-1.6,1.6-1.3,3c1.5,9.5-4.7,14.2-12,17.1
	c-14,5.7-28.5,9.8-44,9c-9.7-0.5-16.9-4.1-20-13.9c-0.4-1.1-1-2-2.3-2.5c-19.2-6.9-25.6-23-29.8-40.9c-2.5-10.3-3.9-20.9-6.7-31.1
	c-3-10.9-7.7-21.1-14.6-30.4c-6.7-9.1-14.1-18-14.9-30.1c-0.4-6.1-0.3-12.2,4.2-16.8c5-5,12.6-5,19.8-0.6c6,3.6,10,9.2,13.6,15.1
	c4.8,7.9,9.3,15.9,12,24.8C2580.7-363.1,2580.8-360,2583.8-357.3z M2602.8-349.7c-0.6,2-0.9,3.5-1.5,4.8c-3.6,7.3-0.4,13.2,4.1,18.7
	c3.9,4.7,12.4,5.4,16.7,1.8c12.9-10.5,8.9-32.7-4.2-40.6c-14.7-8.8-29.3-2-31.1,17.3c-0.5,5.6,0.2,11.1,6.3,14.6
	c-4.2,1.3-7.9,2.4-11.7,3.6c4.3-3.6,2.8-7.9,1.8-11.7c-1.5-5.9-3.4-11.8-5.4-17.6c-4.2-12.2-9.7-23.7-17.2-34.2
	c-3-4.2-6.8-8.1-11.6-10.4c-6.1-3-11.3-0.5-12.6,6.1c-1.5,7.4-0.7,14.8,3,21.3c3.3,5.8,7.1,11.4,11.3,16.7
	c8.3,10.3,12.1,22.5,15.1,35c3.5,14.6,5.4,29.5,11.3,43.5c5.9,14,16.4,21,30.8,23c17.1,2.3,33.3-2.5,49.5-7.1
	c13.6-3.9,22.3-12,25-27c2.3-13.1,10.6-22.9,22.9-28.5c7.9-3.6,16.5-3.9,25-3c4.5,0.5,8.9,1.5,13.3,2c6.4,0.7,9.5-2.3,9.1-8.5
	c-0.5-7.5-3.9-13.6-10.1-17.8c-6.9-4.7-14.8-4.9-22.6-3.7c-18.8,2.7-34.2,11.4-45.7,26.7c-1,1.4-2.3,2.4-4.5,1.7
	c1.3-1.8,2.5-3.5,3.8-5.2c3.2-4.2,3.1-9.2,0-13.2c-1.3-1.6-2.4-2.3-3.3,0.4c-1.2,3.6-3.2,6.7-6.2,9.2c-6.9,5.8-22.6,5-26.4-7.1
	c-1-3.2-0.1-6.7-2.2-9.8c-0.4,4.3-0.1,8.7-0.7,12.9c-1.2,9.1-10.3,18.5-21.3,17.2c-10.3-1.2-17.8-9.6-16.7-20.3
	c0.3-3.2-1.5-5.1-2.7-8.3C2598.2-344.2,2599.3-349.1,2602.8-349.7z M2667.6-354.1c-0.1-1.5,0-3-0.2-4.5c-1-6.6-2.4-13.3-7.5-17.9
	c-7.9-7.1-20-3.5-26.5,0.8c-8.2,5.4-8.6,10.3-2.5,18.1c0.9,1.1,1,2.8,1.9,4c1.7,2.2,3.7,4,6.4,0.9c1-1.2,1.6-4.2,3.9-2.7
	c2.2,1.4,0.4,3.6-0.1,5.4c-0.2,0.6-0.4,1.3-0.6,1.9c-1.6,4.5,1,12.1,5,14.3c4.9,2.6,11.4,1.3,14.8-3
	C2666-342,2668-347.6,2667.6-354.1z M2602.8-253.6c0.8,5.8,4.9,8,9.6,9c10.7,2.2,21.2,0,31.6-1.9c7.8-1.5,15.4-3.6,21.9-8.7
	c3.3-2.6,4.6-5.3,3.8-9.6C2648.5-254.8,2626.3-251.7,2602.8-253.6z"/>
<path class="st0" d="M1117.2,159.1c2.4,7.5,2.3,14.8-3.4,20.9c-5.1,5.4-11.8,6.8-18.4,4.7c-6.5-2.1-12.1-1.5-17.8,1.8
	c-1.5,0.9-3.1,2-4.8,2.5c-12.8,3.6-25.8,5-39,3.2c-5-0.7-10-1.6-14.3-5c-3-2.3-6.6-3.7-11-3.2c-9.6,1-16.5-4-21.1-12
	c-5.7-9.9-8.8-20.7-9.5-32.1c-0.6-9.5,1.8-17.5,11-21.9c1.8-0.9,2-2.2,2.2-3.5c1.1-6.3,5.3-10.7,9.5-14.8c6-5.8,9.4-12.3,9.1-20.8
	c-0.3-8.2-4.2-14.8-8.4-21.4c-6-9.2-13.9-17-18.1-27.6c-2.9-7.4,0.3-17.1,7.3-21.4c8.3-5.1,17-4.7,25.4-1
	c15.3,6.6,23.5,19.6,28.6,34.7c3.9,11.7,4.2,23.9,2.3,36.1c-0.7,4.5,2.5,5.7,4.9,7.7c1.9,1.6,4.4,1.6,5.9,0.2
	c3.6-3.2,7.9-4.7,12.3-6.1c13-4.3,26.1-6.7,38.7,1.2c5.2,3.3,8.7,7.8,9.3,14.3c0.5,6.2-2,11-6.8,15.1c18.6,5.4,20.9,12,20.5,21.1
	c-0.5,9.2-8.3,15.2-22.2,17.5C1111.7,153.1,1115.9,155.1,1117.2,159.1z M1062.9,117.3c-13.6-4.8-17.1-13.6-10.7-26.9
	c-1.9-1.5-4.8-1.4-6.2-4.4c-1.5,4.3-2.1,8.3-4.9,11.4c0.6-5.1,0.9-10.3,1.8-15.4c2.8-15.1,0.2-29.7-4.7-43.7
	c-4.3-12.1-13.1-21.5-25.1-27.2c-8.1-3.9-20.3-0.3-24.4,7.6c-1.6,3.1-1.2,6.5,0.2,9.7c4.4,9.7,12,17.2,17.7,26.1
	c6.7,10.4,11.4,21.5,7.9,34.1c-2.1,7.4-7.4,13-12.8,18.3c-7.6,7.6-9.1,17.2-6.2,26.9c0.8,2.7,1.6,5.4,2.2,8.1
	c2.2,11.1,6.5,21.4,12.8,30.7c5.5,8.1,13.7,12.8,23.5,13.9c15.1,1.8,29.9,0.7,44-5.6c1-0.4,2.5-0.3,2.5-1.9c0-1.6-1.6-1.4-2.5-2
	c-7.6-4.6-14.8-9.6-16-19.4c-0.7-5.7,0.2-10.9,5.5-14.4C1057.2,133.5,1056.5,129.5,1062.9,117.3z M1057,91.4
	c-7.5,6.6-5.8,15.8,3.5,19.5c10.6,4.2,21.4,4,32.2,1.1c3.7-1,7.4-1.8,11-3.2c5.9-2.3,9.3-7.8,8.8-13.7c-0.5-6-5-10.9-11.1-12.3
	c-4.9-1.1-9.8-1.8-13.4-1.9C1075.5,80.9,1065.5,84,1057,91.4z M1120.4,140.1c4-3,6.8-6.9,6.6-10.9c-0.2-3.9-2.6-8.3-7.4-10.3
	c-6.8-2.9-13.7-3.9-20.9-2.2c-8.5,2-17.1,2.8-25.7,2.1c-4.9-0.4-7.8,1.6-9.4,6.2c-1.5,4.6-0.3,9.5,3.2,12c9.7,7,20.8,7.9,32.7,8
	C1106.5,144.6,1113.8,145.1,1120.4,140.1z M1112.4,172.4c2.2-5.5,0.3-13.2-3.7-16.9c-4.9-4.6-10.2-7.3-17.2-7.1
	c-5.3,0.2-10.7-0.4-15.7-2.1c-3-1-5.1-0.6-7,1.8c-2.1,2.8-4.3,5.9-2.6,9.5c3.9,8.3,10.4,14.3,18.8,17.8c4.8,2,9.2,5.3,13.8,5
	C1105,180.5,1110.6,176.9,1112.4,172.4z M983.3,146.6c0.4,1.7,1.1,3.4,1.6,5.1c2.2,8.5,5.6,16.3,11.7,22.9c3.1,3.3,6.7,3.9,11.5,3.2
	c-6.9-7.5-9.5-16.8-12.8-25.7c-3.4-9.2-5-18.9-5.8-29.1C979.9,129,981,137.6,983.3,146.6z"/>
<path class="st0" d="M1110.1-352.2c5.3-2.8,10.8-4.6,16.9-4.3c7,0.3,12.3,3.9,15.1,9.6c2.9,6,2.3,12.6-2.1,18.3
	c-1.7,2.1-1.6,4.2-0.3,6.5c6.4,11.4,5.3,31.2-5.5,42.5c-2.4,2.5-4.3,5.3-7.5,7c-1.4,0.7-2,1.7-1.2,3.6c4.1,9.2,2.3,15.7-6.8,19.6
	c-19.6,8.3-40,9.5-60.4,3.1c-7.7-2.4-10.1-9.6-6.5-16.7c1-1.9,0.7-2.1-1.2-3c-18.6-8.8-29.3-23.7-29.8-44.2
	c-0.4-13.8,4.5-24,19.5-29.5c5.8-2.1,7-4.1,5.2-10.2c-2.9-10-7.4-19.2-13.9-27.5c-4.6-5.7-8.5-12-12-18.5
	c-4.9-9.1,1.2-18.9,12.1-19.8c8.6-0.7,15.9,2.2,22.9,7.5c5.5,4.2,10.1,9,13.9,14.5c3.6,5.2,6.6,10.9,9,17.2c0.8-8.1,3.9-15.4,6.2-23
	c2.3-7.4,5.4-14.3,11.1-19.9c5-4.9,18-3.9,23.4,1.3c8.8,8.5,6.9,18.4,4,28.3c-2.8,9.2-6.6,18-9.4,27.2c-1,3.3-4.3,5.6-4,9.4
	c-0.3,0.6-0.7,1.2,0,1.7C1109.1-351.5,1109.7-352,1110.1-352.2z M1057.8-310.3c2.6-0.2,4.8,0.8,6.7,2.3c6.6,5.1,14.1,7.3,22.3,6.1
	c8.5-1.3,12.8-10.1,9-17.8c-1.9-3.9-4.8-7.1-8.2-9.7c-10.9-8.2-23.2-11-36.6-9.3c-17.7,2.3-28.2,15.4-25.9,33.3
	c0.4,2.9,1.8,5.3,2.6,7.9c4.4,14.8,15.2,24.3,28.8,29.1c20,7,40.2,6.6,59.8-3.4c17.9-9.1,25.2-26.7,20.2-45.7
	c-0.7-2.8-1.7-3.8-4.2-1.3c-8.1,8.2-18.1,10.4-29.2,9c-1.2-0.1-2.3-0.7-2.8,1c-1.4,4.3-5,6.3-8.4,8.2c5.2,4.9,12.8,7.6,14.9,15.9
	c-2.3,0.2-3.6-0.9-4.4-2.2c-1.8-2.9-4.6-4.8-7.3-6.6c-3.1-2-5.9-5.8-9.6-5.5c-9.2,0.8-17.1-5.4-26.4-3.5c0.9-2.5,3.1-1.9,4.3-2.9
	C1061.4-307.1,1059.6-308.7,1057.8-310.3z M1079.8-346.5c-1.4,5.1,0.6,8.3,5.2,10.4c1.5,0.7,2.8,1.7,3.9,2.9c2.3,2.7,3.6,0.3,4.4-1
	c8.9-14.3,15.4-29.7,21-45.6c1-2.8,1.9-5.6,2.9-8.4c2.6-7.1,3.8-14.5,1.6-22c-1.3-4.4-8.8-9.9-13.2-9c-4,0.8-7.8,2.5-10.5,6
	c-5.3,6.8-7.4,15-10.1,22.8C1080.1-376.1,1082.9-360.9,1079.8-346.5z M1075.7-352.4c-0.2-18.2-5.4-34.6-18-48
	c-5.9-6.3-12.8-11.5-22.1-12c-9.9-0.5-15.1,6.5-11.1,15.5c1.9,4.3,4.6,8.4,7.5,12.2c6.7,8.8,13,17.8,16.3,28.5
	c1.3,4.2,0.2,10.6,2.9,12.7c2.9,2.3,8.8,0.9,13.4,1.1c3.8,0.1,8.6,3.4,10.8,1.1C1077.2-343.4,1075.7-348.6,1075.7-352.4z
	 M1106.2-313.6c12.8-0.2,22.4-5.9,28.9-16.3c3.2-5.1,4.2-11.3,1-16.7c-2.9-4.9-8.2-5.3-13.7-4.6c-10.7,1.4-17.5,8.4-23.9,16
	c-3.7,4.4-4.1,7.7-0.4,12c1.5,1.7,2.7,3.5,2.7,5.6C1100.8-313.2,1102.9-312.5,1106.2-313.6z M1082.3-246c4.4,0.2,9.9-0.3,15.3-1
	c8.9-1.1,16.9-4.3,24-9.8c3.2-2.5,2.6-5.6,1.4-8.6c-1.5-3.5-4.3-2.1-6.7-1.1c-8,3.5-16.5,5.1-24.9,6.6c-11,1.9-21.8-0.3-32.4-3.5
	c-3.1-0.9-4.2,0.1-4.8,3c-1.1,5.3,2.3,10.7,8.2,12.5C1068.5-246.1,1074.9-246,1082.3-246z"/>
<path class="st0" d="M2543.3,67.9c-3.8-4.1-7.8-8.1-11.2-12.6c-7.6-9.9-11.1-25.1-2-35.4c9.2-10.3,26.5-7.2,30.5,3.9
	c2.1,5.8,5.1,11.4,8.3,16.7c5.3,8.5,12.5,15.5,20.5,21.5c2.5,1.8,5.5,5.1,9.1,2.1c9.2-7.8,19.2-11,31.1-7.8
	c8.6,2.3,15.9,6.6,22.3,12.4c8.2,7.5,14.9,16.1,16.5,27.7c0.4,2.8,1.3,5.5,1.7,8.2c0.2,1.5,0.7,1.9,2.2,1.9
	c10.7,0.1,16.7,10.4,13.6,21c-4.8,16.4-12.9,30.3-27.2,40.2c-7.5,5.2-15.1,4.6-20.7-2.4c-2.3-2.8-4.3-2.2-6.8-1.3
	c-1.5,0.6-2.7,1.8-4.5,2c-13.5,1.9-26.4,1.3-38.3-6.4c-3.6-2.3-7.5-4-12.1-3.7c-12.1,1-22.9-2.1-32.9-9.6
	c-5.7-4.3-7.8-14.2-3.1-20.8c2.9-4.1,7.3-5.5,11.5-7.7c-16.5-8.9-13.6-30,3.3-38.7C2551.3,75.4,2547,71.9,2543.3,67.9z
	 M2618.6,122.7c-1.6,1.3-1.9,2.5-1.7,4.2c0.5,5.4,1.9,10.6,4.5,15.9c-3.5,0-4.8-2.6-5.4-4.6c-0.9-3.5-3.2-6.6-2.9-10.3
	c0.1-1.8-0.6-2.5-2.7-2.4c-3.4,0.1-6.9-0.6-9.4-2.7c-3.2-2.7-6.1-2.9-9.4-0.3c3.9,4,9.2,6.8,11.3,12.8c1.6,4.6,0.8,10.8-3.3,13.6
	c-2.4,1.7-4.7,3.7-7.6,4.5c-0.7,0.2-1.7,0.5-1.7,1.5c0,1.1,1,1.3,1.7,1.5c13.7,5.6,27.2,8.4,41.7,1.7c24.3-11.2,36.1-42.1,29.9-64.6
	c-5.1-18.4-28.5-35.9-46-33.6c-12.2,1.6-19.8,9.5-24.3,20.6c-4.7,11.7-2.7,22.9,3.1,33.4c3,5.3,8.6,8.5,15.2,7.7
	c6.3-0.7,10-4.6,11.7-10.6c1.4-5.2,2.3-10.4-0.2-15.5c-0.6-1.2-0.5-2.6,0.4-4.3C2630.1,101.3,2627.9,115.6,2618.6,122.7z
	 M2592.5,72.6c1.5-2.6,1.1-3.8-1.3-5.1c-9.8-5.2-17.3-13-23.9-21.7c-3.9-5.2-7.2-11.1-9.1-17.4c-1.8-5.8-9.1-11.6-13-11.3
	c-8.2,0.7-14.6,5.9-16.3,13.5c-1.5,7,1.1,13,4.7,18.6c6.4,10.2,15.3,18,24.4,25.6c8.5,7.1,19.1,10.2,29.7,16.3
	C2585.3,83.1,2589.4,78,2592.5,72.6z M2589.6,149.9c4.3-1.3,8.1-4,9.1-8.9c1-4.8-1.9-8-4.8-11.2c-0.6-0.6-1.3-1-2-1.5
	c-6.7-4.4-32-7.8-39.6-5.3c-0.5,0.2-0.9,0.3-1.4,0.5c-4.7,1.9-8.4,4.7-8.9,10.3s3.4,8.7,7.2,11.5c3.2,2.4,7.1,3.5,11.3,4.4
	C2570,152.5,2579.9,152.8,2589.6,149.9z M2589.7,119c2.9,0,5.1-1.4,2.6-5.2c-2.8-4.3-5.1-8.9-5.2-14.2c0-3-1.5-4.5-3.9-5.7
	c-6.3-3.2-13-5.7-19.1-9.7c-4.5-3-10-1.1-13.5,3.5c-9.2,12.4-5.1,24.3,9.5,29.6c0.9,0.3,1.9,0.5,2.9,0.8
	C2571.9,120.8,2580.9,119.1,2589.7,119z M2664.1,133.3c-5.1,10-11.9,18.7-21.4,24.9c-3.7,2.5-2.9,4.2,0,6.2c5.6,4,10.7,2.3,17.4-2.7
	c11.4-8.5,16.7-20.8,21.8-33c3.3-7.9,1.1-16.5-7-18.3c-3.3-0.7-4.2-0.2-5,3.2C2668.9,120.2,2667.4,127,2664.1,133.3z"/>
<path class="st2" d="M2424.1-468.5c-0.2,1.4-0.5,2.8-2.4,3.7c-0.4-2.7,0.2-4.8,1.4-6.9C2423.4-470.6,2423.1-469.4,2424.1-468.5z"/>
<path class="st2" d="M2602.8-349.7c-3.5,0.5-4.6,5.4-9,2.5c1.3,3.2,3.1,5.1,2.7,8.3c-1.1,10.8,6.4,19.1,16.7,20.3
	c11.1,1.3,20.2-8.1,21.3-17.2c0.6-4.3,0.3-8.6,0.7-12.9c2.1,3.1,1.2,6.6,2.2,9.8c3.8,12.1,19.4,12.9,26.4,7.1c3.1-2.5,5-5.6,6.2-9.2
	c0.9-2.7,2-2,3.3-0.4c3.2,4,3.2,9,0,13.2c-1.3,1.7-2.5,3.3-3.8,5.2c2.2,0.7,3.4-0.3,4.5-1.7c11.5-15.3,26.9-23.9,45.7-26.7
	c7.9-1.1,15.7-0.9,22.6,3.7c6.2,4.2,9.6,10.3,10.1,17.8c0.4,6.3-2.7,9.2-9.1,8.5c-4.5-0.5-8.9-1.5-13.3-2c-8.5-1-17.1-0.6-25,3
	c-12.4,5.6-20.6,15.3-22.9,28.5c-2.6,14.9-11.3,23-25,27c-16.1,4.6-32.4,9.4-49.5,7.1c-14.4-2-24.8-8.9-30.8-23
	c-5.9-14.1-7.8-29-11.3-43.5c-3-12.4-6.8-24.6-15.1-35c-4.2-5.2-8-10.8-11.3-16.7c-3.7-6.6-4.5-13.9-3-21.3c1.3-6.6,6.5-9,12.6-6.1
	c4.9,2.3,8.7,6.3,11.6,10.4c7.5,10.4,13,22,17.2,34.2c2,5.8,3.9,11.7,5.4,17.6c1,3.8,2.5,8.1-1.8,11.7c3.7-1.1,7.5-2.3,11.7-3.6
	c-6.1-3.6-6.8-9.1-6.3-14.6c1.9-19.3,16.4-26.1,31.1-17.3c13.1,7.8,17.2,30,4.2,40.6c-4.4,3.6-12.9,2.8-16.7-1.8
	c-4.5-5.4-7.7-11.3-4.1-18.7C2601.9-346.1,2602.2-347.6,2602.8-349.7z M2636.9-277.2c-1.9-17.1,1.3-32.3,14.6-44.4
	c-9.5,5.3-15.5,13.3-17.8,23.6C2632.1-290.8,2632.2-283.5,2636.9-277.2z M2625.5-305.3c-5.1-4.9-11-4.6-17-3.4
	C2614-306.6,2619.9-306.9,2625.5-305.3z"/>
<path class="st2" d="M2667.6-354.1c0.4,6.4-1.6,12.1-5.5,17.2c-3.4,4.4-9.8,5.7-14.8,3c-4-2.1-6.7-9.7-5-14.3
	c0.2-0.6,0.4-1.3,0.6-1.9c0.5-1.8,2.3-4,0.1-5.4c-2.3-1.5-2.9,1.5-3.9,2.7c-2.7,3.1-4.7,1.3-6.4-0.9c-0.9-1.1-1-2.9-1.9-4
	c-6.1-7.8-5.7-12.6,2.5-18.1c6.5-4.3,18.6-7.9,26.5-0.8c5.1,4.6,6.5,11.3,7.5,17.9C2667.6-357.1,2667.6-355.6,2667.6-354.1z"/>
<path class="st2" d="M2602.8-253.6c23.5,1.9,45.6-1.2,66.9-11.3c0.8,4.4-0.6,7.1-3.8,9.6c-6.5,5.1-14.1,7.2-21.9,8.7
	c-10.4,2-20.9,4.1-31.6,1.9C2607.7-245.6,2603.7-247.7,2602.8-253.6z"/>
<path class="st2" d="M1062.2,157.7c1.3,9.8,8.4,14.8,16,19.4c0.9,0.6,2.5,0.4,2.5,2s-1.5,1.4-2.5,1.9c-14.1,6.2-28.9,7.3-44,5.6
	c-9.8-1.1-18-5.8-23.5-13.9c-6.3-9.3-10.6-19.6-12.8-30.7c-0.5-2.7-1.4-5.4-2.2-8.1c-2.9-9.7-1.4-19.3,6.2-26.9
	c5.3-5.3,10.7-10.9,12.8-18.3c3.5-12.6-1.3-23.7-7.9-34.1c-5.7-8.8-13.3-16.4-17.7-26.1c-1.4-3.2-1.8-6.6-0.2-9.7
	c4.1-7.8,16.3-11.5,24.4-7.6c11.9,5.8,20.8,15.1,25.1,27.2c4.9,13.9,7.5,28.6,4.7,43.7c-0.9,5.1-1.2,10.3-1.8,15.4
	c2.9-3.2,3.4-7.1,4.9-11.4c1.4,3,4.2,2.9,6.2,4.4c-6.4,13.3-2.9,22.2,10.7,26.9c-6.4,12.2-5.7,16.2,4.7,26
	C1062.4,146.8,1061.4,152,1062.2,157.7z M1036.1,142c3.9-3.8,5.5-3.6,8.4,1c4.1,6.3,8,12.7,8.4,20.5c0,0.6,0.2,1.4,1.4,1.4
	c0.6-10.6-3-19.6-9.8-27.5c-1.1-1.3-2-1.3-0.7-3.5c2.9-5.1,3.7-10.9,2.7-17c-1.2,18-13.5,25-28.4,29.7
	C1024.9,147.7,1031,147,1036.1,142z"/>
<path class="st2" d="M1088,80.9c-12.5,0-22.5,3.1-31,10.5c-7.5,6.6-5.8,15.8,3.5,19.5c10.6,4.2,21.4,4,32.2,1.1
	c3.7-1,7.4-1.8,11-3.2c5.9-2.3,9.3-7.8,8.8-13.7c-0.5-6-5-10.9-11.1-12.3C1096.5,81.8,1091.6,81.1,1088,80.9z"/>
<path class="st2" d="M1099.6,145c6.9-0.3,14.2,0.1,20.8-4.9c4-3,6.8-6.9,6.6-10.9c-0.2-3.9-2.6-8.3-7.4-10.3
	c-6.8-2.9-13.7-3.9-20.9-2.2c-8.5,2-17.1,2.8-25.7,2.1c-4.9-0.4-7.8,1.6-9.4,6.2c-1.5,4.6-0.3,9.5,3.2,12
	C1076.5,144,1087.7,144.8,1099.6,145z"/>
<path class="st2" d="M1098.8,180.5c6.2,0.1,11.9-3.6,13.6-8c2.2-5.5,0.3-13.2-3.7-16.9c-4.9-4.6-10.2-7.3-17.2-7.1
	c-5.3,0.2-10.7-0.4-15.7-2.1c-3-1-5.1-0.6-7,1.8c-2.1,2.8-4.3,5.9-2.6,9.5c3.9,8.3,10.4,14.3,18.8,17.8
	C1089.7,177.5,1094.2,180.8,1098.8,180.5z"/>
<path class="st2" d="M989.6,123c-9.7,6-8.6,14.6-6.2,23.6c0.4,1.7,1.1,3.4,1.6,5.1c2.2,8.5,5.6,16.3,11.7,22.9
	c3.1,3.3,6.7,3.9,11.5,3.2c-6.9-7.5-9.5-16.8-12.8-25.7C991.9,142.9,990.3,133.2,989.6,123z"/>
<path class="st2" d="M1057.8-310.3c1.8,1.6,3.6,3.2,5.5,5c-1.2,1-3.3,0.4-4.3,2.9c9.4-1.9,17.2,4.3,26.4,3.5
	c3.6-0.3,6.5,3.5,9.6,5.5c2.7,1.8,5.5,3.6,7.3,6.6c0.8,1.3,2.2,2.4,4.4,2.2c-2-8.3-9.7-11-14.9-15.9c3.5-1.9,7.1-3.9,8.4-8.2
	c0.5-1.6,1.6-1.1,2.8-1c11.1,1.4,21.1-0.9,29.2-9c2.5-2.5,3.5-1.6,4.2,1.3c4.9,19-2.4,36.6-20.2,45.7c-19.6,10-39.8,10.4-59.8,3.4
	c-13.6-4.8-24.4-14.3-28.8-29.1c-0.8-2.7-2.2-5-2.6-7.9c-2.3-17.9,8.2-31,25.9-33.3c13.4-1.8,25.8,1.1,36.6,9.3
	c3.4,2.6,6.3,5.8,8.2,9.7c3.8,7.8-0.6,16.6-9,17.8c-8.2,1.2-15.7-1-22.3-6.1C1062.6-309.5,1060.4-310.5,1057.8-310.3z"/>
<path class="st2" d="M1079.8-346.5c3.1-14.4,0.3-29.6,5.1-43.8c2.7-7.9,4.8-16.1,10.1-22.8c2.7-3.5,6.6-5.2,10.5-6
	c4.4-0.9,11.9,4.6,13.2,9c2.1,7.5,1,15-1.6,22c-1,2.8-1.9,5.6-2.9,8.4c-5.6,15.8-12,31.3-21,45.6c-0.8,1.3-2.1,3.7-4.4,1
	c-1-1.2-2.4-2.3-3.9-2.9C1080.4-338.2,1078.4-341.4,1079.8-346.5z"/>
<path class="st2" d="M1075.7-352.4c0,3.8,1.5,9-0.4,11c-2.2,2.2-7-1-10.8-1.1c-4.6-0.2-10.5,1.3-13.4-1.1c-2.6-2.1-1.5-8.5-2.9-12.7
	c-3.3-10.6-9.6-19.6-16.3-28.5c-2.9-3.8-5.5-7.9-7.5-12.2c-4-9,1.2-16,11.1-15.5c9.3,0.5,16.2,5.8,22.1,12
	C1070.3-387,1075.5-370.6,1075.7-352.4z"/>
<path class="st2" d="M1106.2-313.6c-3.3,1.1-5.4,0.3-5.4-3.9c0-2.1-1.2-3.9-2.7-5.6c-3.6-4.3-3.3-7.6,0.4-12
	c6.4-7.7,13.2-14.6,23.9-16c5.5-0.7,10.8-0.3,13.7,4.6c3.2,5.4,2.2,11.5-1,16.7C1128.6-319.5,1119-313.7,1106.2-313.6z"/>
<path class="st2" d="M1082.3-246c-7.5,0.1-13.8,0-19.9-1.8c-5.8-1.7-9.3-7.1-8.2-12.5c0.6-2.9,1.8-3.9,4.8-3
	c10.6,3.2,21.4,5.4,32.4,3.5c8.5-1.4,16.9-3.1,24.9-6.6c2.3-1,5.2-2.4,6.7,1.1c1.2,3,1.8,6.1-1.4,8.6c-7.1,5.5-15.1,8.6-24,9.8
	C1092.2-246.3,1086.7-245.9,1082.3-246z"/>
<path class="st3" d="M1110.1-352.2c-0.4,0.2-1,0.7-1.2,0.6c-0.7-0.4-0.3-1.1,0-1.7C1109.3-352.9,1109.7-352.6,1110.1-352.2z"/>
<path class="st2" d="M2623.5,91.1c6.6,10.1,4.4,24.5-4.9,31.6c-1.6,1.3-1.9,2.5-1.7,4.2c0.5,5.4,1.9,10.6,4.5,15.9
	c-3.5,0-4.8-2.6-5.4-4.6c-0.9-3.5-3.2-6.6-2.9-10.3c0.1-1.8-0.6-2.5-2.7-2.4c-3.4,0.1-6.9-0.6-9.4-2.7c-3.2-2.7-6.1-2.9-9.4-0.3
	c3.9,4,9.2,6.8,11.3,12.8c1.6,4.6,0.8,10.8-3.3,13.6c-2.4,1.7-4.7,3.7-7.6,4.5c-0.7,0.2-1.7,0.5-1.7,1.5c0,1.1,1,1.3,1.7,1.5
	c13.7,5.6,27.2,8.4,41.7,1.7c24.3-11.2,36.1-42.1,29.9-64.6c-5.1-18.4-28.5-35.9-46-33.6c-12.2,1.6-19.8,9.5-24.3,20.6
	c-4.7,11.7-2.7,22.9,3.1,33.4c3,5.3,8.6,8.5,15.2,7.7c6.3-0.7,10-4.6,11.7-10.6c1.4-5.2,2.3-10.4-0.2-15.5
	C2622.5,94.2,2622.6,92.8,2623.5,91.1z"/>
<path class="st2" d="M2587.7,91.3c-2.4-8.2,1.7-13.4,4.8-18.7c1.5-2.6,1.1-3.8-1.3-5.1c-9.8-5.2-17.3-13-23.9-21.7
	c-3.9-5.2-7.2-11.1-9.1-17.4c-1.8-5.8-9.1-11.6-13-11.3c-8.2,0.7-14.6,5.9-16.3,13.5c-1.5,7,1.1,13,4.7,18.6
	c6.4,10.2,15.3,18,24.4,25.6C2566.5,82.1,2577.1,85.2,2587.7,91.3z"/>
<path class="st2" d="M2560.4,149.7c9.6,2.7,19.4,3.1,29.2,0.1c4.3-1.3,8.1-4,9.1-8.9c1-4.8-1.9-8-4.8-11.2c-0.6-0.6-1.3-1-2-1.5
	c-6.7-4.4-32-7.8-39.6-5.3c-0.5,0.2-0.9,0.3-1.4,0.5c-4.7,1.9-8.4,4.7-8.9,10.3s3.4,8.7,7.2,11.5
	C2552.3,147.7,2556.3,148.8,2560.4,149.7z"/>
<path class="st2" d="M2563.1,118.2c8.8,2.6,17.7,0.9,26.6,0.9c2.9,0,5.1-1.4,2.6-5.2c-2.8-4.3-5.1-8.9-5.2-14.2c0-3-1.5-4.5-3.9-5.7
	c-6.3-3.2-13-5.7-19.1-9.7c-4.5-3-10-1.1-13.5,3.5c-9.2,12.4-5.1,24.3,9.5,29.6C2561.2,117.7,2562.2,117.9,2563.1,118.2z"/>
<path class="st2" d="M2669.9,113.6c-1,6.5-2.6,13.4-5.8,19.6c-5.1,10-11.9,18.7-21.4,24.9c-3.7,2.5-2.9,4.2,0,6.2
	c5.6,4,10.7,2.3,17.4-2.7c11.4-8.5,16.7-20.8,21.8-33c3.3-7.9,1.1-16.5-7-18.3C2671.6,109.7,2670.7,110.2,2669.9,113.6z"/>
<path class="st0" d="M2636.9-277.2c-4.7-6.3-4.8-13.6-3.2-20.7c2.3-10.3,8.2-18.3,17.8-23.6C2638.2-309.5,2635-294.3,2636.9-277.2z"
	/>
<path class="st0" d="M2625.5-305.3c-5.6-1.7-11.5-1.3-17-3.4C2614.5-309.8,2620.4-310.2,2625.5-305.3z"/>
<path class="st0" d="M1018.2,146.5c6.6,1.2,12.8,0.5,17.9-4.5c3.9-3.8,5.5-3.6,8.4,1c4.1,6.3,8,12.7,8.4,20.5c0,0.6,0.2,1.4,1.4,1.4
	c0.6-10.6-3-19.6-9.8-27.5c-1.1-1.3-2-1.3-0.7-3.5c2.9-5.1,3.7-10.9,2.7-17C1045.5,134.8,1033.2,141.8,1018.2,146.5z"/>
<path class="st0" d="M978.7,130.4c0,0,11,48.9,25.9,52.8c-55.4,10.9-137.4-37.4-245.4,123.8c-70,1.1-74,0-74,0
	S752.1,109.8,978.7,130.4z"/>
<path class="st0" d="M1118.8-249.5c0,0-70.8,10.4-63.7-3.3c-37.1,50.7-64.6,126.9-256.5,98.6c-47.8,51.1-49.7,54.8-49.7,54.8
	S961.6-20.2,1118.8-249.5z"/>
<path class="st0" d="M2602-250.5c0,0,74.9-0.6,67.8-14.4c37.1,50.7,60.5,137.9,252.5,109.6c47.8,51.1,49.7,54.8,49.7,54.8
	S2759.2-21.1,2602-250.5z"/>
</svg>
