<?xml version="1.0" encoding="utf-8"?>
<!-- Generator: Adobe Illustrator 19.0.0, SVG Export Plug-In . SVG Version: 6.00 Build 0)  -->
<svg version="1.1" id="Camada_1" xmlns="http://www.w3.org/2000/svg" xmlns:xlink="http://www.w3.org/1999/xlink" x="0px" y="0px"
	 viewBox="640 -14.9 1891 982" style="enable-background:new 640 -14.9 1891 982;" xml:space="preserve">
<style type="text/css">
	.st0{fill:#2C2B2B;}
	.st1{fill:none;}
	.st2{fill:#FAFAFA;}
	.st3{fill:#FDFDFD;}
</style>
<path class="st0" d="M2767.5,972.6c0,0-37.4-56.9-42-42.1c9-62.2-182.9-151.2-376.3-162.6c1.7-70,22.2-49,22.2-49
	S2861.8,784.4,2767.5,972.6z"/>
<line id="XMLID_76_" class="st1" x1="644.6" y1="103.1" x2="1591.1" y2="103.1"/>
<line id="XMLID_78_" class="st1" x1="1591.1" y1="103.1" x2="2543" y2="103.1"/>
<path class="st0" d="M2281.5,245.3c3.2-10.1,11.3-13.5,19.9-15.9c4.8-1.3,9.1,1.3,13.3,3.1c2.9,1.2,4.4,0.9,6.3-1.7
	c6.5-8.7,20.3-15.6,31.8-12.7c5.7,1.5,10.3,5.4,12.8,10.3c3.4,6.6,5.3,14,4.9,21.6c-0.1,2.5,0.3,4.3,1.6,6.4
	c6.3,9.6,6.2,9.8,14.4,2.1c4.6-4.3,10.6-6,16.2-8.4c10.3-4.4,21-6.9,31.8-3.1c11.4,3.9,19.2,11.2,21,23.6c1.8,12.2-9,18.9-19,15.3
	c-5.8-2.1-11.7-2.5-17.7-2.2c-15.6,0.7-30.3,11-33.5,27.2c-1.8,8.9-5,17-11.9,23.3c-0.9,0.8-1.6,1.6-1.3,3c1.5,9.5-4.7,14.2-12,17.1
	c-14,5.7-28.5,9.8-44,9c-9.7-0.5-16.9-4.1-20-13.9c-0.4-1.1-1-2-2.3-2.5c-19.2-6.9-25.6-23-29.8-40.9c-2.5-10.3-3.9-20.9-6.7-31.1
	c-3-10.9-7.7-21.1-14.6-30.4c-6.7-9.1-14.1-18-14.9-30.1c-0.4-6.1-0.3-12.2,4.2-16.8c5-5,12.6-5,19.8-0.6c6,3.6,10,9.2,13.6,15.1
	c4.8,7.9,9.3,15.9,12,24.8C2278.4,239.5,2278.5,242.6,2281.5,245.3z M2300.5,252.9c-0.6,2-0.9,3.5-1.5,4.8
	c-3.6,7.3-0.4,13.2,4.1,18.7c3.9,4.7,12.4,5.4,16.7,1.8c12.9-10.5,8.9-32.7-4.2-40.6c-14.7-8.8-29.3-2-31.1,17.3
	c-0.5,5.6,0.2,11.1,6.3,14.6c-4.2,1.3-7.9,2.4-11.7,3.6c4.3-3.6,2.8-7.9,1.8-11.7c-1.5-5.9-3.4-11.8-5.4-17.6
	c-4.2-12.2-9.7-23.7-17.2-34.2c-3-4.2-6.8-8.1-11.6-10.4c-6.1-3-11.3-0.5-12.6,6.1c-1.5,7.4-0.7,14.8,3,21.3
	c3.3,5.8,7.1,11.4,11.3,16.7c8.3,10.3,12.1,22.5,15.1,35c3.5,14.6,5.4,29.5,11.3,43.5c5.9,14,16.4,21,30.8,23
	c17.1,2.3,33.3-2.5,49.5-7.1c13.6-3.9,22.3-12,25-27c2.3-13.1,10.6-22.9,22.9-28.5c7.9-3.6,16.5-3.9,25-3c4.5,0.5,8.9,1.5,13.3,2
	c6.4,0.7,9.5-2.3,9.1-8.5c-0.5-7.5-3.9-13.6-10.1-17.8c-6.9-4.7-14.8-4.9-22.6-3.7c-18.8,2.7-34.2,11.4-45.7,26.7
	c-1,1.4-2.3,2.4-4.5,1.7c1.3-1.8,2.5-3.5,3.8-5.2c3.2-4.2,3.1-9.2,0-13.2c-1.3-1.6-2.4-2.3-3.3,0.4c-1.2,3.6-3.2,6.7-6.2,9.2
	c-6.9,5.8-22.6,5-26.4-7.1c-1-3.2-0.1-6.7-2.2-9.8c-0.4,4.3-0.1,8.7-0.7,12.9c-1.2,9.1-10.3,18.5-21.3,17.2
	c-10.3-1.2-17.8-9.6-16.7-20.3c0.3-3.2-1.5-5.1-2.7-8.3C2295.9,258.4,2297,253.5,2300.5,252.9z M2365.3,248.5c-0.1-1.5,0-3-0.2-4.5
	c-1-6.6-2.4-13.3-7.5-17.9c-7.9-7.1-20-3.5-26.5,0.8c-8.2,5.4-8.6,10.3-2.5,18.1c0.9,1.1,1,2.8,1.9,4c1.7,2.2,3.7,4,6.4,0.9
	c1-1.2,1.6-4.2,3.9-2.7c2.2,1.4,0.4,3.6-0.1,5.4c-0.2,0.6-0.4,1.3-0.6,1.9c-1.6,4.5,1,12.1,5,14.3c4.9,2.6,11.4,1.3,14.8-3
	C2363.7,260.6,2365.7,255,2365.3,248.5z M2300.5,349c0.8,5.8,4.9,8,9.6,9c10.7,2.2,21.2,0,31.6-1.9c7.8-1.5,15.4-3.6,21.9-8.7
	c3.3-2.6,4.6-5.3,3.8-9.6C2346.2,347.8,2324,350.9,2300.5,349z"/>
<path class="st0" d="M923.1,744.1c2.4,7.5,2.3,14.8-3.4,20.9c-5.1,5.4-11.8,6.8-18.4,4.7c-6.5-2.1-12.1-1.5-17.8,1.8
	c-1.5,0.9-3.1,2-4.8,2.5c-12.8,3.6-25.8,5-39,3.2c-5-0.7-10-1.6-14.3-5c-3-2.3-6.6-3.7-11-3.2c-9.6,1-16.5-4-21.1-12
	c-5.7-9.9-8.8-20.7-9.5-32.1c-0.6-9.5,1.8-17.5,11-21.9c1.8-0.9,2-2.2,2.2-3.5c1.1-6.3,5.3-10.7,9.5-14.8c6-5.8,9.4-12.3,9.1-20.8
	c-0.3-8.2-4.2-14.8-8.4-21.4c-6-9.2-13.9-17-18.1-27.6c-2.9-7.4,0.3-17.1,7.3-21.4c8.3-5.1,17-4.7,25.4-1
	c15.3,6.6,23.5,19.6,28.6,34.7c3.9,11.7,4.2,23.9,2.3,36.1c-0.7,4.5,2.5,5.7,4.9,7.7c1.9,1.6,4.4,1.6,5.9,0.2
	c3.6-3.2,7.9-4.7,12.3-6.1c13-4.3,26.1-6.7,38.7,1.2c5.2,3.3,8.7,7.8,9.3,14.3c0.5,6.2-2,11-6.8,15.1c18.6,5.4,20.9,12,20.5,21.1
	c-0.5,9.2-8.3,15.2-22.2,17.5C917.6,738.1,921.8,740.1,923.1,744.1z M868.8,702.3c-13.6-4.8-17.1-13.6-10.7-26.9
	c-1.9-1.5-4.8-1.4-6.2-4.4c-1.5,4.3-2.1,8.3-4.9,11.4c0.6-5.1,0.9-10.3,1.8-15.4c2.8-15.1,0.2-29.7-4.7-43.7
	c-4.3-12.1-13.1-21.5-25.1-27.2c-8.1-3.9-20.3-0.3-24.4,7.6c-1.6,3.1-1.2,6.5,0.2,9.7c4.4,9.7,12,17.2,17.7,26.1
	c6.7,10.4,11.4,21.5,7.9,34.1c-2.1,7.4-7.4,13-12.8,18.3c-7.6,7.6-9.1,17.2-6.2,26.9c0.8,2.7,1.6,5.4,2.2,8.1
	c2.2,11.1,6.5,21.4,12.8,30.7c5.5,8.1,13.7,12.8,23.5,13.9c15.1,1.8,29.9,0.7,44-5.6c1-0.4,2.5-0.3,2.5-1.9c0-1.6-1.6-1.4-2.5-2
	c-7.6-4.6-14.8-9.6-16-19.4c-0.7-5.7,0.2-10.9,5.5-14.4C863.1,718.5,862.4,714.5,868.8,702.3z M862.9,676.4
	c-7.5,6.6-5.8,15.8,3.5,19.5c10.6,4.2,21.4,4,32.2,1.1c3.7-1,7.4-1.8,11-3.2c5.9-2.3,9.3-7.8,8.8-13.7c-0.5-6-5-10.9-11.1-12.3
	c-4.9-1.1-9.8-1.8-13.4-1.9C881.4,665.9,871.4,669,862.9,676.4z M926.3,725.1c4-3,6.8-6.9,6.6-10.9c-0.2-3.9-2.6-8.3-7.4-10.3
	c-6.8-2.9-13.7-3.9-20.9-2.2c-8.5,2-17.1,2.8-25.7,2.1c-4.9-0.4-7.8,1.6-9.4,6.2c-1.5,4.6-0.3,9.5,3.2,12c9.7,7,20.8,7.9,32.7,8
	C912.4,729.6,919.7,730.1,926.3,725.1z M918.3,757.4c2.2-5.5,0.3-13.2-3.7-16.9c-4.9-4.6-10.2-7.3-17.2-7.1
	c-5.3,0.2-10.7-0.4-15.7-2.1c-3-1-5.1-0.6-7,1.8c-2.1,2.8-4.3,5.9-2.6,9.5c3.9,8.3,10.4,14.3,18.8,17.8c4.8,2,9.2,5.3,13.8,5
	C910.9,765.5,916.5,761.9,918.3,757.4z M789.2,731.6c0.4,1.7,1.1,3.4,1.6,5.1c2.2,8.5,5.6,16.3,11.7,22.9c3.1,3.3,6.7,3.9,11.5,3.2
	c-6.9-7.5-9.5-16.8-12.8-25.7c-3.4-9.2-5-18.9-5.8-29.1C785.8,714,786.9,722.6,789.2,731.6z"/>
<path class="st0" d="M916,232.8c5.3-2.8,10.8-4.6,16.9-4.3c7,0.3,12.3,3.9,15.1,9.6c2.9,6,2.3,12.6-2.1,18.3
	c-1.7,2.1-1.6,4.2-0.3,6.5c6.4,11.4,5.3,31.2-5.5,42.5c-2.4,2.5-4.3,5.3-7.5,7c-1.4,0.7-2,1.7-1.2,3.6c4.1,9.2,2.3,15.7-6.8,19.6
	c-19.6,8.3-40,9.5-60.4,3.1c-7.7-2.4-10.1-9.6-6.5-16.7c1-1.9,0.7-2.1-1.2-3c-18.6-8.8-29.3-23.7-29.8-44.2
	c-0.4-13.8,4.5-24,19.5-29.5c5.8-2.1,7-4.1,5.2-10.2c-2.9-10-7.4-19.2-13.9-27.5c-4.6-5.7-8.5-12-12-18.5
	c-4.9-9.1,1.2-18.9,12.1-19.8c8.6-0.7,15.9,2.2,22.9,7.5c5.5,4.2,10.1,9,13.9,14.5c3.6,5.2,6.6,10.9,9,17.2c0.8-8.1,3.9-15.4,6.2-23
	c2.3-7.4,5.4-14.3,11.1-19.9c5-4.9,18-3.9,23.4,1.3c8.8,8.5,6.9,18.4,4,28.3c-2.8,9.2-6.6,18-9.4,27.2c-1,3.3-4.3,5.6-4,9.4
	c-0.3,0.6-0.7,1.2,0,1.7C915,233.5,915.6,233,916,232.8z M863.7,274.7c2.6-0.2,4.8,0.8,6.7,2.3c6.6,5.1,14.1,7.3,22.3,6.1
	c8.5-1.3,12.8-10.1,9-17.8c-1.9-3.9-4.8-7.1-8.2-9.7c-10.9-8.2-23.2-11-36.6-9.3c-17.7,2.3-28.2,15.4-25.9,33.3
	c0.4,2.9,1.8,5.3,2.6,7.9c4.4,14.8,15.2,24.3,28.8,29.1c20,7,40.2,6.6,59.8-3.4c17.9-9.1,25.2-26.7,20.2-45.7
	c-0.7-2.8-1.7-3.8-4.2-1.3c-8.1,8.2-18.1,10.4-29.2,9c-1.2-0.1-2.3-0.7-2.8,1c-1.4,4.3-5,6.3-8.4,8.2c5.2,4.9,12.8,7.6,14.9,15.9
	c-2.3,0.2-3.6-0.9-4.4-2.2c-1.8-2.9-4.6-4.8-7.3-6.6c-3.1-2-5.9-5.8-9.6-5.5c-9.2,0.8-17.1-5.4-26.4-3.5c0.9-2.5,3.1-1.9,4.3-2.9
	C867.3,277.9,865.5,276.3,863.7,274.7z M885.7,238.5c-1.4,5.1,0.6,8.3,5.2,10.4c1.5,0.7,2.8,1.7,3.9,2.9c2.3,2.7,3.6,0.3,4.4-1
	c8.9-14.3,15.4-29.7,21-45.6c1-2.8,1.9-5.6,2.9-8.4c2.6-7.1,3.8-14.5,1.6-22c-1.3-4.4-8.8-9.9-13.2-9c-4,0.8-7.8,2.5-10.5,6
	c-5.3,6.8-7.4,15-10.1,22.8C886,208.9,888.8,224.1,885.7,238.5z M881.6,232.6c-0.2-18.2-5.4-34.6-18-48c-5.9-6.3-12.8-11.5-22.1-12
	c-9.9-0.5-15.1,6.5-11.1,15.5c1.9,4.3,4.6,8.4,7.5,12.2c6.7,8.8,13,17.8,16.3,28.5c1.3,4.2,0.2,10.6,2.9,12.7
	c2.9,2.3,8.8,0.9,13.4,1.1c3.8,0.1,8.6,3.4,10.8,1.1C883.1,241.6,881.6,236.4,881.6,232.6z M912.1,271.4
	c12.8-0.2,22.4-5.9,28.9-16.3c3.2-5.1,4.2-11.3,1-16.7c-2.9-4.9-8.2-5.3-13.7-4.6c-10.7,1.4-17.5,8.4-23.9,16
	c-3.7,4.4-4.1,7.7-0.4,12c1.5,1.7,2.7,3.5,2.7,5.6C906.7,271.8,908.8,272.5,912.1,271.4z M888.2,339c4.4,0.2,9.9-0.3,15.3-1
	c8.9-1.1,16.9-4.3,24-9.8c3.2-2.5,2.6-5.6,1.4-8.6c-1.5-3.5-4.3-2.1-6.7-1.1c-8,3.5-16.5,5.1-24.9,6.6c-11,1.9-21.8-0.3-32.4-3.5
	c-3.1-0.9-4.2,0.1-4.8,3c-1.1,5.3,2.3,10.7,8.2,12.5C874.4,338.9,880.8,339,888.2,339z"/>
<path class="st0" d="M2241,670.5c-3.8-4.1-7.8-8.1-11.2-12.6c-7.6-9.9-11.1-25.1-2-35.4c9.2-10.3,26.5-7.2,30.5,3.9
	c2.1,5.8,5.1,11.4,8.3,16.7c5.3,8.5,12.5,15.5,20.5,21.5c2.5,1.8,5.5,5.1,9.1,2.1c9.2-7.8,19.2-11,31.1-7.8
	c8.6,2.3,15.9,6.6,22.3,12.4c8.2,7.5,14.9,16.1,16.5,27.7c0.4,2.8,1.3,5.5,1.7,8.2c0.2,1.5,0.7,1.9,2.2,1.9
	c10.7,0.1,16.7,10.4,13.6,21c-4.8,16.4-12.9,30.3-27.2,40.2c-7.5,5.2-15.1,4.6-20.7-2.4c-2.3-2.8-4.3-2.2-6.8-1.3
	c-1.5,0.6-2.7,1.8-4.5,2c-13.5,1.9-26.4,1.3-38.3-6.4c-3.6-2.3-7.5-4-12.1-3.7c-12.1,1-22.9-2.1-32.9-9.6
	c-5.7-4.3-7.8-14.2-3.1-20.8c2.9-4.1,7.3-5.5,11.5-7.7c-16.5-8.9-13.6-30,3.3-38.7C2249,678,2244.7,674.5,2241,670.5z M2316.3,725.3
	c-1.6,1.3-1.9,2.5-1.7,4.2c0.5,5.4,1.9,10.6,4.5,15.9c-3.5,0-4.8-2.6-5.4-4.6c-0.9-3.5-3.2-6.6-2.9-10.3c0.1-1.8-0.6-2.5-2.7-2.4
	c-3.4,0.1-6.9-0.6-9.4-2.7c-3.2-2.7-6.1-2.9-9.4-0.3c3.9,4,9.2,6.8,11.3,12.8c1.6,4.6,0.8,10.8-3.3,13.6c-2.4,1.7-4.7,3.7-7.6,4.5
	c-0.7,0.2-1.7,0.5-1.7,1.5c0,1.1,1,1.3,1.7,1.5c13.7,5.6,27.2,8.4,41.7,1.7c24.3-11.2,36.1-42.1,29.9-64.6
	c-5.1-18.4-28.5-35.9-46-33.6c-12.2,1.6-19.8,9.5-24.3,20.6c-4.7,11.7-2.7,22.9,3.1,33.4c3,5.3,8.6,8.5,15.2,7.7
	c6.3-0.7,10-4.6,11.7-10.6c1.4-5.2,2.3-10.4-0.2-15.5c-0.6-1.2-0.5-2.6,0.4-4.3C2327.8,703.9,2325.6,718.2,2316.3,725.3z
	 M2290.2,675.2c1.5-2.6,1.1-3.8-1.3-5.1c-9.8-5.2-17.3-13-23.9-21.7c-3.9-5.2-7.2-11.1-9.1-17.4c-1.8-5.8-9.1-11.6-13-11.3
	c-8.2,0.7-14.6,5.9-16.3,13.5c-1.5,7,1.1,13,4.7,18.6c6.4,10.2,15.3,18,24.4,25.6c8.5,7.1,19.1,10.2,29.7,16.3
	C2283,685.7,2287.1,680.6,2290.2,675.2z M2287.3,752.5c4.3-1.3,8.1-4,9.1-8.9c1-4.8-1.9-8-4.8-11.2c-0.6-0.6-1.3-1-2-1.5
	c-6.7-4.4-32-7.8-39.6-5.3c-0.5,0.2-0.9,0.3-1.4,0.5c-4.7,1.9-8.4,4.7-8.9,10.3c-0.5,5.6,3.4,8.7,7.2,11.5c3.2,2.4,7.1,3.5,11.3,4.4
	C2267.7,755.1,2277.6,755.4,2287.3,752.5z M2287.4,721.6c2.9,0,5.1-1.4,2.6-5.2c-2.8-4.3-5.1-8.9-5.2-14.2c0-3-1.5-4.5-3.9-5.7
	c-6.3-3.2-13-5.7-19.1-9.7c-4.5-3-10-1.1-13.5,3.5c-9.2,12.4-5.1,24.3,9.5,29.6c0.9,0.3,1.9,0.5,2.9,0.8
	C2269.6,723.4,2278.6,721.7,2287.4,721.6z M2361.8,735.9c-5.1,10-11.9,18.7-21.4,24.9c-3.7,2.5-2.9,4.2,0,6.2
	c5.6,4,10.7,2.3,17.4-2.7c11.4-8.5,16.7-20.8,21.8-33c3.3-7.9,1.1-16.5-7-18.3c-3.3-0.7-4.2-0.2-5,3.2
	C2366.6,722.8,2365.1,729.6,2361.8,735.9z"/>
<path class="st2" d="M2121.8,134.1c-0.2,1.4-0.5,2.8-2.4,3.7c-0.4-2.7,0.2-4.8,1.4-6.9C2121.1,132,2120.8,133.2,2121.8,134.1z"/>
<path class="st2" d="M2300.5,252.9c-3.5,0.5-4.6,5.4-9,2.5c1.3,3.2,3.1,5.1,2.7,8.3c-1.1,10.8,6.4,19.1,16.7,20.3
	c11.1,1.3,20.2-8.1,21.3-17.2c0.6-4.3,0.3-8.6,0.7-12.9c2.1,3.1,1.2,6.6,2.2,9.8c3.8,12.1,19.4,12.9,26.4,7.1c3.1-2.5,5-5.6,6.2-9.2
	c0.9-2.7,2-2,3.3-0.4c3.2,4,3.2,9,0,13.2c-1.3,1.7-2.5,3.3-3.8,5.2c2.2,0.7,3.4-0.3,4.5-1.7c11.5-15.3,26.9-23.9,45.7-26.7
	c7.9-1.1,15.7-0.9,22.6,3.7c6.2,4.2,9.6,10.3,10.1,17.8c0.4,6.3-2.7,9.2-9.1,8.5c-4.5-0.5-8.9-1.5-13.3-2c-8.5-1-17.1-0.6-25,3
	c-12.4,5.6-20.6,15.3-22.9,28.5c-2.6,14.9-11.3,23-25,27c-16.1,4.6-32.4,9.4-49.5,7.1c-14.4-2-24.8-8.9-30.8-23
	c-5.9-14.1-7.8-29-11.3-43.5c-3-12.4-6.8-24.6-15.1-35c-4.2-5.2-8-10.8-11.3-16.7c-3.7-6.6-4.5-13.9-3-21.3c1.3-6.6,6.5-9,12.6-6.1
	c4.9,2.3,8.7,6.3,11.6,10.4c7.5,10.4,13,22,17.2,34.2c2,5.8,3.9,11.7,5.4,17.6c1,3.8,2.5,8.1-1.8,11.7c3.7-1.1,7.5-2.3,11.7-3.6
	c-6.1-3.6-6.8-9.1-6.3-14.6c1.9-19.3,16.4-26.1,31.1-17.3c13.1,7.8,17.2,30,4.2,40.6c-4.4,3.6-12.9,2.8-16.7-1.8
	c-4.5-5.4-7.7-11.3-4.1-18.7C2299.6,256.5,2299.9,255,2300.5,252.9z M2334.6,325.4c-1.9-17.1,1.3-32.3,14.6-44.4
	c-9.5,5.3-15.5,13.3-17.8,23.6C2329.8,311.8,2329.9,319.1,2334.6,325.4z M2323.2,297.3c-5.1-4.9-11-4.6-17-3.4
	C2311.7,296,2317.6,295.7,2323.2,297.3z"/>
<path class="st2" d="M2365.3,248.5c0.4,6.4-1.6,12.1-5.5,17.2c-3.4,4.4-9.8,5.7-14.8,3c-4-2.1-6.7-9.7-5-14.3
	c0.2-0.6,0.4-1.3,0.6-1.9c0.5-1.8,2.3-4,0.1-5.4c-2.3-1.5-2.9,1.5-3.9,2.7c-2.7,3.1-4.7,1.3-6.4-0.9c-0.9-1.1-1-2.9-1.9-4
	c-6.1-7.8-5.7-12.6,2.5-18.1c6.5-4.3,18.6-7.9,26.5-0.8c5.1,4.6,6.5,11.3,7.5,17.9C2365.3,245.5,2365.3,247,2365.3,248.5z"/>
<path class="st2" d="M2300.5,349c23.5,1.9,45.6-1.2,66.9-11.3c0.8,4.4-0.6,7.1-3.8,9.6c-6.5,5.1-14.1,7.2-21.9,8.7
	c-10.4,2-20.9,4.1-31.6,1.9C2305.4,357,2301.4,354.9,2300.5,349z"/>
<path class="st2" d="M868.1,742.7c1.3,9.8,8.4,14.8,16,19.4c0.9,0.6,2.5,0.4,2.5,2c0,1.6-1.5,1.4-2.5,1.9c-14.1,6.2-28.9,7.3-44,5.6
	c-9.8-1.1-18-5.8-23.5-13.9c-6.3-9.3-10.6-19.6-12.8-30.7c-0.5-2.7-1.4-5.4-2.2-8.1c-2.9-9.7-1.4-19.3,6.2-26.9
	c5.3-5.3,10.7-10.9,12.8-18.3c3.5-12.6-1.3-23.7-7.9-34.1c-5.7-8.8-13.3-16.4-17.7-26.1c-1.4-3.2-1.8-6.6-0.2-9.7
	c4.1-7.8,16.3-11.5,24.4-7.6c11.9,5.8,20.8,15.1,25.1,27.2c4.9,13.9,7.5,28.6,4.7,43.7c-0.9,5.1-1.2,10.3-1.8,15.4
	c2.9-3.2,3.4-7.1,4.9-11.4c1.4,3,4.2,2.9,6.2,4.4c-6.4,13.3-2.9,22.2,10.7,26.9c-6.4,12.2-5.7,16.2,4.7,26
	C868.3,731.8,867.3,737,868.1,742.7z M842,727c3.9-3.8,5.5-3.6,8.4,1c4.1,6.3,8,12.7,8.4,20.5c0,0.6,0.2,1.4,1.4,1.4
	c0.6-10.6-3-19.6-9.8-27.5c-1.1-1.3-2-1.3-0.7-3.5c2.9-5.1,3.7-10.9,2.7-17c-1.2,18-13.5,25-28.4,29.7
	C830.8,732.7,836.9,732,842,727z"/>
<path class="st2" d="M893.9,665.9c-12.5,0-22.5,3.1-31,10.5c-7.5,6.6-5.8,15.8,3.5,19.5c10.6,4.2,21.4,4,32.2,1.1
	c3.7-1,7.4-1.8,11-3.2c5.9-2.3,9.3-7.8,8.8-13.7c-0.5-6-5-10.9-11.1-12.3C902.4,666.8,897.5,666.1,893.9,665.9z"/>
<path class="st2" d="M905.5,730c6.9-0.3,14.2,0.1,20.8-4.9c4-3,6.8-6.9,6.6-10.9c-0.2-3.9-2.6-8.3-7.4-10.3
	c-6.8-2.9-13.7-3.9-20.9-2.2c-8.5,2-17.1,2.8-25.7,2.1c-4.9-0.4-7.8,1.6-9.4,6.2c-1.5,4.6-0.3,9.5,3.2,12
	C882.4,729,893.6,729.8,905.5,730z"/>
<path class="st2" d="M904.7,765.5c6.2,0.1,11.9-3.6,13.6-8c2.2-5.5,0.3-13.2-3.7-16.9c-4.9-4.6-10.2-7.3-17.2-7.1
	c-5.3,0.2-10.7-0.4-15.7-2.1c-3-1-5.1-0.6-7,1.8c-2.1,2.8-4.3,5.9-2.6,9.5c3.9,8.3,10.4,14.3,18.8,17.8
	C895.6,762.5,900.1,765.8,904.7,765.5z"/>
<path class="st2" d="M795.5,708c-9.7,6-8.6,14.6-6.2,23.6c0.4,1.7,1.1,3.4,1.6,5.1c2.2,8.5,5.6,16.3,11.7,22.9
	c3.1,3.3,6.7,3.9,11.5,3.2c-6.9-7.5-9.5-16.8-12.8-25.7C797.8,727.9,796.2,718.2,795.5,708z"/>
<path class="st2" d="M863.7,274.7c1.8,1.6,3.6,3.2,5.5,5c-1.2,1-3.3,0.4-4.3,2.9c9.4-1.9,17.2,4.3,26.4,3.5c3.6-0.3,6.5,3.5,9.6,5.5
	c2.7,1.8,5.5,3.6,7.3,6.6c0.8,1.3,2.2,2.4,4.4,2.2c-2-8.3-9.7-11-14.9-15.9c3.5-1.9,7.1-3.9,8.4-8.2c0.5-1.6,1.6-1.1,2.8-1
	c11.1,1.4,21.1-0.9,29.2-9c2.5-2.5,3.5-1.6,4.2,1.3c4.9,19-2.4,36.6-20.2,45.7c-19.6,10-39.8,10.4-59.8,3.4
	c-13.6-4.8-24.4-14.3-28.8-29.1c-0.8-2.7-2.2-5-2.6-7.9c-2.3-17.9,8.2-31,25.9-33.3c13.4-1.8,25.8,1.1,36.6,9.3
	c3.4,2.6,6.3,5.8,8.2,9.7c3.8,7.8-0.6,16.6-9,17.8c-8.2,1.2-15.7-1-22.3-6.1C868.5,275.5,866.3,274.5,863.7,274.7z"/>
<path class="st2" d="M885.7,238.5c3.1-14.4,0.3-29.6,5.1-43.8c2.7-7.9,4.8-16.1,10.1-22.8c2.7-3.5,6.6-5.2,10.5-6
	c4.4-0.9,11.9,4.6,13.2,9c2.1,7.5,1,15-1.6,22c-1,2.8-1.9,5.6-2.9,8.4c-5.6,15.8-12,31.3-21,45.6c-0.8,1.3-2.1,3.7-4.4,1
	c-1-1.2-2.4-2.3-3.9-2.9C886.3,246.8,884.3,243.6,885.7,238.5z"/>
<path class="st2" d="M881.6,232.6c0,3.8,1.5,9-0.4,11c-2.2,2.2-7-1-10.8-1.1c-4.6-0.2-10.5,1.3-13.4-1.1c-2.6-2.1-1.5-8.5-2.9-12.7
	c-3.3-10.6-9.6-19.6-16.3-28.5c-2.9-3.8-5.5-7.9-7.5-12.2c-4-9,1.2-16,11.1-15.5c9.3,0.5,16.2,5.8,22.1,12
	C876.2,198,881.4,214.4,881.6,232.6z"/>
<path class="st2" d="M912.1,271.4c-3.3,1.1-5.4,0.3-5.4-3.9c0-2.1-1.2-3.9-2.7-5.6c-3.6-4.3-3.3-7.6,0.4-12
	c6.4-7.7,13.2-14.6,23.9-16c5.5-0.7,10.8-0.3,13.7,4.6c3.2,5.4,2.2,11.5-1,16.7C934.5,265.5,924.9,271.3,912.1,271.4z"/>
<path class="st2" d="M888.2,339c-7.5,0.1-13.8,0-19.9-1.8c-5.8-1.7-9.3-7.1-8.2-12.5c0.6-2.9,1.8-3.9,4.8-3
	c10.6,3.2,21.4,5.4,32.4,3.5c8.5-1.4,16.9-3.1,24.9-6.6c2.3-1,5.2-2.4,6.7,1.1c1.2,3,1.8,6.1-1.4,8.6c-7.1,5.5-15.1,8.6-24,9.8
	C898.1,338.7,892.6,339.1,888.2,339z"/>
<path class="st3" d="M916,232.8c-0.4,0.2-1,0.7-1.2,0.6c-0.7-0.4-0.3-1.1,0-1.7C915.2,232.1,915.6,232.4,916,232.8z"/>
<path class="st2" d="M2321.2,693.7c6.6,10.1,4.4,24.5-4.9,31.6c-1.6,1.3-1.9,2.5-1.7,4.2c0.5,5.4,1.9,10.6,4.5,15.9
	c-3.5,0-4.8-2.6-5.4-4.6c-0.9-3.5-3.2-6.6-2.9-10.3c0.1-1.8-0.6-2.5-2.7-2.4c-3.4,0.1-6.9-0.6-9.4-2.7c-3.2-2.7-6.1-2.9-9.4-0.3
	c3.9,4,9.2,6.8,11.3,12.8c1.6,4.6,0.8,10.8-3.3,13.6c-2.4,1.7-4.7,3.7-7.6,4.5c-0.7,0.2-1.7,0.5-1.7,1.5c0,1.1,1,1.3,1.7,1.5
	c13.7,5.6,27.2,8.4,41.7,1.7c24.3-11.2,36.1-42.1,29.9-64.6c-5.1-18.4-28.5-35.9-46-33.6c-12.2,1.6-19.8,9.5-24.3,20.6
	c-4.7,11.7-2.7,22.9,3.1,33.4c3,5.3,8.6,8.5,15.2,7.7c6.3-0.7,10-4.6,11.7-10.6c1.4-5.2,2.3-10.4-0.2-15.5
	C2320.2,696.8,2320.3,695.4,2321.2,693.7z"/>
<path class="st2" d="M2285.4,693.9c-2.4-8.2,1.7-13.4,4.8-18.7c1.5-2.6,1.1-3.8-1.3-5.1c-9.8-5.2-17.3-13-23.9-21.7
	c-3.9-5.2-7.2-11.1-9.1-17.4c-1.8-5.8-9.1-11.6-13-11.3c-8.2,0.7-14.6,5.9-16.3,13.5c-1.5,7,1.1,13,4.7,18.6
	c6.4,10.2,15.3,18,24.4,25.6C2264.2,684.7,2274.8,687.8,2285.4,693.9z"/>
<path class="st2" d="M2258.1,752.3c9.6,2.7,19.4,3.1,29.2,0.1c4.3-1.3,8.1-4,9.1-8.9c1-4.8-1.9-8-4.8-11.2c-0.6-0.6-1.3-1-2-1.5
	c-6.7-4.4-32-7.8-39.6-5.3c-0.5,0.2-0.9,0.3-1.4,0.5c-4.7,1.9-8.4,4.7-8.9,10.3c-0.5,5.6,3.4,8.7,7.2,11.5
	C2250,750.3,2254,751.4,2258.1,752.3z"/>
<path class="st2" d="M2260.8,720.8c8.8,2.6,17.7,0.9,26.6,0.9c2.9,0,5.1-1.4,2.6-5.2c-2.8-4.3-5.1-8.9-5.2-14.2c0-3-1.5-4.5-3.9-5.7
	c-6.3-3.2-13-5.7-19.1-9.7c-4.5-3-10-1.1-13.5,3.5c-9.2,12.4-5.1,24.3,9.5,29.6C2258.9,720.3,2259.9,720.5,2260.8,720.8z"/>
<path class="st2" d="M2367.6,716.2c-1,6.5-2.6,13.4-5.8,19.6c-5.1,10-11.9,18.7-21.4,24.9c-3.7,2.5-2.9,4.2,0,6.2
	c5.6,4,10.7,2.3,17.4-2.7c11.4-8.5,16.7-20.8,21.8-33c3.3-7.9,1.1-16.5-7-18.3C2369.3,712.3,2368.4,712.8,2367.6,716.2z"/>
<path class="st0" d="M2334.6,325.4c-4.7-6.3-4.8-13.6-3.2-20.7c2.3-10.3,8.2-18.3,17.8-23.6C2335.9,293.1,2332.7,308.3,2334.6,325.4
	z"/>
<path class="st0" d="M2323.2,297.3c-5.6-1.7-11.5-1.3-17-3.4C2312.2,292.8,2318.1,292.4,2323.2,297.3z"/>
<path class="st0" d="M824.1,731.5c6.6,1.2,12.8,0.5,17.9-4.5c3.9-3.8,5.5-3.6,8.4,1c4.1,6.3,8,12.7,8.4,20.5c0,0.6,0.2,1.4,1.4,1.4
	c0.6-10.6-3-19.6-9.8-27.5c-1.1-1.3-2-1.3-0.7-3.5c2.9-5.1,3.7-10.9,2.7-17C851.4,719.8,839.1,726.8,824.1,731.5z"/>
<path class="st0" d="M784.6,715.4c0,0,11,48.9,25.9,52.8c-55.4,10.9-137.4-37.4-245.4,123.8c-70,1.1-74,0-74,0
	S558,694.8,784.6,715.4z"/>
<path class="st0" d="M924.7,335.5c0,0-70.8,10.4-63.7-3.3c-37.1,50.7-64.6,126.9-256.5,98.6c-47.8,51.1-49.7,54.8-49.7,54.8
	S767.5,564.8,924.7,335.5z"/>
<path class="st0" d="M2299.7,352.1c0,0,74.9-0.6,67.8-14.4c37.1,50.7,60.5,137.9,252.5,109.6c47.8,51.1,49.7,54.8,49.7,54.8
	S2456.9,581.5,2299.7,352.1z"/>
</svg>
