<?xml version="1.0" encoding="utf-8"?>
<!-- Generator: Adobe Illustrator 19.0.0, SVG Export Plug-In . SVG Version: 6.00 Build 0)  -->
<svg version="1.1" id="Camada_1" xmlns="http://www.w3.org/2000/svg" xmlns:xlink="http://www.w3.org/1999/xlink" x="0px" y="0px"
	 viewBox="587 74.1 1786 661.3" style="enable-background:new 587 74.1 1786 661.3;" xml:space="preserve">
<style type="text/css">
	.st0{fill:#CCCB2A;stroke:#010002;stroke-miterlimit:10;}
	.st1{fill:#1D1216;}
	.st2{fill:#5B9C8E;stroke:#010002;stroke-miterlimit:10;}
	.st3{fill:#CB5F26;stroke:#010002;stroke-miterlimit:10;}
	.st4{fill:#8D64A0;stroke:#010002;stroke-miterlimit:10;}
	.st5{fill:#CD7BAB;stroke:#010002;stroke-miterlimit:10;}
	.st6{fill:#FFFFFF;stroke:#010002;stroke-miterlimit:10;}
	.st7{fill:#69492C;stroke:#010002;stroke-miterlimit:10;}
	.st8{fill:#C8D12E;stroke:#010002;stroke-miterlimit:10;}
	.st9{fill:#5F2D84;stroke:#010002;stroke-miterlimit:10;}
	.st10{fill:#B94D8F;stroke:#010002;stroke-miterlimit:10;}
	.st11{clip-path:url(#SVGID_2_);}
	.st12{fill:#82B58A;stroke:#010002;stroke-miterlimit:10;}
	.st13{fill:none;stroke:#010002;stroke-miterlimit:10;}
	.st14{clip-path:url(#SVGID_4_);}
	.st15{fill:#FFFFFF;}
	.st16{clip-path:url(#SVGID_6_);}
	.st17{fill:#030104;}
	.st18{clip-path:url(#SVGID_8_);}
	.st19{clip-path:url(#SVGID_10_);}
	.st20{clip-path:url(#SVGID_12_);}
</style>
<rect id="XMLID_60_" x="316.6" y="595.1" class="st0" width="2228.9" height="292.5"/>
<path id="XMLID_68_" class="st1" d="M683.8,594.9c18.9,0,37.7,0,56.6,0c0.9,2-1.2,2.4-2.1,3.2c-13.5,11.6-27.1,23.1-40.7,34.7
	c-0.7,0.6-2.2,0.9-1.7,2.2c0.4,1.2,1.8,0.7,2.8,0.7c18.4,0,36.7,0,55.1,0c0.8,0,1.2,0,1.9-0.6c13.5-12.5,27.1-25,40.8-37.5
	c0.9-0.8,1.6-1.7,2.2-2.6c18.8,0,37.7,0.1,56.5,0.1c0.4,1.5-0.9,2-1.6,2.8c-11.5,11.5-23.1,23-34.6,34.4c-0.8,0.8-2.4,1.5-2.1,2.6
	c0.5,1.6,2.2,0.8,3.4,0.8c18.2,0.1,36.5,0.1,54.7,0.2c0.8,0,1.5,0.3,2-0.6c1.7-3.6,4.9-6,7.5-8.7c9-9.3,17.4-19.1,26.4-28.4
	c0.9-0.9,2-1.7,2.3-3.1c18.8,0,37.7,0,56.5-0.1c0.9,2.7-1.8,3.4-3,4.8c-8.8,10.8-17.7,21.4-26.6,32.1c-0.8,0.9-2.5,1.5-1.8,3
	c0.7,1.4,2.3,0.7,3.5,0.7c15.2,0,30.5-0.4,45.7,0.2c7.4,0.3,11.9-1.9,16-7.9c7.7-11.3,16.2-22,24.4-32.9c18.8,0,37.7,0,56.5,0
	c0.5,1.5-0.7,2.4-1.4,3.4c-7.2,10.9-14.5,21.7-21.7,32.6c-0.8,1.2-2.7,2.5-2,3.9c0.9,1.6,3,0.8,4.6,0.8c14.9,0.1,29.8-0.5,44.6,0.3
	c7.8,0.4,12-2,15.5-8.9c5.5-10.9,12.1-21.3,18.2-31.9c18.8,0,37.6-0.1,56.5-0.1c1,1.4-0.1,2.4-0.7,3.5
	c-5.5,10.9-11.1,21.7-16.5,32.6c-2.1,4.2-1.8,4.6,2.7,4.6c17.6,0,35.1-0.1,52.7,0.1c2.5,0,3.6-1,4.4-3.1
	c5.2-12.6,10.5-25.1,15.7-37.7c18.9,0,37.7,0,56.6,0c0.4,1.2-0.1,2.3-0.5,3.4c-3.7,11.2-7.3,22.3-11.2,33.4c-1,2.9-0.6,3.9,2.7,3.9
	c17.8-0.1,35.7-0.1,53.6,0c2.4,0,3.5-0.7,4-3c3-12.6,6.1-25.1,9.2-37.6c19,0,38,0,57,0c-1.8,12.1-3.4,24.3-5.6,36.3
	c-0.7,3.8,0.4,4.3,3.7,4.3c17.4-0.1,34.9-0.1,52.3,0c3.4,0,4-1.2,4.1-4.2c0.6-12.2,1.6-24.4,3.1-36.5c17.4,0,34.8,0.1,52.1,0.1
	c1.8,0,3.6,0.1,5.4,0.1c-0.2,0.2-0.5,0.4-0.4,0.6c0.1,12.5,0.2,25,0.2,37.5c0,2,1.1,2.3,2.7,2.3c18.3,0,36.7,0,55,0
	c2,0,2.8-0.6,2.6-2.7c-1.2-12.6-2.4-25.2-3.6-37.8c16.9,0,33.8-0.1,50.7-0.1c2.1,0,4.1-0.1,6.2-0.1c1,1,1,2.4,1.2,3.6
	c1.2,6.5,2,13,3.5,19.4c1.2,5.2,0.4,10.6,2.6,15.7c0.6,1.4,1.2,2,2.7,2c18.5,0,37,0,55.4,0c2,0,2.7-0.6,2.1-2.8
	c-2.1-7.3-3.9-14.7-5.8-22.1c-1.4-5.2-3.4-10.3-3.4-15.8c18.9,0,37.7,0,56.6,0c4.2,12.2,8.4,24.4,12.5,36.6c0.9,2.8,2.2,4.1,5.3,4.1
	c17.7-0.1,35.5-0.1,53.2,0c3.5,0,3.4-1,2.2-3.8c-5-11.3-9.8-22.8-14.7-34.2c-0.4-0.9-1.2-1.8-0.2-2.8c18.9,0,37.7,0.1,56.6,0.1
	c0.2,0.5,0.2,1,0.5,1.5c6,11.9,12.5,23.5,18.1,35.6c1.1,2.5,3,3.8,6.2,3.7c17.2-0.2,34.4-0.1,51.6-0.1c1.2,0,2.9,0.5,3.6-0.6
	c0.8-1.3-0.6-2.3-1.3-3.4c-6.7-11.3-13.5-22.6-20.3-33.9c-0.5-0.9-1.5-1.6-0.8-2.8c18.9,0,37.7,0,56.6,0c0.6,1,1.1,2,1.8,3
	c7.8,11.5,15.8,22.9,23.5,34.5c1.5,2.3,3.1,3.3,5.8,3.3c17.7-0.1,35.4,0,53.2-0.1c1,0,2.3,0.5,2.9-0.5c0.8-1.4-0.8-2-1.4-2.9
	c-8.8-11.5-17.6-23-26.4-34.5c-0.6-0.8-2.1-1.4-1-2.9c18.9,0,37.8,0,56.6,0.1c0.4,0.8,0.7,1.7,1.2,2.4c10.5,12.2,21,24.4,31.5,36.6
	c1,1.2,1.8,1.6,3.4,1.6c18-0.1,36,0,53.9,0c1.1,0,2.6,0.5,3.1-0.9c0.3-1.1-1-1.7-1.7-2.4c-10.7-11.4-21.4-22.8-32.1-34.3
	c-0.8-0.8-2.4-1.3-1.8-3.1c18.9,0,37.8,0,56.6,0c0.7,0.9,1.4,1.8,2.2,2.6c12.6,12.6,25.8,24.6,37.9,37.7c0.6,0.6,1,0.5,1.6,0.5
	c18.5-0.1,37-0.1,55.5-0.1c1.1,0,2.6,0.7,3.1-0.7c0.4-1.1-1.1-1.6-1.8-2.2c-13-11.7-25.9-23.4-38.9-35.1c-0.7-0.7-2.4-1-1.3-2.6
	c18.9,0,37.8,0,56.7,0c0.4,1.4,1.5,2,2.5,2.8c14.7,12.4,29.4,24.8,44.1,37.3c0.7,0.6,1.1,0.7,1.9,0.7c18-0.1,36-0.1,53.9-0.1
	c1.3,0,2.8,0.6,4.2-0.8c-1.8-1.5-3.4-3-5.2-4.4c-14.3-11.2-28.7-22.4-43-33.6c-0.7-0.5-1.2-1-0.8-1.9c17.3,0,34.7,0.1,52,0
	c3,0,5.1,0.9,7.5,2.7c9.8,7.5,19.8,14.8,29.9,21.9c2.1,1.5,3.3,3,3,5.7c-0.4,3.4,1.4,8-0.8,10c-1.9,1.7-6.4,0.5-9.7,0.6
	c-8.7,0-17.3,0-26,0c-1,0-2.3-0.6-2.8,0.6c-0.5,1.4,1.1,1.9,1.9,2.6c11.5,9,22.9,18.1,34.5,27c2.3,1.7,3.2,3.5,2.9,6.1
	c-0.4,3.4,1.5,8-0.8,10c-2,1.7-6.4,0.5-9.8,0.5c-10.4,0-20.7,0-31.1,0c-1,0-2.4-0.4-2.8,0.6c-0.6,1.4,1,1.9,1.8,2.5
	c12.8,10.8,25.6,21.7,38.7,32.4c3.1,2.5,4.2,5,4.1,8.8c-0.3,8.9-0.1,8.9-8.8,8.9c-12.9,0-25.9-0.1-38.8-0.1c-1,0-2.3-0.4-2.7,0.8
	c-0.5,1.5,0.9,2,1.7,2.7c14.8,13.4,29.5,26.8,44.4,40c3,2.7,4.5,5.4,4.3,9.6c-0.4,7.9-0.1,7.9-7.8,7.9c-17.3,0-34.7,0.1-52,0.1
	c-0.8-1-1.5-2-2.4-2.9c-18.9-18.5-37.9-37-56.8-55.6c-2-2-4.1-2.7-6.8-2.7c-19.6,0.1-39.3,0-58.9,0.1c-1.3,0-3.1-0.7-3.8,0.9
	c-0.6,1.4,1.1,2.2,1.9,3.1c16.6,17.9,33.3,35.7,49.9,53.6c0.9,1,3,1.4,2.3,3.5c-24.7,0-49.5,0-74.2-0.1c-0.1-1.4-1-2.3-1.8-3.3
	c-15.9-18.6-31.8-37.1-47.6-55.7c-1.3-1.6-2.6-2.1-4.6-2.1c-20.7,0.1-41.4,0-62.1,0c-1,0-2.4-0.4-2.9,0.5c-0.7,1.2,0.6,2.1,1.3,3
	c13.9,18.2,27.9,36.3,41.8,54.4c0.7,0.9,2.2,1.7,1,3.3c-24.5,0-49,0-73.5,0c-0.2-0.6-0.2-1.3-0.6-1.8
	c-12.9-18.9-25.8-37.7-38.7-56.5c-1.4-2.1-3-2.8-5.5-2.8c-20.2,0.1-40.3,0-60.5,0.1c-1.1,0-2.5-0.5-3.3,0.6c-1,1.4,0.5,2.4,1.1,3.4
	c10.6,17.8,21.2,35.5,31.8,53.3c0.7,1.1,2.5,2.2,0.9,3.9c-24.3,0-48.6,0-72.9,0c-10-19.3-19.9-38.5-29.8-57.8
	c-1-1.9-1.8-3.5-4.5-3.5c-21,0.1-41.9,0.1-62.9,0c-3,0-3.2,1-2.1,3.4c8.3,19.2,16.6,38.4,24.9,57.7c-25,0-50.1,0-75.1,0
	c0-0.5,0.3-1.1,0.1-1.5c-6.6-19-13.2-38.1-19.8-57.1c-0.7-2-1.9-2.5-3.8-2.5c-20.7,0-41.3,0.1-62,0c-3,0-3.5,1-2.8,3.8
	c4.1,15.2,7.9,30.5,12.1,45.7c1.1,3.9,1.4,8.1,3.7,11.7c-25.3,0-50.6,0-75.9,0c-0.1-1.8-0.1-3.6-0.4-5.4
	c-3.1-17.5-6.3-34.9-9.2-52.4c-0.5-2.9-1.7-3.4-4.3-3.4c-20.3,0.1-40.6,0.1-61,0c-3.5,0-4.4,1.1-4.1,4.5c1.8,18.9,3.4,37.8,5.1,56.7
	c-74.3-0.6-148.6-0.6-223,0c0-0.5,0-1,0-1.4c0.1-0.4,0.3-0.9,0.4-1.3c0.7-0.5,0.7-1.3,0.8-2.1c1.2-7.1,2.4-14.2,3.5-21.3
	c1.6-10.7,3.8-21.2,4.8-32c0.4-0.5,0.5-1,0.3-1.6c-0.2-2.8-2.4-1.4-3.5-1.4c-20.2-0.1-40.4-0.1-60.6-0.1c-1.5,0-3.5,0.7-4.3-1.4
	c0.3-0.4,0.2-0.7-0.1-1c1.5-1.5,1.5-3.4,1.7-5.4l0,0c2.2-1.4,0.7-3.6,1.2-5.4c0.6-0.7,1.2-1.4-0.3-1.9c2-0.9,1.7-2.7,1.8-4.3
	c1.2-0.9,0.4-2.4,0.7-3.5c2.3-8.6,4-17.5,6.5-26c1.2-3.9-0.3-3.9-3.2-3.9c-18.6,0-37.2,0.1-55.8-0.1c-3.5,0-5.3,0.9-5.5,4.4
	c-2.2,2.9-3.3,6.1-3.2,9.8c-0.5,0.4-0.6,1-0.5,1.6c-0.7,0.3-0.8,0.8-0.6,1.5c-1.9,1.5-0.4,4-1.8,5.7c-1.3,0.2-1.4,1.7-1.6,2.3
	c-2.2,8.1-5.5,15.9-7.8,24c-0.9,3.3-2.4,4-5.5,3.9c-19.2-0.2-38.3-0.1-57.5-0.1c-2,0-4.8,1-6-0.5c-1.4-1.7,0.9-3.6,1.8-5.4
	c0.4-0.8,0.3-2,0.7-2.9c5.6-13.4,11.1-26.7,16.7-40.1c1.6-3.9,1.6-4.1-2.6-4.1c-18.5,0-37,0.1-55.5-0.1c-3.4,0-5.2,0.9-6.8,4.1
	c-7.5,15.5-15.3,30.8-23,46.2c-0.9,1.8-1.8,2.9-4.3,2.9c-20.7-0.1-41.4-0.1-62.1-0.1c-3.8,0-4-0.3-2.1-3.6
	c9-15.1,17.4-30.5,26.8-45.3c0.7-1,1.5-2.3,1-3.5c-0.6-1.3-2.1-0.6-3.2-0.6c-18.4,0-36.8,0.1-55.1-0.1c-4.1,0-6.5,1.3-8.7,4.7
	c-10.3,15.9-20.9,31.6-31.3,47.4c-0.8,1.2-1.6,1-2.6,1c-21.1,0-42.2,0-63.3,0c-0.9,0-1.9,0.4-2.5-0.5c-0.8-1.2,0.4-1.9,1-2.6
	c4.5-5.8,9.1-11.6,13.5-17.4c7.2-9.6,14.3-19.3,21.5-29c0.6-0.8,1.6-1.6,1.2-2.6c-0.4-1.3-1.8-0.8-2.7-0.8c-19.4,0-38.8,0-58.3,0
	c-1.7,0-2.6,0.4-3.8,1.8c-13.1,15.8-26.4,31.5-39.6,47.3c-2.3,2.7-4.9,3.9-8.6,3.9c-19.7-0.1-39.4,0-59-0.1c-1.1,0-2.6,0.6-3.2-0.6
	c-0.8-1.5,1-2.2,1.7-3.1c14.1-15.3,28.2-30.6,42.4-46c0.6-0.7,1.9-1.2,1.5-2.5c-0.5-1.3-1.8-0.9-2.7-0.9c-19.4,0-38.8,0-58.2,0
	c-1.5,0-2.5,0.4-3.6,1.6c-15.8,15.8-31.8,31.5-47.7,47.3c-2.7,2.7-5.7,4.2-9.7,4.1c-10.1-0.3-20.2-0.1-30.3-0.1c-9.3,0-18.6,0-28,0
	c-1.2,0-2.9,0.7-3.4-0.8c-0.5-1.4,1.4-1.6,2.1-2.3c1.2-1.2,2.5-2.3,3.7-3.4c15.3-15.1,32-28.6,47-43.9c0.6-0.6,2-0.4,1.6-1.7
	c-0.4-1.2-1.5-0.7-2.4-0.7c-19.5,0-39.1,0.1-58.6,0.1c-1,0-2.2-0.5-2.9,0.6c-1.6,2.8-4.5,3.9-6.8,5.9
	c-17.9,15.2-35.8,30.4-53.6,45.7c-0.9,0.7-1.7,0.9-2.8,0.9c-20.6-0.1-41.2,0-61.7-0.1c-1.2,0-3,0.7-3.5-0.8
	c-0.5-1.4,1.5-1.9,2.4-2.6c19.5-15.6,39.1-31.1,58.7-46.7c0.7-0.6,2.2-1,1.8-2.2c-0.4-1.3-1.8-0.8-2.7-0.8
	c-19.5,0-39.1,0.1-58.6,0.2c-1,0-2-0.4-2.8,0.7c-2.1,2.8-5.3,4.2-8.1,6.3c-20,14.6-39.4,29.9-59.7,44.1c-1.8,1.2-3.3,1.7-5.1,1.8
	c-18.4,0-36.8,0-55.1,0c0-2.6,0-5.2,0-7.8c2.7-1.8,5.3-3.6,8-5.4c17.9-12.4,35.7-24.9,53.6-37.3c0.7-0.5,1.8-0.7,1.3-1.8
	c-0.4-1.1-1.5-0.7-2.4-0.7c-18.7,0-37.5,0-56.2,0.1c-1.4,0-3.1-0.7-4.3,0.8c0-0.8,0-1.6,0-2.3c1.1,1.4,2,0.4,2.9-0.2
	c21.2-14.1,42.4-28.1,63.6-42.2c0.9-0.6,2.6-0.8,2.2-2.2c-0.4-1.5-2-0.8-3-0.8c-16.7,0-33.4,0-50.1,0c-1,0-2,0.5-2.9-0.4
	c0.2-1,0.8-1.5,1.6-2c16.4-10.1,32.7-20.3,49-30.6c3.8-2.4,8.3-4,11.3-7.7c18.9,0,37.7,0,56.6,0c0.6,1.1-0.2,1.5-1,2.1
	c-13.5,8.9-27,17.7-40.6,26.6c-5.5,3.6-10.9,7.3-17.3,11.5c1.9,0.3,2.6,0.4,3.3,0.4c17.6,0,35.2,0,52.7,0c2.4,0,4.3-0.1,6.6-1.8
	c13-9.5,26.3-18.5,39.4-27.8c5.1-3.6,10.7-6.6,15.1-11.1c18.7,0,37.4,0,56.1,0c1.3,1.9-0.8,2.2-1.6,2.8
	c-7.4,5.6-14.8,11.1-22.3,16.6c-8.4,6.2-16.8,12.4-25.2,18.5c-0.9,0.6-2.5,0.8-2,2.3c0.4,1.2,1.8,0.6,2.8,0.6c17.3,0,34.6,0,52,0.1
	c2.9,0,5-0.3,7.5-2.4c10.6-8.9,21.6-17.2,32.4-25.8C674,603.3,679.4,599.6,683.8,594.9z M1473.6,735.2c1.5,0.5,1.5-0.2,1.1-1.3
	c0.2-0.9,0.4-1.8,0.5-2.6c1.1-14.7,2.1-29.4,3.4-44.1c0.4-4-1-4.8-4.6-4.7c-18.2,0.1-36.5,0.1-54.7,0.1c-5.2,0-5.2,0-5.4,5.4
	c-1.5,3.6-2.3,7.5-2.9,11.3c-1.5,9.3-2.8,18.7-4.4,28c-0.3,2-1.9,4.3-0.1,6.5c-0.3,3.1,2.2,1.8,3.4,1.9c20.2,0.1,40.5,0.1,60.7,0.1
	C1471.6,735.6,1472.6,735.3,1473.6,735.2z M1507.5,797.1c10.7,0,21.5-0.1,32.2,0c3.3,0,4.6-1,4.6-4.5c-0.2-17.7-0.3-35.4-0.3-53.2
	c0-2.9-0.7-4.1-3.9-4c-20.3,0.1-40.6,0.1-60.9,0c-2.9,0-4,0.8-4.2,3.9c-1.2,17.4-2.7,34.8-4.1,52.2c-0.4,5.1-0.1,5.5,5.2,5.5
	C1486.5,797.1,1497,797.1,1507.5,797.1z M1992.9,735.6c10.3,0,20.7-0.1,31,0c3.2,0,3.6-0.8,1.9-3.5c-5.2-8.4-10.1-16.8-15.2-25.2
	c-4-6.6-7.9-13.3-12-19.9c-1.4-2.2-2.5-4.6-6-4.5c-19.1,0.2-38.3,0.1-57.4,0.1c-2.7,0-3.5,0.5-2.1,3.3c8.1,15.5,16.1,31,24,46.6
	c1.2,2.4,2.8,3.3,5.4,3.2C1972.7,735.5,1982.8,735.6,1992.9,735.6z M2406.7,735.6c9.5,0,18.9,0.1,28.3,0c2,0,5,1.1,5.7-0.7
	c0.7-2-2.2-3.4-3.8-4.8c-15.7-13.4-30.8-27.5-46.1-41.4c-4-3.6-8-6.5-14.2-6.3c-17.3,0.6-34.7,0.2-52,0.2c-1.2,0-3-0.7-3.6,0.6
	c-0.7,1.6,1.3,2.3,2.2,3.2c15.6,15.3,31.3,30.5,46.8,46c2.6,2.6,5,3.4,8.4,3.3C2387.8,735.5,2397.2,735.6,2406.7,735.6z
	 M2268.2,735.5L2268.2,735.5c10.4,0,20.7,0,31.1,0c1.1,0,2.7,0.5,3.2-0.6c0.8-1.5-1-2.2-1.8-3.1c-3.6-3.9-7.2-7.8-10.8-11.7
	c-11.2-11.9-22.5-23.8-33.6-35.8c-1.9-2-3.8-1.8-5.9-1.8c-18.2,0-36.5,0-54.7,0c-1.3,0-3.3-0.7-3.9,0.8c-0.6,1.4,1,2.7,1.9,3.8
	c4.6,5.3,9.4,10.6,14,16c8.5,10,17,20,25.4,30.1c1.5,1.8,3.1,2.3,5.3,2.3C2248.3,735.5,2258.2,735.5,2268.2,735.5z M2130.3,735.5
	c10.5,0,21,0,31.4,0c1,0,2.2,0.3,2.8-0.7c0.6-1.2-0.5-1.9-1.1-2.6c-2.7-3.6-5.5-7.2-8.2-10.8c-8.9-11.6-17.8-23.2-26.8-34.7
	c-1.4-1.8-2.4-4.1-5.5-4.1c-19.3,0.1-38.6,0-57.8,0.1c-1.1,0-2.5-0.5-3.1,0.8c-0.6,1.2,0.7,1.9,1.2,2.6
	c10.6,15.6,21.3,31.1,31.9,46.8c1.4,2.1,3,2.7,5.4,2.7C2110.3,735.5,2120.3,735.5,2130.3,735.5z M1855,735.5c10.3,0,20.7,0,31,0
	c1.7,0,3.7,0.2,2.4-2.6c-6.9-16-13.9-32-20.7-48.1c-0.7-1.6-1.6-2.3-3.5-2.3c-19.5,0.1-39.1,0.1-58.6,0c-2.8,0-3.3,0.9-2.3,3.4
	c5.4,15.2,10.7,30.5,15.8,45.8c0.9,2.7,2.2,3.9,5.2,3.8C1834.6,735.4,1844.8,735.5,1855,735.5z M1578.1,735.5
	c10.2,0,20.4-0.1,30.6,0.1c3.2,0.1,4.3-0.9,4-4.2c-1.5-15.2-2.8-30.4-4.2-45.6c-0.2-2.3-0.8-3.4-3.5-3.4c-19.3,0.1-38.5,0.1-57.8,0
	c-3,0-3.7,1-3.6,3.8c0.2,15.3,0.3,30.5,0.3,45.8c0,2.8,0.9,3.5,3.6,3.5C1557.7,735.5,1567.9,735.5,1578.1,735.5z M1716.2,735.5
	c10.4,0,20.7-0.1,31.1,0c2.9,0,4-0.7,3.1-3.8c-4-15.1-8-30.3-11.9-45.4c-0.7-2.9-2.1-3.9-5.1-3.9c-15.8,0.1-31.6,0.1-47.4,0.1
	c-3.5,0-7,0.1-10.5,0c-2.1,0-2.8,0.8-2.1,2.8c1.2,3.3,1.5,6.9,2,10.4c1.8,12.4,4.4,24.7,6.3,37.1c0.4,2.5,1.6,2.8,3.7,2.7
	C1695.8,735.5,1706,735.5,1716.2,735.5z M2156.5,682.3c9.6,0,19.1,0,28.7,0c1,0,2.2,0.4,2.8-0.8c0.5-1-0.4-1.6-1-2.3
	c-12.1-14.1-24.2-28.2-36.2-42.3c-1-1.1-1.9-1.3-3.3-1.3c-18,0.1-36,0-53.9,0.1c-1.1,0-2.6-0.7-3.2,0.6c-0.6,1.2,0.8,2,1.5,2.9
	c10.3,13.4,20.7,26.8,30.9,40.3c1.7,2.3,3.5,3,6.2,2.9C2138.1,682.3,2147.3,682.3,2156.5,682.3z M478.4,682.3L478.4,682.3
	c9.2,0,18.4,0,27.6,0c2.1,0,4-0.3,5.8-1.6c14.3-10.7,28.8-21.3,43.1-32c4.5-3.4,9-6.8,13.6-10.2c0.7-0.5,1.8-1,1.6-2
	c-0.3-1.4-1.7-0.7-2.6-0.8c-0.8-0.1-1.6,0-2.3,0c-16.2,0-32.3,0.1-48.5-0.1c-3,0-5.2,0.7-7.6,2.3c-19.6,13.8-39.3,27.5-58.9,41.2
	c-0.9,0.6-2.6,0.9-2.2,2.3c0.5,1.6,2.2,0.9,3.4,0.9C460.3,682.4,469.4,682.3,478.4,682.3z M865.8,682.3c8.9,0,17.9-0.2,26.8,0.1
	c3.5,0.1,5.8-1.1,7.9-3.7c10.9-13.2,21.9-26.2,32.9-39.3c0.8-0.9,2.4-1.8,1.6-3.2c-0.7-1.4-2.4-0.6-3.6-0.6c-18-0.1-36-0.1-53.9-0.3
	c-1.5,0-2.1,0.7-2.8,1.5c-12.9,14-25.8,27.9-38.7,41.9c-0.7,0.7-1.9,1.4-1.5,2.5c0.5,1.5,1.9,1,3,1
	C846.9,682.3,856.4,682.3,865.8,682.3z M692.3,635.7c-0.8,0-1.4-0.1-2-0.1c-17.6,0-35.2,0-52.8,0c-2.2,0-4.3-0.4-6.4,1.3
	C613.7,651.1,596,665,578.4,679c-0.8,0.6-2.1,1.1-1.8,2.3c0.4,1.5,1.9,1,3,1c18.9,0,37.8,0,56.6,0c1.7,0,3.2-0.3,4.6-1.5
	c16-13.7,32-27.3,48.1-40.9C690.3,638.8,691.7,637.7,692.3,635.7z M2414.8,682.3c9.4,0,18.9,0,28.3,0c1,0,2.2,0.4,2.8-0.8
	c0.6-1.3-0.8-1.7-1.5-2.3c-16.7-14.1-33.4-28.1-50.1-42.1c-0.9-0.8-1.8-1.6-3.4-1.6c-18.1,0.1-36.2,0.1-54.3,0.2
	c-1,0-2.3-0.5-2.8,0.6c-0.6,1.4,0.9,1.9,1.7,2.7c14.9,13.4,29.8,26.8,44.6,40.4c2.6,2.4,5.1,3.1,8.3,3
	C2397.2,682.3,2406,682.3,2414.8,682.3z M736.9,682.3c9.2,0,18.4,0,27.6,0c2.5,0,4.3-0.7,6.2-2.5c13.6-13.6,27.4-27.2,41.1-40.7
	c0.8-0.8,2.3-1.5,1.9-2.7c-0.5-1.6-2.2-0.7-3.4-0.7c-17.9-0.1-35.7,0-53.6-0.2c-1.7,0-2.7,0.8-3.6,1.6c-15.3,14-30.5,28-45.6,42
	c-0.7,0.6-2,1.1-1.5,2.4c0.5,1.2,1.8,0.8,2.8,0.8C718,682.4,727.4,682.3,736.9,682.3z M1898.4,682.3c9.4,0,18.9,0,28.3,0
	c4.3,0,4.4-0.3,2.5-4c-7-13.5-14.4-26.8-20.9-40.6c-0.8-1.7-1.9-2.1-3.7-2.1c-18.1,0.1-36.2,0.1-54.3,0c-3,0-3.6,0.8-2.3,3.6
	c5.9,13.4,11.6,26.8,17.3,40.2c1,2.3,2.4,3,4.7,2.9C1879.5,682.3,1888.9,682.3,1898.4,682.3z M1124.1,682.3c9.4,0,18.9-0.1,28.3,0.1
	c2.6,0,3.9-0.8,5.1-3.1c6.5-13.2,13.1-26.3,19.7-39.5c1.9-3.8,1.8-4.1-2.7-4.1c-17.5,0-34.9,0.1-52.4-0.1c-2.8,0-4.2,1-5.4,3.2
	c-7.7,13.3-15.5,26.5-23.3,39.8c-2,3.3-1.7,3.8,2.3,3.8C1105.2,682.4,1114.6,682.3,1124.1,682.3z M995,682.3c9.3,0,18.6,0,27.9,0
	c2.2,0,3.8-0.4,5.2-2.5c9.1-13.8,18.4-27.5,27.5-41.2c0.5-0.7,1.1-1.7,1-2.4c-0.4-1.3-1.8-0.7-2.7-0.7c-17.8,0-35.7,0-53.5-0.1
	c-2.4,0-3.9,1-5.2,2.7c-10.1,13.5-20.2,27.1-30.3,40.6c-0.6,0.8-1.7,1.5-1.3,2.6c0.6,1.4,2,0.9,3.1,0.9
	C976.2,682.4,985.6,682.3,995,682.3z M2285.3,682.3c9.7,0,19.4,0,29.1,0c0.9,0,1.9,0.3,2.5-0.6c0.7-1.3-0.6-1.8-1.3-2.5
	c-14.4-14.1-28.8-28.2-43.3-42.2c-0.7-0.7-1.3-1.5-2.8-1.5c-18.1,0.2-36.2,0.1-54.3,0.2c-1,0-2.3-0.6-2.8,0.5
	c-0.7,1.3,0.8,2,1.6,2.8c12.5,13.4,25.2,26.7,37.6,40.2c2.3,2.4,4.6,3.3,7.8,3.3C2268,682.2,2276.6,682.3,2285.3,682.3z M1640,682.3
	c9.6,0,19.1,0,28.7,0c2,0,4.1,0.2,3.5-3c-2.5-13.6-4.9-27.2-7.2-40.8c-0.4-2.6-1.8-2.9-4-2.9c-17.5,0.1-34.9,0.2-52.4,0
	c-3.9,0-4.9,1.2-4.5,4.8c1.3,12.7,2.6,25.5,3.6,38.2c0.3,3.2,1.5,3.8,4.3,3.8C1621.4,682.3,1630.7,682.3,1640,682.3z M1381.9,682.3
	c9.4,0,18.9-0.1,28.3,0c2.7,0,4.1-0.5,4.6-3.7c2-13.4,4.3-26.8,6.6-40.2c0.5-2.8-1-2.9-3.1-2.9c-18,0-36,0.1-54,0
	c-2.6,0-3.6,1-4.1,3.4c-3.2,13.2-6.4,26.4-9.8,39.6c-0.8,3,0,3.9,3,3.8C1363,682.2,1372.5,682.3,1381.9,682.3z M1769.5,682.3
	c9.4,0,18.9-0.1,28.3,0c3,0,3.9-0.7,2.8-3.8c-4.9-13.6-9.5-27.2-14.2-40.8c-0.6-1.7-1.5-2.2-3.1-2.2c-18.2,0-36.5,0-54.7,0
	c-2.3,0-3,0.7-2.3,3c3.6,13.5,7.2,27,10.6,40.5c0.7,2.6,1.9,3.2,4.3,3.2C1750.6,682.3,1760.1,682.3,1769.5,682.3z M2027.6,682.3
	c9.6,0,19.1,0,28.7,0c2.9,0,3.6-0.8,1.8-3.3c-9.5-13.8-18.9-27.7-28.4-41.5c-0.8-1.2-1.6-2-3.4-1.9c-18.1,0.1-36.2,0.1-54.3,0
	c-2.8,0-3.5,0.7-2,3.3c8.2,13.6,16.4,27.2,24.5,40.8c1.3,2.2,2.9,2.6,5.1,2.6C2009,682.3,2018.3,682.3,2027.6,682.3z M1253.2,682.3
	c8.9,0,17.9-0.2,26.8,0.1c3.8,0.1,5.5-1.2,6.6-4.7c3.9-12.9,8.6-25.6,12.5-38.6c0.9-2.9,0.9-3.5-2.2-3.5c-17.7,0.1-35.5,0.1-53.2,0
	c-2.8,0-4.5,1.2-5.3,3.5c-4.8,13.3-10.7,26.2-16.1,39.3c-1.3,3.1-1,4.1,2.6,4C1234.3,682.2,1243.8,682.3,1253.2,682.3z
	 M1511.4,682.3c9.3,0,18.6-0.1,27.9,0.1c3.2,0.1,4.2-1,4.2-4.2c-0.3-12.9-0.5-25.9-0.4-38.8c0-3.3-1.3-3.8-4.1-3.8
	c-17.3,0.1-34.6,0.1-52,0c-3.1,0-4.3,0.9-4.5,4c-0.9,13-1.8,26-3,39c-0.3,3.2,0.8,3.8,3.6,3.8C1492.5,682.3,1502,682.3,1511.4,682.3
	z"/>
<path id="XMLID_33_" class="st1" d="M380,778.2c6.8-4,12.8-9.1,19.1-13.7c12.4-9.1,24.6-18.4,36.9-27.6c1.4-1.1,3.1-1.2,4.8-1.2
	c20.3,0,40.6,0,60.9,0c1.1,0,2.6-0.6,3,0.9c0.4,1.4-1.2,1.8-2,2.5c-19.9,15.7-39.9,31.3-59.6,47.2c-4.1,3.3-8.9,5.9-12,10.5
	c-17,0-34.1,0.1-51.1,0.1C380,790.6,380,784.4,380,778.2z"/>
<path id="XMLID_32_" class="st1" d="M505.9,796.8c-0.6-1.5,0.7-2,1.6-2.7c20.3-17.2,40.6-34.4,60.9-51.7c1-0.8,1.9-1.7,2.8-2.6
	c2.9-2.8,5.9-4.3,10.3-4.2c19.5,0.3,39.1,0.1,58.6,0.1c1.2,0,2.9-0.7,3.5,0.8c0.6,1.5-1.2,2.1-2.1,2.9
	c-19.7,18.1-39.5,36.1-59.3,54.2c-1,0.9-2,1.6-2.1,3.1C555.4,796.7,530.7,796.7,505.9,796.8z"/>
<path id="XMLID_31_" class="st1" d="M1247.6,796.8c-0.2-3.2,1.4-6,2.4-8.8c5.5-16.7,11.1-33.3,16.5-49.9c0.6-1.8,1.5-2.4,3.3-2.4
	c21,0,42.1,0.1,63.1,0c2.8,0,3.3,1.1,2.6,3.6c-0.8,2.8-1.8,5.6-1.8,8.6c-0.4,0.3-0.4,0.6-0.2,1.1c-0.3,0.7-0.7,1.4-0.9,2.1
	c-3.3,13.1-6.5,26.3-9.8,39.4c-0.6,2.2-0.3,4.7-2.3,6.4C1296.2,796.8,1271.9,796.8,1247.6,796.8z"/>
<path id="XMLID_30_" class="st1" d="M802.6,796.8c-0.4-1.2,0.4-1.9,1.1-2.7c15.7-18.7,31.5-37.3,47.1-56.1c1.5-1.8,3.1-2.4,5.3-2.4
	c20.2,0.1,40.3,0,60.5,0.1c1.3,0,3.1-0.7,3.8,0.9c0.7,1.4-0.9,2.3-1.6,3.3c-13.1,17.5-26.1,34.9-39.3,52.4c-1.1,1.4-2.7,2.5-2.7,4.5
	C852.1,796.7,827.4,796.7,802.6,796.8z"/>
<path id="XMLID_29_" class="st1" d="M1100,793.6c6-10.4,10.9-21.4,16.4-32c3.8-7.5,7.6-15,11.2-22.6c1.1-2.4,2.6-3.4,5.4-3.4
	c20.4,0.1,40.9,0.1,61.4,0c3.6,0,3.9,1,2.6,4c-7.4,17.6-14.8,35.3-22.1,53c-0.5,1.3-0.8,2.7-1.2,4c-24.8,0-49.5,0-74.3,0
	c-0.1-0.5-0.2-1-0.3-1.5C1099.6,794.8,1100,794.3,1100,793.6z"/>
<path id="XMLID_28_" class="st1" d="M951.6,796.8c-1.7-1.3-0.1-2.3,0.5-3.2c12.3-18.5,24.8-37,37-55.5c1.3-2,2.9-2.5,5.2-2.5
	c20.1,0.1,40.1,0,60.2,0c5.2,0,5.3,0.1,2.7,4.8c-0.5,0.9-0.9,1.9-1.3,2.8l-0.1,0.1c-1.5,1.5-2.4,3.4-3.1,5.4l0,0
	c-1.3,1.3-2.3,2.7-2.4,4.6c-0.2,0.3-0.5,0.5-0.7,0.8c-3.7,4.7-6.1,10.1-9.2,15.2c-5.6,9.1-10.4,18.7-16.5,27.5
	C999.7,796.8,975.7,796.8,951.6,796.8z"/>
<path id="XMLID_27_" class="st1" d="M654.9,796.8c-1.5-1.2-0.2-1.9,0.5-2.7c19.1-19,38.2-37.9,57.3-56.9c1.2-1.2,2.5-1.6,4.2-1.6
	c20.7,0,41.4,0,62.1,0c1,0,2.2-0.5,2.8,0.7c0.5,1.2-0.7,1.8-1.3,2.5c-14.7,15.8-29.4,31.6-44.1,47.5c-3.2,3.4-6.2,6.9-9.3,10.3
	C703,796.7,678.9,796.8,654.9,796.8z"/>
<g id="XMLID_91_">
	<path id="XMLID_82_" class="st2" d="M2077.6,668.6c-63.7-105.9-64.5-248.8-10.5-359.7c1.2-2.5,5-0.3,3.8,2.2l0,0
		c-53.3,109.5-52.3,250.8,10.5,355.3"/>
	<g id="XMLID_90_">
		<path id="XMLID_81_" class="st3" d="M2054.1,298.4c0,0,2.5-37.5,11.2-60.1c8.7-22.6,35.6-43.6,61.1-30.8s25.1,54.2,5,69.8
			C2111.4,293,2066.2,297.5,2054.1,298.4z"/>
		<path id="XMLID_80_" class="st4" d="M2076.7,255c0,0-0.7,1.4-1.8,3.9c-1.2,2.4-2.8,6-5,10.2s-4.4,9.1-7,14.3c-1.3,2.6-2.7,5.3-4,8
			c-0.7,1.4-1.4,2.7-2.1,4.1l-0.5,1c-0.2,0.4-0.2,0.6-0.2,0.7c0,0,0,0.1,0-0.1c-0.1-0.2-0.3-0.5-0.5-0.5c-0.3-0.1,0,0,0.3-0.1
			c2.4-0.6,5.3-2.3,7.9-3.7c2.6-1.5,5.2-3.1,7.6-4.6c4.9-3.1,9.5-6,13.4-8.6s7.2-4.7,9.5-6.2s3.6-2.3,3.6-2.3s-1.2,1.1-3.3,2.8
			c-2.1,1.7-5.1,4.3-8.8,7.1c-3.7,2.8-8.1,6.2-12.9,9.5c-2.4,1.6-4.9,3.4-7.6,4.9c-1.3,0.8-2.7,1.6-4.1,2.3
			c-1.5,0.7-2.8,1.5-4.7,1.9c-0.5,0.1-1,0.2-2-0.1c-0.5-0.2-1.1-0.8-1.2-1.3c-0.2-0.6-0.1-1-0.1-1.3c0.1-0.6,0.3-1.2,0.5-1.5
			c0.2-0.5,0.4-0.7,0.6-1.1c0.7-1.4,1.5-2.7,2.2-4.1c1.5-2.7,2.9-5.4,4.3-8c2.8-5.1,5.5-9.9,7.9-13.9c2.4-4,4.5-7.3,6-9.6
			C2075.8,256.4,2076.7,255,2076.7,255z"/>
	</g>
	<g id="XMLID_89_">
		<path id="XMLID_79_" class="st5" d="M2056.6,303.5c0,0,31.8-19.9,55.3-26.1c23.4-6.2,56.2,3.3,60.7,31.5
			c4.6,28.2-29.2,52.1-53.6,45S2064.4,312.8,2056.6,303.5z"/>
		<path id="XMLID_78_" class="st4" d="M2104.9,296.4c0,0-1.5,0.3-4.2,0.8c-2.7,0.5-6.5,1.2-11.2,1.9c-4.6,0.7-10,1.8-15.7,2.7
			c-2.9,0.5-5.8,0.9-8.9,1.4c-1.5,0.2-3,0.5-4.6,0.7l-1.1,0.2c-0.4,0.1-0.6,0.2-0.7,0.2c0,0,0,0.1,0.1-0.1c0.1-0.1,0.2-0.5,0.1-0.7
			c-0.1-0.3,0,0,0.2,0.2c1.9,1.6,5,3,7.6,4.2c2.8,1.2,5.5,2.4,8.2,3.5c5.4,2.1,10.5,4.2,14.9,5.8c4.4,1.7,8,3.1,10.6,4.1
			c2.5,1,4,1.6,4,1.6s-1.5-0.3-4.2-1c-2.6-0.7-6.4-1.6-10.9-3s-9.7-2.9-15.3-4.9c-2.8-1-5.6-2-8.5-3.3c-1.4-0.6-2.9-1.3-4.3-2
			c-1.4-0.8-2.8-1.4-4.3-2.7c-0.3-0.4-0.8-0.7-1.1-1.7c-0.1-0.5,0-1.3,0.4-1.8s0.7-0.7,1-0.8c0.6-0.3,1.2-0.4,1.5-0.5
			c0.5-0.1,0.8-0.1,1.2-0.2c1.5-0.2,3.1-0.4,4.6-0.6c3.1-0.4,6.1-0.8,9-1.2c5.8-0.7,11.3-1.3,15.9-1.8c4.7-0.4,8.6-0.6,11.3-0.8
			C2103.4,296.5,2104.9,296.4,2104.9,296.4z"/>
	</g>
	<g id="XMLID_88_">
		<path id="XMLID_77_" class="st3" d="M2063.5,302.1c0,0,28.6,24.4,41.5,44.9s13.6,54.6-11.9,67.4s-58.4-12.3-59-37.7
			C2033.6,351.3,2057,312.4,2063.5,302.1z"/>
		<path id="XMLID_76_" class="st4" d="M2084.8,346.1c0,0-0.7-1.4-2-3.8c-1.2-2.4-3.1-5.9-5.2-10.1c-2-4.2-4.7-9-7.3-14.2
			c-1.3-2.6-2.6-5.3-4-8c-0.7-1.4-1.4-2.8-2-4.1l-0.5-1c-0.2-0.4-0.3-0.5-0.4-0.6c0,0-0.1,0,0.1,0.1s0.5,0,0.7-0.1
			c0.2-0.2,0,0-0.1,0.3c-1,2.3-1.4,5.6-1.7,8.6c-0.3,3-0.6,6-0.8,8.9c-0.4,5.8-0.8,11.2-1.1,15.9c-0.3,4.7-0.5,8.6-0.7,11.3
			c-0.2,2.7-0.3,4.3-0.3,4.3s-0.1-1.6-0.3-4.3c-0.1-2.7-0.4-6.6-0.4-11.3c0-4.7-0.1-10.2,0.1-16c0.1-2.9,0.3-6,0.6-9.1
			c0.2-1.5,0.3-3.1,0.6-4.7s0.5-3.1,1.3-4.9c0.3-0.4,0.4-1,1.3-1.6c0.5-0.3,1.3-0.4,1.8-0.2c0.6,0.2,0.8,0.5,1.1,0.7
			c0.5,0.4,0.8,1,0.9,1.3c0.2,0.4,0.4,0.7,0.5,1.1c0.7,1.4,1.3,2.8,2,4.2c1.3,2.8,2.6,5.5,3.8,8.2c2.4,5.3,4.7,10.3,6.4,14.7
			c1.8,4.3,3.1,8,4.1,10.5C2084.2,344.7,2084.8,346.1,2084.8,346.1z"/>
	</g>
	<g id="XMLID_87_">
		<path id="XMLID_75_" class="st5" d="M2058.4,302.9c0,0-2.2,37.5-10.7,60.2c-8.5,22.7-35.3,43.9-60.9,31.3s-25.5-54-5.6-69.8
			C2001.1,308.8,2046.3,303.9,2058.4,302.9z"/>
		<path id="XMLID_74_" class="st4" d="M2036.2,346.5c0,0,0.6-1.4,1.8-3.9c1.2-2.5,2.8-6,4.9-10.2s4.3-9.2,6.9-14.4
			c1.3-2.6,2.6-5.3,4-8c0.7-1.4,1.4-2.7,2.1-4.1l0.5-1c0.2-0.4,0.2-0.6,0.2-0.7c0,0,0-0.1,0,0.1c0.1,0.2,0.3,0.5,0.5,0.5
			c0.3,0.1,0,0-0.3,0.1c-2.4,0.6-5.3,2.3-7.9,3.8c-2.6,1.6-5.2,3.1-7.6,4.7c-4.9,3.2-9.5,6.1-13.3,8.7c-3.9,2.6-7.1,4.7-9.4,6.3
			c-2.3,1.5-3.6,2.3-3.6,2.3s1.1-1.1,3.2-2.8c2.1-1.7,5-4.3,8.8-7.2c3.7-2.9,8-6.3,12.8-9.6c2.4-1.7,4.9-3.4,7.6-5
			c1.3-0.8,2.7-1.6,4.1-2.3c1.4-0.7,2.8-1.5,4.7-1.9c0.5-0.1,1-0.2,2,0.1c0.5,0.2,1.1,0.8,1.2,1.3c0.2,0.6,0.1,1,0.1,1.3
			c-0.1,0.6-0.3,1.2-0.5,1.5c-0.2,0.5-0.4,0.7-0.5,1.1c-0.7,1.4-1.4,2.8-2.1,4.1c-1.4,2.7-2.9,5.4-4.2,8c-2.8,5.2-5.4,10-7.8,14
			s-4.5,7.3-5.9,9.7C2037,345.1,2036.2,346.5,2036.2,346.5z"/>
	</g>
	<g id="XMLID_86_">
		<path id="XMLID_73_" class="st5" d="M2054,298.3c0,0-33.9-16.2-51.7-32.7c-17.8-16.5-27.3-49.2-6-68.2s59.6-3.3,66.7,21.1
			C2070.1,243,2057.6,286.7,2054,298.3z"/>
		<path id="XMLID_72_" class="st4" d="M2022,261.3c0,0,1.1,1.1,3,3.1c1.8,2,4.5,4.8,7.6,8.4c3.1,3.5,6.9,7.4,10.7,11.8
			c1.9,2.2,3.9,4.4,6,6.7c1,1.2,2,2.3,3,3.5l0.7,0.8c0.3,0.3,0.5,0.4,0.6,0.5c0,0,0.1,0-0.1,0c-0.2,0-0.5,0.1-0.6,0.2
			c-0.2,0.2,0,0,0-0.3c0.4-2.5-0.1-5.8-0.5-8.7c-0.5-3-0.9-6-1.5-8.8c-1.1-5.7-2.1-11.1-3.1-15.6c-0.9-4.6-1.7-8.4-2.2-11.1
			c-0.5-2.7-0.8-4.2-0.8-4.2s0.5,1.5,1.4,4.1c0.8,2.6,2.1,6.3,3.3,10.8c1.3,4.5,2.8,9.8,4.1,15.5c0.6,2.9,1.3,5.8,1.8,8.9
			c0.2,1.5,0.5,3.1,0.6,4.7s0.3,3.2,0,5.1c-0.1,0.5-0.2,1.1-0.9,1.8c-0.4,0.4-1.1,0.7-1.7,0.7c-0.6,0-0.9-0.2-1.2-0.4
			c-0.6-0.3-1-0.8-1.2-1c-0.4-0.4-0.5-0.6-0.8-0.9c-1-1.2-2-2.4-3-3.5c-2-2.4-3.9-4.7-5.8-6.9c-3.7-4.5-7.2-8.8-10-12.5
			c-2.9-3.7-5.1-6.9-6.7-9.1C2022.9,262.6,2022,261.3,2022,261.3z"/>
	</g>
	<path id="XMLID_71_" class="st3" d="M1937.4,296.9c-5.8-28,26.9-53.3,51.6-47.2c24.7,6,56.3,38.7,64.5,47.6c0,0-31,21.3-54.1,28.5
		S1943.2,324.9,1937.4,296.9"/>
	<path id="XMLID_70_" class="st4" d="M2005.6,306.5c0,0,1.5-0.4,4.2-1s6.5-1.5,11.1-2.4s9.9-2.2,15.6-3.4c2.9-0.6,5.8-1.2,8.8-1.8
		c1.5-0.3,3-0.6,4.5-0.9l1.1-0.2c0.4-0.1,0.6-0.2,0.7-0.3c0,0,0-0.1-0.1,0.1c-0.1,0.1-0.2,0.5-0.1,0.7s0,0-0.2-0.2
		c-2-1.5-5.1-2.8-7.8-3.9c-2.8-1.1-5.6-2.2-8.4-3.1c-5.5-1.9-10.6-3.7-15.1-5.2c-4.4-1.5-8.1-2.7-10.7-3.6s-4.1-1.4-4.1-1.4
		s1.5,0.3,4.2,0.8c2.7,0.6,6.5,1.3,11,2.5s9.8,2.5,15.5,4.2c2.8,0.9,5.7,1.8,8.6,2.9c1.5,0.6,2.9,1.1,4.4,1.8
		c1.5,0.7,2.9,1.3,4.4,2.6c0.4,0.4,0.8,0.7,1.2,1.7c0.2,0.5,0.1,1.3-0.3,1.8c-0.3,0.5-0.7,0.7-1,0.9c-0.6,0.3-1.2,0.5-1.5,0.6
		c-0.5,0.1-0.8,0.2-1.2,0.2c-1.5,0.3-3.1,0.6-4.6,0.8c-3,0.5-6,1.1-8.9,1.6c-5.8,1-11.2,1.8-15.8,2.4c-4.6,0.6-8.5,1-11.2,1.3
		C2007.1,306.4,2005.6,306.5,2005.6,306.5z"/>
	<path id="XMLID_69_" class="st6" d="M2053.7,292.1c0,0,1.3-11.8-6.2-11.1c-7.5,0.8-0.4,13.2-0.4,13.2s-13.5-6.7-15.7,0.8
		s10.9,7,10.9,7s-15.8,1.3-14,7.8c1.9,6.5,16.9-1.2,16.9-1.2s-12.7,12.8-5,15.9c7.8,3.1,12.5-12,12.5-12s-1.6,13.6,6.7,13.1
		c8.3-0.5,4.7-18.7,4.7-18.7s9.7,11.1,12,5.2c2.3-5.9-11-10.4-11-10.4s14.4-7.3,9.8-13c-4.5-5.8-15.4,6.2-15.4,6.2s8.7-10.2,3.6-13
		C2058.2,279,2053.7,292.1,2053.7,292.1z"/>
	<g id="XMLID_85_">
		<path id="XMLID_67_" class="st7" d="M2051.1,303.4c-0.6,1.9-2.6,3-4.4,2.4c-1.9-0.6-3-2.6-2.4-4.4c0.6-1.9,2.6-3,4.4-2.4
			C2050.5,299.5,2051.6,301.5,2051.1,303.4z"/>
		<path id="XMLID_66_" class="st7" d="M2062.6,297.6c-0.6,1.9-2.6,3-4.4,2.4c-1.9-0.6-3-2.5-2.4-4.4c0.6-1.9,2.6-3,4.5-2.4
			C2062.1,293.7,2063.1,295.7,2062.6,297.6z"/>
		<path id="XMLID_65_" class="st7" d="M2062,309.2c-0.6,1.9-2.6,3-4.5,2.4s-3-2.5-2.4-4.4c0.6-1.9,2.6-3,4.4-2.4
			C2061.4,305.3,2062.5,307.3,2062,309.2z"/>
	</g>
	<g id="XMLID_84_">
		<path id="XMLID_64_" class="st2" d="M2056.1,614c0,0-35.1-99.7,58.7-173.1c0,0-9.4,26.5-9.9,71S2090,591.8,2056.1,614z"/>
	</g>
</g>
<g id="XMLID_146_">
	<path id="XMLID_147_" class="st2" d="M843.8,329.9c-12.1,36.7-19.7,75.2-25.5,113.3c-11.1,73.5-12.1,150.5,8.9,222.4
		c0.7,2.4,4.5,1.4,3.8-1c-21.2-72.8-19.4-150.2-8.2-224.5c5.5-36.7,13.2-73.8,24.8-109.1C848.4,328.5,844.6,327.5,843.8,329.9
		L843.8,329.9z"/>
</g>
<g id="XMLID_144_">
	<path id="XMLID_145_" class="st2" d="M710.9,444.5c12.7,8.2,23.1,22.3,32.3,34.7c33.4,45,56,100,75,153.9c1.2,3.3,5.9,1.9,4.8-1.5
		c-19-54.1-41.7-107.4-74.1-153.3c-9.8-13.8-21.5-29.5-35.5-38.5C710.6,438,708.1,442.8,710.9,444.5L710.9,444.5z"/>
</g>
<path id="XMLID_143_" class="st8" d="M862.9,257.3c0,0-45.6-96.2-1-105.1C897.7,145,892.4,230.9,862.9,257.3z"/>
<path id="XMLID_142_" class="st9" d="M872.9,257.7c0,0,9.1-106,52.1-91.3C959.5,178.2,911.6,249.7,872.9,257.7z"/>
<path id="XMLID_141_" class="st8" d="M976.8,213.6c19,31.2-63.6,55.5-98.5,36.8C878.3,250.4,953.2,174.8,976.8,213.6"/>
<path id="XMLID_140_" class="st9" d="M975.1,280.1c-1.5,36.4-83.7,11-102.4-23.9C872.7,256.2,976.9,234.6,975.1,280.1"/>
<path id="XMLID_139_" class="st8" d="M877.4,264.1c0,0,94.6,48.7,64.7,82.9C918,374.5,870,303,877.4,264.1z"/>
<path id="XMLID_138_" class="st9" d="M873.6,263.9c0,0,48.1,94.9,3.7,105.1C841.8,377.1,844.8,291.1,873.6,263.9z"/>
<path id="XMLID_137_" class="st8" d="M867.6,260.2c0,0-13.6,105.6-56,89C777.7,336,828.5,266.6,867.6,260.2z"/>
<path id="XMLID_136_" class="st9" d="M863.4,264.5c0,0-78.4,72-100.2,32C745.8,264.4,829.4,244.1,863.4,264.5z"/>
<path id="XMLID_135_" class="st8" d="M858.9,257.7c0,0-104.3,21-102.3-24.4C758.3,196.8,840.4,222.7,858.9,257.7z"/>
<path id="XMLID_134_" class="st9" d="M854.2,255.8c0,0-90.8-55.6-58.3-87.5C821.8,142.7,864.4,217.6,854.2,255.8z"/>
<path id="XMLID_133_" class="st10" d="M858.7,243.5c0,0-10.7-21.5-17.6-19.7c-6.9,1.8,7.1,26.8,7.1,26.8s-19.8-5.1-22.9,1.4
	c-3,6.4,21.8,10,21.8,10s-24.3,13.5-19.7,20.8c4.6,7.3,27.3-9.2,27.3-9.2s-13.5,24.3-6.2,28s17.1-24.4,17.1-24.4s4.4,30.4,13.8,29
	c9.4-1.4-2.2-34.3-2.2-34.3s17.9,16.1,23.7,9.7c5.8-6.4-13.6-16.7-13.6-16.7s22-4.8,22.1-12c0.1-7.2-29.3,0.7-29.3,0.7
	s15.8-31,9.2-34.8c-6.5-3.8-19.8,28-19.8,28s1.7-28.9-3.4-28.6C861,218.5,858.7,243.5,858.7,243.5z"/>
<g id="XMLID_129_">
	<ellipse id="XMLID_132_" class="st7" cx="858.9" cy="252.8" rx="4" ry="4.6"/>
	<ellipse id="XMLID_131_" class="st7" cx="864.7" cy="267.4" rx="4" ry="4.6"/>
	<ellipse id="XMLID_130_" class="st7" cx="872.2" cy="256.3" rx="3.6" ry="4.1"/>
</g>
<g id="XMLID_111_">
	<g id="XMLID_116_">
		<g id="XMLID_118_">
			<path id="XMLID_128_" class="st8" d="M698.1,430.8c0,0-88.2-21.5-70.1-55.8C642.4,347.4,696.5,397.1,698.1,430.8z"/>
			<path id="XMLID_127_" class="st9" d="M703.7,424.4c0,0-65.3-63-32.5-83.6C697.6,324.4,719.2,394.5,703.7,424.4z"/>
			<path id="XMLID_126_" class="st8" d="M701.8,416.9c0,0-9.9-90.2,28.5-85C761.2,336.1,732.9,403.8,701.8,416.9z"/>
			<path id="XMLID_125_" class="st9" d="M702.6,423.8c0,0,41.7-80.6,70.8-55C796.8,389.4,735.7,430.1,702.6,423.8z"/>
			<path id="XMLID_124_" class="st8" d="M710.3,424.9c0,0,83.1-36.5,89.6,1.7C805.2,457.3,732.1,450.7,710.3,424.9z"/>
			<path id="XMLID_123_" class="st9" d="M708.1,427.3c0,0,88.7,19.2,71.6,54C766,509.2,710.7,460.9,708.1,427.3z"/>
			<path id="XMLID_122_" class="st8" d="M702.5,429.3c0,0,62.6,65.7,28.9,84.9C704.4,529.5,685.7,458.5,702.5,429.3z"/>
			<path id="XMLID_121_" class="st9" d="M703.1,434.4c0,0,5.5,90.6-32.6,83.5C639.9,512.2,671.3,445.9,703.1,434.4z"/>
			<path id="XMLID_120_" class="st8" d="M696.2,433.7c0,0-42.1,80.4-71.1,54.6C601.8,467.6,663.1,427.1,696.2,433.7z"/>
			<path id="XMLID_119_" class="st9" d="M692.4,435.8c0,0-85.6,30.3-89.3-8.4C600.1,396.5,672.5,408.5,692.4,435.8z"/>
		</g>
		<path id="XMLID_117_" class="st10" d="M686.6,426.2c0,0-20-4.5-22.5,1.1c-2.5,5.5,21.6,9.7,21.6,9.7s-14,10.4-11.4,15.9
			c2.6,5.5,18.3-9.1,18.3-9.1s-4.1,23.3,3.2,24.2c7.3,0.8,8.6-23,8.6-23s8.8,22,15.2,19.2c6.4-2.8-7-24.4-7-24.4s22.5,13.4,26.6,6.5
			c4.1-6.9-23.9-17-23.9-17s20.3-3.2,19.1-10.5c-1.1-7.3-18.4,0-18.4,0s8.6-17.1,4-21.1c-4.7-4-15.3,19.8-15.3,19.8
			s-12-27.1-18.1-24.8c-6,2.3,7.9,28.1,7.9,28.1s-18.1-16.8-20.7-13.2C671.3,411.2,686.6,426.2,686.6,426.2z"/>
	</g>
	<g id="XMLID_112_">
		<path id="XMLID_115_" class="st7" d="M695.1,428.4c1.7,1.4,2.1,3.6,0.9,5.1s-3.5,1.6-5.2,0.2s-2.1-3.6-0.9-5.1
			C691.1,427.1,693.4,427,695.1,428.4z"/>
		<path id="XMLID_114_" class="st7" d="M707.8,432.4c1.7,1.4,2.1,3.6,0.9,5.1s-3.5,1.6-5.2,0.2s-2.1-3.6-0.9-5.1
			C703.8,431.1,706.2,431.1,707.8,432.4z"/>
		<path id="XMLID_113_" class="st7" d="M704.3,421.7c1.5,1.2,1.9,3.3,0.8,4.6c-1.1,1.3-3.2,1.4-4.7,0.2c-1.5-1.2-1.9-3.3-0.8-4.6
			C700.7,420.6,702.8,420.5,704.3,421.7z"/>
	</g>
</g>
<g id="XMLID_102_">
	<path id="XMLID_110_" class="st2" d="M814.6,548.8c0,0-9.8-88,62-117.4C876.6,431.4,865.1,502.7,814.6,548.8z"/>
	<g id="XMLID_103_">
		<g>
			<defs>
				<path id="SVGID_1_" d="M814.6,548.8c0,0-9.8-88,62-117.4C876.6,431.4,865.1,502.7,814.6,548.8z"/>
			</defs>
			<clipPath id="SVGID_2_">
				<use xlink:href="#SVGID_1_"  style="overflow:visible;"/>
			</clipPath>
			<g id="XMLID_105_" class="st11">
				<g id="XMLID_108_">
					<path id="XMLID_109_" class="st12" d="M811.5,554.1l-1.6-0.2c6.8-70.4,69.6-128.9,70.2-129.5l1.1,1.2
						C880.6,426.1,818.2,484.3,811.5,554.1z"/>
				</g>
				<g id="XMLID_106_">
					<path id="XMLID_107_" class="st12" d="M811.3,559.3l-1.5-0.5c18.6-61.8,68.5-116.9,70.5-117.9l0.7-0.1l-0.3,0.7l0.3,0.7
						C878.3,444.1,829.6,498.4,811.3,559.3z"/>
				</g>
			</g>
		</g>
		<g>
			<path id="XMLID_104_" class="st13" d="M814.6,548.8c0,0-9.8-88,62-117.4C876.6,431.4,865.1,502.7,814.6,548.8z"/>
		</g>
	</g>
</g>
<g id="XMLID_93_">
	<path id="XMLID_101_" class="st2" d="M825.9,647.9c0,0-20.4-41.3-60.2-34.1C765.7,613.9,790.8,641.9,825.9,647.9z"/>
	<g id="XMLID_94_">
		<g>
			<defs>
				<path id="SVGID_3_" d="M825.9,647.9c0,0-20.4-41.3-60.2-34.1C765.7,613.9,790.8,641.9,825.9,647.9z"/>
			</defs>
			<clipPath id="SVGID_4_">
				<use xlink:href="#SVGID_3_"  style="overflow:visible;"/>
			</clipPath>
			<g id="XMLID_96_" class="st14">
				<g id="XMLID_99_">
					<path id="XMLID_100_" class="st12" d="M828.7,649.3l0.6-0.5c-22.7-29-66.7-37-67.2-37.1l-0.1,0.8
						C762.5,612.7,806.2,620.6,828.7,649.3z"/>
				</g>
				<g id="XMLID_97_">
					<path id="XMLID_98_" class="st12" d="M830.3,651.6l0.5-0.6c-25.5-21.9-62.9-32-64-31.9l-0.3,0.2l0.3,0.3v0.4
						C768.6,619.9,805.1,630,830.3,651.6z"/>
				</g>
			</g>
		</g>
		<g>
			<path id="XMLID_95_" class="st13" d="M825.9,647.9c0,0-20.4-41.3-60.2-34.1C765.7,613.9,790.8,641.9,825.9,647.9z"/>
		</g>
	</g>
</g>
<circle id="XMLID_161_" class="st5" cx="863.4" cy="255.8" r="61.2"/>
<g id="XMLID_155_">
	<g id="XMLID_182_">
		<g id="XMLID_158_">
			<ellipse id="XMLID_180_" class="st15" cx="876.9" cy="248.2" rx="15.8" ry="26"/>
		</g>
	</g>
	<g id="XMLID_178_">
		<g id="XMLID_179_">
			<g>
				<defs>
					<ellipse id="SVGID_5_" cx="876.9" cy="248.2" rx="15.8" ry="26"/>
				</defs>
				<clipPath id="SVGID_6_">
					<use xlink:href="#SVGID_5_"  style="overflow:visible;"/>
				</clipPath>
				<g id="XMLID_157_" class="st16">
					<ellipse id="XMLID_177_" class="st17" cx="885.2" cy="245.5" rx="9.5" ry="18.6"/>
				</g>
			</g>
		</g>
	</g>
	<g id="XMLID_176_">
		<g id="XMLID_156_">
			<path id="XMLID_181_" class="st17" d="M876.9,274.9c-9,0-16.4-12-16.4-26.7s7.3-26.7,16.4-26.7c9,0,16.4,12,16.4,26.7
				S886,274.9,876.9,274.9z M876.9,222.8c-8.4,0-15.2,11.4-15.2,25.4c0,14,6.8,25.4,15.2,25.4s15.2-11.4,15.2-25.4
				C892.1,234.2,885.3,222.8,876.9,222.8z"/>
		</g>
	</g>
</g>
<g id="XMLID_151_">
	<g id="XMLID_173_">
		<g id="XMLID_154_">
			<ellipse id="XMLID_171_" class="st15" cx="847.9" cy="248.2" rx="15.8" ry="26"/>
		</g>
	</g>
	<g id="XMLID_169_">
		<g id="XMLID_170_">
			<g>
				<defs>
					<ellipse id="SVGID_7_" cx="847.9" cy="248.2" rx="15.8" ry="26"/>
				</defs>
				<clipPath id="SVGID_8_">
					<use xlink:href="#SVGID_7_"  style="overflow:visible;"/>
				</clipPath>
				<g id="XMLID_153_" class="st18">
					<ellipse id="XMLID_168_" class="st17" cx="856.2" cy="245.5" rx="9.5" ry="18.6"/>
				</g>
			</g>
		</g>
	</g>
	<g id="XMLID_167_">
		<g id="XMLID_152_">
			<path id="XMLID_172_" class="st17" d="M847.9,274.9c-9,0-16.4-12-16.4-26.7s7.3-26.7,16.4-26.7c9,0,16.4,12,16.4,26.7
				S857,274.9,847.9,274.9z M847.9,222.8c-8.4,0-15.2,11.4-15.2,25.4c0,14,6.8,25.4,15.2,25.4c8.4,0,15.2-11.4,15.2-25.4
				C863.1,234.2,856.3,222.8,847.9,222.8z"/>
		</g>
	</g>
</g>
<g id="XMLID_150_">
	<ellipse id="XMLID_166_" class="st15" cx="861.2" cy="242.3" rx="1.7" ry="4"/>
</g>
<g id="XMLID_149_">
	<ellipse id="XMLID_165_" class="st15" cx="861.2" cy="251.4" rx="1" ry="2.4"/>
</g>
<g id="XMLID_148_">
	<ellipse id="XMLID_164_" class="st15" cx="890.2" cy="251.4" rx="1" ry="2.4"/>
</g>
<g id="XMLID_92_">
	<ellipse id="XMLID_162_" class="st15" cx="890.2" cy="242.3" rx="1.7" ry="4"/>
</g>
<path id="XMLID_187_" class="st13" d="M824.5,268.6c5.2,11,18.7,19,34.7,20.5c18.9,1.8,37.9-5.8,45.7-18.6"/>
<circle id="XMLID_222_" class="st0" cx="2056.2" cy="301.8" r="54.6"/>
<g id="XMLID_207_">
	<g id="XMLID_219_">
		<g id="XMLID_220_">
			<ellipse id="XMLID_221_" class="st15" cx="2044.1" cy="295.1" rx="14.1" ry="23.2"/>
		</g>
	</g>
	<g id="XMLID_213_">
		<g id="XMLID_214_">
			<g>
				<defs>
					<ellipse id="SVGID_9_" cx="2044.1" cy="295.1" rx="14.1" ry="23.2"/>
				</defs>
				<clipPath id="SVGID_10_">
					<use xlink:href="#SVGID_9_"  style="overflow:visible;"/>
				</clipPath>
				<g id="XMLID_215_" class="st19">
					<ellipse id="XMLID_216_" class="st17" cx="2036.7" cy="292.6" rx="8.4" ry="16.6"/>
				</g>
			</g>
		</g>
	</g>
	<g id="XMLID_208_">
		<g id="XMLID_209_">
			<path id="XMLID_210_" class="st17" d="M2029.5,295.1c0-13.1,6.6-23.8,14.6-23.8c8.1,0,14.6,10.7,14.6,23.8
				c0,13.1-6.6,23.8-14.6,23.8C2036,318.8,2029.5,308.2,2029.5,295.1z M2030.6,295.1c0,12.5,6.1,22.7,13.5,22.7s13.5-10.2,13.5-22.7
				s-6.1-22.7-13.5-22.7S2030.6,282.6,2030.6,295.1z"/>
		</g>
	</g>
</g>
<g id="XMLID_192_">
	<g id="XMLID_204_">
		<g id="XMLID_205_">
			<ellipse id="XMLID_206_" class="st15" cx="2069.9" cy="295.1" rx="14.1" ry="23.2"/>
		</g>
	</g>
	<g id="XMLID_198_">
		<g id="XMLID_199_">
			<g>
				<defs>
					<ellipse id="SVGID_11_" cx="2069.9" cy="295.1" rx="14.1" ry="23.2"/>
				</defs>
				<clipPath id="SVGID_12_">
					<use xlink:href="#SVGID_11_"  style="overflow:visible;"/>
				</clipPath>
				<g id="XMLID_200_" class="st20">
					<ellipse id="XMLID_201_" class="st17" cx="2062.6" cy="292.6" rx="8.4" ry="16.6"/>
				</g>
			</g>
		</g>
	</g>
	<g id="XMLID_193_">
		<g id="XMLID_194_">
			<path id="XMLID_195_" class="st17" d="M2055.3,295.1c0-13.1,6.6-23.8,14.6-23.8c8.1,0,14.6,10.7,14.6,23.8
				c0,13.1-6.6,23.8-14.6,23.8C2061.9,318.8,2055.3,308.2,2055.3,295.1z M2056.4,295.1c0,12.5,6.1,22.7,13.5,22.7
				c7.4,0,13.5-10.2,13.5-22.7s-6.1-22.7-13.5-22.7C2062.5,272.4,2056.4,282.6,2056.4,295.1z"/>
		</g>
	</g>
</g>
<g id="XMLID_190_">
	<ellipse id="XMLID_191_" class="st15" cx="2058.1" cy="289.8" rx="1.5" ry="3.6"/>
</g>
<g id="XMLID_188_">
	<ellipse id="XMLID_189_" class="st15" cx="2058.1" cy="297.9" rx="0.9" ry="2.1"/>
</g>
<g id="XMLID_83_">
	<ellipse id="XMLID_163_" class="st15" cx="2032.3" cy="297.9" rx="0.9" ry="2.1"/>
</g>
<g id="XMLID_62_">
	<ellipse id="XMLID_63_" class="st15" cx="2032.3" cy="289.8" rx="1.5" ry="3.6"/>
</g>
<path id="XMLID_61_" class="st13" d="M2090.9,313.3c-4.6,9.8-16.7,16.9-30.9,18.3c-16.8,1.6-33.8-5.1-40.8-16.6"/>
</svg>
