<?xml version="1.0" encoding="utf-8"?>
<!-- Generator: Adobe Illustrator 19.0.0, SVG Export Plug-In . SVG Version: 6.00 Build 0)  -->
<svg version="1.1" id="Camada_1" xmlns="http://www.w3.org/2000/svg" xmlns:xlink="http://www.w3.org/1999/xlink" x="0px" y="0px"
	 viewBox="-265 357 80 80" style="enable-background:new -265 357 80 80;" xml:space="preserve">
<style type="text/css">
	.st0{fill:#E8750F;}
</style>
<rect id="XMLID_1_" x="-244.2" y="433.3" class="st0" width="38.2" height="3.8"/>
<rect id="XMLID_6_" x="-244.2" y="357" class="st0" width="38.2" height="3.8"/>
<rect id="XMLID_4_" x="-188.9" y="377.9" class="st0" width="3.8" height="38.2"/>
<rect id="XMLID_12_" x="-264.9" y="377.9" class="st0" width="3.8" height="38.2"/>
<polygon id="XMLID_15_" class="st0" points="-249,373.2 -264.9,373.2 -264.9,377.9 -244.2,377.9 -244.2,357 -249,357 "/>
<polygon id="XMLID_29_" class="st0" points="-201.2,357 -206.1,357 -206.1,377.9 -185.1,377.9 -185.1,373.1 -201.2,373.1 "/>
<polygon id="XMLID_32_" class="st0" points="-185.3,420.8 -185.3,416.1 -206.1,416.1 -206.1,437 -201.4,437 -201.4,420.8 "/>
<polygon id="XMLID_35_" class="st0" points="-264.9,420.8 -248.9,420.8 -248.9,437 -244.2,437 -244.2,416.1 -264.9,416.1 "/>
<circle id="XMLID_13_" cx="-257.9" cy="430.5" r="4.7"/>
<circle id="XMLID_16_" cx="-257.9" cy="363.5" r="4.7"/>
<circle id="XMLID_17_" cx="-191" cy="363.5" r="4.7"/>
<circle id="XMLID_18_" cx="-191" cy="430.5" r="4.7"/>
</svg>
