<?xml version="1.0" encoding="utf-8"?>
<!-- Generator: Adobe Illustrator 19.0.0, SVG Export Plug-In . SVG Version: 6.00 Build 0)  -->
<svg version="1.1" id="Camada_1" xmlns="http://www.w3.org/2000/svg" xmlns:xlink="http://www.w3.org/1999/xlink" x="0px" y="0px"
	 viewBox="0 0 535 157.2" style="enable-background:new 0 0 535 157.2;" xml:space="preserve">
<style type="text/css">
	.st0{fill:#EDE636;}
	.st1{enable-background:new    ;}
	.st2{fill:#010002;}
	.st3{fill:#714266;}
	.st4{fill:#BB6EA3;}
	.st5{fill:#47A3A4;}
	.st6{fill:#243264;}
	.st7{fill:#27366B;}
	.st8{fill:#273569;}
	.st9{fill:#28376C;}
	.st10{fill:#29386E;}
	.st11{fill:#3F5298;}
	.st12{fill:#7E4971;}
	.st13{fill:#754469;}
	.st14{fill:#78466C;}
	.st15{fill:#7F4A72;}
	.st16{fill:#BC6FA3;}
	.st17{fill:#41539A;}
	.st18{fill:#2A6866;}
	.st19{fill:#46A0A1;}
</style>
<path id="XMLID_42_" class="st0" d="M248.4,28.4c-4.3,0-6.8-0.1-7.6,0c-0.9,1.6-3.4,8.2-7.3,19.8c-0.5,1.9-1.2,2.8-2,2.8
	c-0.5,0-2.2-4.7-5-14.2c-1.5-4.7-2.4-7.2-2.7-7.5c-0.3-0.1-0.5-0.1-0.6-0.1c-4.9,0.2-7.4,0.7-7.3,1.3c-0.3,5.8-0.6,19.2-1,40.3
	c0.2,0.5,0.6,0.8,1.2,0.7c3.8-0.2,5.9-0.3,6.2-0.3c0.9,0,1.3-0.9,1.2-2.6c-0.1-8.5,0-13.3,0.3-14.5l0.8-0.6l0.2,0
	c1.3-0.1,2.4,2.2,3.4,6.7c0.5,1.8,1.1,2.7,1.7,2.6c0.2,0.1,0.6,0.2,1.4,0.1l1.5-0.1c1,0,1.7-1.3,2.2-3.8c1.2-3.5,2.1-5.4,2.6-5.6
	l0.8,0c0.6,0.3,1,0.7,1.2,1.3c-0.5,8.4-0.7,13.5-0.6,15.3c0.4,0.2,0.8,0.3,1.2,0.3l0.4,0l5.8-0.3c0.9,0,1.3-1,1.2-3l0.9-38.1
	C248.5,28.7,248.4,28.6,248.4,28.4z"/>
<path id="XMLID_45_" class="st0" d="M191.7,31.8l-4.5,0.5c-1.9,0.2-4.5,0.5-7.8,1c-0.6,0.6-1.5,4.9-2.6,13
	c-3.1,17.7-4.5,27.1-4.4,28.1c2.6,0.4,5.4,0.5,8.3,0.2c0.4,0,1-2.8,1.7-8.2c0.5-0.6,1.1-0.9,1.9-0.9L188,65c1.7-0.2,2.6,0.3,2.7,1.5
	c0.3,1.2,0.5,2.6,0.6,4.1l0.2,2.3c0,0.2,0.2,0.4,0.6,0.5c5.1-0.9,7.7-1.7,7.6-2.4c-4.2-21.9-6.8-34.9-7.7-39.1L191.7,31.8z
	 M188.7,58.4l-3.5,0.4c-0.8,0.1-1.3-0.3-1.7-1c1.1-6.3,2-9.4,2.6-9.5l0.4,0c1.2-0.1,1.9,1.2,2.2,3.9c0.6,3.4,0.9,5.2,0.9,5.4
	C189.5,57.6,189.2,57.8,188.7,58.4z"/>
<path id="XMLID_46_" class="st0" d="M317.4,28.7c-1.1,1.5-4,7.9-8.8,19.2c-0.7,1.8-1.4,2.7-2.2,2.7c-0.5,0-1.8-4.9-3.8-14.6
	c-1.1-4.8-1.8-7.3-2.1-7.7c-0.3-0.1-0.5-0.2-0.6-0.2c-4.9-0.2-7.4,0.1-7.4,0.7c-0.7,5.7-2.1,19.1-4.2,40c0.1,0.5,0.5,0.8,1.1,0.8
	c3.8,0.1,5.9,0.2,6.3,0.2c0.9,0,1.4-0.8,1.4-2.5c0.6-8.5,1-13.3,1.4-14.4l0.8-0.6l0.2,0c1.3,0,2.2,2.4,2.9,6.9
	c0.4,1.8,0.9,2.7,1.5,2.7c0.2,0.1,0.6,0.2,1.4,0.2l1.5,0c1,0,1.8-1.2,2.5-3.6c1.5-3.4,2.5-5.2,3.1-5.4l0.8,0
	c0.6,0.3,0.9,0.8,1.1,1.4c-1.2,8.4-1.8,13.4-1.9,15.2c0.4,0.3,0.8,0.4,1.2,0.4l0.4,0l5.8,0.2c0.9,0,1.4-0.9,1.5-2.9l4-37.9
	c-0.1-0.3-0.2-0.5-0.2-0.6C320.8,28.9,318.2,28.7,317.4,28.7z"/>
<path id="XMLID_50_" class="st0" d="M64.1,56.7c-2.6,0.2-4.4,0.4-5.4,0.7l-2.4,0.8c-2.8,0.9-4,1.8-3.7,2.8l10.6,38.1
	c0.2,0.6,1.3,0.6,3.4-0.1l0.9-0.3C77.8,95.5,82.9,87.9,82.6,76c-0.4-2.1-0.8-3.7-1.2-4.9C78.6,62.3,72.8,57.5,64.1,56.7z M72.3,86
	c-0.8,0.5-1.6,0.9-2.4,1.2l-0.9,0.3c-0.7,0.2-1.4,0-2.1-0.8c-3.5-13.2-5.2-20.2-5.2-21.1c0.1,0,0.2-0.2,0.4-0.5l1.3-0.4
	c3.9-1.3,7.5,0.3,10.8,4.6l1.4,3C77.3,77.8,76.2,82.4,72.3,86z"/>
<path id="XMLID_53_" class="st0" d="M114.7,67.8c2.9-4.3,4.3-7.1,4.4-8.4c0.1-1.3-0.1-2.7-0.4-4.2l-0.5-2.1c-1.1-5-4.6-7.8-10.6-8.4
	c-1.8,0-3.6,0.2-5.2,0.5c-5.2,1.1-7.6,2.4-7.3,3.8l6.9,38.4c0.1,0.4,0.5,0.6,1.3,0.7l1.9-0.6l3.8-0.8c0.2,0,0.4-0.3,0.6-0.9
	l-2.7-12.1c-0.2-0.7,0-1.3,0.6-1.7l0.4-0.1c1.2-0.3,2.4,1.2,3.7,4.3c3.4,5.4,5.3,8.3,5.6,8.5c0.1,0,0.2,0,0.2,0.1
	c4.5-1.2,6.7-1.9,6.6-2.2l-9.3-14.4L114.7,67.8z M110.2,64.2c-1.1,0.5-1.9,0.8-2.4,0.9l-0.6,0.1c-1,0.1-1.6-0.2-1.8-0.8
	c-1.7-7.7-2.2-11.6-1.4-11.8l1.1-0.4l1-0.2c3-0.7,5.3,0.3,7,2.8c0.3,0.9,0.6,1.5,0.8,1.8C114.5,59.5,113.3,62.1,110.2,64.2z"/>
<path id="XMLID_57_" class="st0" d="M361.9,32l-4.5-0.4c-1.9-0.2-4.5-0.3-7.8-0.5c-0.7,0.4-2.3,4.6-4.9,12.3
	c-6.3,16.9-9.4,25.8-9.5,26.8c2.5,0.9,5.2,1.4,8.1,1.7c0.4,0,1.5-2.6,3.2-7.8c0.6-0.5,1.3-0.6,2-0.6l3.7,0.3
	c1.7,0.1,2.5,0.8,2.4,1.9c0,1.3,0,2.6-0.1,4.1l-0.2,2.4c0,0.2,0.2,0.4,0.5,0.6c5.2,0,7.9-0.3,7.9-0.9c-0.1-22.3-0.2-35.6-0.4-39.9
	L361.9,32z M355.2,51.4c0,3.4-0.1,5.3-0.1,5.5c-0.1,0-0.4,0.2-1,0.7l-3.5-0.3c-0.8-0.1-1.3-0.5-1.5-1.3c2.2-6,3.7-8.9,4.3-8.9l0.4,0
	C355,47.2,355.4,48.7,355.2,51.4z"/>
<path id="XMLID_58_" class="st0" d="M156.8,69.7c0-0.2-0.2-0.4-0.4-0.3l-10.9,1.7c-1.1,0.2-1.8-0.2-1.9-1.1l-0.4-2.8
	c-0.2-1.1,0.4-1.8,1.8-2l6.6-1c0.2,0,0.4-0.2,0.3-0.4l-1.1-6.8c-0.1-0.7-0.5-1-1.2-1.2l-5.9,1.3c-0.9-0.1-1.4-0.4-1.5-0.9
	c-1-6.4-1-9.6,0-9.8l11.2-1.8c0.5-0.1,0.9-0.4,1.2-0.9c-0.3-1.2-0.5-2.2-0.6-2.8l-0.6-3.7c-0.1-0.6-0.4-0.9-0.9-1
	c-9.6,2-16,3.4-18.9,4.1c-0.5,0.1,0,5.8,1.5,17.3l2.7,22.1c0.1,0.5,5.8,0,17.1-1.5c0.1,0,0.5,0,1.1,0c0.7-0.1,1-2.5,0.8-7.2
	c0.1,0,0.1-0.3,0.1-0.8L156.8,69.7z"/>
<path id="XMLID_71_" class="st0" d="M431.2,50.2l11.2,2.2c0.5,0.1,1-0.1,1.5-0.5c0.1-1.3,0.2-2.2,0.4-2.9l0.7-3.7
	c0.1-0.6-0.1-1-0.5-1.3c-9.8-1.4-16.2-2.3-19.2-2.7c-0.5-0.1-2,5.5-4.5,16.7l-5.1,21.6c-0.1,0.5,5.4,2,16.5,4.4
	c0.1,0,0.4,0.1,1.1,0.4c0.7,0.1,1.8-2,3.2-6.5c0.1,0,0.2-0.2,0.3-0.7l0.1-0.4c0-0.2,0-0.4-0.3-0.4l-10.8-2.1
	c-1.1-0.2-1.6-0.8-1.4-1.6l0.6-2.8c0.2-1.1,1-1.5,2.4-1.3l6.5,1.3c0.2,0,0.4,0,0.4-0.3l1.3-6.7c0.1-0.6-0.1-1.1-0.7-1.5l-6-0.8
	c-0.8-0.4-1.2-0.9-1.1-1.4C429.1,53.1,430.2,50,431.2,50.2z"/>
<path id="XMLID_75_" class="st0" d="M475,52.5c-1.6-0.9-3.2-1.5-4.8-2c-5.1-1.4-7.9-1.5-8.2-0.1l-12,37.1c-0.1,0.4,0.2,0.8,0.9,1.2
	l1.9,0.3l3.7,1c0.2,0.1,0.5-0.1,1-0.5l3.3-11.9c0.2-0.7,0.6-1.1,1.3-1.2l0.4,0.1c1.2,0.3,1.6,2.2,1.2,5.6c0.4,6.4,0.8,9.8,1,10.1
	c0.1,0,0.2,0.1,0.2,0.2c4.5,1.1,6.8,1.5,6.9,1.2l-1.5-17.1l0.1-0.4c4.5-2.4,7.1-4.2,7.8-5.4c0.7-1.1,1.2-2.4,1.6-3.9l0.6-2
	C481.7,60,479.9,55.8,475,52.5z M474.8,65.9c-0.8,2.8-3.1,4.5-6.8,4.9c-1.2-0.1-2-0.2-2.5-0.3l-0.6-0.2c-0.9-0.4-1.3-0.9-1.2-1.5
	c2.1-7.6,3.5-11.3,4.3-11l1.1,0.1l1,0.3c2.9,0.8,4.5,2.7,4.8,5.8C474.9,64.9,474.8,65.6,474.8,65.9z"/>
<path id="XMLID_76_" class="st0" d="M397.5,59.3l12.4-20.8c0.1-0.5-2.1-1.1-6.6-1.7c-0.7,0.2-2.8,3.3-6.3,9.4
	c-2.9,4.8-4.6,7.2-5.3,7.2l-0.4-0.1c-0.5-0.1-0.9-0.4-1.2-1.1c0.8-4.9,1.9-10.4,3.2-16.4l-0.5-0.5c-4.7-0.6-7.1-0.7-7.2,0
	c-1.3,5.4-4.1,18.7-8.4,39.9c0.4,0.3,0.7,0.5,1.1,0.5l0.2,0c1.3,0.2,2.3,0.3,3.1,0.3c0.8,0.2,1.6,0.4,2.4,0.5
	c0.9,0.1,1.4-0.1,1.6-0.5c0.7-3.9,1.1-7,1.5-9.3l0.2-1.1c0.4-1.9,0.9-2.8,1.5-2.7l0.4,0.1c1.1,0.1,1.8,1.9,2.2,5.2
	c1.5,5.6,2.4,8.8,2.7,9.7c0.2,0,0.4,0.1,0.3,0.2c4.4,0.6,6.7,0.5,6.8-0.2l-4-17.6L397.5,59.3z"/>
<path id="XMLID_79_" d="M74.2,69.2c-3.3-4.3-6.9-5.9-10.8-4.6L62.1,65c-0.2,0.3-0.4,0.5-0.4,0.5c-0.1,0.9,1.7,8,5.2,21.1
	c0.7,0.7,1.4,1,2.1,0.8l0.9-0.3c0.8-0.3,1.6-0.6,2.4-1.2c4-3.6,5.1-8.2,3.3-13.8L74.2,69.2z M74.4,78.8c-0.1,1.8-0.9,3.2-2.4,4.4
	l-0.2,0.1c-2.3-8.3-3.5-12.8-3.7-13.5l-0.1-1l1.3-0.4c1.7-0.5,3.2,0.9,4.5,4.2l0.2,0.7C74.6,74.9,74.7,76.8,74.4,78.8z"/>
<path id="XMLID_82_" d="M86.8,71c-1.5-4.7-5.1-8.6-10.8-11.6c-6.1-4.2-12.4-5.3-19-3.2c-4.8,1.5-6.9,2.9-6.5,4.1l11,39.4l0.5,1.5
	c3.2,2.2,5.9,3,8.2,2.2l3.3-1.1c3.1-1,5.9-2.8,8.6-5.4c1.6-1.3,3-3.3,4.1-6c3.1-5.2,3.4-11.6,0.9-19.3L86.8,71z M67.5,98.8l-0.9,0.3
	c-2.1,0.7-3.2,0.7-3.4,0.1L52.6,61c-0.3-1,0.9-1.9,3.7-2.8l2.4-0.8c1-0.3,2.8-0.5,5.4-0.7c8.7,0.8,14.5,5.6,17.3,14.4
	c0.4,1.2,0.8,2.8,1.2,4.9C82.9,87.9,77.8,95.5,67.5,98.8z"/>
<path id="XMLID_85_" d="M113.1,54.9c-1.7-2.5-4-3.5-7-2.8l-1,0.2l-1.1,0.4c-0.8,0.2-0.3,4.1,1.4,11.8c0.1,0.6,0.7,0.9,1.8,0.8
	l0.6-0.1c0.5-0.1,1.3-0.4,2.4-0.9c3.1-2.2,4.3-4.7,3.7-7.6C113.7,56.4,113.4,55.8,113.1,54.9z M109.9,58.2c-0.2-1,0-1.6,0.6-1.7
	c0.8-0.2,1.2,0.1,1.4,0.9l0.3,1.1c-0.6,1.6-1,2.4-1.2,2.4l-0.4,0.1"/>
<path id="XMLID_88_" d="M121.1,70.6c3.3-4.4,4.5-8.6,3.5-12.9l-0.8-3.6c-0.4-2-2.3-4.1-5.6-6.3c-4.4-4.2-9.8-5.6-16.2-4.2l-0.8,0.2
	c-5.6,1.8-8.3,3-8.1,3.6c1.4,8.7,3.9,22.7,7.5,42.2c0.3,0.5,0.9,0.9,1.7,1.2c1.8,1.6,3.7,2.2,5.7,1.7l6.2-1.4
	c1.1-0.5,1.6-0.9,1.5-1.3l-0.5-2.1l0-1l0.2,0c0.8,0.5,1.4,0.7,1.7,0.6c2.4,1.4,4.1,2.1,5,1.9c5.9-1.5,8.8-2.4,8.7-2.9l-0.1-0.4
	C124.4,76,121.2,70.9,121.1,70.6z M117.5,84.8c0-0.1-0.1-0.2-0.2-0.1c-0.4-0.2-2.3-3-5.6-8.5c-1.3-3.1-2.5-4.6-3.7-4.3l-0.4,0.1
	c-0.6,0.4-0.8,1-0.6,1.7l2.7,12.1c-0.2,0.6-0.4,0.9-0.6,0.9l-3.8,0.8l-1.9,0.6c-0.8-0.1-1.2-0.3-1.3-0.7l-6.9-38.4
	c-0.3-1.4,2.1-2.6,7.3-3.8c1.6-0.4,3.4-0.5,5.2-0.5c6,0.6,9.5,3.4,10.6,8.4l0.5,2.1c0.3,1.4,0.4,2.8,0.4,4.2
	c-0.1,1.3-1.5,4.1-4.4,8.4l0.1,0.4l9.3,14.4C124.2,82.9,122,83.7,117.5,84.8z"/>
<path id="XMLID_91_" d="M162.2,70.8c-2.9-2.6-4.4-4-4.5-4.3c-0.7-3.9-1.2-6.4-1.3-7.5c-0.2-1.2-1.7-2.8-4.4-4.9
	c-2.9,0-4.5-0.3-4.6-0.8c-0.1-1.6,0.1-2.5,0.6-2.6c0.6-0.1,0.9-0.1,1.1,0l1.1-0.3l9.6-1.5c0.6-0.5,0.8-0.9,0.8-1.1l-0.4-2.3
	c-0.1-0.5-0.3-1.2-0.5-2c0.1-0.2,0.1-0.4,0.1-0.6c-0.4-1.5-0.6-2.6-0.7-3.3c-0.3-1.8-2-3.6-5.1-5.4l-21.2,4.4
	c-0.7,0.1-1.2,0.6-1.3,1.4c2.9,25.2,4.5,38.7,4.8,40.6c0.1,0.6,0.5,1.2,1.2,1.7c2.1,1.6,4.1,2.4,5.9,2.4l0.3-0.3l17.4-1.7
	c0.2-0.2,0.4-0.3,0.5-0.3c0.7-0.1,1-3.6,0.9-10.5L162.2,70.8z M156.8,70.8c0.2,4.7-0.1,7.1-0.8,7.2c-0.7,0-1.1,0-1.1,0
	c-11.3,1.5-17,2-17.1,1.5l-2.7-22.1c-1.5-11.4-2-17.2-1.5-17.3c3-0.7,9.3-2.1,18.9-4.1c0.5,0.1,0.8,0.4,0.9,1l0.6,3.7
	c0.1,0.6,0.3,1.6,0.6,2.8c-0.3,0.5-0.7,0.9-1.2,0.9l-11.2,1.8c-1,0.2-1,3.4,0,9.8c0.1,0.5,0.6,0.8,1.5,0.9l5.9-1.3
	c0.7,0.1,1,0.5,1.2,1.2l1.1,6.8c0,0.2-0.1,0.4-0.3,0.4l-6.6,1c-1.4,0.2-2,0.9-1.8,2l0.4,2.8c0.1,0.9,0.8,1.2,1.9,1.1l10.9-1.7
	c0.2,0,0.4,0.1,0.4,0.3l0.1,0.4C157,70.6,156.9,70.8,156.8,70.8z"/>
<path id="XMLID_94_" d="M193,29.8l-3.7,0.4c-8,0.8-12,1.6-12,2.4c-1.5,8.1-3.9,22.4-7.1,42.8c0.1,0.7,0.9,1.6,2.6,2.5
	c0.1,1.4,4.3,2.1,12.6,1.9c1-0.6,1.4-1.3,1.4-1.9c0.5-4.9,0.9-7.3,1.4-7.4l0.2,0c0.4,0.2,0.6,0.3,0.6,0.5l0.1,1.4
	c0.1,1,0.4,1.8,0.9,2.7c2.7,2.5,4.4,3.7,5.3,3.6c3.9-0.8,5.8-1.2,5.8-1.4c3.1-0.4,4.6-1.1,4.5-2l-7.1-36.8
	C198.3,34.5,196.4,31.6,193,29.8z M192.2,73.4c-0.4-0.2-0.6-0.3-0.6-0.5l-0.2-2.3c-0.1-1.5-0.4-2.8-0.6-4.1c-0.1-1.2-1-1.6-2.7-1.5
	l-3.7,0.4c-0.7,0.1-1.4,0.4-1.9,0.9c-0.7,5.5-1.3,8.2-1.7,8.2c-2.9,0.3-5.7,0.2-8.3-0.2c-0.1-1,1.4-10.4,4.4-28.1
	c1.1-8.1,2-12.5,2.6-13c3.3-0.5,5.8-0.8,7.8-1l4.5-0.5l0.4,0.2c0.9,4.2,3.5,17.2,7.7,39.1C199.9,71.7,197.3,72.5,192.2,73.4z"/>
<path id="XMLID_95_" d="M186.5,48.2l-0.4,0c-0.6,0.1-1.5,3.2-2.6,9.5c0.4,0.8,0.9,1.1,1.7,1l3.5-0.4c0.5-0.6,0.8-0.9,0.9-0.9
	c0-0.2-0.3-2-0.9-5.4C188.4,49.4,187.6,48.1,186.5,48.2z"/>
<path id="XMLID_98_" d="M240.3,26.6c-0.8,0-1.7,1.4-2.5,4.1c-2.5,7.8-4.1,11.7-4.7,11.7l-0.2,0c-1.2-4-2.4-7.5-3.6-10.6
	c-2.5-3-4.1-4.5-4.7-4.5c-7,0.3-10.5,1-10.5,1.9c-0.4,19.9-0.7,34.1-1.1,42.8c0.1,0.2,0.2,0.4,0.2,0.6c2.5,2.9,4.6,4.3,6.3,4.2
	c0.2-0.1,3.2-0.4,8.7-0.6c0.9,0,1.2-3.3,0.9-9.8l0-0.2l0.4,0c1.8,1.5,3.9,2.2,6.3,2.1c0.8,0,1.2,1,1.3,3.1c2.5,3,4.7,4.5,6.5,4.4
	l8.8-0.6c0.6,0,0.9-3.4,1.1-10l0.6-32.4c-0.1-1.7-0.6-3.2-1.5-4.5C251.7,26.8,247.6,26.3,240.3,26.6z M246.5,70.1l-5.8,0.3l-0.4,0
	c-0.4,0-0.8-0.1-1.2-0.3c-0.1-1.7,0.1-6.8,0.6-15.3c-0.2-0.6-0.6-1-1.2-1.3l-0.8,0c-0.5,0.2-1.4,2.1-2.6,5.6
	c-0.5,2.5-1.2,3.8-2.2,3.8l-1.5,0.1c-0.8,0-1.2,0-1.4-0.1c-0.6,0-1.2-0.8-1.7-2.6c-1-4.5-2.2-6.7-3.4-6.7l-0.2,0l-0.8,0.6
	c-0.3,1.1-0.4,5.9-0.3,14.5c0.1,1.7-0.3,2.5-1.2,2.6c-0.4,0-2.5,0.1-6.2,0.3c-0.6,0-1-0.2-1.2-0.7c0.4-21.1,0.8-34.5,1-40.3
	c0-0.6,2.4-1.1,7.3-1.3c0.1,0,0.3,0,0.6,0.1c0.3,0.3,1.2,2.8,2.7,7.5c2.8,9.5,4.4,14.2,5,14.2c0.8,0,1.5-1,2-2.8
	c3.9-11.6,6.3-18.2,7.3-19.8c0.8,0,3.3,0,7.6,0c0,0.1,0.1,0.3,0.2,0.6l-0.9,38.1C247.8,69.1,247.4,70,246.5,70.1z"/>
<path id="XMLID_101_" d="M317.1,26.9c-0.8,0-1.8,1.3-2.8,3.8c-3.1,7.6-5,11.3-5.6,11.3l-0.2,0c-0.9-4.1-1.8-7.7-2.8-10.8
	c-2.3-3.2-3.7-4.8-4.4-4.8c-7-0.2-10.5,0.1-10.6,1c-1.9,19.8-3.4,34-4.5,42.6c0.1,0.3,0.2,0.5,0.2,0.6c2.3,3.1,4.2,4.6,5.9,4.7
	c0.3-0.1,3.2-0.1,8.8,0.1c0.9,0,1.5-3.2,1.7-9.7l0-0.2l0.4,0c1.7,1.6,3.8,2.5,6.1,2.6c0.8,0,1.1,1.1,1.1,3.1
	c2.3,3.2,4.3,4.8,6.1,4.9l8.8,0.1c0.6,0,1.2-3.3,1.9-9.9l3.2-32.3c0.1-1.7-0.3-3.3-1.1-4.7C328.4,27.9,324.4,27.1,317.1,26.9z
	 M321.2,67.8c-0.1,1.9-0.5,2.9-1.5,2.9l-5.8-0.2l-0.4,0c-0.4,0-0.8-0.1-1.2-0.4c0.1-1.7,0.7-6.8,1.9-15.2c-0.2-0.6-0.6-1.1-1.1-1.4
	l-0.8,0c-0.6,0.2-1.6,2-3.1,5.4c-0.7,2.4-1.5,3.6-2.5,3.6l-1.5,0c-0.8,0-1.2-0.1-1.4-0.2c-0.6,0-1.1-0.9-1.5-2.7
	c-0.7-4.6-1.6-6.9-2.9-6.9l-0.2,0l-0.8,0.6c-0.4,1.1-0.9,5.9-1.4,14.4c-0.1,1.7-0.5,2.5-1.4,2.5c-0.4,0-2.5-0.1-6.3-0.2
	c-0.6,0-1-0.3-1.1-0.8c2.1-21,3.5-34.3,4.2-40c0-0.6,2.5-0.9,7.4-0.7c0.1,0,0.3,0.1,0.6,0.2c0.3,0.4,1,2.9,2.1,7.7
	c2,9.7,3.3,14.5,3.8,14.6c0.8,0,1.6-0.9,2.2-2.7c4.8-11.3,7.8-17.7,8.8-19.2c0.8,0,3.3,0.2,7.6,0.6c0,0.1,0.1,0.3,0.2,0.6
	L321.2,67.8z"/>
<path id="XMLID_104_" d="M363.6,30.3L360,30c-8.1-0.7-12.1-0.6-12.2,0.2c-3,7.7-7.9,21.3-14.8,40.7c-0.1,0.7,0.6,1.7,2.1,2.9
	c-0.1,1.4,3.9,2.8,12,4.2c1.1-0.5,1.7-1,1.7-1.6c1.4-4.7,2.3-7,2.8-7l0.2,0c0.4,0.2,0.5,0.4,0.5,0.6l-0.1,1.4c-0.1,1,0,1.9,0.3,2.8
	c2.2,2.9,3.7,4.4,4.5,4.5c3.9-0.1,5.9-0.2,5.9-0.3c3.1,0.1,4.7-0.2,4.8-1.1l-0.2-37.5C367.9,35.8,366.6,32.7,363.6,30.3z M354.8,73
	c-0.4-0.2-0.5-0.4-0.5-0.6l0.2-2.4c0.1-1.5,0.2-2.8,0.1-4.1c0.1-1.2-0.7-1.8-2.4-1.9l-3.7-0.3c-0.8-0.1-1.4,0.1-2,0.6
	c-1.7,5.2-2.8,7.8-3.2,7.8c-2.9-0.2-5.6-0.8-8.1-1.7c0.1-1,3.3-10,9.5-26.8c2.6-7.8,4.3-11.9,4.9-12.3c3.3,0.1,5.9,0.3,7.8,0.5
	l4.5,0.4l0.4,0.2c0.2,4.3,0.3,17.6,0.4,39.9C362.6,72.7,360,73,354.8,73z"/>
<path id="XMLID_105_" d="M353.8,47.1l-0.4,0c-0.6-0.1-2,2.9-4.3,8.9c0.2,0.8,0.7,1.3,1.5,1.3l3.5,0.3c0.6-0.5,1-0.7,1-0.7
	c0-0.2,0-2.1,0.1-5.5C355.4,48.7,355,47.2,353.8,47.1z"/>
<path id="XMLID_108_" d="M402.4,63.4c1.7-3.3,5.9-10.2,12.6-20.8l0.2-1.7l-2.5-3.4c0.1-0.6-3.2-1.5-9.9-2.5c-0.3,0-0.8,0.3-1.5,1
	c-1.4,2.5-2.4,3.8-2.8,3.9l-0.4-0.1c0.2-1.6-1-3.6-3.6-5.9c-6.6-0.7-10-0.8-10-0.4c-0.4,0.8-3.4,15-9,42.6c-0.1,0.5,0.2,1,0.8,1.5
	c1.2,2.4,2.9,3.7,5.3,4l7.2,1c1,0.1,1.7-1.2,2.1-4l0.3-2.1l0.4,0.1c0.2,1.4,0.7,2.5,1.7,3.3c2,2.5,3.5,3.8,4.5,3.9
	c5.7,0.8,8.6,0.7,8.7-0.1l0.1-0.6c-2.5-10.4-3.9-16.8-4.1-19.2L402.4,63.4z M394.5,78c0-0.1-0.1-0.2-0.3-0.2
	c-0.3-0.9-1.3-4.1-2.7-9.7c-0.4-3.3-1.2-5-2.2-5.2l-0.4-0.1c-0.6-0.1-1.1,0.8-1.5,2.7l-0.2,1.1c-0.3,2.3-0.8,5.4-1.5,9.3
	c-0.2,0.5-0.7,0.7-1.6,0.5c-0.8-0.1-1.6-0.3-2.4-0.5c-0.7,0-1.8-0.1-3.1-0.3l-0.2,0c-0.3,0-0.7-0.2-1.1-0.5
	c4.3-21.2,7.1-34.5,8.4-39.9c0.1-0.6,2.5-0.6,7.2,0l0.5,0.5c-1.4,6-2.4,11.5-3.2,16.4c0.3,0.7,0.7,1.1,1.2,1.1l0.4,0.1
	c0.6-0.1,2.4-2.5,5.3-7.2c3.5-6,5.6-9.2,6.3-9.4c4.4,0.6,6.6,1.2,6.6,1.7l-12.4,20.8l-0.1,0.9l4,17.6C401.2,78.6,399,78.7,394.5,78z
	"/>
<path id="XMLID_111_" d="M435,56.2c0.6,0.1,0.9,0.2,1.1,0.4l1.2,0.1l9.5,1.9c0.7-0.3,1.1-0.6,1.1-0.8l0.4-2.2
	c0.1-0.5,0.2-1.2,0.2-2.1c0.2-0.2,0.3-0.4,0.3-0.5c0.2-1.5,0.3-2.7,0.5-3.4c0.4-1.8-0.6-4.1-2.9-6.8L425,39.7
	c-0.7-0.1-1.3,0.1-1.7,0.8c-5.9,24.7-9.1,37.9-9.4,39.7c-0.1,0.6,0.1,1.3,0.6,2c1.5,2.3,3,3.7,4.8,4.3l0.4-0.1l16.9,4.3
	c0.3-0.1,0.5-0.1,0.6-0.1c0.7,0.1,2.1-3,4.4-9.5l0-1.2c-1.9-3.4-2.8-5.3-2.8-5.6c0.7-3.9,1.1-6.4,1.3-7.5c0.2-1.2-0.6-3.2-2.5-6.1
	c-2.8-1-4.1-1.8-4-2.4C434.1,56.9,434.6,56.1,435,56.2z M428.9,60.8l6,0.8c0.6,0.3,0.8,0.8,0.7,1.5l-1.3,6.7c0,0.2-0.2,0.3-0.4,0.3
	l-6.5-1.3c-1.4-0.3-2.2,0.2-2.4,1.3l-0.6,2.8c-0.2,0.9,0.3,1.4,1.4,1.6l10.8,2.1c0.2,0,0.3,0.2,0.3,0.4l-0.1,0.4
	c-0.1,0.5-0.2,0.7-0.3,0.7c-1.4,4.5-2.5,6.6-3.2,6.5c-0.6-0.2-1-0.4-1.1-0.4c-11.1-2.4-16.6-3.9-16.5-4.4l5.1-21.6
	c2.5-11.3,4-16.8,4.5-16.7c3,0.3,9.4,1.2,19.2,2.7c0.5,0.2,0.6,0.6,0.5,1.3l-0.7,3.7c-0.1,0.6-0.2,1.6-0.4,2.9
	c-0.4,0.4-0.9,0.6-1.5,0.5l-11.2-2.2c-1-0.2-2.1,2.9-3.4,9.2C427.7,59.9,428.1,60.4,428.9,60.8z"/>
<path id="XMLID_114_" d="M470.2,58.2l-1-0.3l-1.1-0.1c-0.7-0.2-2.2,3.5-4.3,11c-0.2,0.6,0.2,1.1,1.2,1.5l0.6,0.2
	c0.5,0.1,1.3,0.2,2.5,0.3c3.8-0.5,6-2.1,6.8-4.9c0-0.3,0-1,0.2-1.9C474.7,60.9,473.1,59,470.2,58.2z M472.7,65.5l-0.3,1.1
	c-1.3,1.1-2,1.6-2.3,1.6l-0.4-0.1l0.8-2.8c0.3-1,0.7-1.4,1.3-1.2C472.7,64.3,472.9,64.8,472.7,65.5z"/>
<path id="XMLID_117_" d="M470.6,48.8l-0.8-0.2c-5.7-1.1-8.7-1.3-8.9-0.7c-2.9,8.3-7.3,21.9-13.2,40.7c0.1,0.6,0.4,1.2,0.9,1.8
	c0.8,2.2,2.3,3.6,4.3,4.2l6.1,1.7c1.2,0.1,1.8-0.1,1.9-0.5l0.6-2.1l0.5-0.9l0.2,0.1c0.5,0.8,0.9,1.2,1.2,1.3c1.5,2.4,2.6,3.8,3.5,4
	c5.9,1.5,8.9,2,9,1.5l0.1-0.4c-1-11.7-1.5-17.7-1.4-18.1c5-2.3,8-5.5,9.2-9.7l1-3.6c0.5-2-0.1-4.7-1.9-8.2
	C481,54.3,476.8,50.6,470.6,48.8z M480.4,64.8l-0.6,2c-0.4,1.4-0.9,2.7-1.6,3.9c-0.7,1.1-3.3,2.9-7.8,5.4l-0.1,0.4l1.5,17.1
	c-0.1,0.3-2.4-0.1-6.9-1.2c0-0.1,0-0.2-0.2-0.2c-0.2-0.4-0.6-3.8-1-10.1c0.3-3.4-0.1-5.2-1.2-5.6l-0.4-0.1c-0.7,0.1-1.1,0.5-1.3,1.2
	l-3.3,11.9c-0.4,0.4-0.8,0.6-1,0.5l-3.7-1l-1.9-0.3c-0.7-0.5-0.9-0.9-0.9-1.2l12-37.1c0.4-1.4,3.1-1.3,8.2,0.1
	c1.6,0.4,3.2,1.1,4.8,2C479.9,55.8,481.7,60,480.4,64.8z"/>
<g id="XMLID_1_">
	<g id="XMLID_22_" class="st1">
		<g id="XMLID_319_">
			<polygon id="XMLID_320_" class="st2" points="54,23.8 52.8,24.7 42,19.9 43.2,19 			"/>
		</g>
		<g id="XMLID_317_">
			<polygon id="XMLID_318_" class="st2" points="43.2,19 42,19.9 39.1,8.3 40.3,7.4 			"/>
		</g>
		<g id="XMLID_315_">
			<polygon id="XMLID_316_" class="st2" points="58.3,23.6 57,24.5 45,31.5 46.2,30.6 			"/>
		</g>
		<g id="XMLID_313_">
			<polygon id="XMLID_314_" class="st3" points="54,23.8 52.8,24.7 43.1,30.3 44.4,29.4 			"/>
		</g>
		<g id="XMLID_311_">
			<polygon id="XMLID_312_" class="st2" points="32.4,14 31.2,14.9 40,4.1 41.2,3.2 			"/>
		</g>
		<g id="XMLID_309_">
			<polygon id="XMLID_310_" class="st3" points="33.3,16.1 32.1,17 39.1,8.3 40.3,7.4 			"/>
		</g>
		<g id="XMLID_307_">
			<polygon id="XMLID_308_" class="st2" points="44,41.1 42.7,42 43.1,30.3 44.4,29.4 			"/>
		</g>
		<g id="XMLID_305_">
			<polygon id="XMLID_306_" class="st3" points="44,41.1 42.7,42 33.9,33.8 35.1,32.9 			"/>
		</g>
		<g id="XMLID_303_">
			<polygon id="XMLID_304_" class="st2" points="33.3,16.1 32.1,17 20.6,15.4 21.9,14.5 			"/>
		</g>
		<g id="XMLID_301_">
			<polygon id="XMLID_302_" class="st3" points="28.3,24.7 27,25.6 20.6,15.4 21.9,14.5 			"/>
		</g>
		<g id="XMLID_299_">
			<polygon id="XMLID_300_" class="st2" points="45.7,45.2 44.5,46.1 33.4,36 34.7,35.1 			"/>
		</g>
		<g id="XMLID_297_">
			<polygon id="XMLID_298_" class="st2" points="26.1,24.8 24.9,25.7 16.9,13 18.1,12.1 			"/>
		</g>
		<g id="XMLID_295_">
			<polygon id="XMLID_296_" class="st3" points="35.1,32.9 33.9,33.8 22.9,36.2 24.1,35.3 			"/>
		</g>
		<g id="XMLID_290_">
			<polygon id="XMLID_294_" class="st3" points="24.1,35.3 22.9,36.2 27,25.6 28.3,24.7 			"/>
		</g>
		<g id="XMLID_288_">
			<polygon id="XMLID_289_" class="st4" points="40.3,7.4 43.2,19 54,23.8 44.4,29.4 44,41.1 35.1,32.9 24.1,35.3 28.3,24.7 
				21.9,14.5 33.3,16.1 			"/>
		</g>
		<g id="XMLID_72_">
			<path id="XMLID_84_" class="st2" d="M44.8,17.6l13.5,6l-12.1,7l-0.5,14.6L34.7,35.1l-13.8,3l5.2-13.2l-8-12.8l14.3,2l8.8-10.9
				L44.8,17.6z M44.4,29.4l9.7-5.6L43.2,19L40.3,7.4l-7,8.7l-11.4-1.6l6.4,10.2l-4.2,10.6l11-2.4l8.9,8.1L44.4,29.4"/>
		</g>
		<g id="XMLID_65_">
			<polygon id="XMLID_70_" class="st2" points="34.7,35.1 33.4,36 19.7,38.9 20.9,38.1 			"/>
		</g>
		<g id="XMLID_23_">
			<polygon id="XMLID_61_" class="st2" points="20.9,38.1 19.7,38.9 24.9,25.7 26.1,24.8 			"/>
		</g>
	</g>
</g>
<g id="XMLID_3_">
	<g id="XMLID_25_" class="st1">
		<g id="XMLID_286_">
			<polygon id="XMLID_287_" class="st2" points="58.1,127.7 59.8,128.9 49,131.5 47.2,130.3 			"/>
		</g>
		<g id="XMLID_284_">
			<polygon id="XMLID_285_" class="st2" points="63.6,117 65.3,118.2 59.8,128.9 58.1,127.7 			"/>
		</g>
		<g id="XMLID_282_">
			<polygon id="XMLID_283_" class="st2" points="47.2,130.3 49,131.5 56.3,138.8 54.6,137.7 			"/>
		</g>
		<g id="XMLID_280_">
			<polygon id="XMLID_281_" class="st2" points="54.6,137.7 56.3,138.8 53.8,150.3 52,149.1 			"/>
		</g>
		<g id="XMLID_278_">
			<polygon id="XMLID_279_" class="st2" points="78.4,127.6 80.1,128.8 69.5,128.1 67.8,126.9 			"/>
		</g>
		<g id="XMLID_276_">
			<polygon id="XMLID_277_" class="st5" points="63.6,117 65.3,118.2 69.5,128.1 67.8,126.9 			"/>
		</g>
		<g id="XMLID_274_">
			<polygon id="XMLID_275_" class="st2" points="63.8,112.7 65.5,113.9 70.8,126.2 69.1,125 			"/>
		</g>
		<g id="XMLID_272_">
			<polygon id="XMLID_273_" class="st5" points="62,143 63.7,144.1 53.8,150.3 52,149.1 			"/>
		</g>
		<g id="XMLID_270_">
			<polygon id="XMLID_271_" class="st2" points="61.9,145.1 63.6,146.3 51.1,154 49.4,152.8 			"/>
		</g>
		<g id="XMLID_268_">
			<polygon id="XMLID_269_" class="st5" points="78.4,127.6 80.1,128.8 71.9,137.5 70.1,136.3 			"/>
		</g>
		<g id="XMLID_266_">
			<polygon id="XMLID_267_" class="st2" points="82.4,125.9 84.1,127.1 73.8,138 72,136.8 			"/>
		</g>
		<g id="XMLID_264_">
			<polygon id="XMLID_265_" class="st5" points="70.1,136.3 71.9,137.5 73,148.6 71.3,147.5 			"/>
		</g>
		<g id="XMLID_262_">
			<polygon id="XMLID_263_" class="st5" points="71.3,147.5 73,148.6 63.7,144.1 62,143 			"/>
		</g>
		<g id="XMLID_260_">
			<polygon id="XMLID_261_" class="st5" points="52,149.1 54.6,137.7 47.2,130.3 58.1,127.7 63.6,117 67.8,126.9 78.4,127.6 
				70.1,136.3 71.3,147.5 62,143 			"/>
		</g>
		<g id="XMLID_126_">
			<path id="XMLID_127_" class="st2" d="M52.6,138.5l-9.1-9.2l13.6-3.2l6.8-13.4l5.2,12.3l13.3,0.9L72,136.8l1.4,13.9l-11.6-5.6
				l-12.4,7.7L52.6,138.5z M58.1,127.7l-10.9,2.6l7.3,7.3L52,149.1L62,143l9.3,4.5l-1.2-11.2l8.3-8.7l-10.7-0.7l-4.2-9.9L58.1,127.7
				"/>
		</g>
		<g id="XMLID_124_">
			<polygon id="XMLID_125_" class="st2" points="72,136.8 73.8,138 75.2,151.9 73.5,150.7 			"/>
		</g>
		<g id="XMLID_26_">
			<polygon id="XMLID_122_" class="st2" points="73.5,150.7 75.2,151.9 63.6,146.3 61.9,145.1 			"/>
		</g>
	</g>
</g>
<path id="XMLID_6_" d="M86.8,71.2c-1.5-4.7-5.1-8.6-10.8-11.6c-6.1-4.2-12.4-5.3-19-3.2c-4.8,1.5-6.9,2.9-6.5,4.1l11,39.4l0.5,1.5
	c3.2,2.2,5.9,3,8.2,2.2l3.3-1.1c3.1-1,5.9-2.8,8.6-5.4c1.6-1.3,3-3.3,4.1-6c3.1-5.2,3.4-11.6,0.9-19.3L86.8,71.2z M67.5,99l-0.9,0.3
	c-2.1,0.7-3.2,0.7-3.4,0.1L52.6,61.2c-0.3-1,0.9-1.9,3.7-2.8l2.4-0.8c1-0.3,2.8-0.5,5.4-0.7c8.7,0.8,14.5,5.6,17.3,14.4
	c0.4,1.2,0.8,2.8,1.2,4.9C82.9,88.1,77.8,95.7,67.5,99z"/>
<g id="XMLID_5_">
	<g id="XMLID_28_" class="st1">
		<g id="XMLID_292_">
			<polygon id="XMLID_293_" class="st2" points="30.8,89.6 28.3,90.2 23.1,84.4 25.5,83.8 			"/>
		</g>
		<g id="XMLID_257_">
			<polygon id="XMLID_291_" class="st2" points="25.5,83.8 23.1,84.4 23.4,76.2 25.9,75.7 			"/>
		</g>
		<g id="XMLID_255_">
			<polygon id="XMLID_256_" class="st2" points="34.3,90.9 31.8,91.5 23.2,93.2 25.6,92.6 			"/>
		</g>
		<g id="XMLID_253_">
			<polygon id="XMLID_254_" class="st6" points="30.8,89.6 28.3,90.2 22,91.4 24.4,90.8 			"/>
		</g>
		<g id="XMLID_250_">
			<polygon id="XMLID_252_" class="st2" points="20.2,77.3 17.8,77.9 25.1,72.6 27.6,72 			"/>
		</g>
		<g id="XMLID_248_">
			<polygon id="XMLID_249_" class="st7" points="20.4,79.6 18,80.1 23.4,76.2 25.9,75.7 			"/>
		</g>
		<g id="XMLID_246_">
			<polygon id="XMLID_247_" class="st2" points="22.2,98.3 19.8,98.9 22,91.4 24.4,90.8 			"/>
		</g>
		<g id="XMLID_244_">
			<polygon id="XMLID_245_" class="st8" points="22.2,98.3 19.8,98.9 16.2,91.4 18.6,90.9 			"/>
		</g>
		<g id="XMLID_242_">
			<polygon id="XMLID_243_" class="st2" points="20.4,79.6 18,80.1 11.8,76.3 14.3,75.7 			"/>
		</g>
		<g id="XMLID_240_">
			<polygon id="XMLID_241_" class="st9" points="16.2,83.9 13.7,84.5 11.8,76.3 14.3,75.7 			"/>
		</g>
		<g id="XMLID_238_">
			<polygon id="XMLID_239_" class="st2" points="22.7,102.8 20.2,103.3 15.3,93.3 17.8,92.7 			"/>
		</g>
		<g id="XMLID_236_">
			<polygon id="XMLID_237_" class="st2" points="14.4,83.2 12,83.8 9.4,72.7 11.9,72.1 			"/>
		</g>
		<g id="XMLID_234_">
			<polygon id="XMLID_235_" class="st6" points="18.6,90.9 16.2,91.4 9.6,90.3 12.1,89.7 			"/>
		</g>
		<g id="XMLID_232_">
			<polygon id="XMLID_233_" class="st10" points="12.1,89.7 9.6,90.3 13.7,84.5 16.2,83.9 			"/>
		</g>
		<g id="XMLID_230_">
			<polygon id="XMLID_231_" class="st11" points="25.9,75.7 25.5,83.8 30.8,89.6 24.4,90.8 22.2,98.3 18.6,90.9 12.1,89.7 
				16.2,83.9 14.3,75.7 20.4,79.6 			"/>
		</g>
		<g id="XMLID_68_">
			<path id="XMLID_69_" class="st2" d="M27.2,83.1l7.1,7.8l-8.6,1.7l-3,10.1l-4.9-10.1l-8.9-1.6l5.6-7.9l-2.6-11.1l8.4,5.2l7.4-5.3
				L27.2,83.1z M24.4,90.8l6.4-1.2l-5.2-5.7l0.3-8.2l-5.4,3.9l-6.2-3.8l1.9,8.2l-4.1,5.8l6.6,1.1l3.6,7.4L24.4,90.8"/>
		</g>
		<g id="XMLID_66_">
			<polygon id="XMLID_67_" class="st2" points="17.8,92.7 15.3,93.3 6.4,91.7 8.8,91.1 			"/>
		</g>
		<g id="XMLID_33_">
			<polygon id="XMLID_64_" class="st2" points="8.8,91.1 6.4,91.7 12,83.8 14.4,83.2 			"/>
		</g>
	</g>
</g>
<g id="XMLID_10_">
	<g id="XMLID_21_" class="st1">
		<g id="XMLID_225_">
			<polygon id="XMLID_251_" class="st2" points="441,130 438.5,130.6 436.5,118.7 439,118.2 			"/>
		</g>
		<g id="XMLID_207_">
			<polygon id="XMLID_208_" class="st2" points="449.7,135.9 447.2,136.5 438.5,130.6 441,130 			"/>
		</g>
		<g id="XMLID_205_">
			<polygon id="XMLID_206_" class="st2" points="441.5,140.6 439,141.2 447.2,136.5 449.7,135.9 			"/>
		</g>
		<g id="XMLID_203_">
			<polygon id="XMLID_204_" class="st2" points="440.7,152.3 438.3,152.9 439,141.2 441.5,140.6 			"/>
		</g>
		<g id="XMLID_201_">
			<polygon id="XMLID_202_" class="st12" points="432.8,126.3 430.4,126.8 436.5,118.7 439,118.2 			"/>
		</g>
		<g id="XMLID_199_">
			<polygon id="XMLID_200_" class="st2" points="432.2,124.1 429.7,124.7 437.4,114.6 439.9,114 			"/>
		</g>
		<g id="XMLID_181_">
			<polygon id="XMLID_182_" class="st13" points="440.7,152.3 438.3,152.9 431.2,143.9 433.7,143.3 			"/>
		</g>
		<g id="XMLID_179_">
			<polygon id="XMLID_180_" class="st2" points="442,156.6 439.6,157.2 430.8,146 433.2,145.4 			"/>
		</g>
		<g id="XMLID_177_">
			<polygon id="XMLID_178_" class="st2" points="432.8,126.3 430.4,126.8 420.9,124.2 423.4,123.6 			"/>
		</g>
		<g id="XMLID_175_">
			<polygon id="XMLID_176_" class="st14" points="428.3,134.5 425.9,135.1 420.9,124.2 423.4,123.6 			"/>
		</g>
		<g id="XMLID_173_">
			<polygon id="XMLID_174_" class="st2" points="426.6,134.4 424.1,134.9 417.9,121.4 420.4,120.8 			"/>
		</g>
		<g id="XMLID_171_">
			<polygon id="XMLID_172_" class="st15" points="424.5,144.7 422,145.3 425.9,135.1 428.3,134.5 			"/>
		</g>
		<g id="XMLID_169_">
			<polygon id="XMLID_170_" class="st3" points="433.7,143.3 431.2,143.9 422,145.3 424.5,144.7 			"/>
		</g>
		<g id="XMLID_165_">
			<path id="XMLID_166_" class="st2" d="M442.3,128.8l10.9,7.3L443,142l-1,14.6l-8.8-11.2l-11.5,1.7l4.8-12.8l-6.2-13.5l11.8,3.3
				l7.7-10.1L442.3,128.8z M441.5,140.6l8.2-4.7L441,130l-2-11.9l-6.2,8.1l-9.4-2.6l4.9,10.8l-3.9,10.3l9.2-1.4l7,9L441.5,140.6"/>
		</g>
		<g id="XMLID_121_">
			<polygon id="XMLID_123_" class="st16" points="439,118.2 441,130 449.7,135.9 441.5,140.6 440.7,152.3 433.7,143.3 424.5,144.7 
				428.3,134.5 423.4,123.6 432.8,126.3 			"/>
		</g>
		<g id="XMLID_119_">
			<polygon id="XMLID_120_" class="st2" points="433.2,145.4 430.8,146 419.2,147.7 421.7,147.2 			"/>
		</g>
		<g id="XMLID_24_">
			<polygon id="XMLID_41_" class="st2" points="421.7,147.2 419.2,147.7 424.1,134.9 426.6,134.4 			"/>
		</g>
	</g>
</g>
<g id="XMLID_9_">
	<g id="XMLID_32_" class="st1">
		<g id="XMLID_223_">
			<polygon id="XMLID_224_" class="st2" points="504.6,24 506.3,25.2 496,30.5 494.3,29.4 			"/>
		</g>
		<g id="XMLID_221_">
			<polygon id="XMLID_222_" class="st2" points="507.5,12.6 509.2,13.7 506.3,25.2 504.6,24 			"/>
		</g>
		<g id="XMLID_219_">
			<polygon id="XMLID_220_" class="st2" points="501.6,35.5 503.3,36.7 491.9,30.6 490.2,29.5 			"/>
		</g>
		<g id="XMLID_217_">
			<polygon id="XMLID_218_" class="st17" points="503.4,34.2 505.1,35.4 496,30.5 494.3,29.4 			"/>
		</g>
		<g id="XMLID_215_">
			<polygon id="XMLID_216_" class="st2" points="506.7,8.5 508.4,9.7 516.6,19.7 514.9,18.5 			"/>
		</g>
		<g id="XMLID_213_">
			<polygon id="XMLID_214_" class="st17" points="507.5,12.6 509.2,13.7 515.8,21.8 514.1,20.6 			"/>
		</g>
		<g id="XMLID_211_">
			<polygon id="XMLID_212_" class="st2" points="503.4,34.2 505.1,35.4 505.4,46.7 503.7,45.6 			"/>
		</g>
		<g id="XMLID_209_">
			<polygon id="XMLID_210_" class="st2" points="525,18.4 526.7,19.6 515.8,21.8 514.1,20.6 			"/>
		</g>
		<g id="XMLID_197_">
			<polygon id="XMLID_198_" class="st17" points="512.2,37.1 513.9,38.3 505.4,46.7 503.7,45.6 			"/>
		</g>
		<g id="XMLID_195_">
			<polygon id="XMLID_196_" class="st17" points="525,18.4 526.7,19.6 520.5,29.9 518.7,28.7 			"/>
		</g>
		<g id="XMLID_193_">
			<polygon id="XMLID_194_" class="st2" points="512.6,39.2 514.3,40.3 503.7,50.9 501.9,49.7 			"/>
		</g>
		<g id="XMLID_191_">
			<polygon id="XMLID_192_" class="st2" points="528.5,15.8 530.2,16.9 522.5,29.8 520.8,28.7 			"/>
		</g>
		<g id="XMLID_189_">
			<polygon id="XMLID_190_" class="st17" points="518.7,28.7 520.5,29.9 524.3,40 522.6,38.8 			"/>
		</g>
		<g id="XMLID_187_">
			<polygon id="XMLID_188_" class="st17" points="522.6,38.8 524.3,40 513.9,38.3 512.2,37.1 			"/>
		</g>
		<g id="XMLID_185_">
			<polygon id="XMLID_186_" class="st17" points="503.7,45.6 503.4,34.2 494.3,29.4 504.6,24 507.5,12.6 514.1,20.6 525,18.4 
				518.7,28.7 522.6,38.8 512.2,37.1 			"/>
		</g>
		<g id="XMLID_63_">
			<path id="XMLID_152_" class="st2" d="M501.6,35.5l-11.4-6.1l12.9-6.7l3.6-14.3l8.3,10.1l13.6-2.8l-7.8,12.9l4.8,12.6l-13.1-2.1
				l-10.6,10.6L501.6,35.5z M504.6,24l-10.3,5.4l9.1,4.8l0.2,11.4l8.5-8.5l10.4,1.7l-3.9-10.1l6.2-10.3l-10.9,2.2l-6.6-8.1L504.6,24
				"/>
		</g>
		<g id="XMLID_59_">
			<polygon id="XMLID_60_" class="st2" points="520.8,28.7 522.5,29.8 527.3,42.4 525.6,41.2 			"/>
		</g>
		<g id="XMLID_38_">
			<polygon id="XMLID_54_" class="st2" points="525.6,41.2 527.3,42.4 514.3,40.3 512.6,39.2 			"/>
		</g>
	</g>
</g>
<g id="XMLID_4_">
	<g id="XMLID_153_" class="st1">
		<g id="XMLID_392_">
			<polygon id="XMLID_393_" class="st2" points="512,113.1 510.8,114 506.9,106.6 508.1,105.7 			"/>
		</g>
		<g id="XMLID_390_">
			<polygon id="XMLID_391_" class="st2" points="520,114.4 518.7,115.3 510.8,114 512,113.1 			"/>
		</g>
		<g id="XMLID_388_">
			<polygon id="XMLID_389_" class="st2" points="514.6,120 513.3,120.9 518.7,115.3 520,114.4 			"/>
		</g>
		<g id="XMLID_386_">
			<polygon id="XMLID_387_" class="st2" points="516.3,128.1 515.1,129 513.3,120.9 514.6,120 			"/>
		</g>
		<g id="XMLID_384_">
			<polygon id="XMLID_385_" class="st18" points="505,112.9 503.7,113.8 506.9,106.6 508.1,105.7 			"/>
		</g>
		<g id="XMLID_382_">
			<polygon id="XMLID_383_" class="st2" points="503.6,111.1 502.4,112 506.7,102.2 507.9,101.3 			"/>
		</g>
		<g id="XMLID_380_">
			<polygon id="XMLID_381_" class="st18" points="516.3,128.1 515.1,129 507.8,125 509.1,124.1 			"/>
		</g>
		<g id="XMLID_378_">
			<polygon id="XMLID_379_" class="st2" points="519,131.7 517.8,132.6 507.9,127.2 509.2,126.3 			"/>
		</g>
		<g id="XMLID_376_">
			<polygon id="XMLID_377_" class="st2" points="505,112.9 503.7,113.8 495.9,114.8 497.2,113.9 			"/>
		</g>
		<g id="XMLID_374_">
			<polygon id="XMLID_375_" class="st18" points="503.2,119.7 501.9,120.6 495.9,114.8 497.2,113.9 			"/>
		</g>
		<g id="XMLID_372_">
			<polygon id="XMLID_373_" class="st2" points="501.2,120.4 499.9,121.3 491.8,113.3 493,112.5 			"/>
		</g>
		<g id="XMLID_370_">
			<polygon id="XMLID_371_" class="st18" points="502.2,127.8 501,128.7 501.9,120.6 503.2,119.7 			"/>
		</g>
		<g id="XMLID_164_">
			<polygon id="XMLID_369_" class="st18" points="509.1,124.1 507.8,125 501,128.7 502.2,127.8 			"/>
		</g>
		<g id="XMLID_160_">
			<path id="XMLID_161_" class="st2" d="M513.2,111.3l10.8,1.8l-7.3,7.6l2.4,11l-9.8-5.4l-9.3,4.9l1.3-10.9l-8.1-7.9l10.6-1.3
				l4.3-9.8L513.2,111.3z M514.6,120l5.4-5.6l-7.9-1.4l-3.9-7.4l-3.2,7.2l-7.8,1l6,5.8l-0.9,8l6.8-3.6l7.2,4L514.6,120"/>
		</g>
		<g id="XMLID_158_">
			<polygon id="XMLID_159_" class="st19" points="508.1,105.7 512,113.1 520,114.4 514.6,120 516.3,128.1 509.1,124.1 502.2,127.8 
				503.2,119.7 497.2,113.9 505,112.9 			"/>
		</g>
		<g id="XMLID_156_">
			<polygon id="XMLID_157_" class="st2" points="509.2,126.3 507.9,127.2 498.6,132.2 499.9,131.3 			"/>
		</g>
		<g id="XMLID_154_">
			<polygon id="XMLID_155_" class="st2" points="499.9,131.3 498.6,132.2 499.9,121.3 501.2,120.4 			"/>
		</g>
	</g>
</g>
</svg>
