<?xml version="1.0" encoding="utf-8"?>
<!-- Generator: Adobe Illustrator 19.0.0, SVG Export Plug-In . SVG Version: 6.00 Build 0)  -->
<svg version="1.1" id="Camada_1" xmlns="http://www.w3.org/2000/svg" xmlns:xlink="http://www.w3.org/1999/xlink" x="0px" y="0px"
	 viewBox="130 -36.3 872 1241" style="enable-background:new 130 -36.3 872 1241;" xml:space="preserve">
<style type="text/css">
	.st0{fill:#F46606;}
	.st1{fill:none;stroke:#C9561B;stroke-width:14;stroke-miterlimit:10;}
	.st2{fill:none;stroke:#C9561B;stroke-width:14;stroke-miterlimit:10;stroke-dasharray:12.0446,12.0446;}
	.st3{fill:none;stroke:#C9561B;stroke-width:14;stroke-miterlimit:10;stroke-dasharray:12.1063,12.1063;}
	.st4{fill:none;stroke:#0D0C0E;stroke-width:19;stroke-miterlimit:10;}
</style>
<g>
	<path d="M349.9,909.3l-9.6,8.5c-3.4-4.7-6.8-7-10.3-7c-1.7,0-3.1,0.5-4.2,1.4s-1.6,1.9-1.6,3.1c0,1.1,0.4,2.2,1.2,3.2
		c1.1,1.4,4.2,4.3,9.5,8.8c4.9,4.1,7.9,6.7,9,7.8c2.6,2.7,4.5,5.2,5.6,7.6c1.1,2.4,1.6,5.1,1.6,7.9c0,5.6-1.9,10.2-5.8,13.8
		c-3.9,3.6-8.9,5.5-15.1,5.5c-4.9,0-9.1-1.2-12.7-3.6s-6.7-6.1-9.2-11.2l10.9-6.6c3.3,6,7,9,11.3,9c2.2,0,4.1-0.6,5.6-1.9
		c1.5-1.3,2.3-2.8,2.3-4.5c0-1.5-0.6-3.1-1.7-4.6c-1.1-1.5-3.7-3.9-7.6-7.1c-7.4-6-12.2-10.7-14.4-14c-2.2-3.3-3.2-6.6-3.2-9.8
		c0-4.7,1.8-8.8,5.4-12.2c3.6-3.4,8-5.1,13.3-5.1c3.4,0,6.6,0.8,9.7,2.4C343,902.3,346.3,905.2,349.9,909.3z"/>
	<path d="M412.5,946.6h-40.6c0.6,3.6,2.2,6.4,4.7,8.5c2.5,2.1,5.8,3.2,9.7,3.2c4.7,0,8.8-1.7,12.2-5l10.6,5
		c-2.7,3.8-5.8,6.5-9.5,8.4c-3.7,1.8-8.1,2.7-13.2,2.7c-7.9,0-14.3-2.5-19.3-7.5c-5-5-7.5-11.2-7.5-18.7c0-7.7,2.5-14.1,7.4-19.1
		c5-5.1,11.2-7.6,18.6-7.6c7.9,0,14.4,2.5,19.4,7.6c5,5.1,7.5,11.8,7.5,20.1L412.5,946.6z M399.9,936.7c-0.8-2.8-2.5-5.1-4.9-6.9
		c-2.5-1.8-5.3-2.6-8.6-2.6c-3.5,0-6.6,1-9.3,3c-1.7,1.2-3.2,3.4-4.6,6.5H399.9z"/>
	<path d="M419.8,917.8h10.8v6.3c1.2-2.5,2.7-4.4,4.7-5.7c1.9-1.3,4.1-1.9,6.4-1.9c1.6,0,3.3,0.4,5.1,1.3l-3.9,10.9
		c-1.5-0.7-2.7-1.1-3.7-1.1c-1.9,0-3.6,1.2-4.9,3.6c-1.3,2.4-2,7.1-2,14.2l0,2.5v20.4h-12.5V917.8z"/>
	<path d="M480.1,900.1h12.9v68.1h-12.9V900.1z"/>
	<path d="M506.1,917.8h12.6v5.2c2.9-2.4,5.5-4.1,7.8-5c2.3-0.9,4.7-1.4,7.1-1.4c5,0,9.2,1.7,12.7,5.2c2.9,3,4.4,7.3,4.4,13.1v33.3
		h-12.5v-22.1c0-6-0.3-10-0.8-12c-0.5-2-1.5-3.5-2.8-4.5c-1.3-1-3-1.5-5-1.5c-2.6,0-4.7,0.9-6.6,2.6c-1.8,1.7-3.1,4.1-3.8,7.1
		c-0.4,1.6-0.6,5-0.6,10.2v20.2h-12.6V917.8z"/>
	<path d="M557.6,917.8h12.9l12.7,29.7l12.7-29.7h12.8l-21.4,50.4h-8.2L557.6,917.8z"/>
	<path d="M621,897.1c2.2,0,4.1,0.8,5.7,2.4c1.6,1.6,2.4,3.5,2.4,5.8c0,2.3-0.8,4.2-2.4,5.8s-3.4,2.4-5.6,2.4c-2.2,0-4.2-0.8-5.7-2.4
		s-2.4-3.6-2.4-5.9c0-2.2,0.8-4.1,2.4-5.7C616.9,897.8,618.8,897.1,621,897.1z M614.7,917.8h12.6v50.4h-12.6V917.8z"/>
	<path d="M669.7,924.8l-7.8,7.8c-3.2-3.1-6.1-4.7-8.7-4.7c-1.4,0-2.5,0.3-3.3,0.9c-0.8,0.6-1.2,1.3-1.2,2.2c0,0.7,0.3,1.3,0.8,1.9
		c0.5,0.6,1.8,1.3,3.8,2.3l4.6,2.3c4.9,2.4,8.2,4.9,10,7.4c1.8,2.5,2.7,5.4,2.7,8.8c0,4.5-1.6,8.2-4.9,11.2c-3.3,3-7.7,4.5-13.2,4.5
		c-7.3,0-13.2-2.9-17.6-8.6l7.8-8.5c1.5,1.7,3.2,3.1,5.2,4.2c2,1.1,3.8,1.6,5.3,1.6c1.7,0,3-0.4,4-1.2c1-0.8,1.5-1.7,1.5-2.8
		c0-1.9-1.8-3.8-5.5-5.7l-4.3-2.1c-8.1-4.1-12.2-9.2-12.2-15.4c0-4,1.5-7.4,4.6-10.2c3.1-2.8,7-4.2,11.8-4.2c3.3,0,6.3,0.7,9.2,2.2
		C665.2,920.1,667.7,922.1,669.7,924.8z"/>
	<path d="M685.5,897.1c2.2,0,4.1,0.8,5.7,2.4c1.6,1.6,2.4,3.5,2.4,5.8c0,2.3-0.8,4.2-2.4,5.8s-3.4,2.4-5.6,2.4
		c-2.2,0-4.2-0.8-5.7-2.4s-2.4-3.6-2.4-5.9c0-2.2,0.8-4.1,2.4-5.7C681.4,897.8,683.3,897.1,685.5,897.1z M679.2,917.8h12.6v50.4
		h-12.6V917.8z"/>
	<path d="M697.9,917.8h12.9l12.7,29.7l12.7-29.7H749l-21.4,50.4h-8.2L697.9,917.8z"/>
	<path d="M806.8,946.6h-40.6c0.6,3.6,2.2,6.4,4.7,8.5c2.5,2.1,5.8,3.2,9.7,3.2c4.7,0,8.8-1.7,12.2-5l10.6,5
		c-2.7,3.8-5.8,6.5-9.5,8.4c-3.7,1.8-8.1,2.7-13.2,2.7c-7.9,0-14.3-2.5-19.3-7.5s-7.5-11.2-7.5-18.7c0-7.7,2.5-14.1,7.4-19.1
		c5-5.1,11.2-7.6,18.6-7.6c7.9,0,14.4,2.5,19.4,7.6c5,5.1,7.5,11.8,7.5,20.1L806.8,946.6z M794.2,936.7c-0.8-2.8-2.5-5.1-4.9-6.9
		c-2.5-1.8-5.3-2.6-8.6-2.6c-3.5,0-6.6,1-9.3,3c-1.7,1.2-3.2,3.4-4.6,6.5H794.2z"/>
	<path d="M815.7,898.3h12.6v69.8h-12.6V898.3z"/>
</g>
<g>
	<path class="st0" d="M310.1,1034.4v4.4c1.8-1.8,3.8-3.2,5.9-4.1c2.1-0.9,4.4-1.4,6.8-1.4c5.2,0,9.7,2,13.3,5.9
		c3.7,3.9,5.5,9,5.5,15.2c0,6-1.9,10.9-5.7,14.9s-8.2,6-13.4,6c-2.3,0-4.4-0.4-6.4-1.2c-2-0.8-4-2.2-5.9-4v18.9h-10v-54.6H310.1z
		 M320.7,1042.6c-3.2,0-5.8,1.1-7.9,3.2s-3.1,5-3.1,8.5c0,3.6,1,6.4,3.1,8.6s4.7,3.3,7.9,3.3c3.1,0,5.6-1.1,7.7-3.3
		c2.1-2.2,3.1-5.1,3.1-8.5c0-3.4-1-6.2-3.1-8.4C326.4,1043.7,323.8,1042.6,320.7,1042.6z"/>
	<path class="st0" d="M347.5,1034.4h8.6v5c0.9-2,2.2-3.5,3.7-4.5s3.2-1.5,5.1-1.5c1.3,0,2.7,0.3,4.1,1l-3.1,8.6
		c-1.2-0.6-2.1-0.9-2.9-0.9c-1.5,0-2.8,1-3.9,2.9c-1.1,1.9-1.6,5.7-1.6,11.2l0,1.9v16.2h-10V1034.4z"/>
	<path class="st0" d="M414,1057.3h-32.2c0.5,2.8,1.7,5.1,3.7,6.8c2,1.7,4.6,2.5,7.7,2.5c3.7,0,7-1.3,9.7-3.9l8.5,4
		c-2.1,3-4.6,5.2-7.6,6.6c-2.9,1.4-6.4,2.2-10.5,2.2c-6.3,0-11.4-2-15.3-5.9s-5.9-8.9-5.9-14.9c0-6.1,2-11.2,5.9-15.2
		c3.9-4,8.9-6,14.8-6c6.3,0,11.4,2,15.4,6c3.9,4,5.9,9.4,5.9,16L414,1057.3z M404,1049.4c-0.7-2.2-2-4-3.9-5.4
		c-2-1.4-4.2-2.1-6.8-2.1c-2.8,0-5.3,0.8-7.4,2.4c-1.3,1-2.6,2.7-3.7,5.2H404z"/>
	<path class="st0" d="M461.3,1042.4l-8.4,4.6c-1.6-1.6-3.1-2.8-4.7-3.4c-1.5-0.6-3.3-1-5.4-1c-3.8,0-6.8,1.1-9.1,3.4
		c-2.3,2.2-3.5,5.1-3.5,8.6c0,3.4,1.1,6.2,3.3,8.3c2.2,2.2,5.2,3.2,8.8,3.2c4.5,0,8-1.5,10.5-4.6l7.9,5.4
		c-4.3,5.6-10.3,8.4-18.2,8.4c-7,0-12.5-2.1-16.5-6.2s-6-9-6-14.6c0-3.9,1-7.4,2.9-10.7c1.9-3.3,4.6-5.8,8.1-7.7
		c3.5-1.9,7.3-2.8,11.6-2.8c4,0,7.5,0.8,10.7,2.4C456.7,1037.3,459.3,1039.5,461.3,1042.4z M438.1,1073.8h6.2l-0.4,1.7
		c1.6,0.4,2.9,1.1,3.9,2.1c0.9,1.1,1.4,2.2,1.4,3.5c0,2-0.8,3.7-2.5,5.1c-1.7,1.4-4,2.1-6.9,2.1c-2.4,0-5.1-0.6-8.2-1.7l1.3-4.7
		c1.8,0.6,3.5,0.8,5.2,0.8c1.3,0,2.2-0.2,2.8-0.7c0.6-0.5,0.9-1.1,0.9-1.9c0-0.6-0.2-1.1-0.7-1.5c-0.5-0.4-1.2-0.6-2.2-0.6l-2.1,0.1
		L438.1,1073.8z"/>
	<path class="st0" d="M489.1,1033.3c3.8,0,7.3,0.9,10.6,2.8c3.3,1.9,5.9,4.4,7.8,7.7c1.9,3.2,2.8,6.7,2.8,10.5
		c0,3.8-0.9,7.3-2.8,10.6c-1.9,3.3-4.4,5.9-7.7,7.7c-3.2,1.8-6.8,2.8-10.7,2.8c-5.7,0-10.6-2-14.7-6.1c-4.1-4.1-6.1-9-6.1-14.9
		c0-6.3,2.3-11.5,6.9-15.6C479.3,1035.1,483.9,1033.3,489.1,1033.3z M489.3,1042.8c-3.1,0-5.7,1.1-7.8,3.3c-2.1,2.2-3.1,4.9-3.1,8.3
		c0,3.5,1,6.3,3.1,8.5c2,2.2,4.6,3.2,7.8,3.2c3.1,0,5.8-1.1,7.8-3.3c2.1-2.2,3.1-5,3.1-8.4c0-3.4-1-6.2-3.1-8.4
		C495.1,1043.9,492.5,1042.8,489.3,1042.8z"/>
	<path class="st0" d="M524,1033.3c1.6,0,3,0.6,4.1,1.7c1.1,1.1,1.7,2.5,1.7,4.1c0,1.6-0.6,2.9-1.7,4c-1.1,1.1-2.5,1.7-4.1,1.7
		c-1.6,0-3-0.6-4.1-1.7c-1.1-1.1-1.7-2.5-1.7-4.1c0-1.6,0.6-3,1.7-4.1C521.1,1033.9,522.4,1033.3,524,1033.3z M524,1063.9
		c1.6,0,3,0.6,4.1,1.7c1.1,1.1,1.7,2.5,1.7,4.1c0,1.6-0.6,3-1.7,4.1c-1.1,1.1-2.5,1.7-4.1,1.7c-1.6,0-3-0.6-4.1-1.7
		c-1.1-1.1-1.7-2.5-1.7-4.1c0-1.6,0.6-2.9,1.7-4.1C521.1,1064.4,522.4,1063.9,524,1063.9z"/>
	<path d="M568.2,1020.3h25.3v9.5h-17.6l-2.2,9.8c0.6-0.2,1.2-0.3,1.8-0.4c0.6-0.1,1.2-0.1,1.7-0.1c4.9,0,9,1.7,12.2,5
		c3.2,3.3,4.9,7.6,4.9,12.8c0,5.3-1.8,9.7-5.4,13.3c-3.6,3.6-8,5.4-13.1,5.4c-4.6,0-8.6-1.3-11.9-3.9c-3.3-2.6-5.5-6.2-6.5-10.8
		h10.8c0.8,1.7,1.9,3,3.3,3.8c1.4,0.9,2.9,1.3,4.5,1.3c2.3,0,4.2-0.8,5.8-2.5c1.6-1.6,2.4-3.7,2.4-6.3c0-2.5-0.7-4.6-2.2-6.2
		c-1.5-1.6-3.3-2.4-5.4-2.4c-1.1,0-2.2,0.3-3.3,0.8c-1.1,0.6-2.2,1.4-3.2,2.5l-8.4-1.9L568.2,1020.3z"/>
	<path d="M612,1033.6h-9.9c0.5-4,1.9-7.2,4.3-9.6c3.3-3.4,7.4-5.1,12.4-5.1c4.4,0,8.2,1.4,11.2,4.2c3,2.8,4.5,6.2,4.5,10
		c0,2.4-0.7,4.6-2,6.6c-1.3,2-3.2,3.6-5.7,4.8c3.3,1,5.9,2.7,7.7,5.1s2.8,5.3,2.8,8.6c0,4.9-1.8,9-5.4,12.3
		c-3.6,3.4-8.1,5.1-13.7,5.1c-5.2,0-9.5-1.6-12.8-4.8c-3.3-3.2-5.1-7.5-5.4-13h10.2c0.4,2.8,1.4,4.9,2.9,6.2c1.5,1.4,3.4,2,5.7,2
		c2.4,0,4.4-0.8,6-2.3c1.6-1.5,2.4-3.4,2.4-5.7c0-2.5-1.1-4.5-3.2-6.2c-2.1-1.7-5.2-2.6-9.2-2.6v-8.8c2.5-0.2,4.3-0.6,5.5-1.2
		c1.2-0.6,2.2-1.4,2.8-2.4c0.7-1,1-2.1,1-3.2c0-1.5-0.5-2.7-1.5-3.7s-2.4-1.5-4-1.5c-1.5,0-2.8,0.4-4,1.3
		C613.3,1031,612.5,1032.2,612,1033.6z"/>
	<path d="M695.6,1034.4h10v40h-10v-4.2c-2,1.9-3.9,3.2-5.9,4c-2,0.8-4.1,1.2-6.4,1.2c-5.2,0-9.6-2-13.4-6c-3.8-4-5.7-9-5.7-14.9
		c0-6.2,1.8-11.2,5.5-15.2c3.6-3.9,8.1-5.9,13.3-5.9c2.4,0,4.7,0.5,6.8,1.4c2.1,0.9,4.1,2.3,5.8,4.1V1034.4z M685,1042.6
		c-3.1,0-5.7,1.1-7.7,3.3c-2.1,2.2-3.1,5-3.1,8.4c0,3.5,1,6.3,3.1,8.5s4.7,3.3,7.7,3.3c3.2,0,5.8-1.1,7.8-3.3s3.1-5.1,3.1-8.6
		c0-3.5-1-6.3-3.1-8.5S688.2,1042.6,685,1042.6z"/>
	<path d="M715.8,1034.4h10v4.1c2.3-1.9,4.3-3.3,6.2-4s3.7-1.1,5.7-1.1c4,0,7.3,1.4,10.1,4.2c2.3,2.4,3.5,5.8,3.5,10.4v26.4h-9.9
		v-17.5c0-4.8-0.2-7.9-0.6-9.5c-0.4-1.6-1.2-2.8-2.2-3.6c-1.1-0.8-2.4-1.2-3.9-1.2c-2,0-3.8,0.7-5.2,2c-1.5,1.4-2.5,3.2-3,5.6
		c-0.3,1.2-0.4,4-0.4,8.1v16h-10V1034.4z"/>
	<path d="M779.7,1033.3c3.8,0,7.3,0.9,10.6,2.8c3.3,1.9,5.9,4.4,7.8,7.7c1.9,3.2,2.8,6.7,2.8,10.5c0,3.8-0.9,7.3-2.8,10.6
		s-4.4,5.9-7.7,7.7c-3.2,1.8-6.8,2.8-10.7,2.8c-5.7,0-10.6-2-14.7-6.1c-4.1-4.1-6.1-9-6.1-14.9c0-6.3,2.3-11.5,6.9-15.6
		C769.9,1035.1,774.5,1033.3,779.7,1033.3z M779.9,1042.8c-3.1,0-5.7,1.1-7.8,3.3c-2.1,2.2-3.1,4.9-3.1,8.3c0,3.5,1,6.3,3.1,8.5
		c2,2.2,4.6,3.2,7.8,3.2s5.8-1.1,7.8-3.3c2.1-2.2,3.1-5,3.1-8.4c0-3.4-1-6.2-3.1-8.4S783.1,1042.8,779.9,1042.8z"/>
	<path d="M833.6,1039.9l-6.2,6.2c-2.5-2.5-4.8-3.7-6.9-3.7c-1.1,0-2,0.2-2.6,0.7c-0.6,0.5-1,1.1-1,1.8c0,0.5,0.2,1,0.6,1.5
		c0.4,0.5,1.4,1.1,3,1.9l3.7,1.8c3.9,1.9,6.5,3.9,8,5.8c1.4,2,2.2,4.3,2.2,7c0,3.6-1.3,6.5-3.9,8.9s-6.1,3.6-10.5,3.6
		c-5.8,0-10.5-2.3-14-6.8l6.2-6.7c1.2,1.4,2.6,2.5,4.1,3.3c1.6,0.8,3,1.3,4.2,1.3c1.3,0,2.4-0.3,3.2-1c0.8-0.6,1.2-1.4,1.2-2.2
		c0-1.5-1.5-3.1-4.4-4.5l-3.4-1.7c-6.5-3.3-9.7-7.3-9.7-12.2c0-3.2,1.2-5.9,3.7-8.1c2.4-2.2,5.6-3.4,9.4-3.4c2.6,0,5,0.6,7.3,1.7
		C830.1,1036.2,832,1037.8,833.6,1039.9z"/>
</g>
<g>
	<rect x="541.6" y="1089.5" class="st0" width="286.9" height="1"/>
</g>
<g id="XMLID_5_">
	<g id="XMLID_105_">
		<path id="XMLID_109_" class="st1" d="M651.2,423c-1.8-0.8-3.7-1.6-5.5-2.4c1.7-1.1,3.3-2.3,4.9-3.4"/>
		<path id="XMLID_108_" class="st2" d="M660,409.8c29.9-25.9,48.8-63.9,48.8-106.3c0-77.9-63.8-141-142.5-141s-142.5,63.1-142.5,141
			c0,44.5,20.8,84.2,53.4,110.1"/>
		<path id="XMLID_107_" class="st1" d="M481.9,417.3c1.6,1.2,3.3,2.3,4.9,3.4c-1.9,0.8-3.7,1.5-5.5,2.4"/>
		<path id="XMLID_106_" class="st3" d="M470.4,428.3c-66.7,34.3-112.2,103.2-112.2,182.8c0,113.7,93.2,205.9,208.1,205.9
			s208.1-92.2,208.1-205.9c0-81.7-48-152.2-117.7-185.5"/>
	</g>
</g>
<circle id="XMLID_4_" class="st4" cx="566.5" cy="397.8" r="420.9"/>
</svg>
