<?xml version="1.0" encoding="utf-8"?>
<!-- Generator: Adobe Illustrator 19.0.0, SVG Export Plug-In . SVG Version: 6.00 Build 0)  -->
<svg version="1.1" id="Camada_1" xmlns="http://www.w3.org/2000/svg" xmlns:xlink="http://www.w3.org/1999/xlink" x="0px" y="0px"
	 viewBox="0 0 779 398" style="enable-background:new 0 0 779 398;" xml:space="preserve">
<style type="text/css">
	.st0{fill:#F3F0C8;stroke:#1B1C1D;stroke-miterlimit:10;}
	.st1{fill:#E2DB41;stroke:#1B1C1D;stroke-miterlimit:10;}
	.st2{fill:#BD2370;stroke:#1B1C1D;stroke-miterlimit:10;}
	.st3{fill:#97466F;stroke:#1B1C1D;stroke-miterlimit:10;}
	.st4{enable-background:new    ;}
	.st5{fill:#050206;}
	.st6{fill:#79476D;}
	.st7{fill:#724366;}
	.st8{fill:#754569;}
	.st9{fill:#7B496E;}
	.st10{fill:#6E4163;}
	.st11{fill:#B26C9B;}
	.st12{fill:#2A6462;}
	.st13{fill:#459797;}
	.st14{fill:#B16B9B;}
	.st15{fill:#223161;}
	.st16{fill:#263568;}
	.st17{fill:#263466;}
	.st18{fill:#263668;}
	.st19{fill:#28376A;}
	.st20{fill:#3C4F8F;}
</style>
<rect id="XMLID_479_" x="-40" y="179.2" class="st0" width="862" height="117.8"/>
<path id="XMLID_2_" class="st1" d="M90.9,39c-0.2,2-0.8,3.8-1.6,5.4c-0.8,1.6-1.9,2.8-3.2,3.8c-1.3,1-2.8,1.7-4.5,2.2
	c-1.7,0.5-3.5,0.7-5.4,0.7c-1.8,0-3.5-0.2-5-0.6c-1.5-0.4-2.8-0.9-3.8-1.6c-1-0.7-2-1.5-2.7-2.4c-0.8-0.9-1.4-1.9-1.9-2.9
	c-0.5-1-0.9-2.1-1.1-3.3S61,38,60.9,36.9s-0.2-2.1-0.2-3.2v-1.8c0.1-2,0.6-3.7,1.4-5.3c0.8-1.6,1.7-2.8,2.8-3.8
	c1.1-1,2.4-1.8,3.8-2.4c1.4-0.6,2.8-1.1,4.2-1.3c1.4-0.2,2.7-0.4,4.1-0.4c2.2,0,4.1,0.3,5.7,0.8c1.7,0.5,3,1.3,4.1,2.2
	c1.1,0.9,1.9,2,2.5,3.2c0.6,1.2,1,2.6,1.1,4.1V31c0,0.4-1.5,0.6-4.4,0.6c-0.7,0-1.7,0-2.9,0c-1.2,0-2.1,0-2.5,0c-0.1,0-0.2,0-0.3,0
	s-0.2,0-0.3,0c-0.4,0-0.6-0.1-0.8-0.4c-0.2-0.3-0.3-0.6-0.4-1.1c-0.1-0.4-0.1-0.8-0.2-1.3c-0.1-0.4-0.3-0.8-0.5-1.1
	c-0.3-0.3-0.7-0.4-1.1-0.4c-0.5,0-0.9,0.1-1.3,0.2c-0.4,0.2-0.7,0.4-0.9,0.8c-0.2,0.3-0.4,0.7-0.5,1c-0.1,0.4-0.2,0.8-0.3,1.4
	c-0.1,0.6-0.1,1-0.1,1.4c0,0.4,0,0.9-0.1,1.5c0,0.6,0,1.1,0,1.4c0,0.2,0,0.5,0,0.9c0,0.4,0,0.8,0,1.1c0,3.4,0.9,5.1,2.7,5.2
	c0.5,0,0.9-0.2,1.2-0.5c0.3-0.4,0.5-0.7,0.6-1.2c0.1-0.4,0.2-0.9,0.4-1.4s0.3-0.8,0.5-1h11C90.6,38.2,90.8,38.5,90.9,39z"/>
<path id="XMLID_4_" class="st1" d="M97.4,49.8c0.8-3.1,1.8-6.2,2.8-9.4c1-3.2,2.3-7,3.8-11.4c1.5-4.4,2.5-7.5,3.1-9.2
	c0.2-0.3,0.3-0.4,0.3-0.5h3.4c0.8,0,2,0,3.5,0c1.5,0,2.7,0,3.5,0h3.4c0.2,0,0.4,0,0.5,0s0.3,0,0.5,0.1c0.2,0,0.3,0.1,0.5,0.1
	c0.1,0.1,0.2,0.1,0.3,0.2c0.1,0.1,0.1,0.2,0.1,0.4l9.3,29.5c0,0.3-0.1,0.5-0.3,0.6c-0.2,0.1-0.6,0.2-1.1,0.2H129c-0.5,0-1.3,0-2.4,0
	c-1.1,0-1.9,0-2.4,0c-0.2,0-0.5,0-1,0s-0.9,0-1.2,0c-0.3,0-0.7,0-1.1-0.1c-0.4,0-0.7-0.1-1-0.2c-0.2-0.1-0.4-0.3-0.5-0.5v-1.3
	c-0.1-0.7-0.4-1.3-0.7-1.9c-0.3-0.6-0.7-0.8-1.1-0.8h-7l-1.1,4.3c-0.1,0.3-0.9,0.5-2.3,0.5h-1.6c-0.6,0-1.4,0-2.6,0.1
	c-1.1,0-2,0.1-2.6,0.1H100c-0.2,0-0.6,0-1,0c-0.5,0-0.8,0-1.1,0C97.8,50.4,97.6,50.2,97.4,49.8z M111.4,37.5l0.6,1h1.3
	c1.1,0,2.1-0.1,3-0.2s1.3-0.3,1.3-0.6L115,26c-0.2,0-0.6,0.5-1,1.4c-0.4,0.9-0.7,2-1,3.1L111.4,37.5z"/>
<path id="XMLID_7_" class="st1" d="M140.5,20.1c0-0.1,0.1-0.3,0.3-0.4c0.2-0.1,0.4-0.2,0.7-0.3c0.3-0.1,0.6-0.1,1-0.2
	c0.3,0,0.7-0.1,1.2-0.1c0.5,0,0.8,0,1.1,0s0.6,0,1,0c0.4,0,0.6,0,0.7,0h2.3c0.4,0,1.1,0,1.9,0c0.8,0,1.4,0,1.8,0
	c6.4,0,11,1.1,13.8,3.3l0.7,0.6c0.2,0.2,0.5,0.5,0.8,0.8c0.3,0.3,0.6,0.9,1,1.6c0.4,0.7,0.8,1.4,1.1,2.3c0.3,0.8,0.6,1.8,0.8,3
	s0.3,2.4,0.3,3.7c0,2-0.3,3.8-0.8,5.5s-1.3,3.2-2.2,4.4s-2,2.3-3.3,3.2s-2.6,1.6-4.1,2c-1.5,0.5-3,0.7-4.5,0.7h-0.6
	c-0.6,0-1.4,0-2.6,0c-1.1,0-2,0-2.6,0c-3.4,0-6.4,0.1-9.2,0.2c-0.3-0.6-0.5-1.2-0.5-1.8V20.1z M152.4,43.3c0.8,0,1.5-0.1,2.2-0.3
	c0.6-0.2,1.2-0.4,1.6-0.7c0.4-0.3,0.8-0.7,1.2-1.1c0.3-0.5,0.6-0.9,0.8-1.4c0.2-0.5,0.4-1,0.5-1.7c0.1-0.6,0.2-1.2,0.2-1.8
	s0.1-1.2,0.1-1.9v-1.3c0-2.5-0.5-4.3-1.5-5.5c-1-1.2-2.7-1.8-5.2-1.9c-0.1,0.1-0.2,0.4-0.3,0.6c-0.1,0.3-0.3,0.5-0.3,0.6v1
	c0,0.2,0,0.7,0,1.6C151.4,38.7,151.7,43.2,152.4,43.3z"/>
<path id="XMLID_10_" class="st1" d="M176.6,49.8c0.8-3.1,1.8-6.2,2.8-9.4c1-3.2,2.3-7,3.8-11.4c1.5-4.4,2.5-7.5,3.1-9.2
	c0.2-0.3,0.3-0.4,0.3-0.5h3.4c0.8,0,2,0,3.5,0c1.5,0,2.7,0,3.5,0h3.4c0.2,0,0.4,0,0.5,0s0.3,0,0.5,0.1c0.2,0,0.3,0.1,0.5,0.1
	c0.1,0.1,0.2,0.1,0.3,0.2c0.1,0.1,0.1,0.2,0.1,0.4l9.3,29.5c0,0.3-0.1,0.5-0.3,0.6c-0.2,0.1-0.6,0.2-1.1,0.2h-1.9
	c-0.5,0-1.3,0-2.4,0c-1.1,0-1.9,0-2.4,0c-0.2,0-0.5,0-1,0s-0.9,0-1.2,0c-0.3,0-0.7,0-1.1-0.1c-0.4,0-0.7-0.1-1-0.2
	c-0.2-0.1-0.4-0.3-0.5-0.5v-1.3c-0.1-0.7-0.4-1.3-0.7-1.9c-0.3-0.6-0.7-0.8-1.1-0.8h-7l-1.1,4.3c-0.1,0.3-0.9,0.5-2.3,0.5H185
	c-0.6,0-1.4,0-2.6,0.1c-1.1,0-2,0.1-2.6,0.1h-0.6c-0.2,0-0.6,0-1,0c-0.5,0-0.8,0-1.1,0C177.1,50.4,176.9,50.2,176.6,49.8z
	 M190.6,37.5l0.6,1h1.3c1.1,0,2.1-0.1,3-0.2s1.3-0.3,1.3-0.6L194.2,26c-0.2,0-0.6,0.5-1,1.4c-0.4,0.9-0.7,2-1,3.1L190.6,37.5z"/>
<path id="XMLID_13_" class="st1" d="M232.3,51c-1.6-0.1-3-0.2-4.3-0.4c-1.3-0.2-2.5-0.5-3.7-1c-1.2-0.5-2.2-1.1-3-1.8
	c-0.8-0.7-1.5-1.6-2-2.7s-0.9-2.4-1-3.8c0-0.3,0.1-0.4,0.4-0.4c0.1,0,0.2,0,0.4,0c1.1,0,2.8,0,5.1-0.1c2.3-0.1,4-0.1,5.1-0.1
	c0.3,0,0.5,0.1,0.7,0.3s0.3,0.4,0.4,0.7s0.2,0.5,0.4,0.8s0.4,0.5,0.7,0.7s0.8,0.3,1.3,0.3c0.7,0,1.2-0.2,1.7-0.6
	c0.5-0.4,0.8-0.9,0.8-1.5c0-0.4-0.2-0.8-0.6-1.2c-0.4-0.4-1-0.6-1.7-0.9c-0.7-0.2-1.4-0.4-2-0.6c-0.6-0.2-1.3-0.3-2-0.4
	s-1.1-0.2-1.2-0.2c-3.3-0.9-5.6-2-7.1-3.3c-1.4-1.3-2.2-3.1-2.2-5.4c0-1.6,0.3-3.1,0.9-4.4c0.6-1.3,1.4-2.3,2.3-3.2
	c1-0.8,2.1-1.5,3.4-2c1.3-0.5,2.6-0.9,4-1.2c1.3-0.2,2.7-0.3,4.1-0.3c3.8,0,6.8,0.7,9.1,2.1c0.8,0.8,1.4,1.4,1.8,1.9
	s0.8,0.9,1.1,1.5s0.6,1.1,0.7,1.7c0.1,0.5,0.2,1.2,0.3,2l-0.7,0.7c-2.8,0.1-5.9,0.2-9.3,0.2c-0.4,0-0.8,0-1-0.1
	c-0.3-0.1-0.4-0.2-0.5-0.4c-0.1-0.1-0.2-0.3-0.3-0.5c-0.1-0.2-0.2-0.3-0.2-0.5c-0.1-0.1-0.2-0.3-0.5-0.4c-0.2-0.1-0.5-0.1-0.9-0.1
	c-0.1,0-0.3,0-0.5,0.1c-0.2,0-0.5,0.1-0.8,0.2c-0.3,0.1-0.6,0.2-0.8,0.4s-0.3,0.4-0.3,0.6c0,0.3,0.2,0.6,0.5,0.8
	c0.3,0.2,0.6,0.4,1,0.5c0.3,0.1,0.8,0.2,1.3,0.4s0.8,0.2,0.9,0.3c2.9,0.7,4.7,1.2,5.3,1.4c3,0.9,5,2.1,6.3,3.7
	c1.1,1.4,1.7,3.2,1.7,5.3c0,1.3-0.2,2.4-0.5,3.5s-0.8,1.9-1.3,2.7c-0.5,0.7-1.2,1.4-2,1.9c-0.8,0.6-1.6,1-2.5,1.4
	c-0.8,0.3-1.8,0.6-2.8,0.8c-1.1,0.2-2,0.4-2.9,0.5C234.3,50.9,233.3,51,232.3,51z"/>
<path id="XMLID_15_" class="st1" d="M254.2,25.6c0-0.2,0-0.6,0-1.1s0-0.8,0-1c0-0.1,0-0.3,0-0.7c0-0.4,0-0.8,0-1.1
	c0-1.4,0.1-2.1,0.4-2.1c0.1,0,0.2,0,0.3,0c2.8,0,7,0,12.5-0.1s9.7-0.1,12.4-0.1c0.7,0,1.1,0.1,1.3,0.2c0.2,0.1,0.3,0.4,0.3,0.7v0.6
	c0,0.7,0,1.7,0,3.1c0,1.4,0,2.4,0,3.1c0,0.7-0.2,1.1-0.6,1.1c-0.8,0-1.9,0-3.4,0c-1.5,0-2.6,0-3.4,0v21.7c-0.1,0.4-0.3,0.6-0.7,0.6
	c-0.5,0-1.2,0-2.1,0c-0.9,0-1.6,0-2.1,0c0,0-0.1,0-0.1,0c-0.6,0-1.4,0-2.5,0c-1.1,0-1.9,0-2.4,0h-1.2c-0.3,0-0.7,0-1.2,0l-0.8-1
	c0-2,0.1-5.1,0.2-9.1s0.2-7.1,0.2-9.1c0-0.1,0-0.2,0-0.5c0-0.2,0-0.4,0-0.5c0-0.1,0-0.3,0-0.5c0-0.2-0.1-0.4-0.1-0.5
	c0-0.1-0.1-0.3-0.2-0.4s-0.2-0.2-0.3-0.3s-0.3-0.1-0.4-0.1h-5.8C254.4,28.3,254.2,27.3,254.2,25.6z"/>
<path id="XMLID_17_" class="st1" d="M319.4,49.9c-0.3,0.3-0.9,0.5-1.9,0.5s-2.1,0-3.5,0c-1.4-0.1-2.1-0.1-2.2-0.1c-0.9,0-1.6,0-2,0
	h-2c-0.3-0.1-0.5-0.5-0.7-1.3s-0.4-1.9-0.6-3.4c-0.2-1.5-0.3-2.3-0.3-2.4c-0.1-1.3-0.3-2.2-0.6-2.6c-0.4-0.4-1.1-0.6-2.1-0.6h-0.9
	v9.9c0,0.2-0.2,0.3-0.4,0.4s-0.6,0.2-1.1,0.2c-0.5,0-0.9,0.1-1.3,0.1c-0.4,0-0.9,0-1.5,0c-0.6,0-1,0-1.1,0h-2.9c-1.6,0-2.9,0-3.7,0
	c-0.2-0.1-0.4-0.2-0.6-0.3V20c0-0.4,0.5-0.6,1.6-0.6h17.6c3.1,0.1,5.4,0.8,7,2.2c1.6,1.4,2.4,3.3,2.4,5.8c0,3.3-1.6,5.6-4.9,7.2
	c0.6,0.2,1.2,0.5,1.6,0.8c0.5,0.3,0.9,0.7,1.2,1.1c0.3,0.4,0.6,0.8,0.8,1.4c0.2,0.5,0.4,1,0.6,1.5c0.1,0.5,0.3,1,0.4,1.7
	c0.1,0.6,0.2,1.2,0.2,1.7s0.1,1,0.2,1.7c0.1,0.7,0.1,1.2,0.2,1.5v1.8c0,0.2,0.2,0.5,0.4,0.9c0.2,0.4,0.3,0.7,0.4,0.9
	C319.6,49.8,319.5,49.9,319.4,49.9z M302.4,28c0,0.8,0,1.4,0,1.8c0,0.4,0.1,0.9,0.2,1.5c0.1,0.6,0.3,1.1,0.6,1.4
	c0.6,0,1.1-0.1,1.6-0.2c0.5-0.1,1-0.3,1.5-0.6s0.8-0.7,1.1-1.2c0.3-0.5,0.4-1.2,0.4-1.9c0-0.4-0.1-0.8-0.2-1.1
	c-0.1-0.3-0.4-0.6-0.6-0.8c-0.3-0.2-0.6-0.3-0.8-0.5c-0.3-0.1-0.6-0.2-1-0.2s-0.7-0.1-0.9-0.1c-0.2,0-0.5,0-0.8,0h-0.5
	c-0.2,0.1-0.3,0.3-0.4,0.6C302.5,27,302.4,27.4,302.4,28z"/>
<path id="XMLID_20_" class="st1" d="M328.3,49.1v-0.8c0-2.3,0-5.7,0.1-10.2s0.1-7.9,0.1-10.2v-8.4H352v6.6c0,0,0,0.1,0,0.3
	c0,0.2,0,0.3,0,0.3s0,0.2,0,0.3c0,0.1,0,0.2-0.1,0.3s-0.1,0.1-0.1,0.2c-0.1,0.1-0.1,0.2-0.2,0.2c-0.1,0-0.2,0.1-0.3,0.1
	c-0.1,0-0.3,0.1-0.4,0.1h-0.6c-3.5,0-6.7-0.1-9.5-0.2c0,0.2-0.1,0.5-0.1,1s-0.1,0.8-0.1,1.2s-0.1,0.7-0.1,1h9.6
	c0.4,0,0.7,0.1,0.8,0.2c0.1,0.1,0.2,0.3,0.2,0.5c0,0.1,0,0.2,0,0.3c0,0.1,0,0.3,0,0.3c0,0.6,0,1.6,0.1,2.9c0,1.3,0.1,2.2,0.1,2.9
	c0,0.3-0.1,0.4-0.3,0.4c-0.1,0-0.1,0-0.2-0.1c-4.3,0.2-7.4,0.3-9.5,0.3h-0.5v2.9c1.2,0,2.9-0.1,5.2-0.2c2.3-0.1,4-0.2,5.1-0.2
	c0.9,0,1.4,0.2,1.5,0.6v1.5c0,0.6,0,1.6,0,2.9c0,1.3,0,2.2,0,2.9c0,0.7-0.3,1-0.8,1c-0.7,0-1.8,0-3.2,0c-1.5,0-2.6,0-3.3,0
	c-1.9,0-4.7,0.1-8.3,0.2c-3.6,0.1-6.2,0.2-7.8,0.2l-0.6-0.6C328.4,49.4,328.3,49.2,328.3,49.1z"/>
<path id="XMLID_22_" class="st1" d="M393.9,51c-1.6-0.1-3-0.2-4.3-0.4c-1.3-0.2-2.5-0.5-3.7-1c-1.2-0.5-2.2-1.1-3-1.8
	c-0.8-0.7-1.5-1.6-2-2.7s-0.9-2.4-1-3.8c0-0.3,0.1-0.4,0.4-0.4c0.1,0,0.2,0,0.4,0c1.1,0,2.8,0,5.1-0.1c2.3-0.1,4-0.1,5.1-0.1
	c0.3,0,0.5,0.1,0.7,0.3s0.3,0.4,0.4,0.7s0.2,0.5,0.4,0.8s0.4,0.5,0.7,0.7s0.8,0.3,1.3,0.3c0.7,0,1.2-0.2,1.7-0.6
	c0.5-0.4,0.8-0.9,0.8-1.5c0-0.4-0.2-0.8-0.6-1.2c-0.4-0.4-1-0.6-1.7-0.9c-0.7-0.2-1.4-0.4-2-0.6c-0.6-0.2-1.3-0.3-2-0.4
	s-1.1-0.2-1.2-0.2c-3.3-0.9-5.6-2-7.1-3.3c-1.4-1.3-2.2-3.1-2.2-5.4c0-1.6,0.3-3.1,0.9-4.4c0.6-1.3,1.4-2.3,2.3-3.2
	c1-0.8,2.1-1.5,3.4-2c1.3-0.5,2.6-0.9,4-1.2c1.3-0.2,2.7-0.3,4.1-0.3c3.8,0,6.8,0.7,9.1,2.1c0.8,0.8,1.4,1.4,1.8,1.9
	s0.8,0.9,1.1,1.5s0.6,1.1,0.7,1.7c0.1,0.5,0.2,1.2,0.3,2l-0.7,0.7c-2.8,0.1-5.9,0.2-9.3,0.2c-0.4,0-0.8,0-1-0.1
	c-0.3-0.1-0.4-0.2-0.5-0.4c-0.1-0.1-0.2-0.3-0.3-0.5c-0.1-0.2-0.2-0.3-0.2-0.5c-0.1-0.1-0.2-0.3-0.5-0.4c-0.2-0.1-0.5-0.1-0.9-0.1
	c-0.1,0-0.3,0-0.5,0.1c-0.2,0-0.5,0.1-0.8,0.2c-0.3,0.1-0.6,0.2-0.8,0.4s-0.3,0.4-0.3,0.6c0,0.3,0.2,0.6,0.5,0.8
	c0.3,0.2,0.6,0.4,1,0.5c0.3,0.1,0.8,0.2,1.3,0.4s0.8,0.2,0.9,0.3c2.9,0.7,4.7,1.2,5.3,1.4c3,0.9,5,2.1,6.3,3.7
	c1.1,1.4,1.7,3.2,1.7,5.3c0,1.3-0.2,2.4-0.5,3.5s-0.8,1.9-1.3,2.7c-0.5,0.7-1.2,1.4-2,1.9c-0.8,0.6-1.6,1-2.5,1.4
	c-0.8,0.3-1.8,0.6-2.8,0.8c-1.1,0.2-2,0.4-2.9,0.5C395.9,50.9,394.9,51,393.9,51z"/>
<path id="XMLID_24_" class="st1" d="M417.9,49.1v-0.8c0-2.3,0-5.7,0.1-10.2s0.1-7.9,0.1-10.2v-8.4h23.5v6.6c0,0,0,0.1,0,0.3
	c0,0.2,0,0.3,0,0.3s0,0.2,0,0.3c0,0.1,0,0.2-0.1,0.3s-0.1,0.1-0.1,0.2c-0.1,0.1-0.1,0.2-0.2,0.2c-0.1,0-0.2,0.1-0.3,0.1
	c-0.1,0-0.3,0.1-0.4,0.1h-0.6c-3.5,0-6.7-0.1-9.5-0.2c0,0.2-0.1,0.5-0.1,1S430,29.7,430,30s-0.1,0.7-0.1,1h9.6
	c0.4,0,0.7,0.1,0.8,0.2c0.1,0.1,0.2,0.3,0.2,0.5c0,0.1,0,0.2,0,0.3c0,0.1,0,0.3,0,0.3c0,0.6,0,1.6,0.1,2.9c0,1.3,0.1,2.2,0.1,2.9
	c0,0.3-0.1,0.4-0.3,0.4c-0.1,0-0.1,0-0.2-0.1c-4.3,0.2-7.4,0.3-9.5,0.3h-0.5v2.9c1.2,0,2.9-0.1,5.2-0.2c2.3-0.1,4-0.2,5.1-0.2
	c0.9,0,1.4,0.2,1.5,0.6v1.5c0,0.6,0,1.6,0,2.9c0,1.3,0,2.2,0,2.9c0,0.7-0.3,1-0.8,1c-0.7,0-1.8,0-3.2,0c-1.5,0-2.6,0-3.3,0
	c-1.9,0-4.7,0.1-8.3,0.2c-3.6,0.1-6.2,0.2-7.8,0.2l-0.6-0.6C417.9,49.4,417.9,49.2,417.9,49.1z"/>
<path id="XMLID_26_" class="st1" d="M451.2,39.7c0.1-6.6,0.1-11.6,0.1-14.8v-0.2c0-0.1,0-0.4,0-1c0-0.6,0-1.1,0-1.5
	c0-1.6,0.1-2.5,0.4-2.7c0.1,0,0.2,0,0.3,0c0.1,0,0.2,0,0.3,0c2.3-0.1,4.9-0.2,7.9-0.2h2.7c0.1,0,0.3,0.1,0.4,0.1
	c0.2,0.1,0.3,0.1,0.4,0.1c0,0.7,0,1.8,0.1,3.4c0,1.6,0.1,3,0.1,4.2c0,1.2,0,2.4,0,3.5v7.9c0,0.5,0,0.9,0,1.2c0,0.3,0.1,0.7,0.2,1.1
	c0.1,0.4,0.3,0.7,0.5,0.9c0.3,0.2,0.6,0.3,1,0.3c0.6,0,1-0.2,1.4-0.7c0.4-0.5,0.5-1,0.5-1.7v-7.4c0-0.9,0-2.3,0-4.3
	c0-1.9,0-3.5,0-4.5v-1.5c0-0.1,0-0.4,0-0.7c0-0.3,0-0.5,0-0.7v-1c0-0.3,0.2-0.5,0.5-0.6c2.6,0,6.5,0,11.6,0.1v0.3h0.9
	c-0.1,2.9-0.2,6.2-0.2,10v4.5c0,0.6,0,1.5,0,2.8c0,1.3,0,2.2,0,2.8c0,1.8-0.3,3.3-0.8,4.6c-0.6,1.3-1.3,2.4-2.2,3.3
	c-0.9,0.8-2,1.5-3.3,2c-1.3,0.5-2.6,0.9-3.9,1.1s-2.7,0.3-4.2,0.3c-1.5,0-2.8-0.1-4.1-0.3c-1.3-0.2-2.6-0.5-3.9-1.1
	c-1.3-0.5-2.4-1.2-3.4-2c-0.9-0.8-1.7-1.9-2.3-3.3C451.6,43.1,451.3,41.5,451.2,39.7z"/>
<path id="XMLID_28_" class="st1" d="M510.1,49.1v-0.8c0-2.3,0-5.7,0.1-10.2s0.1-7.9,0.1-10.2v-8.4h23.5v6.6c0,0,0,0.1,0,0.3
	c0,0.2,0,0.3,0,0.3s0,0.2,0,0.3c0,0.1,0,0.2-0.1,0.3s-0.1,0.1-0.1,0.2c-0.1,0.1-0.1,0.2-0.2,0.2c-0.1,0-0.2,0.1-0.3,0.1
	c-0.1,0-0.3,0.1-0.4,0.1H532c-3.5,0-6.7-0.1-9.5-0.2c0,0.2-0.1,0.5-0.1,1s-0.1,0.8-0.1,1.2s-0.1,0.7-0.1,1h9.6
	c0.4,0,0.7,0.1,0.8,0.2c0.1,0.1,0.2,0.3,0.2,0.5c0,0.1,0,0.2,0,0.3c0,0.1,0,0.3,0,0.3c0,0.6,0,1.6,0.1,2.9c0,1.3,0.1,2.2,0.1,2.9
	c0,0.3-0.1,0.4-0.3,0.4c-0.1,0-0.1,0-0.2-0.1c-4.3,0.2-7.4,0.3-9.5,0.3h-0.5v2.9c1.2,0,2.9-0.1,5.2-0.2c2.3-0.1,4-0.2,5.1-0.2
	c0.9,0,1.4,0.2,1.5,0.6v1.5c0,0.6,0,1.6,0,2.9c0,1.3,0,2.2,0,2.9c0,0.7-0.3,1-0.8,1c-0.7,0-1.8,0-3.2,0c-1.5,0-2.6,0-3.3,0
	c-1.9,0-4.7,0.1-8.3,0.2c-3.6,0.1-6.2,0.2-7.8,0.2l-0.6-0.6C510.1,49.4,510.1,49.2,510.1,49.1z"/>
<path id="XMLID_30_" class="st1" d="M584.1,42.2c0,0.2,0,0.6,0,1.1c0,0.5,0,1,0.1,1.4c0,0.5,0,1,0,1.5c0,0.6,0,1.1-0.1,1.5
	c0,0.5-0.1,0.9-0.2,1.3c-0.1,0.4-0.2,0.7-0.4,0.9s-0.4,0.3-0.7,0.3h-9.2c-0.6-0.5-1-2.4-1-5.6c0-1.2,0-2.6,0-4.2c0-1.7,0-2.8,0-3.5
	v-1.4c0-0.1,0-0.4,0-0.7c0-0.3,0-0.6,0-0.8c-0.5,2-1.2,4.7-2,8.4c-0.8,3.6-1.3,6.1-1.6,7.3c-0.1,0.4-0.8,0.6-1.9,0.6h-7.2
	c-0.9,0-1.4-0.2-1.5-0.7l-1.9-8.4c-0.2-0.9-0.4-1.8-0.6-2.7s-0.5-2-0.7-3.2s-0.5-2.1-0.6-2.6c-0.2,4.3-0.2,7.6-0.2,9.9v3.6
	c0,1.6,0,2.8,0,3.6c-0.1,0.3-0.2,0.4-0.4,0.4h-1.9c-0.8,0-2,0-3.5,0c-1.5,0-2.7,0-3.5,0c-0.7,0-1.1-0.1-1.1-0.4v-30
	c0-0.1,0-0.2,0.1-0.3c0.1-0.1,0.2-0.2,0.3-0.2c0.1,0,0.3-0.1,0.4-0.1c0.1,0,0.3,0,0.5-0.1c0.2,0,0.3,0,0.5,0c0.1,0,0.3,0,0.5,0
	c0.2,0,0.3,0,0.4,0h2.4c3.8,0,6.5,0.1,8.1,0.2c1.6,0.1,2.8,0.2,3.6,0.2c0.3,1.8,0.8,4.5,1.5,8l1.5,8l3.2-16.3
	c0.2,0.1,0.4,0.1,0.4,0.1c1.4,0,3.6,0,6.4-0.1c2.8,0,4.9-0.1,6.4-0.1h3c0.4,0,0.6,0.4,0.6,1.1C584,33.4,584.1,40.7,584.1,42.2z"/>
<path id="XMLID_32_" class="st1" d="M591.8,49.8c0.8-3.1,1.8-6.2,2.8-9.4s2.3-7,3.8-11.4c1.5-4.4,2.5-7.5,3.1-9.2
	c0.2-0.3,0.3-0.4,0.3-0.5h3.4c0.8,0,2,0,3.5,0c1.5,0,2.7,0,3.5,0h3.4c0.2,0,0.4,0,0.5,0c0.1,0,0.3,0,0.5,0.1c0.2,0,0.3,0.1,0.5,0.1
	c0.1,0.1,0.2,0.1,0.3,0.2c0.1,0.1,0.1,0.2,0.1,0.4l9.3,29.5c0,0.3-0.1,0.5-0.3,0.6c-0.2,0.1-0.6,0.2-1.1,0.2h-1.9
	c-0.5,0-1.3,0-2.4,0s-1.9,0-2.4,0c-0.2,0-0.5,0-1,0c-0.5,0-0.9,0-1.2,0s-0.7,0-1.1-0.1c-0.4,0-0.7-0.1-1-0.2s-0.4-0.3-0.5-0.5v-1.3
	c-0.1-0.7-0.4-1.3-0.7-1.9c-0.3-0.6-0.7-0.8-1.1-0.8h-7l-1.1,4.3c-0.1,0.3-0.9,0.5-2.3,0.5h-1.6c-0.6,0-1.4,0-2.6,0.1
	c-1.1,0-2,0.1-2.6,0.1h-0.6c-0.2,0-0.6,0-1,0c-0.5,0-0.8,0-1.1,0C592.2,50.4,592.1,50.2,591.8,49.8z M605.8,37.5l0.6,1h1.3
	c1.1,0,2.1-0.1,3-0.2c0.9-0.1,1.3-0.3,1.3-0.6L609.4,26c-0.2,0-0.6,0.5-1,1.4c-0.4,0.9-0.7,2-1,3.1L605.8,37.5z"/>
<path id="XMLID_35_" class="st1" d="M634.4,50.3c0.1-3.9,0.1-6.8,0.3-8.6c0-5.7,0.1-11.4,0.2-17.2c-0.1-1.1-0.1-2-0.1-2.5v-0.6
	c-0.1-0.6-0.1-1.1-0.1-1.5c0-0.3,0.1-0.5,0.4-0.7c2.2,0.2,5.6,0.2,10.1,0.2c1.1,0,1.8,0,2.2-0.1v30.9H634.4z"/>
<path id="XMLID_37_" class="st1" d="M658.8,22.8c0-2.2,0.2-3.4,0.7-3.7c0.1,0,0.3,0,0.6,0h0.6c0.4,0,1.1,0,2.1,0c1,0,1.7,0,2.2,0
	c1.9,0,3.5,0.1,4.6,0.2s1.8,0.4,2,0.9L671.3,41h0.4c1.1-0.1,1.8-0.1,2.3-0.1c0.4,0,1.2,0,2.4,0.1s2.3,0.1,3.3,0.1
	c0.9,0,1.5,0.1,2,0.2c0.4,0.1,0.6,0.3,0.6,0.6v7.8c-0.2,0.5-3.2,0.7-9,0.7h-14c-0.3-0.5-0.5-1.2-0.5-2.3v-5.7c0-1.7,0-4.2,0-7.5
	c0-3.3,0-5.8,0-7.5c0-0.3,0-1-0.1-2.1S658.8,23.4,658.8,22.8z"/>
<path id="XMLID_39_" class="st1" d="M180.5,104.1V77.2c0-0.1,0-0.2,0.1-0.2c0.1-0.1,0.2-0.1,0.4-0.1s0.4,0,0.5-0.1
	c0.1,0,0.3,0,0.6,0c0.3,0,0.4,0,0.5,0h16.4c1.3,0,2.6,0.2,3.8,0.6c1.2,0.4,2.3,1,3.2,1.8c0.9,0.8,1.7,1.9,2.2,3.1
	c0.5,1.3,0.8,2.7,0.8,4.3c0,1.2-0.1,2.3-0.4,3.3c-0.3,1-0.6,1.8-1.1,2.5c-0.5,0.7-1,1.3-1.7,1.9c-0.7,0.6-1.3,1-2,1.3
	s-1.4,0.6-2.3,0.9c-0.8,0.2-1.6,0.4-2.3,0.5c-0.7,0.1-1.4,0.2-2.2,0.2h-3.9c-0.1,2.1-0.2,4.5-0.2,7.1v2.3c0,0.5-0.3,0.7-0.7,0.7H181
	C180.6,106.4,180.5,105.3,180.5,104.1z M191.9,89.9l0.6,0.9c0.6,0,1.1,0,1.6-0.1c0.5-0.1,1-0.2,1.5-0.4c0.5-0.2,0.9-0.5,1.3-0.8
	c0.3-0.3,0.6-0.7,0.8-1.2c0.2-0.5,0.3-1,0.3-1.7c0-0.5-0.1-0.9-0.2-1.3c-0.1-0.4-0.3-0.7-0.5-0.9c-0.2-0.2-0.4-0.4-0.7-0.6
	c-0.3-0.2-0.6-0.3-0.9-0.4c-0.3-0.1-0.6-0.2-1.1-0.2c-0.4,0-0.8-0.1-1.1-0.1c-0.3,0-0.6,0-1.1,0C192.1,83.3,191.9,85.6,191.9,89.9z"
	/>
<path id="XMLID_42_" class="st1" d="M212.1,106.8c0.8-3.1,1.8-6.2,2.8-9.4s2.3-7,3.8-11.4c1.5-4.4,2.5-7.5,3.1-9.2
	c0.2-0.3,0.3-0.4,0.3-0.5h3.4c0.8,0,2,0,3.5,0c1.5,0,2.7,0,3.5,0h3.4c0.2,0,0.4,0,0.5,0c0.1,0,0.3,0,0.5,0.1c0.2,0,0.3,0.1,0.5,0.1
	c0.1,0.1,0.2,0.1,0.3,0.2c0.1,0.1,0.1,0.2,0.1,0.4l9.3,29.5c0,0.3-0.1,0.5-0.3,0.6c-0.2,0.1-0.6,0.2-1.1,0.2h-1.9
	c-0.5,0-1.3,0-2.4,0s-1.9,0-2.4,0c-0.2,0-0.5,0-1,0c-0.5,0-0.9,0-1.2,0s-0.7,0-1.1-0.1c-0.4,0-0.7-0.1-1-0.2s-0.4-0.3-0.5-0.5v-1.3
	c-0.1-0.7-0.4-1.3-0.7-1.9c-0.3-0.6-0.7-0.8-1.1-0.8h-7l-1.1,4.3c-0.1,0.3-0.9,0.5-2.3,0.5h-1.6c-0.6,0-1.4,0-2.6,0.1
	c-1.1,0-2,0.1-2.6,0.1h-0.6c-0.2,0-0.6,0-1,0s-0.8,0-1.1,0C212.5,107.4,212.4,107.2,212.1,106.8z M226.1,94.5l0.6,1h1.3
	c1.1,0,2.1-0.1,3-0.2c0.9-0.1,1.3-0.3,1.3-0.6l-2.6-11.6c-0.2,0-0.6,0.5-1,1.4c-0.4,0.9-0.7,2-1,3.1L226.1,94.5z"/>
<path id="XMLID_45_" class="st1" d="M284.4,106.9c-0.3,0.3-0.9,0.5-1.9,0.5c-1,0.1-2.1,0-3.5,0c-1.4-0.1-2.1-0.1-2.2-0.1
	c-0.9,0-1.6,0-2,0h-2c-0.3-0.1-0.5-0.5-0.7-1.3c-0.2-0.8-0.4-1.9-0.6-3.4c-0.2-1.5-0.3-2.3-0.3-2.4c-0.1-1.3-0.3-2.2-0.6-2.6
	c-0.4-0.4-1.1-0.6-2.1-0.6h-0.9v9.9c0,0.2-0.2,0.3-0.4,0.4s-0.6,0.2-1.1,0.2c-0.5,0-0.9,0.1-1.3,0.1c-0.4,0-0.9,0-1.5,0s-1,0-1.1,0
	h-2.9c-1.6,0-2.9,0-3.7,0c-0.2-0.1-0.4-0.2-0.6-0.3V77c0-0.4,0.5-0.6,1.6-0.6h17.6c3.1,0.1,5.4,0.8,7,2.2c1.6,1.4,2.4,3.3,2.4,5.8
	c0,3.3-1.6,5.6-4.9,7.2c0.6,0.2,1.2,0.5,1.6,0.8c0.5,0.3,0.9,0.7,1.2,1.1c0.3,0.4,0.6,0.8,0.8,1.4c0.2,0.5,0.4,1,0.6,1.5
	c0.1,0.5,0.3,1,0.4,1.7c0.1,0.6,0.2,1.2,0.2,1.7c0,0.5,0.1,1,0.2,1.7s0.1,1.2,0.2,1.5v1.8c0,0.2,0.2,0.5,0.4,0.9s0.3,0.7,0.4,0.9
	C284.6,106.8,284.5,106.9,284.4,106.9z M267.5,85c0,0.8,0,1.4,0,1.8s0.1,0.9,0.2,1.5c0.1,0.6,0.3,1.1,0.6,1.4c0.6,0,1.1-0.1,1.6-0.2
	c0.5-0.1,1-0.3,1.5-0.6s0.8-0.7,1.1-1.2c0.3-0.5,0.4-1.2,0.4-1.9c0-0.4-0.1-0.8-0.2-1.1s-0.4-0.6-0.6-0.8s-0.6-0.3-0.8-0.5
	c-0.3-0.1-0.6-0.2-1-0.2c-0.4,0-0.7-0.1-0.9-0.1c-0.2,0-0.5,0-0.8,0h-0.5c-0.2,0.1-0.3,0.3-0.4,0.6C267.5,84,267.5,84.4,267.5,85z"
	/>
<path id="XMLID_48_" class="st1" d="M290.5,106.8c0.8-3.1,1.8-6.2,2.8-9.4s2.3-7,3.8-11.4c1.5-4.4,2.5-7.5,3.1-9.2
	c0.2-0.3,0.3-0.4,0.3-0.5h3.4c0.8,0,2,0,3.5,0c1.5,0,2.7,0,3.5,0h3.4c0.2,0,0.4,0,0.5,0c0.1,0,0.3,0,0.5,0.1c0.2,0,0.3,0.1,0.5,0.1
	c0.1,0.1,0.2,0.1,0.3,0.2c0.1,0.1,0.1,0.2,0.1,0.4l9.3,29.5c0,0.3-0.1,0.5-0.3,0.6c-0.2,0.1-0.6,0.2-1.1,0.2h-1.9
	c-0.5,0-1.3,0-2.4,0s-1.9,0-2.4,0c-0.2,0-0.5,0-1,0c-0.5,0-0.9,0-1.2,0s-0.7,0-1.1-0.1c-0.4,0-0.7-0.1-1-0.2s-0.4-0.3-0.5-0.5v-1.3
	c-0.1-0.7-0.4-1.3-0.7-1.9c-0.3-0.6-0.7-0.8-1.1-0.8h-7l-1.1,4.3c-0.1,0.3-0.9,0.5-2.3,0.5h-1.6c-0.6,0-1.4,0-2.6,0.1
	c-1.1,0-2,0.1-2.6,0.1h-0.6c-0.2,0-0.6,0-1,0s-0.8,0-1.1,0C291,107.4,290.8,107.2,290.5,106.8z M304.6,94.5l0.6,1h1.3
	c1.1,0,2.1-0.1,3-0.2c0.9-0.1,1.3-0.3,1.3-0.6l-2.6-11.6c-0.2,0-0.6,0.5-1,1.4c-0.4,0.9-0.7,2-1,3.1L304.6,94.5z"/>
<path id="XMLID_53_" class="st1" d="M351.7,91.7c0-1.9,0.2-3.6,0.6-5.1c0.4-1.5,1-2.9,1.7-3.9c0.7-1.1,1.5-2,2.5-2.9
	c1-0.8,2-1.5,3-2c1-0.5,2.2-0.9,3.3-1.2s2.3-0.5,3.3-0.7c1-0.1,2.1-0.2,3.2-0.2c0.8,0,1.5,0,2.3,0.1s1.6,0.2,2.5,0.4
	c0.9,0.2,1.8,0.4,2.6,0.8c0.8,0.4,1.6,0.8,2.3,1.3c0.7,0.5,1.4,1.2,2,2c0.6,0.8,0.9,1.7,1.2,2.7c0.1,0.4,0.2,1.5,0.4,3.3
	c-0.1,0.4-0.5,0.6-1.3,0.6c-1.2,0-2.8,0-5.1-0.1c-2.2-0.1-3.9-0.1-5-0.1c-0.2-0.1-0.3-0.2-0.4-0.3c-0.1-0.2-0.2-0.3-0.2-0.5
	c0-0.2-0.1-0.4-0.2-0.6s-0.2-0.4-0.3-0.6c-0.1-0.2-0.3-0.3-0.6-0.4c-0.3-0.1-0.7-0.2-1.1-0.2c-0.6,0-1.1,0.1-1.5,0.3
	c-0.4,0.2-0.8,0.4-1.1,0.7c-0.3,0.3-0.5,0.7-0.7,1.2s-0.4,0.9-0.5,1.3c-0.1,0.4-0.2,0.9-0.2,1.5c-0.1,0.6-0.1,1.1-0.1,1.4
	c0,0.4,0,0.8,0,1.4c0,0.2,0,0.4,0,0.6c0,0.3,0,0.4,0,0.5v0.6c0,0.4,0,0.8,0,1.1s0.1,0.6,0.1,1.1c0.1,0.4,0.1,0.8,0.3,1.1
	c0.1,0.3,0.3,0.6,0.5,1c0.2,0.3,0.5,0.6,0.8,0.8c0.3,0.2,0.7,0.4,1.1,0.5s1,0.2,1.6,0.2c1.5,0,2.7-0.1,3.7-0.4v-2.5h-0.9v0h-1.5
	c-0.1,0-0.3,0-0.6,0c-0.3,0-0.5,0-0.7,0l-0.7-0.8v-5.6c0-0.4,0.2-0.7,0.7-1.1h1.5c1,0,2.2,0,3.7,0c1.4,0,2.5,0,3.3,0h1.6
	c0.8,0,1.4,0,1.8,0c0.4,0,0.9,0.1,1.5,0.2c0.5,0.1,0.9,0.3,1.1,0.5c0,1.8,0,4.3-0.1,7.7c-0.1,3.4-0.1,5.8-0.1,7.4c0,0,0,0.1,0,0.2
	c0,0.1,0,0.2,0,0.2v0.4c-0.5,0.5-2,1-4.5,1.4s-4.7,0.6-6.4,0.6h-0.5c-0.4,0-0.9,0-1.7,0.1s-1.3,0.1-1.7,0.1c-5.4,0-9.6-1.5-12.5-4.4
	C353.2,100.8,351.7,96.8,351.7,91.7z"/>
<path id="XMLID_57_" class="st1" d="M390.8,106.8c0.8-3.1,1.8-6.2,2.8-9.4s2.3-7,3.8-11.4c1.5-4.4,2.5-7.5,3.1-9.2
	c0.2-0.3,0.3-0.4,0.3-0.5h3.4c0.8,0,2,0,3.5,0c1.5,0,2.7,0,3.5,0h3.4c0.2,0,0.4,0,0.5,0c0.1,0,0.3,0,0.5,0.1c0.2,0,0.3,0.1,0.5,0.1
	c0.1,0.1,0.2,0.1,0.3,0.2c0.1,0.1,0.1,0.2,0.1,0.4l9.3,29.5c0,0.3-0.1,0.5-0.3,0.6c-0.2,0.1-0.6,0.2-1.1,0.2h-1.9
	c-0.5,0-1.3,0-2.4,0s-1.9,0-2.4,0c-0.2,0-0.5,0-1,0c-0.5,0-0.9,0-1.2,0s-0.7,0-1.1-0.1c-0.4,0-0.7-0.1-1-0.2s-0.4-0.3-0.5-0.5v-1.3
	c-0.1-0.7-0.4-1.3-0.7-1.9c-0.3-0.6-0.7-0.8-1.1-0.8h-7l-1.1,4.3c-0.1,0.3-0.9,0.5-2.3,0.5h-1.6c-0.6,0-1.4,0-2.6,0.1
	c-1.1,0-2,0.1-2.6,0.1h-0.6c-0.2,0-0.6,0-1,0s-0.8,0-1.1,0C391.2,107.4,391,107.2,390.8,106.8z M404.8,94.5l0.6,1h1.3
	c1.1,0,2.1-0.1,3-0.2c0.9-0.1,1.3-0.3,1.3-0.6l-2.6-11.6c-0.2,0-0.6,0.5-1,1.4c-0.4,0.9-0.7,2-1,3.1L404.8,94.5z"/>
<path id="XMLID_60_" class="st1" d="M433.4,106.9v-9.1c0-3.3,0.1-9.7,0.3-19.1V77c0-0.3,0.1-0.5,0.2-0.5h13.9c0.1,0,0.4,0.5,0.8,1.5
	c0.4,1,0.9,2.3,1.5,4c0.6,1.6,1,2.7,1.2,3.3l2.8,7.4v-7.8c0-0.7,0-1.9,0.1-3.7c0-1.8,0-3.2,0-4.2c0-0.4,1.1-0.6,3.2-0.6
	c0.7,0,1.6,0,2.8,0c1.2,0,1.9,0,2.2,0h1.5c0.2,0,0.3,0,0.3,0.1c0.1,3.7,0.1,9.1,0.1,16.1v14c-0.1,0.4-0.5,0.5-1.3,0.5h-0.5
	c-0.7,0-1.7,0-3.1,0c-1.4,0-2.4,0-3.1,0h-5.9c-0.2-0.1-0.6-0.9-1.2-2.5c-0.6-1.8-1.6-4.3-2.8-7.7c-1.3-3.3-2-5.2-2.1-5.6
	c0,0.8,0,2,0,3.6c0,1.6,0,2.8,0,3.6c0,0.6,0,1.5,0,2.7c0,1.2,0,2.1,0,2.7v2.5c0,0.6-0.3,0.9-0.8,0.9h-9.3L433.4,106.9z"/>
<path id="XMLID_63_" class="st1" d="M480.8,107.3c-0.4,0-0.8,0-1.3,0c-0.5,0-0.9,0-1.2,0.1c-0.3,0-0.6,0-0.9,0
	c-0.3,0-0.6-0.1-0.8-0.1c-0.2-0.1-0.4-0.2-0.6-0.3c-0.2-0.1-0.3-0.3-0.4-0.6c-0.1-0.3-0.2-0.6-0.2-0.9s-0.1-0.8-0.1-1.4
	c0-2.9,0.1-6.9,0.2-11.9c0.1-5,0.2-8.7,0.2-11.1c0-2.9,0.1-4.4,0.4-4.6h7.5c1.3,0,2.3,0.1,3,0.2c0.7,0.2,1.1,0.4,1.3,0.7
	c0.2,0.3,0.3,0.8,0.3,1.4c0,0.2,0,0.6,0,1.1c0,0.5,0,1,0,1.4v0.9c0,0.4,0,1.1-0.1,1.9c0,0.9-0.1,1.5-0.1,1.9v0.4c0,0.1,0,0.2,0,0.3
	h0.8c0.2,0,0.6,0,1.1,0s0.8,0,1.1,0c0.6,0,1.1,0,1.4-0.1v-8.4c0-0.7,0-1.2,0.1-1.4c0.1-0.3,0.2-0.5,0.3-0.5c0.1-0.1,0.3-0.1,0.7-0.1
	c0.2,0,0.5,0,0.8,0c0.4,0,0.7,0,0.8,0l1.5-0.1c1,0,1.9-0.1,2.7-0.1c3.7,0,5.5,0.4,5.5,1.2c0,0.2,0,0.5,0,0.9c0,0.4,0,0.7,0,0.9
	c0,0.5,0,1.2,0,2.1c0,0.9,0,1.6,0,2.1c0,1.4,0,3.5,0.1,6.3c0,2.8,0.1,4.9,0.1,6.3c0,0.1,0,0.3,0,0.5c0,0.2,0,0.3,0,0.4v1
	c0,0.9,0,1.5,0,1.9v0.4c0,0.1,0,0.1,0,0.2c0,0.7,0,1.8,0,3.3s0,2.5,0,3.3c-0.1,0.5-1.4,0.7-3.9,0.7h-8.4l-0.6-0.8v-1.3
	c0-0.9,0-2.2,0-4s0-3.1,0-4c0-0.3,0-0.5-0.1-0.6c-0.1-0.1-0.2-0.2-0.5-0.2h-0.7c-0.9,0-1.8,0.1-2.5,0.2c0,1.1,0,2.8,0,5
	c0,2.2,0,3.9,0,5.1c-0.2,0.4-1.8,0.6-5.1,0.6H480.8z"/>
<path id="XMLID_65_" class="st1" d="M512.9,106.8c0.8-3.1,1.8-6.2,2.8-9.4s2.3-7,3.8-11.4c1.5-4.4,2.5-7.5,3.1-9.2
	c0.2-0.3,0.3-0.4,0.3-0.5h3.4c0.8,0,2,0,3.5,0c1.5,0,2.7,0,3.5,0h3.4c0.2,0,0.4,0,0.5,0c0.1,0,0.3,0,0.5,0.1c0.2,0,0.3,0.1,0.5,0.1
	c0.1,0.1,0.2,0.1,0.3,0.2c0.1,0.1,0.1,0.2,0.1,0.4l9.3,29.5c0,0.3-0.1,0.5-0.3,0.6c-0.2,0.1-0.6,0.2-1.1,0.2h-1.9
	c-0.5,0-1.3,0-2.4,0s-1.9,0-2.4,0c-0.2,0-0.5,0-1,0c-0.5,0-0.9,0-1.2,0s-0.7,0-1.1-0.1c-0.4,0-0.7-0.1-1-0.2s-0.4-0.3-0.5-0.5v-1.3
	c-0.1-0.7-0.4-1.3-0.7-1.9c-0.3-0.6-0.7-0.8-1.1-0.8h-7l-1.1,4.3c-0.1,0.3-0.9,0.5-2.3,0.5h-1.6c-0.6,0-1.4,0-2.6,0.1
	c-1.1,0-2,0.1-2.6,0.1h-0.6c-0.2,0-0.6,0-1,0s-0.8,0-1.1,0C513.4,107.4,513.2,107.2,512.9,106.8z M526.9,94.5l0.6,1h1.3
	c1.1,0,2.1-0.1,3-0.2c0.9-0.1,1.3-0.3,1.3-0.6l-2.6-11.6c-0.2,0-0.6,0.5-1,1.4c-0.4,0.9-0.7,2-1,3.1L526.9,94.5z"/>
<path id="XMLID_68_" class="st1" d="M585.3,106.9c-0.3,0.3-0.9,0.5-1.9,0.5c-1,0.1-2.1,0-3.5,0c-1.4-0.1-2.1-0.1-2.2-0.1
	c-0.9,0-1.6,0-2,0h-2c-0.3-0.1-0.5-0.5-0.7-1.3c-0.2-0.8-0.4-1.9-0.6-3.4c-0.2-1.5-0.3-2.3-0.3-2.4c-0.1-1.3-0.3-2.2-0.6-2.6
	c-0.4-0.4-1.1-0.6-2.1-0.6h-0.9v9.9c0,0.2-0.2,0.3-0.4,0.4s-0.6,0.2-1.1,0.2c-0.5,0-0.9,0.1-1.3,0.1c-0.4,0-0.9,0-1.5,0s-1,0-1.1,0
	h-2.9c-1.6,0-2.9,0-3.7,0c-0.2-0.1-0.4-0.2-0.6-0.3V77c0-0.4,0.5-0.6,1.6-0.6h17.6c3.1,0.1,5.4,0.8,7,2.2c1.6,1.4,2.4,3.3,2.4,5.8
	c0,3.3-1.6,5.6-4.9,7.2c0.6,0.2,1.2,0.5,1.6,0.8c0.5,0.3,0.9,0.7,1.2,1.1c0.3,0.4,0.6,0.8,0.8,1.4c0.2,0.5,0.4,1,0.6,1.5
	c0.1,0.5,0.3,1,0.4,1.7c0.1,0.6,0.2,1.2,0.2,1.7c0,0.5,0.1,1,0.2,1.7s0.1,1.2,0.2,1.5v1.8c0,0.2,0.2,0.5,0.4,0.9s0.3,0.7,0.4,0.9
	C585.4,106.8,585.4,106.9,585.3,106.9z M568.3,85c0,0.8,0,1.4,0,1.8s0.1,0.9,0.2,1.5c0.1,0.6,0.3,1.1,0.6,1.4c0.6,0,1.1-0.1,1.6-0.2
	c0.5-0.1,1-0.3,1.5-0.6s0.8-0.7,1.1-1.2c0.3-0.5,0.4-1.2,0.4-1.9c0-0.4-0.1-0.8-0.2-1.1s-0.4-0.6-0.6-0.8s-0.6-0.3-0.8-0.5
	c-0.3-0.1-0.6-0.2-1-0.2c-0.4,0-0.7-0.1-0.9-0.1c-0.2,0-0.5,0-0.8,0h-0.5c-0.2,0.1-0.3,0.3-0.4,0.6C568.3,84,568.3,84.4,568.3,85z"
	/>
<path id="XMLID_71_" class="st1" d="M4.4,160v-26.9c0-0.1,0-0.2,0.1-0.2c0.1-0.1,0.2-0.1,0.4-0.1c0.2,0,0.4,0,0.5-0.1
	c0.1,0,0.3,0,0.6,0s0.4,0,0.5,0H23c1.3,0,2.6,0.2,3.8,0.6c1.2,0.4,2.3,1,3.2,1.8s1.7,1.9,2.2,3.1c0.5,1.3,0.8,2.7,0.8,4.3
	c0,1.2-0.1,2.3-0.4,3.3c-0.3,1-0.6,1.8-1.1,2.5c-0.5,0.7-1,1.3-1.7,1.9c-0.7,0.6-1.3,1-2,1.3s-1.4,0.6-2.3,0.9
	c-0.8,0.2-1.6,0.4-2.3,0.5c-0.7,0.1-1.4,0.2-2.2,0.2h-3.9c-0.1,2.1-0.2,4.5-0.2,7.1v2.3c0,0.5-0.3,0.7-0.7,0.7H5
	C4.6,162.3,4.4,161.3,4.4,160z M15.8,145.9l0.6,0.9c0.6,0,1.1,0,1.6-0.1c0.5-0.1,1-0.2,1.5-0.4c0.5-0.2,0.9-0.5,1.3-0.8
	c0.4-0.3,0.6-0.7,0.8-1.2c0.2-0.5,0.3-1,0.3-1.7c0-0.5-0.1-0.9-0.2-1.3c-0.1-0.4-0.3-0.7-0.5-0.9c-0.2-0.2-0.4-0.4-0.7-0.6
	c-0.3-0.2-0.6-0.3-0.9-0.4c-0.3-0.1-0.6-0.2-1.1-0.2c-0.4,0-0.8-0.1-1.1-0.1c-0.3,0-0.6,0-1.1,0C16.1,139.3,15.8,141.6,15.8,145.9z"
	/>
<path id="XMLID_76_" class="st1" d="M71.5,162.9c-0.3,0.3-0.9,0.5-1.9,0.5s-2.1,0-3.5,0c-1.4-0.1-2.1-0.1-2.2-0.1c-0.9,0-1.6,0-2,0
	h-2c-0.3-0.1-0.5-0.5-0.7-1.3s-0.4-1.9-0.6-3.4c-0.2-1.5-0.3-2.3-0.3-2.4c-0.1-1.3-0.3-2.2-0.6-2.6c-0.4-0.4-1.1-0.6-2.1-0.6h-0.9
	v9.9c0,0.2-0.2,0.3-0.4,0.4s-0.6,0.2-1.1,0.2c-0.5,0-0.9,0.1-1.3,0.1c-0.4,0-0.9,0-1.5,0c-0.6,0-1,0-1.1,0h-2.9c-1.6,0-2.9,0-3.7,0
	c-0.2-0.1-0.4-0.2-0.6-0.3V133c0-0.4,0.5-0.6,1.6-0.6h17.6c3.1,0.1,5.4,0.8,7,2.2c1.6,1.4,2.4,3.3,2.4,5.8c0,3.3-1.6,5.6-4.9,7.2
	c0.6,0.2,1.2,0.5,1.6,0.8c0.5,0.3,0.9,0.7,1.2,1.1c0.3,0.4,0.6,0.8,0.8,1.4c0.2,0.5,0.4,1,0.6,1.5c0.1,0.5,0.3,1,0.4,1.7
	c0.1,0.6,0.2,1.2,0.2,1.7s0.1,1,0.2,1.7c0.1,0.7,0.1,1.2,0.2,1.5v1.8c0,0.2,0.2,0.5,0.4,0.9c0.2,0.4,0.3,0.7,0.4,0.9
	C71.6,162.7,71.6,162.9,71.5,162.9z M54.5,141c0,0.8,0,1.4,0,1.8c0,0.4,0.1,0.9,0.2,1.5c0.1,0.6,0.3,1.1,0.6,1.4
	c0.6,0,1.1-0.1,1.6-0.2c0.5-0.1,1-0.3,1.5-0.6s0.8-0.7,1.1-1.2c0.3-0.5,0.4-1.2,0.4-1.9c0-0.4-0.1-0.8-0.2-1.1
	c-0.1-0.3-0.4-0.6-0.6-0.8c-0.3-0.2-0.6-0.3-0.8-0.5c-0.3-0.1-0.6-0.2-1-0.2s-0.7-0.1-0.9-0.1c-0.2,0-0.5,0-0.8,0H55
	c-0.2,0.1-0.3,0.3-0.4,0.6C54.5,139.9,54.5,140.4,54.5,141z"/>
<path id="XMLID_84_" class="st1" d="M79,147.6v-2.2c0.1-1.9,0.5-3.6,1.2-5.2c0.7-1.6,1.6-2.9,2.6-3.9c1.1-1.1,2.3-2,3.7-2.7
	s2.8-1.3,4.4-1.6c1.5-0.3,3.1-0.5,4.7-0.5c0.9,0,1.8,0.1,2.8,0.2c1,0.1,2,0.4,3.1,0.7c1.1,0.3,2.1,0.8,3.1,1.4
	c1,0.6,1.8,1.4,2.5,2.2c1.3,1.6,2.3,3.3,2.9,5.1c0.6,1.8,0.9,3.8,0.9,6c0,4.6-1,8.2-3,11l-0.9,1.2c-0.8,1.1-1.9,2-3.4,2.7
	c-1.5,0.7-2.9,1.2-4.4,1.5c-1.5,0.3-2.9,0.4-4.4,0.4c-1.7,0-3.3-0.2-4.8-0.5c-1.5-0.4-2.7-0.8-3.8-1.4c-1.1-0.6-2-1.3-2.8-2.2
	s-1.5-1.7-2.1-2.7c-0.5-0.9-1-2-1.3-3.1s-0.6-2.2-0.7-3.2S79,148.7,79,147.6z M95.1,139.6c-0.6,0-1,0.1-1.5,0.4
	c-0.4,0.3-0.8,0.6-1.1,0.9c-0.3,0.4-0.5,0.9-0.7,1.5c-0.2,0.6-0.4,1.2-0.4,1.7c-0.1,0.5-0.2,1.1-0.2,1.9c-0.1,0.7-0.1,1.3-0.1,1.7
	c0,0.4,0,0.9,0,1.6c0,0.6,0,1.2,0.1,1.8c0,0.6,0.1,1.2,0.3,1.8c0.2,0.6,0.4,1.2,0.6,1.6c0.2,0.5,0.6,0.9,1,1.2s0.9,0.5,1.5,0.5
	c0.6,0,1.1-0.1,1.6-0.3c0.5-0.2,0.8-0.4,1.2-0.7c0.3-0.3,0.6-0.7,0.8-1.2c0.2-0.5,0.4-1,0.5-1.5c0.1-0.5,0.2-1.1,0.3-1.8
	c0.1-0.7,0.1-1.3,0.1-1.8c0-0.5,0-1.1,0-1.9c0-0.6,0-1.1-0.1-1.6c0-0.5-0.1-1-0.2-1.6c-0.1-0.6-0.2-1.1-0.4-1.6
	c-0.2-0.5-0.4-0.9-0.7-1.3c-0.3-0.4-0.6-0.7-1.1-0.9S95.7,139.6,95.1,139.6z"/>
<path id="XMLID_88_" class="st1" d="M161.3,155.2c0,0.2,0,0.6,0,1.1c0,0.5,0,1,0.1,1.4c0,0.5,0,1,0,1.5c0,0.6,0,1.1-0.1,1.5
	c0,0.5-0.1,0.9-0.2,1.3s-0.2,0.7-0.4,0.9s-0.4,0.3-0.7,0.3h-9.2c-0.6-0.5-1-2.4-1-5.6c0-1.2,0-2.6,0-4.2c0-1.7,0-2.8,0-3.5v-1.4
	c0-0.1,0-0.4,0-0.7c0-0.3,0-0.6,0-0.8c-0.5,2-1.2,4.7-2,8.4c-0.8,3.6-1.3,6.1-1.6,7.3c-0.1,0.4-0.8,0.6-1.9,0.6h-7.2
	c-0.9,0-1.4-0.2-1.5-0.7l-1.9-8.4c-0.2-0.9-0.4-1.8-0.6-2.7c-0.2-0.9-0.5-2-0.7-3.2c-0.3-1.2-0.5-2.1-0.6-2.6
	c-0.2,4.3-0.2,7.6-0.2,9.9v3.6c0,1.6,0,2.8,0,3.6c-0.1,0.3-0.2,0.4-0.4,0.4h-1.9c-0.8,0-2,0-3.5,0c-1.5,0-2.7,0-3.5,0
	c-0.7,0-1.1-0.1-1.1-0.4v-30c0-0.1,0-0.2,0.1-0.3c0.1-0.1,0.2-0.2,0.3-0.2c0.1,0,0.3-0.1,0.4-0.1c0.1,0,0.3,0,0.5-0.1
	c0.2,0,0.3,0,0.5,0c0.1,0,0.3,0,0.5,0c0.2,0,0.3,0,0.4,0h2.4c3.8,0,6.5,0.1,8.1,0.2c1.6,0.1,2.8,0.2,3.6,0.2c0.3,1.8,0.8,4.5,1.5,8
	l1.5,8l3.2-16.3c0.2,0.1,0.4,0.1,0.4,0.1c1.4,0,3.6,0,6.4-0.1s4.9-0.1,6.4-0.1h3c0.4,0,0.6,0.4,0.6,1.1
	C161.1,146.4,161.2,153.7,161.3,155.2z"/>
<path id="XMLID_91_" class="st1" d="M170.4,147.6v-2.2c0.1-1.9,0.5-3.6,1.2-5.2c0.7-1.6,1.6-2.9,2.6-3.9c1.1-1.1,2.3-2,3.7-2.7
	s2.8-1.3,4.4-1.6c1.5-0.3,3.1-0.5,4.7-0.5c0.9,0,1.8,0.1,2.8,0.2c1,0.1,2,0.4,3.1,0.7c1.1,0.3,2.1,0.8,3.1,1.4
	c1,0.6,1.8,1.4,2.5,2.2c1.3,1.6,2.3,3.3,2.9,5.1c0.6,1.8,0.9,3.8,0.9,6c0,4.6-1,8.2-3,11l-0.9,1.2c-0.8,1.1-1.9,2-3.4,2.7
	c-1.5,0.7-2.9,1.2-4.4,1.5c-1.5,0.3-2.9,0.4-4.4,0.4c-1.7,0-3.3-0.2-4.8-0.5c-1.5-0.4-2.7-0.8-3.8-1.4c-1.1-0.6-2-1.3-2.8-2.2
	s-1.5-1.7-2.1-2.7c-0.5-0.9-1-2-1.3-3.1s-0.6-2.2-0.7-3.2S170.4,148.7,170.4,147.6z M186.5,139.6c-0.6,0-1,0.1-1.5,0.4
	c-0.4,0.3-0.8,0.6-1.1,0.9c-0.3,0.4-0.5,0.9-0.7,1.5c-0.2,0.6-0.4,1.2-0.4,1.7c-0.1,0.5-0.2,1.1-0.2,1.9c-0.1,0.7-0.1,1.3-0.1,1.7
	c0,0.4,0,0.9,0,1.6c0,0.6,0,1.2,0.1,1.8c0,0.6,0.1,1.2,0.3,1.8c0.2,0.6,0.4,1.2,0.6,1.6c0.2,0.5,0.6,0.9,1,1.2s0.9,0.5,1.5,0.5
	c0.6,0,1.1-0.1,1.6-0.3c0.5-0.2,0.8-0.4,1.2-0.7c0.3-0.3,0.6-0.7,0.8-1.2c0.2-0.5,0.4-1,0.5-1.5c0.1-0.5,0.2-1.1,0.3-1.8
	c0.1-0.7,0.1-1.3,0.1-1.8c0-0.5,0-1.1,0-1.9c0-0.6,0-1.1-0.1-1.6c0-0.5-0.1-1-0.2-1.6c-0.1-0.6-0.2-1.1-0.4-1.6
	c-0.2-0.5-0.4-0.9-0.7-1.3c-0.3-0.4-0.6-0.7-1.1-0.9S187,139.6,186.5,139.6z"/>
<path id="XMLID_94_" class="st1" d="M240.9,152c-0.2,2-0.8,3.8-1.6,5.4c-0.8,1.6-1.9,2.8-3.2,3.8c-1.3,1-2.8,1.7-4.5,2.2
	c-1.7,0.5-3.5,0.7-5.4,0.7c-1.8,0-3.5-0.2-5-0.6c-1.5-0.4-2.8-0.9-3.8-1.6c-1-0.7-2-1.5-2.7-2.4c-0.8-0.9-1.4-1.9-1.9-2.9
	c-0.5-1-0.9-2.1-1.1-3.3s-0.5-2.3-0.6-3.3s-0.2-2.1-0.2-3.2v-1.8c0.1-2,0.6-3.7,1.4-5.3c0.8-1.6,1.7-2.8,2.8-3.8
	c1.1-1,2.4-1.8,3.8-2.4c1.4-0.6,2.8-1.1,4.2-1.3c1.4-0.2,2.7-0.4,4.1-0.4c2.2,0,4.1,0.3,5.7,0.8c1.7,0.5,3,1.2,4.1,2.2
	s1.9,2,2.5,3.2c0.6,1.2,1,2.6,1.1,4.1v1.9c0,0.4-1.5,0.6-4.4,0.6c-0.7,0-1.7,0-2.9,0c-1.2,0-2.1,0-2.5,0c-0.1,0-0.2,0-0.3,0
	s-0.2,0-0.3,0c-0.4,0-0.6-0.1-0.8-0.4c-0.2-0.3-0.3-0.6-0.4-1.1c-0.1-0.4-0.1-0.8-0.2-1.3c-0.1-0.4-0.3-0.8-0.5-1.1
	c-0.3-0.3-0.7-0.4-1.1-0.4c-0.5,0-0.9,0.1-1.3,0.2c-0.4,0.2-0.7,0.4-0.9,0.8c-0.2,0.3-0.4,0.7-0.5,1c-0.1,0.4-0.2,0.8-0.3,1.4
	c-0.1,0.6-0.1,1-0.1,1.4c0,0.4,0,0.9-0.1,1.5c0,0.6,0,1.1,0,1.4c0,0.2,0,0.5,0,0.9c0,0.4,0,0.8,0,1.1c0,3.4,0.9,5.1,2.7,5.2
	c0.5,0,0.9-0.2,1.2-0.5c0.3-0.4,0.5-0.7,0.6-1.2c0.1-0.4,0.2-0.9,0.4-1.4s0.3-0.8,0.5-1h11C240.6,151.2,240.9,151.5,240.9,152z
	 M219.4,171.5c0-0.2,0.1-0.6,0.3-1.1v-0.6c0.1-0.3,0.3-0.5,0.3-0.6c0.1-0.1,0.2-0.3,0.4-0.5c0.2-0.2,0.4-0.3,0.6-0.3l1.3,0.5
	c0.8,0.3,1.5,0.4,2.1,0.4c1.1,0,1.7-0.3,1.7-0.8c0-0.3-0.3-0.5-0.9-0.5c-0.2,0-0.3,0-0.4,0.1h-0.6v0.2c-0.4,0-0.6-0.1-0.8-0.2
	l-0.9-0.6c-0.2-0.1-0.4-0.2-0.6-0.4s-0.3-0.4-0.4-0.7l2.5-4.4h3.6c0.4,0,0.6,0.3,0.6,0.7c0,0.1-0.1,0.3-0.2,0.5s-0.3,0.4-0.4,0.6
	s-0.3,0.4-0.3,0.5c1.5,0,2.6,0.4,3.4,1.1c0.8,0.7,1.2,1.7,1.2,2.8c0,1-0.3,1.9-1,2.7c-0.6,0.8-1.4,1.3-2.4,1.7
	c-1,0.4-2.1,0.6-3.3,0.6c-1.3,0-2.6-0.2-4-0.5S219.4,172,219.4,171.5z"/>
<path id="XMLID_97_" class="st1" d="M248.9,147.6v-2.2c0.1-1.9,0.5-3.6,1.2-5.2c0.7-1.6,1.6-2.9,2.6-3.9c1.1-1.1,2.3-2,3.7-2.7
	s2.8-1.3,4.4-1.6c1.5-0.3,3.1-0.5,4.7-0.5c0.9,0,1.8,0.1,2.8,0.2c1,0.1,2,0.4,3.1,0.7c1.1,0.3,2.1,0.8,3.1,1.4
	c1,0.6,1.8,1.4,2.5,2.2c1.3,1.6,2.3,3.3,2.9,5.1c0.6,1.8,0.9,3.8,0.9,6c0,4.6-1,8.2-3,11l-0.9,1.2c-0.8,1.1-1.9,2-3.4,2.7
	c-1.5,0.7-2.9,1.2-4.4,1.5c-1.5,0.3-2.9,0.4-4.4,0.4c-1.7,0-3.3-0.2-4.8-0.5c-1.5-0.4-2.7-0.8-3.8-1.4c-1.1-0.6-2-1.3-2.8-2.2
	s-1.5-1.7-2.1-2.7c-0.5-0.9-1-2-1.3-3.1s-0.6-2.2-0.7-3.2S248.9,148.7,248.9,147.6z M268.3,130c-0.8,0-1.9-0.2-3.4-0.7
	s-2.5-0.7-3.2-0.7c-0.2,0-0.4,0.2-0.4,0.5s-0.1,0.5-0.3,0.5c-0.3,0-0.8,0-1.5,0c-0.6,0-1.1,0-1.2,0h-2.6c-0.3-0.1-0.4-0.3-0.4-0.7
	c0-2.4,0.5-4.1,1.6-5.3c1.1-1.2,2.6-1.7,4.5-1.7c0.6,0,1.6,0.1,2.8,0.5h1.4c0.2,0,0.4,0.2,0.6,0.3c0.3,0.2,0.5,0.3,0.6,0.3h0.7
	c0,0.1,0.1,0.2,0.1,0.2c0.1-0.2,0.2-0.4,0.2-0.6l0.7-0.6h5.1c0.1,0,0.3,0,0.4,0.1c0.1,0.1,0.2,0.2,0.2,0.2c0,0.1,0.1,0.2,0.1,0.4
	C274.1,127.6,272.1,130,268.3,130z M264.9,139.6c-0.6,0-1,0.1-1.5,0.4c-0.4,0.3-0.8,0.6-1.1,0.9c-0.3,0.4-0.5,0.9-0.7,1.5
	c-0.2,0.6-0.4,1.2-0.4,1.7c-0.1,0.5-0.2,1.1-0.2,1.9c-0.1,0.7-0.1,1.3-0.1,1.7c0,0.4,0,0.9,0,1.6c0,0.6,0,1.2,0.1,1.8
	c0,0.6,0.1,1.2,0.3,1.8c0.2,0.6,0.4,1.2,0.6,1.6c0.2,0.5,0.6,0.9,1,1.2s0.9,0.5,1.5,0.5c0.6,0,1.1-0.1,1.6-0.3
	c0.5-0.2,0.8-0.4,1.2-0.7c0.3-0.3,0.6-0.7,0.8-1.2c0.2-0.5,0.4-1,0.5-1.5c0.1-0.5,0.2-1.1,0.3-1.8c0.1-0.7,0.1-1.3,0.1-1.8
	c0-0.5,0-1.1,0-1.9c0-0.6,0-1.1-0.1-1.6c0-0.5-0.1-1-0.2-1.6c-0.1-0.6-0.2-1.1-0.4-1.6c-0.2-0.5-0.4-0.9-0.7-1.3
	c-0.3-0.4-0.6-0.7-1.1-0.9S265.5,139.6,264.9,139.6z"/>
<path id="XMLID_101_" class="st1" d="M290.4,162.1v-0.8c0-2.3,0-5.7,0.1-10.2s0.1-7.9,0.1-10.2v-8.4h23.5v6.6c0,0,0,0.1,0,0.3
	c0,0.2,0,0.3,0,0.3s0,0.2,0,0.3c0,0.1,0,0.2-0.1,0.3s-0.1,0.1-0.1,0.2c-0.1,0.1-0.1,0.2-0.2,0.2c-0.1,0-0.2,0.1-0.3,0.1
	c-0.1,0-0.3,0.1-0.4,0.1h-0.6c-3.5,0-6.7-0.1-9.5-0.2c0,0.2-0.1,0.5-0.1,1s-0.1,0.8-0.1,1.2s-0.1,0.7-0.1,1h9.6
	c0.4,0,0.7,0.1,0.8,0.2c0.1,0.1,0.2,0.3,0.2,0.5c0,0.1,0,0.2,0,0.3c0,0.1,0,0.3,0,0.3c0,0.6,0,1.6,0.1,2.9c0,1.3,0.1,2.2,0.1,2.9
	c0,0.3-0.1,0.4-0.3,0.4c-0.1,0-0.1,0-0.2-0.1c-4.3,0.2-7.4,0.3-9.5,0.3h-0.5v2.9c1.2,0,2.9-0.1,5.2-0.2c2.3-0.1,4-0.2,5.1-0.2
	c0.9,0,1.4,0.2,1.5,0.6v1.5c0,0.6,0,1.6,0,2.9c0,1.3,0,2.2,0,2.9c0,0.7-0.3,1-0.8,1c-0.7,0-1.8,0-3.2,0c-1.5,0-2.6,0-3.3,0
	c-1.9,0-4.7,0.1-8.3,0.2c-3.6,0.1-6.2,0.2-7.8,0.2l-0.6-0.6C290.4,162.4,290.4,162.2,290.4,162.1z"/>
<path id="XMLID_103_" class="st1" d="M336.5,164c-1.6-0.1-3-0.2-4.3-0.4c-1.3-0.2-2.5-0.5-3.7-1c-1.2-0.5-2.2-1.1-3-1.8
	c-0.8-0.7-1.5-1.6-2-2.7s-0.9-2.4-1-3.8c0-0.3,0.1-0.4,0.4-0.4c0.1,0,0.2,0,0.4,0c1.1,0,2.8,0,5.1-0.1c2.3-0.1,4-0.1,5.1-0.1
	c0.3,0,0.5,0.1,0.7,0.3c0.2,0.2,0.3,0.4,0.4,0.7c0.1,0.3,0.2,0.5,0.4,0.8s0.4,0.5,0.7,0.7s0.8,0.3,1.3,0.3c0.7,0,1.2-0.2,1.7-0.6
	c0.5-0.4,0.8-0.9,0.8-1.5c0-0.4-0.2-0.8-0.6-1.2s-1-0.6-1.7-0.9c-0.7-0.2-1.4-0.4-2-0.6s-1.3-0.3-2-0.4s-1.1-0.2-1.2-0.2
	c-3.3-0.9-5.6-2-7.1-3.3c-1.4-1.3-2.2-3.1-2.2-5.4c0-1.6,0.3-3.1,0.9-4.4c0.6-1.3,1.4-2.3,2.3-3.2c1-0.8,2.1-1.5,3.4-2
	c1.3-0.5,2.6-0.9,4-1.2c1.3-0.2,2.7-0.3,4.1-0.3c3.8,0,6.8,0.7,9.1,2.1c0.8,0.8,1.4,1.4,1.8,1.9c0.4,0.4,0.8,0.9,1.1,1.5
	c0.4,0.6,0.6,1.1,0.7,1.7s0.2,1.2,0.3,2l-0.7,0.7c-2.8,0.1-5.9,0.2-9.3,0.2c-0.4,0-0.8,0-1-0.1c-0.3-0.1-0.4-0.2-0.5-0.4
	c-0.1-0.1-0.2-0.3-0.3-0.5c-0.1-0.2-0.2-0.3-0.2-0.5c-0.1-0.1-0.2-0.3-0.5-0.4c-0.2-0.1-0.5-0.1-0.9-0.1c-0.1,0-0.3,0-0.5,0.1
	c-0.2,0-0.5,0.1-0.8,0.2s-0.6,0.2-0.8,0.4c-0.2,0.2-0.3,0.4-0.3,0.6c0,0.3,0.2,0.6,0.5,0.8c0.3,0.2,0.6,0.4,1,0.5
	c0.3,0.1,0.8,0.2,1.3,0.4c0.5,0.1,0.8,0.2,0.9,0.3c2.9,0.7,4.7,1.2,5.3,1.4c3,0.9,5,2.1,6.3,3.7c1.1,1.4,1.7,3.2,1.7,5.3
	c0,1.3-0.2,2.4-0.5,3.5s-0.8,1.9-1.3,2.7s-1.2,1.4-2,1.9c-0.8,0.6-1.6,1-2.5,1.4c-0.8,0.3-1.8,0.6-2.8,0.8c-1.1,0.2-2,0.4-2.9,0.5
	C338.5,163.9,337.6,163.9,336.5,164z"/>
<path id="XMLID_105_" class="st1" d="M380.2,133.1c0-0.1,0.1-0.3,0.3-0.4c0.2-0.1,0.4-0.2,0.7-0.3c0.3-0.1,0.6-0.1,1-0.2
	c0.3,0,0.7-0.1,1.2-0.1c0.5,0,0.8,0,1.1,0c0.3,0,0.6,0,1,0s0.6,0,0.7,0h2.3c0.4,0,1.1,0,1.9,0c0.8,0,1.4,0,1.8,0
	c6.4,0,11,1.1,13.8,3.3l0.7,0.6c0.2,0.2,0.5,0.5,0.8,0.8s0.6,0.9,1,1.6c0.4,0.7,0.8,1.4,1.1,2.3c0.3,0.8,0.6,1.8,0.8,3
	s0.3,2.4,0.3,3.7c0,2-0.3,3.8-0.8,5.5s-1.3,3.2-2.2,4.4s-2,2.3-3.3,3.2s-2.6,1.6-4.1,2s-3,0.7-4.5,0.7h-0.6c-0.6,0-1.4,0-2.6,0
	s-2,0-2.6,0c-3.4,0-6.4,0.1-9.2,0.2c-0.3-0.6-0.5-1.2-0.5-1.8V133.1z M392.1,156.3c0.8,0,1.5-0.1,2.2-0.3c0.6-0.2,1.2-0.4,1.6-0.7
	c0.4-0.3,0.8-0.7,1.2-1.1c0.3-0.5,0.6-0.9,0.8-1.4c0.2-0.5,0.3-1,0.5-1.7c0.1-0.6,0.2-1.2,0.2-1.8c0-0.6,0.1-1.2,0.1-1.9v-1.3
	c0-2.5-0.5-4.3-1.5-5.5c-1-1.2-2.7-1.8-5.2-1.9c-0.1,0.1-0.2,0.4-0.3,0.6c-0.1,0.3-0.3,0.5-0.3,0.6v1c0,0.2,0,0.7,0,1.6
	C391.2,151.6,391.4,156.2,392.1,156.3z"/>
<path id="XMLID_108_" class="st1" d="M418.7,148.2l0-0.4c0.3-2.2,0.5-3.7,0.7-4.6c0.5-2,1.5-3.7,2.8-5.1l0.5-0.5
	c0.6-0.8,1.6-1.4,3-1.9h0.8c1.3-0.6,3.5-1.1,6.5-1.5c0.8,0,1.5,0.1,2.4,0.2c0.8,0.1,1.7,0.3,2.8,0.6s2,0.7,2.9,1.3
	c0.9,0.6,1.7,1.3,2.3,2.1v0.6c2.2,2.8,3.3,5.9,3.3,9.3c0,3.9-0.9,7-2.7,9.5l-0.8,1c-0.6,0.8-1.4,1.4-2.3,2c-0.9,0.6-1.9,1-2.9,1.3
	c-1,0.3-2,0.5-3,0.6c-0.9,0.1-1.9,0.2-2.8,0.2c-1.4,0-2.7-0.2-4-0.5s-2.4-0.8-3.5-1.5c-1.1-0.7-2.1-1.6-2.9-2.6
	c-0.8-1-1.5-2.3-2-3.7s-0.8-3-0.9-4.8V148.2z M429.8,148.3c0,4.7,0.9,7.1,2.7,7.1c0.5,0,0.9-0.1,1.3-0.3c0.4-0.2,0.7-0.5,0.9-0.9
	c0.2-0.4,0.4-0.8,0.6-1.2s0.3-0.9,0.3-1.5c0.1-0.6,0.1-1.1,0.1-1.6s0-1,0-1.7v-0.7c0-0.7,0-1.4-0.1-2c-0.1-0.6-0.2-1.3-0.4-2
	c-0.2-0.7-0.5-1.2-0.9-1.6s-0.9-0.6-1.5-0.6c-2,0-3,2-3,6V148.3z"/>
<path id="XMLID_111_" class="st1" d="M472.1,142.8c-0.4,0-0.7-0.1-0.9-0.2c-0.2-0.1-0.4-0.2-0.5-0.4c-0.1-0.2-0.3-0.3-0.5-0.5
	c-0.2-0.2-0.4-0.3-0.8-0.4c-0.4-0.1-0.8-0.2-1.4-0.2c-0.2,0-0.4,0-0.6,0.1c-0.3,0-0.5,0.1-0.8,0.3c-0.3,0.1-0.4,0.3-0.4,0.6
	c0,0.3,0.1,0.5,0.4,0.7c0.2,0.2,0.5,0.3,0.8,0.4s0.7,0.2,1.1,0.3c0.4,0.1,0.7,0.2,0.8,0.3l3,0.7c0.9,0.2,1.7,0.5,2.4,0.8
	c0.7,0.3,1.4,0.6,2.2,1.1s1.4,1,2,1.5c0.5,0.6,1,1.3,1.3,2.1s0.5,1.8,0.5,2.8c0,1.2-0.2,2.3-0.5,3.3v0c-0.3,0.9-0.7,1.6-1.2,2.3
	c-0.5,0.7-1.1,1.2-1.8,1.7c-0.7,0.5-1.4,0.8-2.1,1.1c-0.7,0.3-1.5,0.5-2.5,0.7s-1.8,0.3-2.5,0.4s-1.6,0.2-2.5,0.2
	c-4.2-0.2-7.1-0.9-8.5-2v-0.2c-1.2-0.9-2.1-1.9-2.7-3c-0.6-1.1-0.9-2.3-1-3.6c0-0.3,0.1-0.5,0.4-0.5c0.1,0,0.2,0,0.4,0
	c0.2,0,0.3,0,0.4,0h2.1c0.2,0,0.5,0,0.8,0h0.5c0.1,0,0.2,0,0.3,0c0.8,0,2.1,0,4,0h0.9c0.3,0,0.5,0.1,0.6,0.2
	c0.1,0.2,0.3,0.4,0.4,0.6c0.1,0.2,0.2,0.5,0.3,0.7c0.1,0.2,0.3,0.4,0.6,0.6c0.3,0.2,0.7,0.2,1.2,0.2c0.5,0,1-0.1,1.4-0.4
	c0.4-0.3,0.6-0.7,0.6-1.2c0-0.2-0.1-0.5-0.3-0.7c-0.2-0.2-0.6-0.4-1-0.6c-0.5-0.2-0.9-0.3-1.2-0.4c-0.4-0.1-0.8-0.2-1.4-0.4
	c-0.6-0.1-1-0.2-1.2-0.3h-1.2c-2.9-0.9-5-2-6.3-3.3c-1.3-1.3-1.9-3-1.9-5c0-1.3,0.3-2.6,0.8-3.6c0.5-1.1,1.2-2,2-2.6
	c0.8-0.7,1.8-1.3,2.9-1.7s2.3-0.8,3.4-1c1.2-0.2,2.4-0.3,3.6-0.3c2.2,0,4.2,0.4,6.1,1.1s3.3,1.7,4.3,2.9c0.3,0.4,0.6,0.8,0.8,1.3
	c0.2,0.5,0.4,1,0.4,1.3c0.1,0.3,0.1,0.8,0.2,1.6l-0.6,0.8H476c-0.4,0-1,0-1.9,0C473.2,142.8,472.5,142.8,472.1,142.8z"/>
<path id="XMLID_113_" class="st1" d="M522.1,164c-1.6-0.1-3-0.2-4.3-0.4s-2.5-0.5-3.7-1s-2.2-1.1-3-1.8c-0.8-0.7-1.5-1.6-2-2.7
	s-0.9-2.4-1-3.8c0-0.3,0.1-0.4,0.4-0.4c0.1,0,0.2,0,0.4,0c1.1,0,2.8,0,5.1-0.1c2.3-0.1,4-0.1,5.1-0.1c0.3,0,0.5,0.1,0.7,0.3
	c0.2,0.2,0.3,0.4,0.4,0.7c0.1,0.3,0.2,0.5,0.4,0.8c0.1,0.3,0.4,0.5,0.7,0.7c0.3,0.2,0.8,0.3,1.3,0.3c0.7,0,1.2-0.2,1.7-0.6
	c0.5-0.4,0.8-0.9,0.8-1.5c0-0.4-0.2-0.8-0.6-1.2c-0.4-0.4-1-0.6-1.7-0.9c-0.7-0.2-1.4-0.4-2-0.6c-0.6-0.2-1.3-0.3-2-0.4
	s-1.1-0.2-1.2-0.2c-3.3-0.9-5.6-2-7.1-3.3s-2.2-3.1-2.2-5.4c0-1.6,0.3-3.1,0.9-4.4c0.6-1.3,1.4-2.3,2.3-3.2c1-0.8,2.1-1.5,3.4-2
	c1.3-0.5,2.6-0.9,4-1.2s2.7-0.3,4.1-0.3c3.8,0,6.8,0.7,9.1,2.1c0.8,0.8,1.4,1.4,1.8,1.9c0.4,0.4,0.8,0.9,1.1,1.5
	c0.4,0.6,0.6,1.1,0.7,1.7s0.2,1.2,0.3,2l-0.7,0.7c-2.8,0.1-5.9,0.2-9.3,0.2c-0.4,0-0.8,0-1-0.1c-0.3-0.1-0.4-0.2-0.5-0.4
	c-0.1-0.1-0.2-0.3-0.3-0.5c-0.1-0.2-0.2-0.3-0.2-0.5s-0.2-0.3-0.5-0.4c-0.2-0.1-0.5-0.1-0.9-0.1c-0.1,0-0.3,0-0.5,0.1
	c-0.2,0-0.5,0.1-0.8,0.2s-0.6,0.2-0.8,0.4c-0.2,0.2-0.3,0.4-0.3,0.6c0,0.3,0.2,0.6,0.5,0.8c0.3,0.2,0.6,0.4,1,0.5
	c0.3,0.1,0.8,0.2,1.3,0.4c0.5,0.1,0.8,0.2,0.9,0.3c2.9,0.7,4.7,1.2,5.3,1.4c3,0.9,5,2.1,6.3,3.7c1.1,1.4,1.7,3.2,1.7,5.3
	c0,1.3-0.2,2.4-0.5,3.5c-0.3,1.1-0.8,1.9-1.3,2.7s-1.2,1.4-2,1.9c-0.8,0.6-1.6,1-2.5,1.4c-0.8,0.3-1.8,0.6-2.8,0.8
	c-1.1,0.2-2,0.4-2.9,0.5C524.1,163.9,523.2,163.9,522.1,164z"/>
<path id="XMLID_115_" class="st1" d="M544.8,147.6v-2.2c0.1-1.9,0.5-3.6,1.2-5.2c0.7-1.6,1.6-2.9,2.6-3.9s2.3-2,3.7-2.7
	s2.8-1.3,4.4-1.6s3.1-0.5,4.7-0.5c0.9,0,1.8,0.1,2.8,0.2c1,0.1,2,0.4,3.1,0.7c1.1,0.3,2.1,0.8,3.1,1.4c1,0.6,1.8,1.4,2.5,2.2
	c1.3,1.6,2.3,3.3,2.9,5.1s0.9,3.8,0.9,6c0,4.6-1,8.2-3,11l-0.9,1.2c-0.8,1.1-1.9,2-3.4,2.7s-2.9,1.2-4.4,1.5
	c-1.5,0.3-2.9,0.4-4.4,0.4c-1.7,0-3.3-0.2-4.8-0.5c-1.5-0.4-2.7-0.8-3.8-1.4c-1.1-0.6-2-1.3-2.8-2.2c-0.8-0.8-1.5-1.7-2.1-2.7
	c-0.5-0.9-1-2-1.3-3.1s-0.6-2.2-0.7-3.2S544.8,148.7,544.8,147.6z M560.9,139.6c-0.6,0-1,0.1-1.5,0.4c-0.4,0.3-0.8,0.6-1.1,0.9
	c-0.3,0.4-0.5,0.9-0.7,1.5c-0.2,0.6-0.4,1.2-0.4,1.7c-0.1,0.5-0.2,1.1-0.2,1.9s-0.1,1.3-0.1,1.7s0,0.9,0,1.6c0,0.6,0,1.2,0.1,1.8
	c0,0.6,0.1,1.2,0.3,1.8c0.2,0.6,0.4,1.2,0.6,1.6s0.6,0.9,1,1.2c0.4,0.3,0.9,0.5,1.5,0.5c0.6,0,1.1-0.1,1.6-0.3
	c0.5-0.2,0.8-0.4,1.2-0.7c0.3-0.3,0.6-0.7,0.8-1.2s0.4-1,0.5-1.5s0.2-1.1,0.3-1.8c0.1-0.7,0.1-1.3,0.1-1.8c0-0.5,0-1.1,0-1.9
	c0-0.6,0-1.1-0.1-1.6c0-0.5-0.1-1-0.2-1.6s-0.2-1.1-0.4-1.6c-0.2-0.5-0.4-0.9-0.7-1.3c-0.3-0.4-0.6-0.7-1.1-0.9
	S561.5,139.6,560.9,139.6z"/>
<path id="XMLID_118_" class="st1" d="M586.1,162.9v-9.1c0-3.3,0.1-9.7,0.3-19.1V133c0-0.3,0.1-0.5,0.2-0.5h13.9
	c0.1,0,0.4,0.5,0.8,1.5c0.4,1,0.9,2.3,1.5,4c0.6,1.6,1,2.7,1.2,3.3l2.8,7.4v-7.8c0-0.7,0-1.9,0.1-3.7s0-3.2,0-4.2
	c0-0.4,1.1-0.6,3.2-0.6c0.7,0,1.6,0,2.8,0c1.2,0,1.9,0,2.2,0h1.5c0.2,0,0.3,0,0.3,0.1c0.1,3.7,0.1,9.1,0.1,16.1v14
	c-0.1,0.4-0.5,0.5-1.3,0.5h-0.5c-0.7,0-1.7,0-3.1,0c-1.4,0-2.4,0-3.1,0h-5.9c-0.2-0.1-0.6-0.9-1.2-2.5c-0.6-1.8-1.6-4.3-2.8-7.7
	c-1.3-3.3-2-5.2-2.1-5.6c0,0.8,0,2,0,3.6c0,1.6,0,2.8,0,3.6c0,0.6,0,1.5,0,2.7c0,1.2,0,2.1,0,2.7v2.5c0,0.6-0.3,0.9-0.8,0.9H587
	L586.1,162.9z"/>
<path id="XMLID_120_" class="st1" d="M633.5,163.3c-0.4,0-0.8,0-1.3,0c-0.5,0-0.9,0-1.2,0.1c-0.3,0-0.6,0-0.9,0
	c-0.3,0-0.6-0.1-0.8-0.1c-0.2-0.1-0.4-0.2-0.6-0.3c-0.2-0.1-0.3-0.3-0.4-0.6c-0.1-0.3-0.2-0.6-0.2-0.9s-0.1-0.8-0.1-1.4
	c0-2.9,0.1-6.9,0.2-11.9c0.1-5,0.2-8.7,0.2-11.1c0-2.9,0.1-4.4,0.4-4.6h7.5c1.3,0,2.3,0.1,3,0.2c0.7,0.2,1.1,0.4,1.3,0.7
	c0.2,0.3,0.3,0.8,0.3,1.4c0,0.2,0,0.6,0,1.1s0,1,0,1.4v0.9c0,0.4,0,1.1-0.1,1.9c0,0.9-0.1,1.5-0.1,1.9v0.4c0,0.1,0,0.2,0,0.3h0.8
	c0.2,0,0.6,0,1.1,0s0.8,0,1.1,0c0.6,0,1.1,0,1.4-0.1v-8.4c0-0.7,0-1.2,0.1-1.4s0.2-0.5,0.3-0.5c0.1-0.1,0.3-0.1,0.7-0.1
	c0.2,0,0.5,0,0.8,0c0.4,0,0.7,0,0.8,0l1.5-0.1c1,0,1.9-0.1,2.7-0.1c3.7,0,5.5,0.4,5.5,1.2c0,0.2,0,0.5,0,0.9c0,0.4,0,0.7,0,0.9
	c0,0.5,0,1.2,0,2.1c0,0.9,0,1.6,0,2.1c0,1.4,0,3.5,0.1,6.3c0,2.8,0.1,4.9,0.1,6.3c0,0.1,0,0.3,0,0.5c0,0.2,0,0.3,0,0.4v1
	c0,0.9,0,1.5,0,1.9v0.4c0,0.1,0,0.1,0,0.2c0,0.7,0,1.8,0,3.3s0,2.5,0,3.3c-0.1,0.5-1.4,0.7-3.9,0.7h-8.4l-0.6-0.8v-1.3
	c0-0.9,0-2.2,0-4s0-3.1,0-4c0-0.3,0-0.5-0.1-0.6c-0.1-0.1-0.2-0.2-0.5-0.2h-0.7c-0.9,0-1.8,0.1-2.5,0.2c0,1.1,0,2.8,0,5
	c0,2.2,0,3.9,0,5.1c-0.2,0.4-1.8,0.6-5.1,0.6H633.5z"/>
<path id="XMLID_122_" class="st1" d="M667.1,147.6v-2.2c0.1-1.9,0.5-3.6,1.2-5.2c0.7-1.6,1.6-2.9,2.6-3.9s2.3-2,3.7-2.7
	s2.8-1.3,4.4-1.6s3.1-0.5,4.7-0.5c0.9,0,1.8,0.1,2.8,0.2c1,0.1,2,0.4,3.1,0.7c1.1,0.3,2.1,0.8,3.1,1.4c1,0.6,1.8,1.4,2.5,2.2
	c1.3,1.6,2.3,3.3,2.9,5.1s0.9,3.8,0.9,6c0,4.6-1,8.2-3,11l-0.9,1.2c-0.8,1.1-1.9,2-3.4,2.7s-2.9,1.2-4.4,1.5
	c-1.5,0.3-2.9,0.4-4.4,0.4c-1.7,0-3.3-0.2-4.8-0.5c-1.5-0.4-2.7-0.8-3.8-1.4c-1.1-0.6-2-1.3-2.8-2.2c-0.8-0.8-1.5-1.7-2.1-2.7
	c-0.5-0.9-1-2-1.3-3.1s-0.6-2.2-0.7-3.2S667.1,148.7,667.1,147.6z M683.2,139.6c-0.6,0-1,0.1-1.5,0.4c-0.4,0.3-0.8,0.6-1.1,0.9
	c-0.3,0.4-0.5,0.9-0.7,1.5c-0.2,0.6-0.4,1.2-0.4,1.7c-0.1,0.5-0.2,1.1-0.2,1.9s-0.1,1.3-0.1,1.7s0,0.9,0,1.6c0,0.6,0,1.2,0.1,1.8
	c0,0.6,0.1,1.2,0.3,1.8c0.2,0.6,0.4,1.2,0.6,1.6s0.6,0.9,1,1.2c0.4,0.3,0.9,0.5,1.5,0.5c0.6,0,1.1-0.1,1.6-0.3
	c0.5-0.2,0.8-0.4,1.2-0.7c0.3-0.3,0.6-0.7,0.8-1.2s0.4-1,0.5-1.5s0.2-1.1,0.3-1.8c0.1-0.7,0.1-1.3,0.1-1.8c0-0.5,0-1.1,0-1.9
	c0-0.6,0-1.1-0.1-1.6c0-0.5-0.1-1-0.2-1.6s-0.2-1.1-0.4-1.6c-0.2-0.5-0.4-0.9-0.7-1.3c-0.3-0.4-0.6-0.7-1.1-0.9
	S683.7,139.6,683.2,139.6z"/>
<path id="XMLID_125_" class="st1" d="M721.4,164c-1.6-0.1-3-0.2-4.3-0.4s-2.5-0.5-3.7-1s-2.2-1.1-3-1.8c-0.8-0.7-1.5-1.6-2-2.7
	s-0.9-2.4-1-3.8c0-0.3,0.1-0.4,0.4-0.4c0.1,0,0.2,0,0.4,0c1.1,0,2.8,0,5.1-0.1c2.3-0.1,4-0.1,5.1-0.1c0.3,0,0.5,0.1,0.7,0.3
	c0.2,0.2,0.3,0.4,0.4,0.7c0.1,0.3,0.2,0.5,0.4,0.8c0.1,0.3,0.4,0.5,0.7,0.7c0.3,0.2,0.8,0.3,1.3,0.3c0.7,0,1.2-0.2,1.7-0.6
	c0.5-0.4,0.8-0.9,0.8-1.5c0-0.4-0.2-0.8-0.6-1.2c-0.4-0.4-1-0.6-1.7-0.9c-0.7-0.2-1.4-0.4-2-0.6c-0.6-0.2-1.3-0.3-2-0.4
	s-1.1-0.2-1.2-0.2c-3.3-0.9-5.6-2-7.1-3.3s-2.2-3.1-2.2-5.4c0-1.6,0.3-3.1,0.9-4.4c0.6-1.3,1.4-2.3,2.3-3.2c1-0.8,2.1-1.5,3.4-2
	c1.3-0.5,2.6-0.9,4-1.2s2.7-0.3,4.1-0.3c3.8,0,6.8,0.7,9.1,2.1c0.8,0.8,1.4,1.4,1.8,1.9c0.4,0.4,0.8,0.9,1.1,1.5
	c0.4,0.6,0.6,1.1,0.7,1.7s0.2,1.2,0.3,2l-0.7,0.7c-2.8,0.1-5.9,0.2-9.3,0.2c-0.4,0-0.8,0-1-0.1c-0.3-0.1-0.4-0.2-0.5-0.4
	c-0.1-0.1-0.2-0.3-0.3-0.5c-0.1-0.2-0.2-0.3-0.2-0.5s-0.2-0.3-0.5-0.4c-0.2-0.1-0.5-0.1-0.9-0.1c-0.1,0-0.3,0-0.5,0.1
	c-0.2,0-0.5,0.1-0.8,0.2s-0.6,0.2-0.8,0.4c-0.2,0.2-0.3,0.4-0.3,0.6c0,0.3,0.2,0.6,0.5,0.8c0.3,0.2,0.6,0.4,1,0.5
	c0.3,0.1,0.8,0.2,1.3,0.4c0.5,0.1,0.8,0.2,0.9,0.3c2.9,0.7,4.7,1.2,5.3,1.4c3,0.9,5,2.1,6.3,3.7c1.1,1.4,1.7,3.2,1.7,5.3
	c0,1.3-0.2,2.4-0.5,3.5c-0.3,1.1-0.8,1.9-1.3,2.7s-1.2,1.4-2,1.9c-0.8,0.6-1.6,1-2.5,1.4c-0.8,0.3-1.8,0.6-2.8,0.8
	c-1.1,0.2-2,0.4-2.9,0.5C723.4,163.9,722.5,163.9,721.4,164z"/>
<path id="XMLID_127_" class="st1" d="M745.5,133.2c0-0.5,1.1-0.7,3.4-0.7h2.4c2-0.2,3.6-0.2,4.8-0.2c1.2,0,1.8,0.3,1.8,0.8
	l-1.5,18.4c0,0.1-0.1,0.3-0.2,0.4c-0.1,0.1-0.3,0.2-0.6,0.2c-0.2,0-0.5,0.1-0.7,0.1c-0.3,0-0.5,0-0.9,0c-0.2,0-0.4,0-0.8,0
	s-0.6,0-0.8,0c-0.4,0-0.9,0-1.6,0c-0.7,0-1.2,0-1.6,0h-1.7c-0.1-0.1-0.3-0.1-0.4-0.2c-0.1-0.1-0.2-0.2-0.3-0.4
	c-0.1-0.2-0.1-0.3-0.2-0.5c0-0.2-0.1-0.4-0.1-0.6c0-0.2,0-0.4,0-0.6c0-0.2,0-0.4,0-0.6L745.5,133.2z M746.1,162.8l-0.2-3.1
	c0-1.1,0.1-2,0.2-2.9c0.1-0.8,0.3-1.3,0.5-1.3h4c1.4,0,2.5,0,3.4,0c0.8,0,1.5,0.1,1.9,0.1c0.4,0.1,0.7,0.1,0.8,0.2s0.2,0.2,0.2,0.3
	v6.4c0,0.1-0.2,0.2-0.6,0.3c-0.3,0.1-0.8,0.2-1.4,0.2c-0.6,0.1-1.2,0.1-1.8,0.1c-0.6,0-1.3,0.1-2.1,0.1s-1.4,0-1.9,0
	c-0.5,0-1.1,0-1.6,0c-0.5,0-0.9,0-0.9,0v-0.3c0,0-0.1-0.1-0.3-0.2C746.2,162.9,746.1,162.8,746.1,162.8z"/>
<path id="XMLID_153_" class="st2" d="M240.6,220.8c0,0.2-0.1,0.3-0.4,0.4c-0.3,0.1-1.4,0.1-3.1,0.1c-1.6,0-2.6,0-3-0.1
	c-0.4-0.1-0.6-0.3-0.7-0.7c-0.4-1.6-0.7-2.4-0.9-2.5c-0.2-0.1-1.7-0.1-4.4-0.1c-1.9,0-2.9,0-3,0.1c-0.2,0.2-0.4,0.8-0.6,1.8
	c-0.2,0.9-0.5,1.4-0.8,1.5c-0.4,0.1-1.6,0.1-3.8,0.1c-1.7,0-2.5-0.2-2.5-0.5c0-0.3,1.2-3.8,3.7-10.6c2.7-7.3,4.2-11.3,4.4-12.1
	c0.1-0.4,0.3-0.6,0.5-0.6c0.3,0,0.8,0,1.4,0.1c0.6,0.1,1.1,0.1,1.4,0.1c0.3,0,0.7,0,1.3-0.1c0.6,0,1-0.1,1.3-0.1
	c0.2,0,0.4,0.2,0.6,0.5c0.5,1.2,2.1,5.1,4.7,11.9C239.3,217,240.6,220.5,240.6,220.8z M228.9,205.7c-0.2,0.5-0.6,1.5-1.2,3.2
	c-0.6,1.7-0.9,2.7-0.9,3c0,0.2,0.3,0.3,1,0.3c0.3,0,0.9,0,1.7,0c0.7,0,1.1-0.1,1.2-0.3c0-0.1,0-0.1,0-0.2c0-0.4-0.3-1.4-0.8-3
	C229.5,207.2,229.1,206.2,228.9,205.7z"/>
<path id="XMLID_156_" class="st2" d="M267.5,214.1c0,2-0.6,3.7-1.9,5c-1.4,1.5-4,2.3-7.6,2.3c-0.3,0-0.7,0-1.2,0c-0.5,0-0.9,0-1.2,0
	c-4.1,0-6.5-0.1-7.3-0.2c-0.3-0.1-0.5-0.2-0.5-0.5c0-1.2,0.1-3,0.2-5.4c0.1-2.4,0.2-4.2,0.2-5.4c0-1.3-0.1-3.7-0.2-7.2
	c0-0.9-0.1-2.3-0.2-4.1l0-0.2c0-0.2,0.2-0.3,0.5-0.4s1.6-0.1,3.8-0.1c3.5,0,5.6,0,6.2,0c2.7,0.1,4.7,0.5,6,1.3
	c1.7,1,2.6,2.8,2.6,5.3c0,0.7-0.2,1.3-0.6,2.1c-0.3,0.5-0.7,1-1.1,1.6c-0.4,0.5-0.6,0.7-0.6,0.6c0,0.1,0.1,0.2,0.4,0.4
	c0.8,0.4,1.4,1.1,1.8,2.1C267.3,212.2,267.5,213.1,267.5,214.1z M260.4,204.8c0-0.9-0.5-1.6-1.4-1.9c-0.5-0.2-1.4-0.2-2.6-0.2
	c-1.2,0-1.8,0.1-1.8,0.3c0,0.2,0,0.5-0.1,1c0,0.4-0.1,0.7-0.1,1c0,1.1,0.1,1.7,0.3,1.9c0.1,0.1,0.8,0.1,2.1,0.1
	C259.2,206.8,260.4,206.1,260.4,204.8z M260.9,214c0-1-0.4-1.7-1.2-2c-0.5-0.2-1.4-0.3-2.6-0.3c-1.4,0-2.2,0.1-2.3,0.2
	c-0.1,0.1-0.2,0.8-0.2,2c0,1.3,0.1,2,0.2,2.2c0.1,0.1,0.9,0.2,2.4,0.2c1.2,0,2-0.1,2.5-0.3C260.5,215.6,260.9,215,260.9,214z"/>
<path id="XMLID_160_" class="st2" d="M295,221.1c0,0.1-0.1,0.1-0.3,0.2c-0.4,0.1-1.5,0.1-3.2,0.1c-1.4,0-2.4,0-2.9-0.1
	c-0.2,0-0.4-0.1-0.4-0.1c-0.1,0-0.1-0.1-0.2-0.3c-0.2-0.4-0.4-1.1-0.7-1.9c-0.4-1.1-1.1-2.7-2-4.9c-0.2-0.4-0.7-0.7-1.4-0.7
	c0.3,0-0.2,0-1.7,0c-0.2,0-0.2,0.3-0.2,0.8c0,0.8,0.1,1.9,0.2,3.4c0.1,1.5,0.2,2.6,0.2,3.4c0,0.2,0,0.3-0.1,0.3c-0.2,0-0.3,0-0.5,0
	c-0.7,0-1.7,0.1-3,0.1c-1.6,0-2.5,0-2.8-0.1s-0.5-0.2-0.5-0.5c0-1.2,0.1-3,0.2-5.5c0.1-2.4,0.2-4.3,0.2-5.5c0-4.7-0.1-8.3-0.3-10.9
	l0-0.2c0-0.2,0.2-0.3,0.5-0.4c0.4-0.1,2-0.1,5.1-0.2c2,0,3.7-0.1,4.9-0.1c2.5,0,4.6,0.6,6.2,1.7c1.8,1.3,2.7,3.1,2.7,5.5
	c0,1.6-0.2,2.9-0.7,3.9s-1.3,1.9-2.6,2.8c-0.3,0.2-0.4,0.3-0.4,0.5c0,0,0.7,1.4,2,4.2C294.3,219.2,295,220.8,295,221.1z
	 M288.1,206.2c0-1.3-0.4-2.3-1.3-2.8c-0.7-0.4-1.8-0.6-3.2-0.6c-1,0-1.6,0.2-1.7,0.5c-0.1,0.4-0.1,1.5-0.1,3.2c0,0.3,0,0.6,0,1.1
	c0,0.5,0,0.9,0,1.1c0,0.1,0.2,0.1,0.5,0.2c0.7,0.1,1.4,0.1,2.1,0.1C286.9,209.1,288.1,208.1,288.1,206.2z"/>
<path id="XMLID_163_" class="st2" d="M319.5,216.1c0,0.5-0.1,1.3-0.3,2.6c-0.2,1.4-0.4,2.2-0.5,2.5c-0.1,0.2-0.3,0.3-0.5,0.3
	c-0.1,0-0.3,0-0.5,0c-0.8-0.1-3.2-0.2-7-0.2c-0.8,0-2.1,0-3.8,0s-2.9,0-3.8,0c-0.4,0-0.5-0.2-0.5-0.5c0-1.2,0.1-3.1,0.2-5.6
	c0.1-2.5,0.2-4.3,0.2-5.6c0-1.3-0.1-3.6-0.2-7c0-0.9-0.1-2.2-0.2-4l0-0.2c0-0.3,0.1-0.4,0.4-0.4c0.8,0,2,0,3.7,0.1
	c1.6,0,2.9,0.1,3.7,0.1c0.8,0,2,0,3.6-0.1s2.8-0.1,3.6-0.1c0.6,0,0.9,0.2,1,0.6c0.1,0.3,0.1,1,0.3,2.3c0.1,1.3,0.2,2.1,0.2,2.3
	c0,0.2-0.1,0.3-0.3,0.3c-0.1,0-0.2,0-0.3,0c-2.9-0.2-5.6-0.4-7.9-0.4c-0.6,0-0.9,0.1-1.1,0.4c-0.1,0.1-0.1,0.6-0.1,1.3
	c0,0.8,0.1,1.2,0.3,1.5c0.2,0.2,0.5,0.3,1.1,0.3c0.1,0,0.3,0,0.6,0c0.3,0,0.6,0,0.8,0c1.4,0,2.8,0,4.2-0.1c0.1,0,0.4,0,0.9-0.1
	c0.4,0,0.7-0.1,0.9-0.1c0.3,0,0.4,0.1,0.4,0.4c0-0.2-0.1,0.6-0.3,2.5c-0.1,0.9-0.1,1.8-0.1,2.6c0,0.2-0.2,0.3-0.5,0.3l-1.5-0.2
	c-0.6-0.1-2.1-0.1-4.3-0.1H310c-0.5,0-0.7,0.1-0.8,0.3c0,0.1,0,0.4,0,1c0,0.8,0.1,1.4,0.2,1.6c0.2,0.4,0.9,0.7,2.1,0.7
	c0,0,0.8,0,2.4,0c0.6,0,1.5-0.1,2.6-0.2c1.2-0.1,2-0.2,2.6-0.2C319.4,215.5,319.5,215.7,319.5,216.1z"/>
<path id="XMLID_165_" class="st2" d="M364.5,209.7c0,3.4-1.1,6.3-3.3,8.7c-2.2,2.4-5.1,3.5-8.5,3.5c-3.4,0-6.2-1.2-8.5-3.6
	c-2.2-2.3-3.3-5.2-3.3-8.6c0-3.4,1.1-6.3,3.3-8.7c2.3-2.4,5.1-3.6,8.5-3.6c3.4,0,6.2,1.2,8.5,3.6
	C363.3,203.4,364.5,206.2,364.5,209.7z M358.2,209.6c0-1.7-0.5-3.1-1.5-4.2c-1-1.2-2.4-1.8-4-1.8c-1.6,0-2.9,0.6-4,1.9
	c-1,1.2-1.6,2.6-1.6,4.2c0,1.7,0.5,3.1,1.5,4.2c1,1.2,2.4,1.8,4.1,1.8c1.6,0,2.9-0.6,4-1.9C357.7,212.6,358.2,211.2,358.2,209.6z"/>
<path id="XMLID_168_" class="st2" d="M406,217.5c0,0.2-0.1,0.4-0.3,0.7c-2,2.4-4.7,3.6-8.1,3.6c-3.4,0-6.2-1.2-8.4-3.5
	c-2.1-2.3-3.1-5.1-3.1-8.6c0-3.4,1-6.2,3.1-8.5c2.1-2.4,4.8-3.7,8.1-3.7c3.6,0,6.4,1.1,8.4,3.3c0.2,0.2,0.3,0.5,0.3,0.6
	c0,0.2-0.4,1-1.1,2.3c-0.8,1.3-1.2,2.1-1.4,2.3c-0.1,0.1-0.2,0.1-0.3,0.1c-0.1,0-0.3-0.2-0.8-0.7c-0.6-0.5-1.2-0.9-1.8-1.2
	c-0.9-0.4-1.8-0.7-2.7-0.7c-1.6,0-2.9,0.6-3.9,1.8c-0.9,1.1-1.3,2.5-1.3,4.2c0,1.7,0.4,3.1,1.3,4.2c1,1.2,2.3,1.9,3.9,1.9
	c1,0,1.9-0.2,2.7-0.6c0.6-0.3,1.1-0.7,1.7-1.2c0.5-0.4,0.8-0.6,0.8-0.6c0.1,0,0.2,0.1,0.3,0.2c0.2,0.2,0.7,0.9,1.4,2.1
	C405.6,216.7,406,217.4,406,217.5z"/>
<path id="XMLID_170_" class="st2" d="M436.5,209.7c0,3.4-1.1,6.3-3.3,8.7c-2.2,2.4-5.1,3.5-8.5,3.5c-3.4,0-6.2-1.2-8.5-3.6
	c-2.2-2.3-3.3-5.2-3.3-8.6c0-3.4,1.1-6.3,3.3-8.7c2.3-2.4,5.1-3.6,8.5-3.6c3.4,0,6.2,1.2,8.5,3.6
	C435.4,203.4,436.5,206.2,436.5,209.7z M430.2,209.6c0-1.7-0.5-3.1-1.5-4.2c-1-1.2-2.4-1.8-4-1.8c-1.6,0-2.9,0.6-4,1.9
	c-1,1.2-1.6,2.6-1.6,4.2c0,1.7,0.5,3.1,1.5,4.2c1,1.2,2.4,1.8,4.1,1.8c1.6,0,2.9-0.6,4-1.9C429.7,212.6,430.2,211.2,430.2,209.6z"/>
<path id="XMLID_173_" class="st2" d="M464.3,221.1c0,0.1-0.1,0.1-0.3,0.2c-0.4,0.1-1.5,0.1-3.2,0.1c-1.4,0-2.4,0-2.9-0.1
	c-0.2,0-0.4-0.1-0.4-0.1c-0.1,0-0.1-0.1-0.2-0.3c-0.2-0.4-0.4-1.1-0.7-1.9c-0.4-1.1-1.1-2.7-2-4.9c-0.2-0.4-0.7-0.7-1.4-0.7
	c0.3,0-0.2,0-1.7,0c-0.2,0-0.2,0.3-0.2,0.8c0,0.8,0.1,1.9,0.2,3.4c0.1,1.5,0.2,2.6,0.2,3.4c0,0.2,0,0.3-0.1,0.3c-0.2,0-0.3,0-0.5,0
	c-0.7,0-1.7,0.1-3,0.1c-1.6,0-2.5,0-2.8-0.1s-0.5-0.2-0.5-0.5c0-1.2,0.1-3,0.2-5.5c0.1-2.4,0.2-4.3,0.2-5.5c0-4.7-0.1-8.3-0.3-10.9
	l0-0.2c0-0.2,0.2-0.3,0.5-0.4c0.4-0.1,2-0.1,5.1-0.2c2,0,3.7-0.1,4.9-0.1c2.5,0,4.6,0.6,6.2,1.7c1.8,1.3,2.7,3.1,2.7,5.5
	c0,1.6-0.2,2.9-0.7,3.9s-1.3,1.9-2.6,2.8c-0.3,0.2-0.4,0.3-0.4,0.5c0,0,0.7,1.4,2,4.2C463.6,219.2,464.3,220.8,464.3,221.1z
	 M457.4,206.2c0-1.3-0.4-2.3-1.3-2.8c-0.7-0.4-1.8-0.6-3.2-0.6c-1,0-1.6,0.2-1.7,0.5c-0.1,0.4-0.1,1.5-0.1,3.2c0,0.3,0,0.6,0,1.1
	c0,0.5,0,0.9,0,1.1c0,0.1,0.2,0.1,0.5,0.2c0.7,0.1,1.4,0.1,2.1,0.1C456.2,209.1,457.4,208.1,457.4,206.2z"/>
<path id="XMLID_176_" class="st2" d="M493.7,220.8c0,0.2-0.1,0.3-0.4,0.4c-0.3,0.1-1.4,0.1-3.1,0.1c-1.6,0-2.6,0-3-0.1
	c-0.4-0.1-0.6-0.3-0.7-0.7c-0.4-1.6-0.7-2.4-0.9-2.5c-0.2-0.1-1.7-0.1-4.4-0.1c-1.9,0-2.9,0-3,0.1c-0.2,0.2-0.4,0.8-0.6,1.8
	c-0.2,0.9-0.5,1.4-0.8,1.5c-0.4,0.1-1.6,0.1-3.8,0.1c-1.7,0-2.5-0.2-2.5-0.5c0-0.3,1.2-3.8,3.7-10.6c2.7-7.3,4.2-11.3,4.4-12.1
	c0.1-0.4,0.3-0.6,0.5-0.6c0.3,0,0.8,0,1.4,0.1c0.6,0.1,1.1,0.1,1.4,0.1c0.3,0,0.7,0,1.3-0.1c0.6,0,1-0.1,1.3-0.1
	c0.2,0,0.4,0.2,0.6,0.5c0.5,1.2,2.1,5.1,4.7,11.9C492.3,217,493.7,220.5,493.7,220.8z M481.9,205.7c-0.2,0.5-0.6,1.5-1.2,3.2
	c-0.6,1.7-0.9,2.7-0.9,3c0,0.2,0.3,0.3,1,0.3c0.3,0,0.9,0,1.7,0c0.7,0,1.1-0.1,1.2-0.3c0-0.1,0-0.1,0-0.2c0-0.4-0.3-1.4-0.8-3
	C482.5,207.2,482.2,206.2,481.9,205.7z"/>
<path id="XMLID_179_" class="st2" d="M520.3,217.5c0,0.2-0.1,0.4-0.3,0.7c-2,2.4-4.7,3.6-8.1,3.6c-3.4,0-6.2-1.2-8.4-3.5
	c-2.1-2.3-3.1-5.1-3.1-8.6c0-3.4,1-6.2,3.1-8.5c2.1-2.4,4.8-3.7,8.1-3.7c3.6,0,6.4,1.1,8.4,3.3c0.2,0.2,0.3,0.5,0.3,0.6
	c0,0.2-0.4,1-1.1,2.3c-0.8,1.3-1.2,2.1-1.4,2.3c-0.1,0.1-0.2,0.1-0.3,0.1c-0.1,0-0.3-0.2-0.8-0.7c-0.6-0.5-1.2-0.9-1.8-1.2
	c-0.9-0.4-1.8-0.7-2.7-0.7c-1.6,0-2.9,0.6-3.9,1.8c-0.9,1.1-1.3,2.5-1.3,4.2c0,1.7,0.4,3.1,1.3,4.2c1,1.2,2.3,1.9,3.9,1.9
	c1,0,1.9-0.2,2.7-0.6c0.6-0.3,1.1-0.7,1.7-1.2c0.5-0.4,0.8-0.6,0.8-0.6c0.1,0,0.2,0.1,0.3,0.2c0.2,0.2,0.7,0.9,1.4,2.1
	C519.9,216.7,520.3,217.4,520.3,217.5z M514.4,223.1c0,3.3-1.6,5-4.8,5c-0.4,0-0.9-0.2-1.7-0.6c-0.8-0.4-1.1-0.8-1.1-1.1
	c0,0,0.3-0.3,0.8-0.9c0.2-0.3,0.3-0.5,0.5-0.8c0.3-0.4,0.5-0.6,0.6-0.6c0,0,0.2,0.1,0.5,0.3c0.3,0.2,0.6,0.3,0.8,0.3
	c0.4,0,0.7-0.1,1-0.4s0.4-0.6,0.4-1c0-0.9-0.4-1.7-1.3-2.2l3.2,0.4C513.6,222,514,222.5,514.4,223.1z"/>
<path id="XMLID_182_" class="st2" d="M549.6,220.8c0,0.2-0.1,0.3-0.4,0.4c-0.3,0.1-1.4,0.1-3.1,0.1c-1.6,0-2.6,0-3-0.1
	c-0.4-0.1-0.6-0.3-0.7-0.7c-0.4-1.6-0.7-2.4-0.9-2.5c-0.2-0.1-1.7-0.1-4.4-0.1c-1.9,0-2.9,0-3,0.1c-0.2,0.2-0.4,0.8-0.6,1.8
	c-0.2,0.9-0.5,1.4-0.8,1.5c-0.4,0.1-1.6,0.1-3.8,0.1c-1.7,0-2.5-0.2-2.5-0.5c0-0.3,1.2-3.8,3.7-10.6c2.7-7.3,4.2-11.3,4.4-12.1
	c0.1-0.4,0.3-0.6,0.5-0.6c0.3,0,0.8,0,1.4,0.1c0.6,0.1,1.1,0.1,1.4,0.1c0.3,0,0.7,0,1.3-0.1c0.6,0,1-0.1,1.3-0.1
	c0.2,0,0.4,0.2,0.6,0.5c0.5,1.2,2.1,5.1,4.7,11.9C548.3,217,549.6,220.5,549.6,220.8z M543.6,194.2c-1.4,1.6-2.9,2.3-4.4,2.3
	c-0.4,0-1-0.2-1.6-0.7c-0.7-0.5-1.2-0.7-1.6-0.7c-0.4,0-0.8,0.2-1.2,0.6c-0.4,0.4-0.7,0.6-0.8,0.6c-0.3-0.1-0.8-0.5-1.4-1.1
	c-0.6-0.6-1-1.1-1-1.3c0.1-0.5,0.7-1,1.7-1.6s1.8-0.9,2.3-0.9c0.5,0,1.1,0.2,1.8,0.6s1.4,0.6,1.8,0.6c0.4,0,0.8-0.2,1.4-0.6
	c0.5-0.4,0.9-0.6,1-0.6c0.2,0,0.6,0.4,1.2,1.2s0.9,1.3,0.9,1.5L543.6,194.2z M537.9,205.7c-0.2,0.5-0.6,1.5-1.2,3.2
	c-0.6,1.7-0.9,2.7-0.9,3c0,0.2,0.3,0.3,1,0.3c0.3,0,0.9,0,1.7,0c0.7,0,1.1-0.1,1.2-0.3c0-0.1,0-0.1,0-0.2c0-0.4-0.3-1.4-0.8-3
	C538.5,207.2,538.1,206.2,537.9,205.7z"/>
<path id="XMLID_186_" class="st2" d="M579.9,209.7c0,3.4-1.1,6.3-3.3,8.7c-2.2,2.4-5.1,3.5-8.5,3.5c-3.4,0-6.2-1.2-8.5-3.6
	c-2.2-2.3-3.3-5.2-3.3-8.6c0-3.4,1.1-6.3,3.3-8.7c2.3-2.4,5.1-3.6,8.5-3.6c3.4,0,6.2,1.2,8.5,3.6
	C578.8,203.4,579.9,206.2,579.9,209.7z M573.7,209.6c0-1.7-0.5-3.1-1.5-4.2c-1-1.2-2.4-1.8-4-1.8c-1.6,0-2.9,0.6-4,1.9
	c-1,1.2-1.6,2.6-1.6,4.2c0,1.7,0.5,3.1,1.5,4.2c1,1.2,2.4,1.8,4.1,1.8c1.6,0,2.9-0.6,4-1.9C573.1,212.6,573.7,211.2,573.7,209.6z"/>
<path id="XMLID_189_" class="st3" d="M173,263.4c0,0.5-0.1,1.3-0.3,2.6c-0.2,1.4-0.4,2.2-0.5,2.5c-0.1,0.2-0.3,0.3-0.5,0.3
	c-0.1,0-0.3,0-0.5,0c-0.8-0.1-3.2-0.2-7-0.2c-0.8,0-2.1,0-3.8,0s-2.9,0-3.8,0c-0.4,0-0.5-0.2-0.5-0.5c0-1.2,0.1-3.1,0.2-5.6
	c0.1-2.5,0.2-4.3,0.2-5.6c0-1.3-0.1-3.6-0.2-7c0-0.9-0.1-2.2-0.2-4l0-0.2c0-0.3,0.1-0.4,0.4-0.4c0.8,0,2,0,3.7,0.1
	c1.6,0,2.9,0.1,3.7,0.1c0.8,0,2,0,3.6-0.1c1.6,0,2.8-0.1,3.6-0.1c0.6,0,0.9,0.2,1,0.6c0.1,0.3,0.1,1,0.3,2.3
	c0.1,1.3,0.2,2.1,0.2,2.3c0,0.2-0.1,0.3-0.3,0.3c-0.1,0-0.2,0-0.3,0c-2.9-0.2-5.6-0.4-7.9-0.4c-0.6,0-0.9,0.1-1.1,0.4
	c-0.1,0.1-0.1,0.6-0.1,1.3c0,0.8,0.1,1.2,0.3,1.5c0.2,0.2,0.5,0.3,1.1,0.3c0.1,0,0.3,0,0.6,0c0.3,0,0.6,0,0.8,0c1.4,0,2.8,0,4.2-0.1
	c0.1,0,0.4,0,0.9-0.1c0.4,0,0.7-0.1,0.9-0.1c0.3,0,0.4,0.1,0.4,0.4c0-0.2-0.1,0.6-0.3,2.5c-0.1,0.9-0.1,1.8-0.1,2.6
	c0,0.2-0.2,0.3-0.5,0.3l-1.5-0.2c-0.6-0.1-2.1-0.1-4.3-0.1h-1.8c-0.5,0-0.7,0.1-0.8,0.3c0,0.1,0,0.4,0,1c0,0.8,0.1,1.4,0.2,1.6
	c0.2,0.4,0.9,0.7,2.1,0.7c0,0,0.8,0,2.4,0c0.6,0,1.5-0.1,2.6-0.2s2-0.2,2.6-0.2C172.9,262.8,173,263,173,263.4z"/>
<path id="XMLID_191_" class="st3" d="M203.1,259.5c0,2.8-0.2,4.9-0.7,6.4c-0.8,2.7-2.1,4.8-3.9,6.3c-0.2,0.2-0.4,0.3-0.5,0.3
	c-0.1,0-0.2-0.1-0.4-0.2c-0.4-0.5-1-1.1-1.8-2c-0.5-0.4-1.2-1-2.1-1.9c-0.1-0.1-0.2-0.2-0.2-0.3c0-0.1,0.1-0.2,0.2-0.3
	c0.8-0.7,1.3-1.2,1.6-1.5c0.4-0.5,0.8-1.2,1-2c0.3-1.1,0.5-2.8,0.5-5.3c0-5.7-0.2-10.1-0.6-13.2c0-0.1,0-0.2,0-0.2
	c0-0.2,0.2-0.3,0.5-0.3c0.4,0,0.9,0,1.6,0s1.2,0,1.6,0c0.3,0,0.8,0,1.5,0c0.7,0,1.1,0,1.5,0c0.3,0,0.5,0.1,0.5,0.4
	c0,1.5,0,3.8,0,6.9C203.1,255.7,203.1,258,203.1,259.5z"/>
<path id="XMLID_193_" class="st3" d="M233.9,268.1c0,0.2-0.1,0.3-0.4,0.4c-0.3,0.1-1.4,0.1-3.1,0.1c-1.6,0-2.6,0-3-0.1
	c-0.4-0.1-0.6-0.3-0.7-0.7c-0.4-1.6-0.7-2.4-0.9-2.5c-0.2-0.1-1.7-0.1-4.4-0.1c-1.9,0-2.9,0-3,0.1c-0.2,0.2-0.4,0.8-0.6,1.8
	c-0.2,0.9-0.5,1.4-0.8,1.5c-0.4,0.1-1.6,0.1-3.8,0.1c-1.7,0-2.5-0.2-2.5-0.5c0-0.3,1.2-3.8,3.7-10.6c2.7-7.3,4.2-11.3,4.4-12.1
	c0.1-0.4,0.3-0.6,0.5-0.6c0.3,0,0.8,0,1.4,0.1c0.6,0.1,1.1,0.1,1.4,0.1c0.3,0,0.7,0,1.3-0.1c0.6,0,1-0.1,1.3-0.1
	c0.2,0,0.4,0.2,0.6,0.5c0.5,1.2,2.1,5.1,4.7,11.9C232.6,264.2,233.9,267.8,233.9,268.1z M219.1,244.8c-0.2,0-0.3-0.1-0.3-0.3
	c0-0.1,0-0.2,0-0.4c0-0.2,0-0.3,0-0.4c0-0.1,0-0.3-0.1-0.6s-0.1-0.5-0.1-0.6c0-0.2,0.1-0.3,0.3-0.4c0.5-0.2,1.6-0.8,3.1-1.6
	c0.7-0.5,1.7-1.2,3.1-2.2c0.1-0.1,0.2-0.1,0.3-0.2c0.1,0,0.2,0.1,0.3,0.2c0.3,0.3,0.7,0.6,1.2,1.1c0.3,0.2,0.8,0.5,1.4,0.8
	c0.2,0.1,0.3,0.2,0.3,0.3c0,0.1-0.1,0.2-0.2,0.3c-1,0.9-2.4,1.8-4.4,2.6s-3.6,1.3-4.9,1.3H219.1z M222.2,253
	c-0.2,0.5-0.6,1.5-1.2,3.2c-0.6,1.7-0.9,2.7-0.9,3c0,0.2,0.3,0.3,1,0.3c0.3,0,0.9,0,1.7,0c0.7,0,1.1-0.1,1.2-0.3c0-0.1,0-0.1,0-0.2
	c0-0.4-0.3-1.4-0.8-3C222.8,254.5,222.4,253.5,222.2,253z"/>
<path id="XMLID_197_" class="st3" d="M277,256.8c0,3.2-1,6.1-3.1,8.4c-1.8,2.1-4.4,3.2-7.8,3.4c-0.6,0-2.4,0-5.3,0
	c-0.5,0-1.4,0-2.4,0c-1.1,0-1.9,0-2.4,0c-0.3,0-0.5-0.1-0.5-0.4c0-1.2,0-3,0.1-5.5c0.1-2.4,0.1-4.3,0.1-5.5c0-1.3,0-3.2-0.1-5.7
	c-0.1-2.5-0.1-4.4-0.1-5.7c0-0.2,0.2-0.4,0.5-0.4c0.8-0.1,2.1-0.1,3.9-0.1c3.4,0,5.6,0,6.6,0.1c2.6,0.3,4.7,0.9,6.1,2
	c1.4,1,2.5,2.4,3.3,4.2C276.6,253.2,277,255,277,256.8z M270.7,256.8c0-1.9-0.6-3.4-1.7-4.6c-1.1-1.2-2.6-1.8-4.5-1.8
	c-1.7,0-2.5,0.2-2.5,0.7c0,0.7,0,1.6,0,2.9c0,1.3,0,2.3,0,2.9c0,0.6,0,1.6,0,2.9c0,1.3,0,2.3,0,2.9c0,0.5,0.9,0.7,2.6,0.7
	c1.9,0,3.4-0.6,4.5-1.9C270.1,260.3,270.7,258.7,270.7,256.8z"/>
<path id="XMLID_200_" class="st3" d="M302.2,263.4c0,0.5-0.1,1.3-0.3,2.6c-0.2,1.4-0.4,2.2-0.5,2.5c-0.1,0.2-0.3,0.3-0.5,0.3
	c-0.1,0-0.3,0-0.5,0c-0.8-0.1-3.2-0.2-7-0.2c-0.8,0-2.1,0-3.8,0s-2.9,0-3.8,0c-0.4,0-0.5-0.2-0.5-0.5c0-1.2,0.1-3.1,0.2-5.6
	c0.1-2.5,0.2-4.3,0.2-5.6c0-1.3-0.1-3.6-0.2-7c0-0.9-0.1-2.2-0.2-4l0-0.2c0-0.3,0.1-0.4,0.4-0.4c0.8,0,2,0,3.7,0.1
	c1.6,0,2.9,0.1,3.7,0.1c0.8,0,2,0,3.6-0.1c1.6,0,2.8-0.1,3.6-0.1c0.6,0,0.9,0.2,1,0.6c0.1,0.3,0.1,1,0.3,2.3
	c0.1,1.3,0.2,2.1,0.2,2.3c0,0.2-0.1,0.3-0.3,0.3c-0.1,0-0.2,0-0.3,0c-2.9-0.2-5.6-0.4-7.9-0.4c-0.6,0-0.9,0.1-1.1,0.4
	c-0.1,0.1-0.1,0.6-0.1,1.3c0,0.8,0.1,1.2,0.3,1.5c0.2,0.2,0.5,0.3,1.1,0.3c0.1,0,0.3,0,0.6,0c0.3,0,0.6,0,0.8,0c1.4,0,2.8,0,4.2-0.1
	c0.1,0,0.4,0,0.9-0.1c0.4,0,0.7-0.1,0.9-0.1c0.3,0,0.4,0.1,0.4,0.4c0-0.2-0.1,0.6-0.3,2.5c-0.1,0.9-0.1,1.8-0.1,2.6
	c0,0.2-0.2,0.3-0.5,0.3l-1.5-0.2c-0.6-0.1-2.1-0.1-4.3-0.1h-1.8c-0.5,0-0.7,0.1-0.8,0.3c0,0.1,0,0.4,0,1c0,0.8,0.1,1.4,0.2,1.6
	c0.2,0.4,0.9,0.7,2.1,0.7c0,0,0.8,0,2.4,0c0.6,0,1.5-0.1,2.6-0.2s2-0.2,2.6-0.2C302,262.8,302.2,263,302.2,263.4z"/>
<path id="XMLID_202_" class="st3" d="M316.7,256.3c0,1.3,0,3.3,0.1,5.9s0.1,4.6,0.1,5.9c0,0.2,0,0.4-0.1,0.4c0,0-0.2,0-0.4,0.1
	c-0.7,0.1-1.7,0.1-2.9,0.1c-1.6,0-2.6,0-3.1-0.1c-0.3-0.1-0.5-0.2-0.5-0.5c0,0.2,0-0.8,0.1-2.9c0.2-4.5,0.3-7.4,0.3-8.8
	c0-1.2,0-3-0.1-5.3c-0.1-2.4-0.1-4.1-0.1-5.3c0-0.2,0.1-0.4,0.4-0.4c0.3,0,0.9,0,1.5,0s1.2,0,1.5,0s0.8,0,1.5,0c0.7,0,1.2,0,1.5,0
	c0.3,0,0.5,0.1,0.5,0.4c0,1.2-0.1,3-0.2,5.3C316.8,253.3,316.7,255.1,316.7,256.3z"/>
<path id="XMLID_204_" class="st3" d="M344,266.3c0,1.1,0,1.7-0.1,1.9c-0.1,0.2-0.5,0.4-1.1,0.4c-0.1,0-0.3,0-0.7,0
	c-0.3,0-0.6,0-0.8,0c-0.2,0-0.6,0-1,0c-0.4,0-0.8,0-1,0c-0.2,0-1-1.1-2.4-3.2s-2.1-3.2-2.2-3.2c-0.2,0.2-1,1.3-2.4,3.3
	c-1.3,2-2.1,3-2.3,3c-0.2,0-0.6,0.1-1.2,0.1c-2.3,0-3.4-0.1-3.4-0.3s0-0.6,0-1c0-0.4,0-0.8,0-1c0-1.4,0.1-2.2,0.2-2.4
	c0,0,0.9-1.2,2.7-3.6c1.5-1.9,2.2-3.1,2.2-3.3s-0.7-1.4-2.2-3.3c-0.9-1.2-1.8-2.4-2.8-3.6c-0.1-0.1-0.2-0.4-0.2-0.7
	c0-0.2,0-0.5,0-0.9c0-0.5,0-0.7,0-0.8c0-0.2,0-0.6-0.1-1c0-0.5-0.1-0.8-0.1-1c0-0.2,0.2-0.3,0.6-0.3c0.3,0,0.6,0,1.1,0
	c0.5,0,0.9,0,1.1,0c0.2,0,0.5,0,1,0c0.4,0,0.8,0,1,0c0.2,0,1,1.1,2.4,3.2c1.4,2.1,2.2,3.2,2.2,3.2c0.2-0.1,1-1.3,2.4-3.4
	c1.3-2,2.1-3.1,2.3-3.1h3.9c0.4,0,0.6,0.1,0.6,0.3v4c0,0.3-0.9,1.5-2.6,3.8c-1.7,2.2-2.6,3.4-2.6,3.5c0,0.2,0.8,1.3,2.3,3.3
	c1.8,2.3,2.7,3.5,2.8,3.7C344,264,344,264.9,344,266.3z"/>
<path id="XMLID_206_" class="st3" d="M374.1,268.1c0,0.2-0.1,0.3-0.4,0.4c-0.3,0.1-1.4,0.1-3.1,0.1c-1.6,0-2.6,0-3-0.1
	c-0.4-0.1-0.6-0.3-0.7-0.7c-0.4-1.6-0.7-2.4-0.9-2.5c-0.2-0.1-1.7-0.1-4.4-0.1c-1.9,0-2.9,0-3,0.1c-0.2,0.2-0.4,0.8-0.6,1.8
	c-0.2,0.9-0.5,1.4-0.8,1.5c-0.4,0.1-1.6,0.1-3.8,0.1c-1.7,0-2.5-0.2-2.5-0.5c0-0.3,1.2-3.8,3.7-10.6c2.7-7.3,4.2-11.3,4.4-12.1
	c0.1-0.4,0.3-0.6,0.5-0.6c0.3,0,0.8,0,1.4,0.1c0.6,0.1,1.1,0.1,1.4,0.1c0.3,0,0.7,0,1.3-0.1c0.6,0,1-0.1,1.3-0.1
	c0.2,0,0.4,0.2,0.6,0.5c0.5,1.2,2.1,5.1,4.7,11.9C372.8,264.2,374.1,267.8,374.1,268.1z M362.4,253c-0.2,0.5-0.6,1.5-1.2,3.2
	c-0.6,1.7-0.9,2.7-0.9,3c0,0.2,0.3,0.3,1,0.3c0.3,0,0.9,0,1.7,0c0.7,0,1.1-0.1,1.2-0.3c0-0.1,0-0.1,0-0.2c0-0.4-0.3-1.4-0.8-3
	C363,254.5,362.6,253.5,362.4,253z"/>
<path id="XMLID_209_" class="st3" d="M411.7,250.3c0,0.2-0.1,0.3-0.4,0.3c-0.4,0-2.1-0.1-5-0.2c-0.1,2.8-0.1,4.7-0.1,5.8
	c0,1.3,0.1,3.3,0.2,5.9c0.1,2.6,0.2,4.6,0.2,5.9c0,0.2,0,0.3-0.1,0.4c0,0-0.2,0-0.5,0.1c-0.7,0.1-1.6,0.1-2.9,0.1
	c-1.4,0-2.4,0-3-0.1c-0.3-0.1-0.5-0.2-0.5-0.5c0-1.3,0.1-3.3,0.2-5.9s0.2-4.6,0.2-5.9c0-0.9,0-2.8-0.1-5.8c-2.2,0.2-4,0.3-5.3,0.3
	c-0.2,0-0.3-0.1-0.3-0.2c0-0.1,0.1-0.6,0.2-1.3c0.2-0.8,0.3-1.2,0.3-1.4c0-0.5,0.1-1,0.1-1.6c0.1-0.8,0.2-1.2,0.4-1.2
	c0,0,0.1,0,0.2,0c1.8,0.2,4.4,0.3,7.9,0.3c1,0,2.8-0.1,5.5-0.3c1.4-0.1,2.2-0.2,2.2-0.2c0.2,0,0.3,0,0.4,0s0.1,0.1,0.1,0.3
	c0,0.3,0,0.7,0,1.2c0,0.6,0,1,0,1.2c0,0.3,0,0.7,0.1,1.2C411.7,249.7,411.7,250.1,411.7,250.3z"/>
<path id="XMLID_211_" class="st3" d="M438.9,260.4c0,2.8-0.3,4.7-1,5.8c-1.2,1.9-4.3,2.8-9.2,2.8c-2.2,0-3.9-0.2-5.1-0.5
	c-1.9-0.6-3.2-1.6-3.7-3.2c-0.3-0.8-0.4-2.1-0.4-4.1c0-0.5,0-1.1,0-2s0-1.6,0-2c0-1.3-0.1-3.2-0.2-5.8c-0.1-2.6-0.2-4.5-0.2-5.7
	c0-0.3,0.1-0.4,0.3-0.4c0.7,0,1.7,0,3.1,0.1c1.4,0.1,2.4,0.1,3.1,0.1c0.3,0,0.4,0.1,0.4,0.4c0,1.5,0,3.6-0.1,6.5
	c-0.1,2.9-0.1,5.1-0.1,6.5c0,1.7,0.2,2.9,0.5,3.5c0.5,0.8,1.5,1.2,3,1.2c2.3,0,3.4-1.1,3.4-3.3c0-1.6,0-4-0.1-7.2
	c-0.1-3.2-0.1-5.6-0.1-7.2c0-0.3,0.1-0.5,0.4-0.5c0.7,0,1.6,0,2.9-0.1c1.3-0.1,2.3-0.1,2.9-0.1c0.3,0,0.5,0.1,0.5,0.4
	c0,1.3-0.1,3.2-0.2,5.7c-0.1,2.6-0.2,4.5-0.2,5.8c0,0.4,0,0.9,0,1.6C438.9,259.5,438.9,260,438.9,260.4z"/>
<path id="XMLID_213_" class="st3" d="M469.7,268.1c0,0.2-0.1,0.3-0.4,0.4c-0.3,0.1-1.4,0.1-3.1,0.1c-1.6,0-2.6,0-3-0.1
	c-0.4-0.1-0.6-0.3-0.7-0.7c-0.4-1.6-0.7-2.4-0.9-2.5c-0.2-0.1-1.7-0.1-4.4-0.1c-1.9,0-2.9,0-3,0.1c-0.2,0.2-0.4,0.8-0.6,1.8
	c-0.2,0.9-0.5,1.4-0.8,1.5c-0.4,0.1-1.6,0.1-3.8,0.1c-1.7,0-2.5-0.2-2.5-0.5c0-0.3,1.2-3.8,3.7-10.6c2.7-7.3,4.2-11.3,4.4-12.1
	c0.1-0.4,0.3-0.6,0.5-0.6c0.3,0,0.8,0,1.4,0.1c0.6,0.1,1.1,0.1,1.4,0.1c0.3,0,0.7,0,1.3-0.1c0.6,0,1-0.1,1.3-0.1
	c0.2,0,0.4,0.2,0.6,0.5c0.5,1.2,2.1,5.1,4.7,11.9C468.3,264.2,469.7,267.8,469.7,268.1z M457.9,253c-0.2,0.5-0.6,1.5-1.2,3.2
	c-0.6,1.7-0.9,2.7-0.9,3c0,0.2,0.3,0.3,1,0.3c0.3,0,0.9,0,1.7,0c0.7,0,1.1-0.1,1.2-0.3c0-0.1,0-0.1,0-0.2c0-0.4-0.3-1.4-0.8-3
	C458.5,254.5,458.2,253.5,457.9,253z"/>
<path id="XMLID_216_" class="st3" d="M512.7,256.8c0,3.2-1,6.1-3.1,8.4c-1.8,2.1-4.4,3.2-7.8,3.4c-0.6,0-2.4,0-5.3,0
	c-0.5,0-1.4,0-2.4,0c-1.1,0-1.9,0-2.4,0c-0.3,0-0.5-0.1-0.5-0.4c0-1.2,0-3,0.1-5.5c0.1-2.4,0.1-4.3,0.1-5.5c0-1.3,0-3.2-0.1-5.7
	c-0.1-2.5-0.1-4.4-0.1-5.7c0-0.2,0.2-0.4,0.5-0.4c0.8-0.1,2.1-0.1,3.9-0.1c3.4,0,5.6,0,6.6,0.1c2.6,0.3,4.7,0.9,6.1,2
	c1.4,1,2.5,2.4,3.3,4.2C512.3,253.2,512.7,255,512.7,256.8z M506.4,256.8c0-1.9-0.6-3.4-1.7-4.6c-1.1-1.2-2.6-1.8-4.5-1.8
	c-1.7,0-2.5,0.2-2.5,0.7c0,0.7,0,1.6,0,2.9c0,1.3,0,2.3,0,2.9c0,0.6,0,1.6,0,2.9c0,1.3,0,2.3,0,2.9c0,0.5,0.9,0.7,2.6,0.7
	c1.9,0,3.4-0.6,4.5-1.9C505.9,260.3,506.4,258.7,506.4,256.8z"/>
<path id="XMLID_219_" class="st3" d="M540.7,260.4c0,2.8-0.3,4.7-1,5.8c-1.2,1.9-4.3,2.8-9.2,2.8c-2.2,0-3.9-0.2-5.1-0.5
	c-1.9-0.6-3.2-1.6-3.7-3.2c-0.3-0.8-0.4-2.1-0.4-4.1c0-0.5,0-1.1,0-2s0-1.6,0-2c0-1.3-0.1-3.2-0.2-5.8c-0.1-2.6-0.2-4.5-0.2-5.7
	c0-0.3,0.1-0.4,0.3-0.4c0.7,0,1.7,0,3.1,0.1c1.4,0.1,2.4,0.1,3.1,0.1c0.3,0,0.4,0.1,0.4,0.4c0,1.5,0,3.6-0.1,6.5
	c-0.1,2.9-0.1,5.1-0.1,6.5c0,1.7,0.2,2.9,0.5,3.5c0.5,0.8,1.5,1.2,3,1.2c2.3,0,3.4-1.1,3.4-3.3c0-1.6,0-4-0.1-7.2
	c-0.1-3.2-0.1-5.6-0.1-7.2c0-0.3,0.1-0.5,0.4-0.5c0.7,0,1.6,0,2.9-0.1c1.3-0.1,2.3-0.1,2.9-0.1c0.3,0,0.5,0.1,0.5,0.4
	c0,1.3-0.1,3.2-0.2,5.7c-0.1,2.6-0.2,4.5-0.2,5.8c0,0.4,0,0.9,0,1.6C540.7,259.5,540.7,260,540.7,260.4z"/>
<path id="XMLID_221_" class="st3" d="M559,268.6c-1.5,0-2.3,0-2.5-0.1c-0.2,0-0.4-0.2-0.5-0.5c-1.3-2.5-2.5-5-3.8-7.5
	c-2-4-3-6.3-3-6.8c0-0.9,0-2.2,0.1-3.9c0.1-1.7,0.1-3.1,0.1-3.9c0-0.4,0.1-0.6,0.3-0.6c0.7,0,1.7,0,3,0.1c1.3,0.1,2.4,0.1,3,0.1
	c0.3,0,0.4,0.1,0.4,0.3c0,0.9-0.1,2.2-0.2,4c-0.1,1.8-0.2,3.1-0.2,4c0,0.7,1.1,3.1,3.4,7.3c0.6-1.1,1.3-2.4,2.1-4
	c1-2.1,1.6-3.5,1.6-3.9c0-0.8,0-2,0-3.6c0-1.6,0-2.8,0-3.6c0-0.3,0-0.5,0.1-0.5h0.5c0.6,0,1.5,0,2.8-0.1c1.2-0.1,2.1-0.1,2.8-0.1
	c0.3,0,0.5,0.1,0.5,0.4c0,0.8,0,2.1,0,3.8c0,1.7,0,3,0,3.9c0,0.7-1.1,3.2-3.3,7.5c-0.9,1.6-2.1,3.9-3.7,7.1
	c-0.1,0.2-0.2,0.4-0.2,0.4c0,0-0.2,0.1-0.4,0.1C561,268.5,560.1,268.6,559,268.6z"/>
<path id="XMLID_223_" class="st3" d="M584.1,256.3c0,1.3,0,3.3,0.1,5.9s0.1,4.6,0.1,5.9c0,0.2,0,0.4-0.1,0.4c0,0-0.2,0-0.4,0.1
	c-0.7,0.1-1.7,0.1-2.9,0.1c-1.6,0-2.6,0-3.1-0.1c-0.3-0.1-0.5-0.2-0.5-0.5c0,0.2,0-0.8,0.1-2.9c0.2-4.5,0.3-7.4,0.3-8.8
	c0-1.2,0-3-0.1-5.3c-0.1-2.4-0.1-4.1-0.1-5.3c0-0.2,0.1-0.4,0.4-0.4c0.3,0,0.9,0,1.5,0s1.2,0,1.5,0s0.8,0,1.5,0c0.7,0,1.2,0,1.5,0
	c0.3,0,0.5,0.1,0.5,0.4c0,1.2-0.1,3-0.2,5.3C584.2,253.3,584.1,255.1,584.1,256.3z"/>
<path id="XMLID_225_" class="st3" d="M614.7,256.8c0,3.2-1,6.1-3.1,8.4c-1.8,2.1-4.4,3.2-7.8,3.4c-0.6,0-2.4,0-5.3,0
	c-0.5,0-1.4,0-2.4,0c-1.1,0-1.9,0-2.4,0c-0.3,0-0.5-0.1-0.5-0.4c0-1.2,0-3,0.1-5.5c0.1-2.4,0.1-4.3,0.1-5.5c0-1.3,0-3.2-0.1-5.7
	c-0.1-2.5-0.1-4.4-0.1-5.7c0-0.2,0.2-0.4,0.5-0.4c0.8-0.1,2.1-0.1,3.9-0.1c3.4,0,5.6,0,6.6,0.1c2.6,0.3,4.7,0.9,6.1,2
	c1.4,1,2.5,2.4,3.3,4.2C614.4,253.2,614.7,255,614.7,256.8z M608.4,256.8c0-1.9-0.6-3.4-1.7-4.6c-1.1-1.2-2.6-1.8-4.5-1.8
	c-1.7,0-2.5,0.2-2.5,0.7c0,0.7,0,1.6,0,2.9c0,1.3,0,2.3,0,2.9c0,0.6,0,1.6,0,2.9c0,1.3,0,2.3,0,2.9c0,0.5,0.9,0.7,2.6,0.7
	c1.9,0,3.4-0.6,4.5-1.9C607.9,260.3,608.4,258.7,608.4,256.8z"/>
<path id="XMLID_228_" class="st3" d="M644.8,268.1c0,0.2-0.1,0.3-0.4,0.4c-0.3,0.1-1.4,0.1-3.1,0.1c-1.6,0-2.6,0-3-0.1
	c-0.4-0.1-0.6-0.3-0.7-0.7c-0.4-1.6-0.7-2.4-0.9-2.5c-0.2-0.1-1.7-0.1-4.4-0.1c-1.9,0-2.9,0-3,0.1c-0.2,0.2-0.4,0.8-0.6,1.8
	c-0.2,0.9-0.5,1.4-0.8,1.5c-0.4,0.1-1.6,0.1-3.8,0.1c-1.7,0-2.5-0.2-2.5-0.5c0-0.3,1.2-3.8,3.7-10.6c2.7-7.3,4.2-11.3,4.4-12.1
	c0.1-0.4,0.3-0.6,0.5-0.6c0.3,0,0.8,0,1.4,0.1c0.6,0.1,1.1,0.1,1.4,0.1c0.3,0,0.7,0,1.3-0.1c0.6,0,1-0.1,1.3-0.1
	c0.2,0,0.4,0.2,0.6,0.5c0.5,1.2,2.1,5.1,4.7,11.9C643.5,264.2,644.8,267.8,644.8,268.1z M633.1,253c-0.2,0.5-0.6,1.5-1.2,3.2
	c-0.6,1.7-0.9,2.7-0.9,3c0,0.2,0.3,0.3,1,0.3c0.3,0,0.9,0,1.7,0c0.7,0,1.1-0.1,1.2-0.3c0-0.1,0-0.1,0-0.2c0-0.4-0.3-1.4-0.8-3
	C633.7,254.5,633.3,253.5,633.1,253z"/>
<g id="XMLID_245_">
	<g id="XMLID_246_" class="st4">
		<g id="XMLID_279_">
			<polygon id="XMLID_280_" class="st5" points="701.8,245.6 699.8,247.2 692.7,237.5 694.7,235.9 			"/>
		</g>
		<g id="XMLID_277_">
			<polygon id="XMLID_278_" class="st5" points="712.2,246.9 710.2,248.6 699.8,247.2 701.8,245.6 			"/>
		</g>
		<g id="XMLID_275_">
			<polygon id="XMLID_276_" class="st5" points="707,254.8 705,256.5 710.2,248.6 712.2,246.9 			"/>
		</g>
		<g id="XMLID_273_">
			<polygon id="XMLID_274_" class="st5" points="711.5,265.6 709.6,267.2 705,256.5 707,254.8 			"/>
		</g>
		<g id="XMLID_271_">
			<polygon id="XMLID_272_" class="st6" points="692.8,245.9 690.9,247.4 692.7,237.5 694.7,235.9 			"/>
		</g>
		<g id="XMLID_269_">
			<polygon id="XMLID_270_" class="st5" points="691.3,244.2 689.3,245.9 691.7,233.4 693.6,231.7 			"/>
		</g>
		<g id="XMLID_267_">
			<polygon id="XMLID_268_" class="st7" points="711.5,265.6 709.6,267.2 699.3,262.4 701.2,260.7 			"/>
		</g>
		<g id="XMLID_265_">
			<polygon id="XMLID_266_" class="st5" points="714.6,268.9 712.7,270.5 699.8,264.4 701.7,262.8 			"/>
		</g>
		<g id="XMLID_263_">
			<polygon id="XMLID_264_" class="st5" points="692.8,245.9 690.9,247.4 681.2,249.4 683.2,247.7 			"/>
		</g>
		<g id="XMLID_261_">
			<polygon id="XMLID_262_" class="st8" points="692.4,255.3 690.6,256.9 681.2,249.4 683.2,247.7 			"/>
		</g>
		<g id="XMLID_259_">
			<polygon id="XMLID_260_" class="st5" points="690.9,255.9 688.9,257.5 677.3,248.2 679.2,246.6 			"/>
		</g>
		<g id="XMLID_257_">
			<polygon id="XMLID_258_" class="st9" points="693.6,266.1 691.7,267.7 690.6,256.9 692.4,255.3 			"/>
		</g>
		<g id="XMLID_255_">
			<polygon id="XMLID_256_" class="st10" points="701.2,260.7 699.3,262.4 691.7,267.7 693.6,266.1 			"/>
		</g>
		<g id="XMLID_253_">
			<path id="XMLID_254_" class="st5" d="M702.4,243.9l13,1.6l-6.5,9.8l5.7,13.5l-12.9-6.1l-9.5,6.7l-1.4-13.6l-11.6-9.3l12-2.3
				l2.4-12.5L702.4,243.9z M707,254.8l5.2-7.9l-10.4-1.4l-7.1-9.7l-1.9,10l-9.6,1.9l9.2,7.5l1.1,11l7.6-5.4l10.3,4.9L707,254.8"/>
		</g>
		<g id="XMLID_251_">
			<polygon id="XMLID_252_" class="st11" points="694.7,235.9 701.8,245.6 712.2,246.9 707,254.8 711.5,265.6 701.2,260.7 
				693.6,266.1 692.4,255.3 683.2,247.7 692.8,245.9 			"/>
		</g>
		<g id="XMLID_249_">
			<polygon id="XMLID_250_" class="st5" points="701.7,262.8 699.8,264.4 690.2,271.1 692.2,269.6 			"/>
		</g>
		<g id="XMLID_247_">
			<polygon id="XMLID_248_" class="st5" points="692.2,269.6 690.2,271.1 688.9,257.5 690.9,255.9 			"/>
		</g>
	</g>
</g>
<g id="XMLID_234_">
	<g id="XMLID_235_" class="st4">
		<g id="XMLID_392_">
			<polygon id="XMLID_393_" class="st5" points="757.7,198.6 757,200 750.2,195.1 750.9,193.7 			"/>
		</g>
		<g id="XMLID_390_">
			<polygon id="XMLID_391_" class="st5" points="765.4,196.2 764.6,197.6 757,200 757.7,198.6 			"/>
		</g>
		<g id="XMLID_388_">
			<polygon id="XMLID_389_" class="st5" points="763.1,203.6 762.3,205 764.6,197.6 765.4,196.2 			"/>
		</g>
		<g id="XMLID_386_">
			<polygon id="XMLID_387_" class="st5" points="768.2,210.1 767.6,211.4 762.3,205 763.1,203.6 			"/>
		</g>
		<g id="XMLID_384_">
			<polygon id="XMLID_385_" class="st12" points="751.3,201.6 750.6,203 750.2,195.1 750.9,193.7 			"/>
		</g>
		<g id="XMLID_382_">
			<polygon id="XMLID_383_" class="st5" points="749.3,200.6 748.6,201.9 748,191.2 748.7,189.9 			"/>
		</g>
		<g id="XMLID_380_">
			<polygon id="XMLID_381_" class="st12" points="768.2,210.1 767.6,211.4 759.2,211.1 760,209.7 			"/>
		</g>
		<g id="XMLID_378_">
			<polygon id="XMLID_379_" class="st5" points="772.3,212.1 771.6,213.4 760.3,213 761.1,211.7 			"/>
		</g>
		<g id="XMLID_376_">
			<polygon id="XMLID_377_" class="st5" points="751.3,201.6 750.6,203 744,207.3 744.8,206 			"/>
		</g>
		<g id="XMLID_374_">
			<polygon id="XMLID_375_" class="st12" points="752.8,208.5 752,209.8 744,207.3 744.8,206 			"/>
		</g>
		<g id="XMLID_372_">
			<polygon id="XMLID_373_" class="st5" points="751.3,210 750.5,211.4 739.7,207.8 740.4,206.6 			"/>
		</g>
		<g id="XMLID_370_">
			<polygon id="XMLID_371_" class="st12" points="755.5,216.1 754.8,217.5 752,209.8 752.8,208.5 			"/>
		</g>
		<g id="XMLID_244_">
			<polygon id="XMLID_369_" class="st12" points="760,209.7 759.2,211.1 754.8,217.5 755.5,216.1 			"/>
		</g>
		<g id="XMLID_242_">
			<path id="XMLID_243_" class="st5" d="M757.9,196.5l10.5-3.2l-3.1,10.1l7.1,8.8l-11.2-0.4l-6.1,8.6l-3.7-10.3l-10.8-3.4l8.9-5.9
				l-0.6-10.7L757.9,196.5z M763.1,203.6l2.3-7.4l-7.7,2.3l-6.8-4.9l0.4,7.9l-6.5,4.4l8,2.5l2.8,7.6l4.5-6.3l8.2,0.3L763.1,203.6"/>
		</g>
		<g id="XMLID_240_">
			<polygon id="XMLID_241_" class="st13" points="750.9,193.7 757.7,198.6 765.4,196.2 763.1,203.6 768.2,210.1 760,209.7 
				755.5,216.1 752.8,208.5 744.8,206 751.3,201.6 			"/>
		</g>
		<g id="XMLID_238_">
			<polygon id="XMLID_239_" class="st5" points="761.1,211.7 760.3,213 754.3,221.7 755,220.3 			"/>
		</g>
		<g id="XMLID_236_">
			<polygon id="XMLID_237_" class="st5" points="755,220.3 754.3,221.7 750.5,211.4 751.3,210 			"/>
		</g>
	</g>
</g>
<g id="XMLID_321_">
	<g id="XMLID_322_" class="st4">
		<g id="XMLID_359_">
			<polygon id="XMLID_360_" class="st5" points="74.2,264.5 73.8,263.1 82.2,254.7 82.6,256.2 			"/>
		</g>
		<g id="XMLID_357_">
			<polygon id="XMLID_358_" class="st5" points="82.6,256.2 82.2,254.7 94,256.2 94.4,257.6 			"/>
		</g>
		<g id="XMLID_355_">
			<polygon id="XMLID_356_" class="st5" points="72.9,268.6 72.5,267.1 70.3,253.4 70.7,254.8 			"/>
		</g>
		<g id="XMLID_353_">
			<polygon id="XMLID_354_" class="st10" points="74.2,264.5 73.8,263.1 72.1,252 72.4,253.6 			"/>
		</g>
		<g id="XMLID_351_">
			<polygon id="XMLID_352_" class="st5" points="91.1,247.9 90.7,246.4 97.6,258.5 98,260 			"/>
		</g>
		<g id="XMLID_349_">
			<polygon id="XMLID_350_" class="st10" points="88.8,248 88.4,246.5 94,256.2 94.4,257.6 			"/>
		</g>
		<g id="XMLID_347_">
			<polygon id="XMLID_348_" class="st5" points="61.7,249 61.3,247.4 72.1,252 72.4,253.6 			"/>
		</g>
		<g id="XMLID_345_">
			<polygon id="XMLID_346_" class="st10" points="61.7,249 61.3,247.4 72.1,242.2 72.5,243.6 			"/>
		</g>
		<g id="XMLID_343_">
			<polygon id="XMLID_344_" class="st5" points="88.8,248 88.4,246.5 94,236.3 94.4,237.9 			"/>
		</g>
		<g id="XMLID_341_">
			<polygon id="XMLID_342_" class="st10" points="82.6,240.2 82.2,238.7 94,236.3 94.4,237.9 			"/>
		</g>
		<g id="XMLID_339_">
			<polygon id="XMLID_340_" class="st5" points="57.2,249.1 56.8,247.7 70.2,240.9 70.6,242.5 			"/>
		</g>
		<g id="XMLID_337_">
			<polygon id="XMLID_338_" class="st5" points="83.3,238.1 82.9,236.7 97.6,233.8 98,235.2 			"/>
		</g>
		<g id="XMLID_335_">
			<polygon id="XMLID_336_" class="st10" points="72.5,243.6 72.1,242.2 73.8,231 74.2,232.5 			"/>
		</g>
		<g id="XMLID_333_">
			<polygon id="XMLID_334_" class="st10" points="74.2,232.5 73.8,231 82.2,238.7 82.6,240.2 			"/>
		</g>
		<g id="XMLID_329_">
			<polygon id="XMLID_332_" class="st14" points="94.4,257.6 82.6,256.2 74.2,264.5 72.4,253.6 61.7,249 72.5,243.6 74.2,232.5 
				82.6,240.2 94.4,237.9 88.8,248 			"/>
		</g>
		<g id="XMLID_327_">
			<path id="XMLID_328_" class="st5" d="M83.3,258.2l-10.4,10.5l-2.2-13.8l-13.5-5.7l13.4-6.7l2.1-14l10.5,9.6l14.8-2.9l-7,12.6
				l7,12.1L83.3,258.2z M72.4,253.6l1.8,11.1l8.4-8.5l11.9,1.4l-5.6-9.7l5.6-10.1l-11.8,2.3l-8.4-7.7l-1.7,11.1L61.7,249L72.4,253.6
				"/>
		</g>
		<g id="XMLID_325_">
			<polygon id="XMLID_326_" class="st5" points="70.6,242.5 70.2,240.9 72.4,227.1 72.7,228.5 			"/>
		</g>
		<g id="XMLID_323_">
			<polygon id="XMLID_324_" class="st5" points="72.7,228.5 72.4,227.1 82.9,236.7 83.3,238.1 			"/>
		</g>
	</g>
</g>
<g id="XMLID_281_">
	<g id="XMLID_282_" class="st4">
		<g id="XMLID_319_">
			<polygon id="XMLID_320_" class="st5" points="21.1,219.3 21.4,216.7 28.7,214 28.4,216.4 			"/>
		</g>
		<g id="XMLID_317_">
			<polygon id="XMLID_318_" class="st5" points="28.4,216.4 28.7,214 36.3,217.2 35.8,219.7 			"/>
		</g>
		<g id="XMLID_315_">
			<polygon id="XMLID_316_" class="st5" points="18.6,222.1 19,219.5 20.5,210.9 20.2,213.4 			"/>
		</g>
		<g id="XMLID_313_">
			<polygon id="XMLID_314_" class="st15" points="21.1,219.3 21.4,216.7 22.6,210.4 22.3,212.9 			"/>
		</g>
		<g id="XMLID_311_">
			<polygon id="XMLID_312_" class="st5" points="36.4,213.8 36.7,211.3 39,220.1 38.7,222.6 			"/>
		</g>
		<g id="XMLID_309_">
			<polygon id="XMLID_310_" class="st16" points="34.2,213.2 34.6,210.7 36.3,217.2 35.8,219.7 			"/>
		</g>
		<g id="XMLID_307_">
			<polygon id="XMLID_308_" class="st5" points="16.1,208.1 16.4,205.7 22.6,210.4 22.3,212.9 			"/>
		</g>
		<g id="XMLID_305_">
			<polygon id="XMLID_306_" class="st17" points="16.1,208.1 16.4,205.7 24.7,205 24.3,207.4 			"/>
		</g>
		<g id="XMLID_303_">
			<polygon id="XMLID_304_" class="st5" points="34.2,213.2 34.6,210.7 40.3,206.3 40,208.9 			"/>
		</g>
		<g id="XMLID_301_">
			<polygon id="XMLID_302_" class="st18" points="31.7,207.7 32,205.1 40.3,206.3 40,208.9 			"/>
		</g>
		<g id="XMLID_299_">
			<polygon id="XMLID_300_" class="st5" points="11.7,207 12.1,204.5 23.2,203.5 22.9,206 			"/>
		</g>
		<g id="XMLID_297_">
			<polygon id="XMLID_298_" class="st5" points="33,206.3 33.3,203.8 44.5,205.4 44.2,207.9 			"/>
		</g>
		<g id="XMLID_295_">
			<polygon id="XMLID_296_" class="st15" points="24.3,207.4 24.7,205 28,199.2 27.7,201.8 			"/>
		</g>
		<g id="XMLID_291_">
			<polygon id="XMLID_294_" class="st19" points="27.7,201.8 28,199.2 32,205.1 31.7,207.7 			"/>
		</g>
		<g id="XMLID_289_">
			<polygon id="XMLID_290_" class="st20" points="35.8,219.7 28.4,216.4 21.1,219.3 22.3,212.9 16.1,208.1 24.3,207.4 27.7,201.8 
				31.7,207.7 40,208.9 34.2,213.2 			"/>
		</g>
		<g id="XMLID_287_">
			<path id="XMLID_288_" class="st5" d="M28.5,218.3l-9.8,3.8l1.5-8.6l-8.4-6.4l11.2-1l4.7-7.7l5.4,8.1l11.3,1.6l-7.9,6l2.3,8.8
				L28.5,218.3z M22.3,212.9l-1.2,6.4l7.2-2.8l7.5,3.2l-1.7-6.4l5.8-4.4l-8.3-1.2l-3.9-5.9l-3.4,5.8l-8.2,0.7L22.3,212.9"/>
		</g>
		<g id="XMLID_285_">
			<polygon id="XMLID_286_" class="st5" points="22.9,206 23.2,203.5 27.9,195.8 27.6,198.2 			"/>
		</g>
		<g id="XMLID_283_">
			<polygon id="XMLID_284_" class="st5" points="27.6,198.2 27.9,195.8 33.3,203.8 33,206.3 			"/>
		</g>
	</g>
</g>
</svg>
