<?xml version="1.0" encoding="utf-8"?>
<!-- Generator: Adobe Illustrator 19.0.0, SVG Export Plug-In . SVG Version: 6.00 Build 0)  -->
<svg version="1.1" id="Camada_1" xmlns="http://www.w3.org/2000/svg" xmlns:xlink="http://www.w3.org/1999/xlink" x="0px" y="0px"
	 viewBox="0 0 612 145" style="enable-background:new 0 0 612 145;" xml:space="preserve">
<style type="text/css">
	.st0{enable-background:new    ;}
	.st1{fill:#DADA2B;}
	.st2{fill:#D07D9F;}
</style>
<rect id="XMLID_1_" width="613" height="145"/>
<g id="XMLID_2_">
	<g id="XMLID_706_" class="st0">
		<g id="XMLID_813_">
			<polygon id="XMLID_814_" class="st1" points="110.6,100.3 107.2,98.4 107.4,98.3 110.8,100.2 			"/>
		</g>
		<g id="XMLID_811_">
			<path id="XMLID_812_" class="st1" d="M110.8,100.2l-3.4-1.9c-0.1-0.4-0.2-0.8-0.6-1.5c-0.4-0.7-0.7-1.3-0.7-1.7l3.4,1.9
				c0.1,0.4,0.3,1,0.7,1.7C110.5,99.4,110.7,99.8,110.8,100.2z"/>
		</g>
		<g id="XMLID_809_">
			<polygon id="XMLID_810_" class="st1" points="109.4,97 106,95.1 105.9,91.8 109.3,93.7 			"/>
		</g>
		<g id="XMLID_807_">
			<path id="XMLID_808_" class="st1" d="M97.6,101.1l-3.4-1.9c0.1,0,0.3,0,3.9,0.1c2.3,0.1,4.2,0.1,5.8,0c0.1,0,0.2,0,0.3,0
				c1.9-0.1,2.7-0.5,2.9-0.8l3.4,1.9c-0.3,0.3-1,0.7-2.9,0.8c-0.1,0-0.2,0-0.3,0c-1.6,0.1-3.5,0.1-5.8,0
				C97.9,101.1,97.7,101.1,97.6,101.1z"/>
		</g>
		<g id="XMLID_805_">
			<path id="XMLID_806_" class="st1" d="M94.2,101.1l-3.4-1.9c0.7,0,1.9,0,3.5,0l3.4,1.9C96.1,101.2,94.9,101.2,94.2,101.1z"/>
		</g>
		<g id="XMLID_803_">
			<polygon id="XMLID_804_" class="st1" points="90.7,101.2 87.3,99.3 90.8,99.2 94.2,101.1 			"/>
		</g>
		<g id="XMLID_801_">
			<path id="XMLID_802_" class="st1" d="M99,73.4l3.4,1.9c0.2,0.1,0.4,0.2,0.6,0.4c0.8,0.5,1.5,1.1,2.1,1.8c0.5,0.6,1,1.4,1.5,2.3
				c0.4,0.9,0.8,1.8,1,2.6c0.3,0.8,0.5,1.8,0.7,2.9c0.2,1.1,0.3,2.1,0.4,2.9c0.1,0.8,0.2,1.8,0.3,3c0.1,1.1,0.2,2.1,0.3,2.7
				l-3.4-1.9c-0.1-0.6-0.2-1.5-0.3-2.7c-0.1-1.2-0.2-2.1-0.3-3c-0.1-0.8-0.2-1.8-0.4-2.9c-0.2-1.1-0.4-2.1-0.7-2.9
				c-0.2-0.8-0.6-1.7-1-2.6c-0.4-0.9-0.9-1.7-1.5-2.3c-0.6-0.6-1.3-1.2-2.1-1.8C99.4,73.7,99.2,73.5,99,73.4z"/>
		</g>
		<g id="XMLID_799_">
			<path id="XMLID_800_" class="st1" d="M99.5,72.5l3.4,1.9c-0.4-0.2-0.8-0.4-1.2-0.6L98.2,72C98.7,72.1,99.1,72.3,99.5,72.5z"/>
		</g>
		<g id="XMLID_797_">
			<path id="XMLID_798_" class="st2" d="M99,73.4l3.4,1.9c-0.7-0.4-1.4-0.7-2.2-0.9l-3.4-1.9C97.6,72.8,98.3,73,99,73.4z"/>
		</g>
		<g id="XMLID_795_">
			<polygon id="XMLID_796_" class="st2" points="99,74.1 95.6,72.2 96.8,72.5 100.2,74.4 			"/>
		</g>
		<g id="XMLID_793_">
			<polygon id="XMLID_794_" class="st1" points="99,74.1 95.6,72.2 96.7,71.6 100.1,73.5 			"/>
		</g>
		<g id="XMLID_791_">
			<path id="XMLID_792_" class="st2" d="M90.7,101.2l-3.4-1.9c-0.2-0.1-0.6-0.5-1-1.9C86,96,85.6,94,85.2,91.5
				c-0.4-2.6-0.6-4-0.6-4.1l3.4,1.9c0,0.1,0.2,1.5,0.6,4.1c0.4,2.6,0.8,4.5,1.2,5.9C90.1,100.8,90.5,101.1,90.7,101.2z"/>
		</g>
		<g id="XMLID_789_">
			<path id="XMLID_790_" class="st1" d="M90.2,102.1l-3.4-1.9c-0.6-0.3-1-1.1-1.4-2.5c-0.4-1.4-0.8-3.4-1.2-6
				c-0.4-2.6-0.6-4-0.6-4.1l3.4,1.9c0,0.2,0.2,1.5,0.6,4.1c0.4,2.6,0.8,4.6,1.2,6C89.2,100.9,89.6,101.8,90.2,102.1z"/>
		</g>
		<g id="XMLID_787_">
			<path id="XMLID_788_" class="st2" d="M82.4,81.9l3.4,1.9c0.3,0.2,0.5,0.4,0.8,0.6c0.8,0.8,1.2,2.4,1.4,4.9l-3.4-1.9
				c-0.2-2.5-0.6-4.1-1.4-4.9C83,82.2,82.7,82,82.4,81.9z"/>
		</g>
		<g id="XMLID_785_">
			<path id="XMLID_786_" class="st1" d="M82,82.8l3.4,1.9c0.2,0.1,0.4,0.2,0.5,0.4c0.4,0.4,0.9,1.5,1.1,4.4l-3.4-1.9
				c-0.2-2.8-0.7-3.9-1.1-4.4C82.3,83,82.2,82.9,82,82.8z"/>
		</g>
		<g id="XMLID_783_">
			<path id="XMLID_784_" class="st1" d="M98.9,48.3l3.4,1.9c0.6,0.4,1.2,0.8,1.8,1.2c2.7,2.3,4.1,5.5,4.2,9.8
				c0.1,5.6-2.5,9.6-8.1,12.3l-3.4-1.9c5.6-2.7,8.2-6.8,8.1-12.3c-0.1-4.2-1.5-7.5-4.2-9.8C100.1,49,99.5,48.6,98.9,48.3z"/>
		</g>
		<g id="XMLID_781_">
			<path id="XMLID_782_" class="st1" d="M82.4,81.9l3.4,1.9c-0.8-0.4-1.9-0.6-3.3-0.6l-3.4-1.9C80.6,81.2,81.7,81.4,82.4,81.9z"/>
		</g>
		<g id="XMLID_779_">
			<path id="XMLID_780_" class="st1" d="M71.9,101.9l-3.4-1.9c0.2,0,0.9,0,2,0c1.1,0,1.9,0,2.6,0c0.3,0,0.7,0,1-0.1
				c0.4,0,0.8-0.1,1.2-0.1c0.8-0.1,1.4-0.2,1.8-0.4c0.3-0.1,0.4-0.3,0.4-0.3l3.4,1.9c0,0.1-0.1,0.2-0.4,0.3c-0.4,0.2-1,0.3-1.8,0.4
				c-0.4,0-0.8,0.1-1.2,0.1c-0.4,0-0.7,0-1,0.1c-0.6,0-1.5,0-2.6,0C72.8,101.9,72.2,101.9,71.9,101.9z"/>
		</g>
		<g id="XMLID_777_">
			<polygon id="XMLID_778_" class="st1" points="80.5,83.2 77.1,81.3 79.2,81.3 82.6,83.2 			"/>
		</g>
		<g id="XMLID_775_">
			<polygon id="XMLID_776_" class="st1" points="80.9,101 77.5,99.1 77.1,81.3 80.5,83.2 			"/>
		</g>
		<g id="XMLID_773_">
			<path id="XMLID_774_" class="st2" d="M84.3,68.1c0.9-0.5,1.6-1.3,2.1-2.4c1.1,0.6,2.3,1.3,3.4,1.9c-0.5,1-1.2,1.8-2.1,2.4
				C86.5,69.3,85.4,68.7,84.3,68.1z"/>
		</g>
		<g id="XMLID_771_">
			<path id="XMLID_772_" class="st2" d="M86.4,65.7c0.5-1,0.7-2.2,0.7-3.6l3.4,1.9c0,1.4-0.2,2.6-0.7,3.6
				C88.7,67,87.5,66.3,86.4,65.7z"/>
		</g>
		<g id="XMLID_769_">
			<path id="XMLID_770_" class="st2" d="M81.6,69.2c0.9-0.2,1.8-0.6,2.7-1.1c1.1,0.6,2.3,1.3,3.4,1.9c-0.9,0.5-1.8,0.9-2.7,1.1
				C83.9,70.5,82.7,69.9,81.6,69.2z"/>
		</g>
		<g id="XMLID_767_">
			<path id="XMLID_768_" class="st2" d="M87.1,62.1c0-0.8-0.2-1.5-0.5-2.1c1.1,0.6,2.3,1.3,3.4,1.9c0.3,0.6,0.5,1.3,0.5,2.1
				C89.5,63.4,88.1,62.7,87.1,62.1z"/>
		</g>
		<g id="XMLID_765_">
			<polygon id="XMLID_766_" class="st1" points="66.8,102 63.4,100.1 68.5,100 71.9,101.9 			"/>
		</g>
		<g id="XMLID_763_">
			<path id="XMLID_764_" class="st2" d="M79.3,69.6c0.8-0.1,1.6-0.2,2.3-0.4c1.1,0.6,2.3,1.3,3.4,1.9c-0.7,0.2-1.5,0.3-2.3,0.4
				C81.6,70.9,80.4,70.2,79.3,69.6z"/>
		</g>
		<g id="XMLID_761_">
			<path id="XMLID_762_" class="st2" d="M86.6,60c-0.3-0.6-0.8-1.1-1.3-1.5c1.1,0.6,2.3,1.3,3.4,1.9c0.6,0.4,1,0.9,1.3,1.5
				C88.9,61.2,87.8,60.6,86.6,60z"/>
		</g>
		<g id="XMLID_759_">
			<path id="XMLID_760_" class="st1" d="M89.5,64l-3.4-1.9c0-0.7-0.1-1.2-0.4-1.7c-0.2-0.5-0.6-0.8-1-1.1l3.4,1.9
				c0.4,0.3,0.8,0.6,1,1.1C89.4,62.8,89.5,63.4,89.5,64z"/>
		</g>
		<g id="XMLID_757_">
			<path id="XMLID_758_" class="st2" d="M78.7,69.6c0.2,0,0.4,0,0.6,0c1.1,0.6,2.3,1.3,3.4,1.9c-0.2,0-0.4,0-0.6,0
				C81,70.9,79.7,70.2,78.7,69.6z"/>
		</g>
		<g id="XMLID_755_">
			<polygon id="XMLID_756_" class="st2" points="81.9,71.5 78.5,69.6 78.7,69.6 82.1,71.5 			"/>
		</g>
		<g id="XMLID_753_">
			<path id="XMLID_754_" class="st1" d="M84.3,59l3.4,1.9c0.2,0.1,0.3,0.2,0.5,0.3l-3.4-1.9C84.6,59.2,84.4,59.1,84.3,59z"/>
		</g>
		<g id="XMLID_751_">
			<path id="XMLID_752_" class="st2" d="M85.3,58.4c-0.2-0.1-0.3-0.2-0.5-0.3l3.4,1.9c0.2,0.1,0.3,0.2,0.5,0.3
				C87.5,59.7,86.4,59.1,85.3,58.4z"/>
		</g>
		<g id="XMLID_749_">
			<path id="XMLID_750_" class="st1" d="M82.3,70.5l-3.4-1.9c0.1,0,0.3,0,0.4,0c0.7-0.1,1.4-0.2,2.1-0.3c0.8-0.2,1.7-0.6,2.4-1
				c0.7-0.4,1.3-1.1,1.7-1.9c0.4-0.9,0.6-1.9,0.6-3.1l3.4,1.9c0,1.2-0.2,2.3-0.6,3.1c-0.4,0.9-1,1.5-1.7,1.9c-0.8,0.5-1.6,0.8-2.4,1
				c-0.7,0.2-1.4,0.3-2.1,0.3C82.5,70.5,82.4,70.5,82.3,70.5z"/>
		</g>
		<g id="XMLID_747_">
			<polygon id="XMLID_748_" class="st1" points="81.9,71.5 78.5,69.6 78.3,69.5 81.7,71.4 			"/>
		</g>
		<g id="XMLID_745_">
			<path id="XMLID_746_" class="st2" d="M88.6,46c4.2,0,7.6,0.8,10.2,2.2l3.4,1.9c-2.6-1.5-6-2.2-10.2-2.2
				C91,47.4,89.6,46.6,88.6,46z"/>
		</g>
		<g id="XMLID_743_">
			<path id="XMLID_744_" class="st1" d="M99.3,47.4l3.4,1.9C100,47.8,96.4,47,92,46.9L88.6,45C93,45.1,96.6,45.9,99.3,47.4z"/>
		</g>
		<g id="XMLID_741_">
			<path id="XMLID_742_" class="st1" d="M60.4,102.3l-3.4-1.9c1.5-0.1,3.6-0.2,6.4-0.2l3.4,1.9C64,102.1,61.8,102.2,60.4,102.3z"/>
		</g>
		<g id="XMLID_739_">
			<polygon id="XMLID_740_" class="st2" points="59.8,102 56.4,100.1 55.3,47.3 58.7,49.2 			"/>
		</g>
		<g id="XMLID_737_">
			<path id="XMLID_738_" class="st1" d="M59.8,102l-3.4-1.9c0.2,0.1,0.4,0.2,0.6,0.3l3.4,1.9C60.2,102.2,60,102.1,59.8,102z"/>
		</g>
		<g id="XMLID_735_">
			<path id="XMLID_736_" class="st1" d="M84.8,58.1l3.4,1.9c-0.4-0.2-0.7-0.4-1.1-0.5c-0.5-0.2-1.2-0.3-1.9-0.4
				C84.5,59,83.9,59,83.5,59c-0.4,0-0.9,0-1.5,0l-3.4-1.9c0.6,0,1.1,0,1.5,0c0.4,0,1,0.1,1.7,0.1c0.7,0.1,1.4,0.2,1.9,0.4
				C84.1,57.8,84.4,57.9,84.8,58.1z"/>
		</g>
		<g id="XMLID_733_">
			<polygon id="XMLID_734_" class="st1" points="81,59 77.7,57.1 78.6,57.1 82,59 			"/>
		</g>
		<g id="XMLID_731_">
			<polygon id="XMLID_732_" class="st1" points="81,59.1 77.6,57.2 77.7,57.1 81,59 			"/>
		</g>
		<g id="XMLID_729_">
			<path id="XMLID_730_" class="st1" d="M81.7,71.4l-3.4-1.9c-0.6-0.5-1-1.4-1.3-2.6c-0.3-1.1-0.4-2.1-0.5-2.8
				c0-0.7-0.1-1.8-0.1-3.2c0-1.1,0-1.8,0.1-2.4c0.2-0.8,0.6-1.2,0.9-1.4l3.4,1.9c-0.3,0.2-0.8,0.5-0.9,1.4c-0.1,0.5-0.1,1.3-0.1,2.4
				c0,1.4,0.1,2.5,0.1,3.2c0,0.7,0.2,1.6,0.5,2.8C80.7,70,81.1,70.8,81.7,71.4z"/>
		</g>
		<g id="XMLID_725_">
			<path id="XMLID_726_" class="st2" d="M108.3,61.2c0.1,5.6-2.5,9.6-8.1,12.3L99,74.1l1.2,0.4c1,0.3,2,0.7,2.8,1.3
				c0.8,0.5,1.5,1.1,2.1,1.8c0.5,0.6,1,1.4,1.5,2.3c0.4,0.9,0.8,1.8,1,2.6c0.3,0.8,0.5,1.8,0.7,2.9c0.2,1.1,0.3,2.1,0.4,2.9
				c0.1,0.8,0.2,1.8,0.3,3c0.1,1.1,0.2,2.1,0.3,2.7l0.1,3.2c0.1,0.4,0.3,1,0.7,1.7c0.4,0.7,0.6,1.1,0.7,1.4l-0.1,0.3
				c-0.3,0.3-1,0.7-2.9,0.8c-0.1,0-0.2,0-0.3,0c-1.6,0.1-3.5,0.1-5.8,0c-3.7-0.1-3.9-0.1-3.9-0.1c-1.6,0-2.7,0-3.5,0l-3.5,0.1
				c-0.2-0.1-0.6-0.5-1-1.9c-0.4-1.4-0.8-3.3-1.2-5.9c-0.4-2.6-0.6-4-0.6-4.1c-0.2-2.5-0.6-4.1-1.4-4.9c-0.8-0.8-2.1-1.2-4-1.2
				l-2.1,0.1l0.4,17.8c0,0.1-0.1,0.2-0.4,0.3c-0.4,0.2-1,0.3-1.8,0.4c-0.4,0-0.8,0.1-1.2,0.1c-0.4,0-0.7,0-1,0.1c-0.6,0-1.5,0-2.6,0
				c-1.1,0-1.7,0-2,0l-5.1,0.1c-2.8,0.1-5,0.1-6.4,0.2c-0.2-0.1-0.4-0.2-0.6-0.3l-1.1-52.8c0-0.1,0.3-0.4,1.8-0.5c0.2,0,0.4,0,0.6,0
				l31-0.7c5.2,0,9.3,1.2,12,3.4C106.8,53.6,108.2,56.9,108.3,61.2z M90.5,64c0-0.8-0.2-1.5-0.5-2.1c-0.3-0.6-0.8-1.1-1.3-1.5
				c-0.5-0.3-1.1-0.6-1.6-0.8c-0.5-0.2-1.2-0.3-1.9-0.4C84.5,59,83.9,59,83.5,59c-0.4,0-0.9,0-1.5,0l-1,0l-0.1,0
				c-0.3,0.2-0.8,0.5-0.9,1.4c-0.1,0.5-0.1,1.3-0.1,2.4c0,1.4,0.1,2.5,0.1,3.2c0,0.7,0.2,1.6,0.5,2.8c0.3,1.2,0.7,2.1,1.3,2.6
				l0.2,0.1l0.2,0c0.2,0,0.4,0,0.6,0c0.8-0.1,1.6-0.2,2.3-0.4c0.9-0.2,1.8-0.6,2.7-1.1c0.9-0.5,1.6-1.3,2.1-2.4
				C90.3,66.6,90.5,65.4,90.5,64"/>
		</g>
		<g id="XMLID_721_">
			<path id="XMLID_722_" class="st1" d="M88.7,60.3c0.6,0.4,1,0.9,1.3,1.5c0.3,0.6,0.5,1.3,0.5,2.1c0,1.4-0.2,2.6-0.7,3.6
				c-0.5,1-1.2,1.8-2.1,2.4c-0.9,0.5-1.8,0.9-2.7,1.1c-0.7,0.2-1.5,0.3-2.3,0.4c-0.2,0-0.4,0-0.6,0l-0.2,0l-0.2-0.1
				c-0.6-0.5-1-1.4-1.3-2.6C80.2,67.6,80,66.7,80,66c0-0.7-0.1-1.8-0.1-3.2c0-1.1,0-1.8,0.1-2.4c0.2-0.8,0.6-1.2,0.9-1.4l0.1,0l1,0
				c0.6,0,1.1,0,1.5,0c0.4,0,1,0.1,1.7,0.1c0.7,0.1,1.4,0.2,1.9,0.4C87.6,59.7,88.1,60,88.7,60.3z M89.5,64c0-0.7-0.1-1.2-0.4-1.7
				c-0.2-0.5-0.6-0.8-1-1.1c-0.5-0.3-0.9-0.5-1.4-0.7c-0.4-0.2-1-0.3-1.7-0.4C84.4,60,83.9,60,83.5,60c-0.4,0-0.9,0-1.4,0l-0.7,0
				c-0.1,0.1-0.2,0.2-0.3,0.6c-0.1,0.5-0.1,1.2-0.1,2.2c0,1.4,0.1,2.5,0.1,3.1c0,0.6,0.2,1.5,0.4,2.6c0.2,0.9,0.5,1.6,0.8,2
				c0.1,0,0.3,0,0.4,0c0.7-0.1,1.4-0.2,2.1-0.3c0.8-0.2,1.7-0.6,2.4-1c0.7-0.4,1.3-1.1,1.7-1.9C89.3,66.3,89.5,65.2,89.5,64"/>
		</g>
		<g id="XMLID_719_">
			<polygon id="XMLID_720_" class="st2" points="61.1,48.6 57.7,46.7 88.6,46 92,47.9 			"/>
		</g>
		<g id="XMLID_717_">
			<polygon id="XMLID_718_" class="st1" points="61,47.6 57.6,45.7 88.6,45 92,46.9 			"/>
		</g>
		<g id="XMLID_715_">
			<path id="XMLID_716_" class="st2" d="M58.7,49.2l-3.4-1.9c0-0.1,0.3-0.4,1.8-0.5c0.2,0,0.4,0,0.6,0l3.4,1.9c-0.2,0-0.4,0-0.6,0
				C59.1,48.8,58.7,49.1,58.7,49.2z"/>
		</g>
		<g id="XMLID_713_">
			<polygon id="XMLID_714_" class="st1" points="58.8,102.6 55.4,100.7 54.3,47.3 57.7,49.2 			"/>
		</g>
		<g id="XMLID_711_">
			<path id="XMLID_712_" class="st1" d="M57.7,49.2l-3.4-1.9c0-1.2,1.5-1.5,2.6-1.5c0.3,0,0.5,0,0.7,0l3.4,1.9c-0.2,0-0.4,0-0.7,0
				C59.2,47.8,57.7,48,57.7,49.2z"/>
		</g>
		<g id="XMLID_707_">
			<path id="XMLID_708_" class="st1" d="M109.3,61.1c0.1,5.6-2.5,9.8-7.6,12.7c0.7,0.3,1.3,0.6,1.9,1c0.9,0.6,1.7,1.2,2.3,1.9
				c0.6,0.7,1.1,1.5,1.6,2.5c0.4,1,0.8,1.9,1.1,2.7c0.3,0.8,0.5,1.9,0.7,3c0.2,1.1,0.3,2.1,0.4,3c0.1,0.8,0.2,1.8,0.3,3
				c0.1,1.2,0.2,2.1,0.3,2.7l0.1,3.2c0,0.1,0.2,0.6,0.6,1.4c0.4,0.7,0.6,1.2,0.8,1.6c0,0.9-0.2,1.2-0.5,1.3c-0.6,0.6-1.8,0.9-3.5,1
				c-0.1,0-0.2,0-0.3,0c-1.6,0.1-3.6,0.1-5.9,0c-3.2-0.1-3.8-0.1-3.9-0.1c-1.6,0-2.8,0-3.5,0l-3.7,0.1c-0.7-0.2-1.3-1.1-1.7-2.6
				c-0.4-1.4-0.8-3.4-1.2-6c-0.4-2.6-0.6-4-0.6-4.1c-0.2-2.8-0.7-3.9-1.1-4.4c-0.6-0.6-1.7-0.9-3.3-0.9l-1.1,0l0.3,16.9
				c-0.1,0.5-0.4,0.9-1,1.2c-0.5,0.2-1.2,0.4-2.1,0.5c-0.4,0-0.8,0.1-1.2,0.1c-0.4,0-0.7,0-1.1,0.1c-0.7,0-1.5,0-2.6,0
				c-1.1,0-1.7,0-1.9,0l-5.1,0.1c-2.9,0.1-5.1,0.1-6.5,0.2l-0.2,0c-0.4-0.1-0.7-0.3-1.1-0.5l-0.3-0.1l-1.1-53.4
				c0-1.2,1.5-1.5,2.6-1.5c0.3,0,0.5,0,0.7,0l31-0.7c5.5,0,9.7,1.3,12.7,3.7C107.6,53.1,109.2,56.6,109.3,61.1z M100.1,73.5
				c5.6-2.7,8.2-6.8,8.1-12.3c-0.1-4.2-1.5-7.5-4.2-9.8c-2.8-2.3-6.8-3.4-12-3.4l-31,0.7c-0.2,0-0.4,0-0.6,0
				c-1.4,0.1-1.8,0.4-1.8,0.5l1.1,52.8c0.2,0.1,0.4,0.2,0.6,0.3c1.5-0.1,3.6-0.2,6.4-0.2l5.1-0.1c0.2,0,0.9,0,2,0c1.1,0,1.9,0,2.6,0
				c0.3,0,0.7,0,1-0.1c0.4,0,0.8-0.1,1.2-0.1c0.8-0.1,1.4-0.2,1.8-0.4c0.3-0.1,0.4-0.3,0.4-0.3l-0.4-17.8l2.1-0.1
				c1.9,0,3.2,0.4,4,1.2c0.8,0.8,1.2,2.4,1.4,4.9c0,0.1,0.2,1.5,0.6,4.1c0.4,2.6,0.8,4.5,1.2,5.9c0.4,1.5,0.8,1.8,1,1.9l3.5-0.1
				c0.7,0,1.9,0,3.5,0c0.1,0,0.3,0,3.9,0.1c2.3,0.1,4.2,0.1,5.8,0c0.1,0,0.2,0,0.3,0c1.9-0.1,2.7-0.5,2.9-0.8l0.1-0.1
				c-0.1-0.4-0.2-0.8-0.6-1.5c-0.4-0.7-0.7-1.3-0.7-1.7l-0.1-3.2c-0.1-0.6-0.2-1.5-0.3-2.7c-0.1-1.2-0.2-2.1-0.3-3
				c-0.1-0.8-0.2-1.8-0.4-2.9c-0.2-1.1-0.4-2.1-0.7-2.9c-0.2-0.8-0.6-1.7-1-2.6c-0.4-0.9-0.9-1.7-1.5-2.3c-0.6-0.6-1.3-1.2-2.1-1.8
				c-0.8-0.5-1.8-1-2.8-1.3L99,74.1L100.1,73.5"/>
		</g>
	</g>
	<g id="XMLID_603_" class="st0">
		<g id="XMLID_704_">
			<path id="XMLID_705_" class="st1" d="M170.7,99.3l-3.4-1.9c0.4,0,0.6-0.2,0.7-0.3l3.4,1.9C171.3,99.1,171.1,99.3,170.7,99.3z"/>
		</g>
		<g id="XMLID_702_">
			<path id="XMLID_703_" class="st1" d="M171.3,99l-3.4-1.9c0.2-0.2,0.2-0.6,0.2-1c0-1.1-0.1-2.8-0.2-5c-0.1-2.2-0.2-3.9-0.2-5.1
				l3.4,1.9c0,1.1,0.1,2.8,0.2,5.1c0.1,2.2,0.2,3.9,0.2,5C171.6,98.5,171.5,98.8,171.3,99z"/>
		</g>
		<g id="XMLID_700_">
			<polygon id="XMLID_701_" class="st1" points="171.2,87.9 167.8,86 167.8,83.4 171.2,85.3 			"/>
		</g>
		<g id="XMLID_698_">
			<path id="XMLID_699_" class="st1" d="M167.5,83.2l3.4,1.9c0.1,0.1,0.2,0.2,0.3,0.3l-3.4-1.9C167.7,83.3,167.6,83.2,167.5,83.2z"
				/>
		</g>
		<g id="XMLID_696_">
			<path id="XMLID_697_" class="st1" d="M168.1,79.7l-3.4-1.9c0,0,0,0,0,0L168.1,79.7C168.1,79.7,168.1,79.7,168.1,79.7z"/>
		</g>
		<g id="XMLID_694_">
			<polygon id="XMLID_695_" class="st2" points="168.6,78.8 165.2,76.9 165.1,76.7 168.4,78.6 			"/>
		</g>
		<g id="XMLID_692_">
			<path id="XMLID_693_" class="st1" d="M168.6,78.8l-3.4-1.9c0,0,0-0.1,0.1-0.3l3.4,1.9C168.7,78.7,168.6,78.8,168.6,78.8z"/>
		</g>
		<g id="XMLID_690_">
			<polygon id="XMLID_691_" class="st1" points="168.2,78.7 164.8,76.8 165.1,76.7 168.4,78.6 			"/>
		</g>
		<g id="XMLID_688_">
			<path id="XMLID_689_" class="st1" d="M168.7,78.5l-3.4-1.9c0-1.1-0.1-2.8-0.2-5c-0.1-2.3-0.2-3.9-0.2-5.1l3.4,1.9
				c0,1.1,0.1,2.8,0.2,5.1C168.6,75.8,168.7,77.5,168.7,78.5z"/>
		</g>
		<g id="XMLID_686_">
			<path id="XMLID_687_" class="st1" d="M168.3,68.5l-3.4-1.9c0-0.1,0-0.3,0-0.6l3.4,1.9C168.3,68.1,168.3,68.4,168.3,68.5z"/>
		</g>
		<g id="XMLID_684_">
			<path id="XMLID_685_" class="st1" d="M168.3,67.9l-3.4-1.9c0-0.2,0-0.4,0-0.5l3.4,1.9C168.3,67.5,168.3,67.6,168.3,67.9z"/>
		</g>
		<g id="XMLID_682_">
			<path id="XMLID_683_" class="st1" d="M168.3,67.3l-3.4-1.9c0-0.3-0.1-0.4-0.2-0.5l3.4,1.9C168.2,66.9,168.3,67.1,168.3,67.3z"/>
		</g>
		<g id="XMLID_680_">
			<path id="XMLID_681_" class="st1" d="M164.7,64.9l3.4,1.9c0,0,0,0,0,0L164.7,64.9C164.7,64.9,164.7,64.9,164.7,64.9z"/>
		</g>
		<g id="XMLID_678_">
			<path id="XMLID_679_" class="st2" d="M164.7,64.9l3.4,1.9c-0.1-0.1-0.4-0.1-1.1-0.1l-3.4-1.9C164.3,64.7,164.6,64.8,164.7,64.9z"
				/>
		</g>
		<g id="XMLID_676_">
			<path id="XMLID_677_" class="st1" d="M165.2,64l3.4,1.9c-0.3-0.2-0.9-0.3-1.6-0.3l-3.4-1.9C164.3,63.7,164.9,63.8,165.2,64z"/>
		</g>
		<g id="XMLID_674_">
			<polygon id="XMLID_675_" class="st1" points="169.6,59.9 166.2,58 166.4,57.5 169.8,59.4 			"/>
		</g>
		<g id="XMLID_672_">
			<path id="XMLID_673_" class="st1" d="M169.8,59.4l-3.4-1.9c0,0,0-0.1,0-0.3l3.4,1.9C169.9,59.4,169.8,59.4,169.8,59.4z"/>
		</g>
		<g id="XMLID_670_">
			<path id="XMLID_671_" class="st1" d="M169.9,59.1l-3.4-1.9c0-0.2,0-0.4,0-0.5l3.4,1.9C169.9,58.7,169.9,58.9,169.9,59.1z"/>
		</g>
		<g id="XMLID_668_">
			<path id="XMLID_669_" class="st1" d="M169,60.2l-3.4-1.9c0.3-0.1,0.4-0.1,0.5-0.2c0.1,0,0.1-0.1,0.2-0.2l3.4,1.9
				c-0.1,0.1-0.1,0.2-0.2,0.2C169.4,60.1,169.2,60.1,169,60.2z"/>
		</g>
		<g id="XMLID_666_">
			<path id="XMLID_667_" class="st1" d="M168.3,60.3l-3.4-1.9c0.1,0,0.1,0,0.2,0c0.2,0,0.3,0,0.5-0.1l3.4,1.9
				c-0.1,0-0.3,0.1-0.5,0.1C168.4,60.3,168.4,60.3,168.3,60.3z"/>
		</g>
		<g id="XMLID_664_">
			<polygon id="XMLID_665_" class="st1" points="167.3,60.3 163.9,58.4 164.9,58.4 168.3,60.3 			"/>
		</g>
		<g id="XMLID_662_">
			<path id="XMLID_663_" class="st2" d="M167.5,83.2l3.4,1.9c-0.4-0.2-1-0.3-1.9-0.3c-2,0-5,0.2-8.9,0.5c-0.3,0-0.6,0-0.9,0.1
				c-3.6,0.2-6.4,0.4-8.3,0.4l-3.4-1.9c2-0.1,4.7-0.2,8.3-0.4c0.3,0,0.6,0,0.9-0.1c4-0.3,7-0.4,8.9-0.5
				C166.4,82.8,167.1,82.9,167.5,83.2z"/>
		</g>
		<g id="XMLID_660_">
			<path id="XMLID_661_" class="st1" d="M168,82.3l3.4,1.9c-0.5-0.3-1.4-0.4-2.5-0.4c-1.7,0-4.2,0.2-7.5,0.4c-0.5,0-1,0.1-1.5,0.1
				c-0.3,0-0.6,0-0.9,0.1c-3.2,0.2-5.8,0.4-7.7,0.4l-3.4-1.9c1.9-0.1,4.5-0.2,7.7-0.4c0.3,0,0.6,0,0.9-0.1c0.5,0,1-0.1,1.5-0.1
				c3.3-0.2,5.8-0.3,7.5-0.4C166.6,81.8,167.4,82,168,82.3z"/>
		</g>
		<g id="XMLID_658_">
			<polygon id="XMLID_659_" class="st2" points="150.3,85.8 146.9,83.9 147.4,83.9 150.8,85.8 			"/>
		</g>
		<g id="XMLID_656_">
			<path id="XMLID_657_" class="st1" d="M151.6,79.6l-3.4-1.9c3-0.1,7.3-0.3,13-0.7c1.2-0.1,2.4-0.2,3.6-0.3l3.4,1.9
				c-1.3,0.1-2.5,0.2-3.6,0.3C159,79.3,154.6,79.5,151.6,79.6z"/>
		</g>
		<g id="XMLID_654_">
			<polygon id="XMLID_655_" class="st1" points="169.9,58.7 166.5,56.8 166.3,44.5 169.7,46.4 			"/>
		</g>
		<g id="XMLID_652_">
			<polygon id="XMLID_653_" class="st1" points="150.2,79.6 146.8,77.7 148.2,77.7 151.6,79.6 			"/>
		</g>
		<g id="XMLID_650_">
			<polygon id="XMLID_651_" class="st1" points="150.3,85.8 146.9,83.9 146.8,77.7 150.2,79.6 			"/>
		</g>
		<g id="XMLID_648_">
			<polygon id="XMLID_649_" class="st2" points="149.6,67.1 146.2,65.2 163.6,64.8 167,66.7 			"/>
		</g>
		<g id="XMLID_646_">
			<polygon id="XMLID_647_" class="st1" points="150.6,66 147.2,64.1 163.6,63.8 167,65.7 			"/>
		</g>
		<g id="XMLID_644_">
			<polygon id="XMLID_645_" class="st2" points="131,100.7 127.6,98.8 126.8,98 130.2,99.9 			"/>
		</g>
		<g id="XMLID_642_">
			<path id="XMLID_643_" class="st1" d="M131,100.7l-3.4-1.9c2.8-0.1,7.4-0.3,13.5-0.6c6.3-0.3,11.2-0.5,14.6-0.6
				c1.3,0,3.3-0.1,5.8-0.1c2.6,0,4.5-0.1,5.7-0.1l3.4,1.9c-1.2,0-3.1,0.1-5.7,0.1c-2.6,0-4.5,0.1-5.8,0.1c-3.4,0.1-8.4,0.3-14.6,0.6
				C138.4,100.4,133.8,100.6,131,100.7z"/>
		</g>
		<g id="XMLID_640_">
			<polygon id="XMLID_641_" class="st1" points="149.6,67.1 146.2,65.2 146.2,64.7 149.6,66.6 			"/>
		</g>
		<g id="XMLID_638_">
			<polygon id="XMLID_639_" class="st1" points="130.5,101.7 127.1,99.8 125.9,98.4 129.3,100.3 			"/>
		</g>
		<g id="XMLID_636_">
			<path id="XMLID_637_" class="st2" d="M130.2,99.9l-3.4-1.9c-0.1-0.7-0.1-1-0.1-1.1l3.4,1.9C130.1,98.9,130.1,99.2,130.2,99.9z"/>
		</g>
		<g id="XMLID_634_">
			<polygon id="XMLID_635_" class="st2" points="130.1,98.8 126.7,96.9 126.7,95.6 130,97.5 			"/>
		</g>
		<g id="XMLID_632_">
			<path id="XMLID_633_" class="st1" d="M129.3,100.3l-3.4-1.9c-0.1-0.8-0.2-1.3-0.2-1.5l3.4,1.9C129.1,99.1,129.1,99.5,129.3,100.3
				z"/>
		</g>
		<g id="XMLID_630_">
			<path id="XMLID_631_" class="st1" d="M150.6,60.4l-3.4-1.9c5,0.1,10.7,0,16.8-0.1l3.4,1.9C161.2,60.5,155.6,60.5,150.6,60.4z"/>
		</g>
		<g id="XMLID_628_">
			<path id="XMLID_629_" class="st1" d="M149.6,66.6l-3.4-1.9c0-0.6,0-1.2,0.1-1.8c0-0.6,0.1-1.3,0.2-2.1c0.1-0.8,0.2-1.4,0.2-1.8
				l3.4,1.9c0,0.4-0.1,1-0.2,1.8c-0.1,0.8-0.2,1.5-0.2,2.1C149.6,65.4,149.6,66,149.6,66.6z"/>
		</g>
		<g id="XMLID_626_">
			<polygon id="XMLID_627_" class="st1" points="150.1,60.4 146.7,58.5 147.2,58.5 150.6,60.4 			"/>
		</g>
		<g id="XMLID_624_">
			<polygon id="XMLID_625_" class="st1" points="150.1,60.9 146.7,59 146.7,58.5 150.1,60.4 			"/>
		</g>
		<g id="XMLID_622_">
			<polygon id="XMLID_623_" class="st1" points="129.1,98.8 125.7,96.9 125.7,95.6 129,97.5 			"/>
		</g>
		<g id="XMLID_620_">
			<path id="XMLID_621_" class="st2" d="M130,97.5l-3.4-1.9c-0.1-4.1-0.2-10.1-0.2-18c-0.1-7.9-0.1-13.9-0.2-18l3.4,1.9
				c0.1,4.1,0.2,10.1,0.2,18C129.9,87.3,130,93.4,130,97.5z"/>
		</g>
		<g id="XMLID_618_">
			<path id="XMLID_619_" class="st1" d="M129,97.5l-3.4-1.9c-0.1-4.1-0.2-10.1-0.2-18c-0.1-7.9-0.1-13.9-0.2-18l3.4,1.9
				c0.1,4.1,0.2,10.1,0.2,18C128.9,87.4,129,93.4,129,97.5z"/>
		</g>
		<g id="XMLID_616_">
			<polygon id="XMLID_617_" class="st2" points="129.3,47.3 125.9,45.4 166.3,44.5 169.7,46.4 			"/>
		</g>
		<g id="XMLID_614_">
			<polygon id="XMLID_615_" class="st2" points="129.6,61.5 126.2,59.6 125.9,45.4 129.3,47.3 			"/>
		</g>
		<g id="XMLID_610_">
			<path id="XMLID_611_" class="st1" d="M128.3,46.3l42.3-1l0.3,13.3c0,0.1,0,0.3,0,0.6c0,0.3-0.1,0.6-0.2,0.7l-0.2,0.4
				c-0.2,0.3-0.3,0.5-0.6,0.6c-0.2,0.1-0.4,0.2-0.7,0.2c-0.2,0.1-0.4,0.1-0.7,0.1c-0.1,0-0.2,0-0.2,0l-1,0
				c-5.9,0.1-11.4,0.2-16.3,0.1c0,0.3-0.1,0.8-0.1,1.3c-0.1,0.8-0.2,1.5-0.2,2.1c0,0.4,0,0.8,0,1.2l16.4-0.4c0.9,0,1.4,0.1,1.7,0.3
				c0.4,0.3,0.6,0.7,0.6,1.3c0,0.1,0,0.3,0,0.6c0,0.2,0,0.4,0,0.5c0,1.1,0.1,2.8,0.2,5c0.1,2.2,0.2,3.9,0.2,5.1
				c-0.1,1.1-0.7,1.2-1,1.2c-0.2,0-0.4,0-0.5-0.1c-1.2,0.1-2.4,0.2-3.6,0.3c-5.6,0.4-9.9,0.6-12.9,0.7l-0.4,0l0.1,4.1
				c1.9-0.1,4.5-0.2,7.7-0.4c0.3,0,0.6,0,0.9-0.1c0.5,0,1-0.1,1.5-0.1c3.3-0.2,5.8-0.3,7.5-0.4c1.8,0,2.9,0.4,3.2,1.3l0.1,2.9
				c0,1.1,0.1,2.8,0.2,5c0.1,2.2,0.2,3.9,0.2,5.1c0,0.7-0.1,1.3-0.4,1.7c-0.3,0.4-0.8,0.6-1.3,0.7c-1.4,0-3.2,0.1-5.8,0.1
				c-2.6,0-4.5,0.1-5.8,0.1c-3.4,0.1-8.3,0.3-14.6,0.6c-6.3,0.3-11,0.5-13.8,0.6l-0.2,0l-1.3-1.4c-0.1-0.8-0.2-1.3-0.2-1.5l0-1.4
				c-0.1-4.1-0.2-10.1-0.2-18c-0.1-7.9-0.1-13.9-0.2-18L128.3,46.3z M169.9,58.7l-0.2-12.3l-40.3,0.9l0.3,14.2
				c0.1,4.1,0.2,10.1,0.2,18c0.1,7.8,0.1,13.9,0.2,18l0,1.4c0,0.1,0,0.3,0.1,1.1l0.8,0.8c2.8-0.1,7.4-0.3,13.5-0.6
				c6.3-0.3,11.2-0.5,14.6-0.6c1.3,0,3.3-0.1,5.8-0.1c2.6,0,4.5-0.1,5.7-0.1c0.4,0,0.6-0.2,0.7-0.3c0.2-0.2,0.2-0.6,0.2-1
				c0-1.1-0.1-2.8-0.2-5c-0.1-2.2-0.2-3.9-0.2-5.1l-0.1-2.6c-0.2-0.4-1-0.6-2.2-0.6c-2,0-5,0.2-8.9,0.5c-0.3,0-0.6,0-0.9,0.1
				c-3.6,0.2-6.4,0.4-8.3,0.4l-0.5,0l-0.1-6.1l1.4,0c3-0.1,7.3-0.3,13-0.7c1.2-0.1,2.4-0.2,3.6-0.3l0.2,0l0.2,0.2c0,0,0-0.1,0.1-0.3
				c0-1.1-0.1-2.8-0.2-5c-0.1-2.3-0.2-3.9-0.2-5.1c0-0.1,0-0.3,0-0.6c0-0.2,0-0.4,0-0.5c0-0.3-0.1-0.4-0.2-0.5c0,0-0.3-0.2-1.1-0.1
				l-17.4,0.4l0-0.5c0-0.6,0-1.2,0.1-1.8c0-0.6,0.1-1.3,0.2-2.1c0.1-0.8,0.2-1.4,0.2-1.8l0-0.5l0.5,0c5,0.1,10.7,0,16.8-0.1l1,0
				c0.1,0,0.1,0,0.2,0c0.2,0,0.3,0,0.5-0.1c0.3-0.1,0.4-0.1,0.5-0.2c0.1,0,0.1-0.1,0.2-0.2l0.2-0.4c0,0,0-0.1,0-0.3
				C169.9,58.9,169.9,58.7,169.9,58.7"/>
		</g>
		<g id="XMLID_608_">
			<path id="XMLID_609_" class="st2" d="M129.3,47.3l40.3-0.9l0.2,12.3c0,0.1,0,0.2,0,0.5c0,0.2,0,0.3,0,0.3l-0.2,0.4
				c-0.1,0.1-0.1,0.2-0.2,0.2c-0.1,0-0.2,0.1-0.5,0.2c-0.1,0-0.3,0.1-0.5,0.1c-0.1,0-0.1,0-0.2,0l-1,0c-6.1,0.1-11.7,0.2-16.8,0.1
				l-0.5,0l0,0.5c0,0.4-0.1,1-0.2,1.8c-0.1,0.8-0.2,1.5-0.2,2.1c0,0.6-0.1,1.2-0.1,1.8l0,0.5l17.4-0.4c0.9,0,1.1,0.1,1.1,0.1
				c0.1,0.1,0.2,0.3,0.2,0.5c0,0.1,0,0.3,0,0.5c0,0.3,0,0.5,0,0.6c0,1.1,0.1,2.8,0.2,5.1c0.1,2.2,0.2,3.9,0.2,5
				c0,0.2-0.1,0.3-0.1,0.3l-0.2-0.2l-0.2,0c-1.3,0.1-2.5,0.2-3.6,0.3c-5.7,0.4-10,0.6-13,0.7l-1.4,0l0.1,6.1l0.5,0
				c2-0.1,4.7-0.2,8.3-0.4c0.3,0,0.6,0,0.9-0.1c4-0.3,7-0.4,8.9-0.5c1.2,0,2,0.2,2.2,0.6l0.1,2.6c0,1.1,0.1,2.8,0.2,5.1
				c0.1,2.2,0.2,3.9,0.2,5c0,0.5-0.1,0.8-0.2,1c-0.1,0.1-0.2,0.2-0.6,0.3c-1.3,0-3.2,0.1-5.8,0.1c-2.6,0-4.5,0.1-5.8,0.1
				c-3.4,0.1-8.4,0.3-14.6,0.6c-6.1,0.3-10.7,0.5-13.5,0.6l-0.8-0.8c-0.1-0.7-0.1-1-0.1-1.1l0-1.4c-0.1-4.1-0.2-10.1-0.2-18
				c-0.1-7.9-0.1-13.9-0.2-18L129.3,47.3z"/>
		</g>
		<g id="XMLID_606_">
			<polygon id="XMLID_607_" class="st1" points="128.6,61.6 125.2,59.7 124.9,44.4 128.3,46.3 			"/>
		</g>
		<g id="XMLID_604_">
			<polygon id="XMLID_605_" class="st1" points="128.3,46.3 124.9,44.4 167.2,43.5 170.6,45.4 			"/>
		</g>
	</g>
	<g id="XMLID_544_" class="st0">
		<g id="XMLID_601_">
			<path id="XMLID_602_" class="st1" d="M228.3,98.4l-3.4-1.9c0.3-0.1,0.8-0.6,1.5-2.2c0.6-1.4,1.2-3.2,1.8-5.4
				c0.5-2.2,1-4.3,1.5-6.3c0.4-2,0.8-4.1,1.3-6.3c0.4-2.2,0.7-3.6,0.9-4.3l3.4,1.9c-0.2,0.7-0.4,2.1-0.9,4.3
				c-0.4,2.2-0.8,4.3-1.3,6.3c-0.4,2-0.9,4.1-1.5,6.3c-0.5,2.1-1.1,4-1.8,5.4C229.1,97.7,228.6,98.2,228.3,98.4z"/>
		</g>
		<g id="XMLID_599_">
			<path id="XMLID_600_" class="st1" d="M220.8,98.3l-3.4-1.9c0.9,0,2.2,0,3.8,0c1.6,0,2.8,0,3.7,0l3.4,1.9c-0.8,0-2,0-3.7,0
				C222.9,98.3,221.6,98.3,220.8,98.3z"/>
		</g>
		<g id="XMLID_597_">
			<polygon id="XMLID_598_" class="st1" points="218.2,98.4 214.8,96.5 217.4,96.4 220.8,98.3 			"/>
		</g>
		<g id="XMLID_595_">
			<polygon id="XMLID_596_" class="st1" points="235.1,73.9 231.8,72 239.1,43.1 242.5,45 			"/>
		</g>
		<g id="XMLID_593_">
			<path id="XMLID_594_" class="st1" d="M238.7,42.4l3.4,1.9c0.1,0.1,0.3,0.2,0.4,0.7l-3.4-1.9C239,42.7,238.8,42.5,238.7,42.4z"/>
		</g>
		<g id="XMLID_591_">
			<polygon id="XMLID_592_" class="st2" points="236.5,44.4 233.1,42.5 238.6,42.4 242,44.3 			"/>
		</g>
		<g id="XMLID_589_">
			<path id="XMLID_590_" class="st2" d="M238.7,42.4l3.4,1.9c0,0,0,0,0,0L238.7,42.4C238.7,42.4,238.7,42.4,238.7,42.4z"/>
		</g>
		<g id="XMLID_587_">
			<path id="XMLID_588_" class="st1" d="M239.2,41.6l3.4,1.9c-0.1-0.1-0.2-0.1-0.3-0.1l-3.4-1.9C239,41.5,239.1,41.5,239.2,41.6z"/>
		</g>
		<g id="XMLID_585_">
			<polygon id="XMLID_586_" class="st2" points="215.2,83.9 211.8,82 212.3,79.1 215.7,81 			"/>
		</g>
		<g id="XMLID_583_">
			<polygon id="XMLID_584_" class="st1" points="236.4,43.4 233,41.5 238.9,41.4 242.3,43.3 			"/>
		</g>
		<g id="XMLID_581_">
			<path id="XMLID_582_" class="st1" d="M202,99.2l-3.4-1.9c1.3-0.1,2.9-0.1,4.8-0.2c2.2-0.1,4.2-0.2,6.1-0.2c0.7,0,1.4-0.1,2.1-0.1
				c1.1-0.1,2.2-0.2,3.2-0.3l3.4,1.9c-1,0.1-2,0.2-3.2,0.3c-0.7,0-1.4,0.1-2.1,0.1c-1.9,0.1-3.9,0.2-6.1,0.2
				C204.9,99.1,203.3,99.2,202,99.2z"/>
		</g>
		<g id="XMLID_579_">
			<path id="XMLID_580_" class="st2" d="M215.7,81l-3.4-1.9c0.3-2.2,0.9-5.5,1.8-9.6c0.9-4.2,1.5-6.9,1.7-8.3l3.4,1.9
				c-0.3,1.4-0.8,4.1-1.7,8.3C216.6,75.5,216,78.8,215.7,81z"/>
		</g>
		<g id="XMLID_577_">
			<path id="XMLID_578_" class="st1" d="M215.1,78.1l-3.4-1.9c0.3-1.9,0.8-4.2,1.4-6.9c0.9-4.1,1.5-6.9,1.7-8.3l3.4,1.9
				c-0.3,1.3-0.8,4.1-1.7,8.3C215.9,73.9,215.5,76.2,215.1,78.1z"/>
		</g>
		<g id="XMLID_575_">
			<polygon id="XMLID_576_" class="st2" points="219.2,63.1 215.8,61.2 219,43.5 222.4,45.4 			"/>
		</g>
		<g id="XMLID_573_">
			<path id="XMLID_574_" class="st2" d="M222.4,45.4l-3.4-1.9c0.3-0.1,1.2-0.3,4.2-0.5c2.1-0.1,5.2-0.3,9.9-0.4l3.4,1.9
				c-4.7,0.1-7.8,0.2-9.9,0.4C223.6,45,222.7,45.3,222.4,45.4z"/>
		</g>
		<g id="XMLID_571_">
			<polygon id="XMLID_572_" class="st1" points="218.2,62.9 214.8,61 218,43.1 221.4,45 			"/>
		</g>
		<g id="XMLID_569_">
			<path id="XMLID_570_" class="st1" d="M221.4,45l-3.4-1.9c0.1-0.4,0.3-0.9,5.2-1.2c2.2-0.2,5.3-0.3,9.8-0.4l3.4,1.9
				c-4.5,0.1-7.7,0.2-9.8,0.4C221.7,44.2,221.5,44.6,221.4,45z"/>
		</g>
		<g id="XMLID_567_">
			<polygon id="XMLID_568_" class="st1" points="215.2,83.9 211.8,82 204.5,44 207.9,45.9 			"/>
		</g>
		<g id="XMLID_565_">
			<path id="XMLID_566_" class="st1" d="M203.9,43.5l3.4,1.9c0.2,0.1,0.4,0.3,0.6,0.5l-3.4-1.9C204.3,43.7,204.1,43.6,203.9,43.5z"
				/>
		</g>
		<g id="XMLID_563_">
			<path id="XMLID_564_" class="st2" d="M203.2,43.3c0.2,0,0.5,0,0.7,0.2l3.4,1.9c-0.2-0.1-0.4-0.2-0.7-0.2c0,0,0,0,0,0
				C205.5,44.6,204.4,43.9,203.2,43.3C203.2,43.3,203.2,43.3,203.2,43.3z"/>
		</g>
		<g id="XMLID_561_">
			<path id="XMLID_562_" class="st2" d="M193.4,43.6c4.4-0.2,7.7-0.3,9.9-0.3c0.6,0.4,1.3,0.7,1.9,1.1c0.2,0.1,0.4,0.2,0.7,0.4
				c0.1,0,0.1,0.1,0.2,0.1c0.1,0,0.1,0.1,0.2,0.1c0.1,0.1,0.3,0.2,0.4,0.2c-2.2,0-5.5,0.1-9.9,0.3c-4.4,0.1-7.7,0.2-10.1,0.3
				c-1.1-0.6-2.3-1.3-3.4-1.9c1.1,0.6,2.3,1.3,3.4,1.9c0,0,0,0-0.1,0l-3.4-1.9C185.6,43.8,188.9,43.7,193.4,43.6z"/>
		</g>
		<g id="XMLID_559_">
			<polygon id="XMLID_560_" class="st2" points="202,99.2 198.7,97.3 182.6,44.4 186,46.3 			"/>
		</g>
		<g id="XMLID_557_">
			<path id="XMLID_558_" class="st2" d="M182.6,44.4c0-0.2,0-0.4,0.6-0.5l3.4,1.9c-0.6,0-0.6,0.3-0.6,0.5
				C184.8,45.6,183.7,45,182.6,44.4z"/>
		</g>
		<g id="XMLID_555_">
			<path id="XMLID_556_" class="st2" d="M186.6,45.8c2.4-0.1,5.8-0.2,10.2-0.3c4.4-0.2,7.7-0.3,9.9-0.3c0.5,0,0.9,0.2,1.3,0.7
				l7.4,38.1l0.4-2.9c0.3-2.2,0.9-5.5,1.8-9.6c0.9-4.2,1.5-6.9,1.7-8.3l3.2-17.7c0.3-0.1,1.2-0.3,4.2-0.5c2.1-0.1,5.2-0.3,9.9-0.4
				l5.6-0.1c0.1,0.1,0.3,0.2,0.5,0.7l-7.3,28.9c-0.2,0.7-0.4,2.1-0.9,4.3c-0.4,2.2-0.8,4.3-1.3,6.3c-0.4,2-0.9,4.1-1.5,6.3
				c-0.5,2.1-1.1,4-1.8,5.4c-0.7,1.6-1.2,2.1-1.5,2.2c-0.8,0-2,0-3.7,0c-1.7,0-3,0-3.8,0l-2.6,0.1c-1,0.1-2,0.2-3.2,0.3
				c-0.7,0-1.4,0.1-2.1,0.1c-1.9,0.1-3.9,0.2-6.1,0.2c-1.9,0.1-3.5,0.1-4.8,0.2l-16.1-53C186,46.1,186,45.8,186.6,45.8z"/>
		</g>
		<g id="XMLID_553_">
			<path id="XMLID_554_" class="st1" d="M204.4,42.6l3.4,1.9c-0.4-0.2-0.8-0.3-1.2-0.3c-2.2,0-5.5,0.1-9.9,0.3
				c-4.4,0.1-7.8,0.2-10.2,0.3l-3.4-1.9c2.4-0.1,5.8-0.2,10.2-0.3c4.4-0.2,7.7-0.3,9.9-0.3C203.6,42.3,204,42.4,204.4,42.6z"/>
		</g>
		<g id="XMLID_551_">
			<polygon id="XMLID_552_" class="st1" points="201.3,100.3 197.9,98.4 181.6,44.5 185,46.4 			"/>
		</g>
		<g id="XMLID_547_">
			<path id="XMLID_548_" class="st1" d="M243.5,44.9l-7.4,29.2c-0.1,0.6-0.4,2-0.9,4.2c-0.4,2.2-0.8,4.3-1.3,6.3
				c-0.4,2-0.9,4.1-1.5,6.3c-0.6,2.2-1.2,4.1-1.8,5.5c-0.7,1.6-1.4,2.5-2.2,2.8c-1,0-2.3,0-4,0c-1.7,0-2.9,0-3.8,0l-2.6,0.1
				c-1,0.1-2,0.2-3.2,0.3c-0.7,0-1.4,0.1-2.1,0.1c-1.9,0.1-3.9,0.2-6.1,0.2c-2.1,0.1-3.9,0.1-5.2,0.2l-0.4,0L185,46.4
				c0-1,0.6-1.6,1.6-1.6c2.4-0.1,5.8-0.2,10.2-0.3c4.4-0.2,7.7-0.3,9.9-0.3c0.8,0,1.5,0.4,2.1,1.2l0.1,0.2l6.3,32.5
				c0.3-1.9,0.8-4.2,1.4-6.9c0.9-4.1,1.5-6.9,1.7-8.3l3.2-17.9c0.1-0.4,0.3-0.9,5.2-1.2c2.2-0.2,5.3-0.3,9.8-0.4l5.9-0.1
				C242.7,43.5,243.3,43.9,243.5,44.9z M235.1,73.9l7.3-28.9c-0.1-0.5-0.3-0.6-0.5-0.7l-5.6,0.1c-4.7,0.1-7.8,0.2-9.9,0.4
				c-3,0.2-3.9,0.4-4.2,0.5l-3.2,17.7c-0.3,1.4-0.8,4.1-1.7,8.3c-0.9,4.2-1.5,7.4-1.8,9.6l-0.4,2.9l-7.4-38.1
				c-0.4-0.5-0.8-0.7-1.3-0.7c-2.2,0-5.5,0.1-9.9,0.3c-4.4,0.1-7.8,0.2-10.1,0.3c-0.7,0-0.7,0.3-0.7,0.5l16.1,53
				c1.3-0.1,2.9-0.1,4.8-0.2c2.2-0.1,4.2-0.2,6.1-0.2c0.7,0,1.4-0.1,2.1-0.1c1.1-0.1,2.2-0.2,3.2-0.3l2.6-0.1c0.9,0,2.2,0,3.8,0
				c1.6,0,2.8,0,3.7,0c0.3-0.1,0.8-0.6,1.5-2.2c0.6-1.4,1.2-3.2,1.8-5.4c0.5-2.2,1-4.3,1.5-6.3c0.4-2,0.8-4.1,1.3-6.3
				C234.7,76,235,74.5,235.1,73.9"/>
		</g>
		<g id="XMLID_545_">
			<path id="XMLID_546_" class="st1" d="M185,46.4l-3.4-1.9c0-1,0.6-1.6,1.6-1.6l3.4,1.9C185.5,44.9,185,45.4,185,46.4z"/>
		</g>
	</g>
	<g id="XMLID_499_" class="st0">
		<g id="XMLID_542_">
			<polygon id="XMLID_543_" class="st1" points="261.4,97.5 258.1,95.6 280,95.1 283.4,97 			"/>
		</g>
		<g id="XMLID_540_">
			<polygon id="XMLID_541_" class="st1" points="260.5,98.6 257.1,96.7 257.1,96.1 260.5,98 			"/>
		</g>
		<g id="XMLID_538_">
			<path id="XMLID_539_" class="st2" d="M261.4,97.5l-3.4-1.9c0-6.6,0-11.5,0.2-14.7l3.4,1.9C261.5,86,261.4,90.9,261.4,97.5z"/>
		</g>
		<g id="XMLID_536_">
			<path id="XMLID_537_" class="st1" d="M260.5,98l-3.4-1.9c0-6.9,0-12,0.2-15.2l3.4,1.9C260.5,86.1,260.4,91.2,260.5,98z"/>
		</g>
		<g id="XMLID_534_">
			<polygon id="XMLID_535_" class="st1" points="283.4,97 280,95.1 278.9,41.8 282.3,43.7 			"/>
		</g>
		<g id="XMLID_532_">
			<polygon id="XMLID_533_" class="st1" points="282.7,42.6 279.3,40.7 279.9,40.6 283.3,42.5 			"/>
		</g>
		<g id="XMLID_530_">
			<path id="XMLID_531_" class="st2" d="M261.6,82.9l-3.4-1.9c-0.2-9.9-0.3-20.1-0.2-30.3l3.4,1.9C261.4,62.8,261.4,73,261.6,82.9z"
				/>
		</g>
		<g id="XMLID_528_">
			<path id="XMLID_529_" class="st1" d="M260.6,82.9l-3.4-1.9c-0.2-9.9-0.3-20.1-0.2-30.3l3.4,1.9C260.4,62.8,260.4,73,260.6,82.9z"
				/>
		</g>
		<g id="XMLID_526_">
			<path id="XMLID_527_" class="st2" d="M261.5,52.5l-3.4-1.9c-0.1-2-0.2-3.4-0.2-4.4l3.4,1.9C261.2,49.1,261.3,50.6,261.5,52.5z"/>
		</g>
		<g id="XMLID_524_">
			<polygon id="XMLID_525_" class="st2" points="261.2,48.1 257.8,46.2 257.8,45.1 261.2,47 			"/>
		</g>
		<g id="XMLID_522_">
			<path id="XMLID_523_" class="st1" d="M260.5,52.6l-3.4-1.9c-0.1-1.9-0.2-3.4-0.2-4.4l3.4,1.9C260.3,49.1,260.3,50.6,260.5,52.6z"
				/>
		</g>
		<g id="XMLID_520_">
			<polygon id="XMLID_521_" class="st1" points="260.2,48.2 256.8,46.3 256.8,45.2 260.2,47.1 			"/>
		</g>
		<g id="XMLID_518_">
			<path id="XMLID_519_" class="st2" d="M261.2,47l-3.4-1.9c-0.1-1-0.2-1.9-0.2-2.5l3.4,1.9C261,45.2,261.1,46,261.2,47z"/>
		</g>
		<g id="XMLID_516_">
			<path id="XMLID_517_" class="st2" d="M261.3,43.8l-3.4-1.9c3.9,0.2,9.8,0.2,17.6,0c1.1,0,2-0.1,2.7-0.1c0.2,0,0.5,0,0.7-0.1
				l3.4,1.9c-0.2,0-0.4,0-0.7,0.1c-0.7,0-1.6,0.1-2.7,0.1C271.1,44,265.2,44,261.3,43.8z"/>
		</g>
		<g id="XMLID_514_">
			<path id="XMLID_515_" class="st2" d="M261,44.5l-3.4-1.9c0-0.2,0.1-0.5,0.3-0.7l3.4,1.9C261.1,44,261,44.3,261,44.5z"/>
		</g>
		<g id="XMLID_510_">
			<path id="XMLID_511_" class="st1" d="M282.7,42.6l0.6-0.1l1.1,55.5l-24,0.5l0-0.5c0-6.9,0-12,0.2-15.2
				c-0.2-9.9-0.3-20.1-0.2-30.3c-0.1-1.9-0.2-3.4-0.2-4.4l0-1.1c-0.1-1-0.2-1.9-0.2-2.6c0-0.6,0.3-1.1,0.8-1.6l0.2-0.1l0.2,0
				c3.9,0.2,9.8,0.2,17.7,0c1.1,0,2-0.1,2.7-0.1C282.1,42.7,282.4,42.6,282.7,42.6z M283.4,97l-1.1-53.4c-0.2,0-0.4,0-0.7,0.1
				c-0.7,0-1.6,0.1-2.7,0.1c-7.8,0.2-13.7,0.2-17.6,0c-0.2,0.2-0.3,0.5-0.3,0.7c0,0.6,0.1,1.5,0.2,2.5l0,1.1c0,0.9,0.1,2.4,0.2,4.4
				c-0.1,10.3,0,20.4,0.2,30.3c-0.2,3.1-0.2,8.1-0.2,14.7L283.4,97"/>
		</g>
		<g id="XMLID_508_">
			<path id="XMLID_509_" class="st2" d="M261.3,43.8c3.9,0.2,9.8,0.2,17.6,0c1.1,0,2-0.1,2.7-0.1c0.2,0,0.5,0,0.7-0.1l1.1,53.4
				l-21.9,0.5c0-6.6,0-11.5,0.2-14.7c-0.2-9.9-0.3-20.1-0.2-30.3c-0.1-2-0.2-3.4-0.2-4.4l0-1.1c-0.1-1-0.2-1.9-0.2-2.5
				C261,44.3,261.1,44,261.3,43.8z"/>
		</g>
		<g id="XMLID_506_">
			<path id="XMLID_507_" class="st1" d="M261.2,42.8l-3.4-1.9c3.9,0.2,9.8,0.2,17.7,0c1.1,0,2-0.1,2.7-0.1c0.5,0,0.9-0.1,1.1-0.1
				l3.4,1.9c-0.3,0-0.7,0.1-1.1,0.1c-0.7,0-1.6,0.1-2.7,0.1C271,43,265,43,261.2,42.8z"/>
		</g>
		<g id="XMLID_504_">
			<polygon id="XMLID_505_" class="st1" points="261,42.8 257.6,40.9 257.8,40.9 261.2,42.8 			"/>
		</g>
		<g id="XMLID_502_">
			<polygon id="XMLID_503_" class="st1" points="260.8,42.9 257.4,41 257.6,40.9 261,42.8 			"/>
		</g>
		<g id="XMLID_500_">
			<path id="XMLID_501_" class="st1" d="M260.2,47.1l-3.4-1.9c-0.1-1-0.2-1.9-0.2-2.6c0-0.6,0.3-1.1,0.8-1.6l3.4,1.9
				c-0.5,0.5-0.8,1-0.8,1.6C260,45.2,260.1,46.1,260.2,47.1z"/>
		</g>
	</g>
	<g id="XMLID_396_" class="st0">
		<g id="XMLID_497_">
			<path id="XMLID_498_" class="st1" d="M347.3,95.3l-3.4-1.9c0.5,0,0.9-0.2,0.9-1.3c0-1.1-0.1-2.8-0.2-5c-0.1-2.2-0.2-3.9-0.2-5.1
				l3.4,1.9c0,1.1,0.1,2.8,0.2,5.1c0.1,2.2,0.2,3.9,0.2,5C348.2,95.1,347.8,95.3,347.3,95.3z"/>
		</g>
		<g id="XMLID_495_">
			<polygon id="XMLID_496_" class="st1" points="347.9,83.9 344.5,82 344.4,79.4 347.8,81.3 			"/>
		</g>
		<g id="XMLID_493_">
			<path id="XMLID_494_" class="st1" d="M344.1,79.1l3.4,1.9c0.1,0.1,0.2,0.2,0.3,0.3l-3.4-1.9C344.4,79.3,344.3,79.2,344.1,79.1z"
				/>
		</g>
		<g id="XMLID_491_">
			<path id="XMLID_492_" class="st2" d="M344,79.1c0,0,0.1,0,0.1,0.1l3.4,1.9c0,0-0.1,0-0.1-0.1C346.3,80.3,345.1,79.7,344,79.1z"/>
		</g>
		<g id="XMLID_489_">
			<polygon id="XMLID_490_" class="st2" points="345.3,74.8 341.9,72.9 341.7,72.7 345.1,74.6 			"/>
		</g>
		<g id="XMLID_487_">
			<path id="XMLID_488_" class="st1" d="M345.3,74.8l-3.4-1.9c0,0,0-0.1,0.1-0.3l3.4,1.9C345.3,74.7,345.3,74.8,345.3,74.8z"/>
		</g>
		<g id="XMLID_485_">
			<polygon id="XMLID_486_" class="st1" points="344.9,74.6 341.5,72.7 341.7,72.7 345.1,74.6 			"/>
		</g>
		<g id="XMLID_483_">
			<path id="XMLID_484_" class="st1" d="M345.3,74.5l-3.4-1.9c0-1-0.1-2.7-0.2-5c-0.1-2.3-0.2-4-0.2-5.1l3.4,1.9
				c0,1.1,0.1,2.7,0.2,5.1C345.2,71.8,345.3,73.5,345.3,74.5z"/>
		</g>
		<g id="XMLID_481_">
			<path id="XMLID_482_" class="st1" d="M344.9,64.5l-3.4-1.9c0-0.1,0-0.3,0-0.6l3.4,1.9C344.9,64.1,344.9,64.3,344.9,64.5z"/>
		</g>
		<g id="XMLID_479_">
			<path id="XMLID_480_" class="st1" d="M344.9,63.8l-3.4-1.9c0-0.2,0-0.4,0-0.5l3.4,1.9C345,63.4,345,63.6,344.9,63.8z"/>
		</g>
		<g id="XMLID_477_">
			<path id="XMLID_478_" class="st1" d="M345,63.3l-3.4-1.9c0-0.3-0.1-0.4-0.2-0.5l3.4,1.9C344.9,62.9,344.9,63.1,345,63.3z"/>
		</g>
		<g id="XMLID_475_">
			<path id="XMLID_476_" class="st1" d="M341.4,60.9l3.4,1.9c0,0,0,0,0,0L341.4,60.9C341.4,60.9,341.4,60.9,341.4,60.9z"/>
		</g>
		<g id="XMLID_473_">
			<path id="XMLID_474_" class="st2" d="M340.3,60.7c0.8,0,1,0.1,1.1,0.1l3.4,1.9c-0.1,0-0.3-0.2-1.1-0.1
				C342.6,62.1,341.3,61.3,340.3,60.7z"/>
		</g>
		<g id="XMLID_471_">
			<path id="XMLID_472_" class="st1" d="M341.8,60l3.4,1.9c-0.3-0.2-0.9-0.3-1.6-0.3l-3.4-1.9C341,59.7,341.5,59.8,341.8,60z"/>
		</g>
		<g id="XMLID_469_">
			
				<rect id="XMLID_470_" x="342.7" y="54.5" transform="matrix(0.8726 0.4884 -0.4884 0.8726 70.608 -161.3487)" class="st1" width="3.9" height="0.4"/>
		</g>
		<g id="XMLID_467_">
			<path id="XMLID_468_" class="st1" d="M346.1,56l-3.4-1.9c0.1,0,0.1-0.1,0.2-0.2l3.4,1.9C346.2,55.9,346.1,56,346.1,56z"/>
		</g>
		<g id="XMLID_465_">
			<path id="XMLID_466_" class="st1" d="M346.4,55.5l-3.4-1.9c0-0.1,0.1-0.1,0.1-0.4l3.4,1.9C346.5,55.3,346.5,55.4,346.4,55.5z"/>
		</g>
		<g id="XMLID_463_">
			<path id="XMLID_464_" class="st1" d="M346.5,55.1l-3.4-1.9c0-0.2,0-0.4,0-0.5l3.4,1.9C346.6,54.7,346.6,54.9,346.5,55.1z"/>
		</g>
		<g id="XMLID_461_">
			<path id="XMLID_462_" class="st1" d="M345.6,56.2l-3.4-1.9c0.2-0.1,0.4-0.1,0.5-0.2l3.4,1.9C346,56,345.9,56.1,345.6,56.2z"/>
		</g>
		<g id="XMLID_459_">
			<path id="XMLID_460_" class="st1" d="M345,56.3l-3.4-1.9c0.3,0,0.5,0,0.7-0.1l3.4,1.9C345.5,56.2,345.3,56.3,345,56.3z"/>
		</g>
		<g id="XMLID_457_">
			<polygon id="XMLID_458_" class="st1" points="344,56.3 340.6,54.4 341.6,54.4 345,56.3 			"/>
		</g>
		<g id="XMLID_455_">
			<path id="XMLID_456_" class="st2" d="M344,79.1c0.2,0.1,0.4,0.2,0.6,0.3c0.2,0.1,0.4,0.2,0.6,0.3c0.7,0.4,1.5,0.8,2.2,1.2
				c-0.4-0.2-1-0.2-1.8-0.2c-1.8,0-4.5,0.2-8,0.4c-0.3,0-0.6,0-1,0.1c-0.3,0-0.7,0-1,0.1c-3.5,0.2-6.3,0.4-8.2,0.4l-3.4-1.9
				c1.9,0,4.7-0.2,8.2-0.4c0.3,0,0.6,0,1-0.1c0.3,0,0.6,0,1-0.1c3.5-0.2,6.2-0.4,8-0.4C343,78.8,343.6,78.9,344,79.1z"/>
		</g>
		<g id="XMLID_453_">
			<path id="XMLID_454_" class="st1" d="M344.6,78.3l3.4,1.9c-0.5-0.3-1.4-0.4-2.4-0.4c-1.8,0-4.5,0.2-8,0.4c-0.3,0-0.6,0-1,0.1
				c-0.3,0-0.6,0-0.9,0.1c-3.2,0.2-5.8,0.4-7.7,0.4l-3.4-1.9c1.9-0.1,4.5-0.2,7.7-0.4c0.3,0,0.6,0,0.9-0.1c0.3,0,0.7,0,1-0.1
				c3.5-0.2,6.2-0.4,8-0.4C343.3,77.8,344.1,78,344.6,78.3z"/>
		</g>
		<g id="XMLID_451_">
			<polygon id="XMLID_452_" class="st2" points="327,81.7 323.6,79.8 324.1,79.8 327.5,81.7 			"/>
		</g>
		<g id="XMLID_449_">
			<path id="XMLID_450_" class="st1" d="M328.3,75.6l-3.4-1.9c2.9-0.1,7.2-0.3,12.7-0.7c1.2-0.1,2.5-0.2,3.9-0.3l3.4,1.9
				c-1.3,0.1-2.6,0.2-3.9,0.3C335.5,75.3,331.2,75.5,328.3,75.6z"/>
		</g>
		<g id="XMLID_447_">
			<polygon id="XMLID_448_" class="st1" points="346.6,54.6 343.2,52.7 342.9,40.5 346.3,42.4 			"/>
		</g>
		<g id="XMLID_445_">
			<polygon id="XMLID_446_" class="st1" points="326.9,75.6 323.5,73.7 324.9,73.7 328.3,75.6 			"/>
		</g>
		<g id="XMLID_443_">
			<polygon id="XMLID_444_" class="st1" points="327,81.7 323.6,79.8 323.5,73.7 326.9,75.6 			"/>
		</g>
		<g id="XMLID_441_">
			<polygon id="XMLID_442_" class="st2" points="326.3,63 322.9,61.1 340.3,60.7 343.7,62.6 			"/>
		</g>
		<g id="XMLID_439_">
			<polygon id="XMLID_440_" class="st1" points="327.2,62 323.9,60.1 340.2,59.7 343.6,61.6 			"/>
		</g>
		<g id="XMLID_437_">
			<polygon id="XMLID_438_" class="st2" points="307.6,96.7 304.2,94.8 303.5,94 306.9,95.9 			"/>
		</g>
		<g id="XMLID_435_">
			<path id="XMLID_436_" class="st1" d="M307.6,96.7l-3.4-1.9c2.8-0.1,7.4-0.3,13.5-0.6c6.3-0.3,11.3-0.5,14.6-0.6
				c1.3,0,3.3-0.1,5.8-0.1c2.6,0,4.5-0.1,5.7-0.1l3.4,1.9c-1.2,0-3.1,0.1-5.7,0.1c-2.6,0-4.5,0.1-5.8,0.1c-3.4,0.1-8.3,0.3-14.6,0.6
				C315,96.4,310.5,96.6,307.6,96.7z"/>
		</g>
		<g id="XMLID_433_">
			<polygon id="XMLID_434_" class="st1" points="326.3,63 322.9,61.1 322.9,60.6 326.2,62.5 			"/>
		</g>
		<g id="XMLID_431_">
			<polygon id="XMLID_432_" class="st1" points="307.2,97.7 303.8,95.8 302.5,94.4 305.9,96.3 			"/>
		</g>
		<g id="XMLID_429_">
			<path id="XMLID_430_" class="st2" d="M306.9,95.9l-3.4-1.9c-0.1-0.7-0.1-1-0.1-1.1l3.4,1.9C306.7,94.9,306.7,95.1,306.9,95.9z"/>
		</g>
		<g id="XMLID_427_">
			<polygon id="XMLID_428_" class="st2" points="306.7,94.8 303.3,92.9 303.3,91.5 306.7,93.4 			"/>
		</g>
		<g id="XMLID_425_">
			<path id="XMLID_426_" class="st1" d="M305.9,96.3l-3.4-1.9c-0.1-0.8-0.2-1.3-0.2-1.5l3.4,1.9C305.7,95,305.8,95.5,305.9,96.3z"/>
		</g>
		<g id="XMLID_423_">
			<path id="XMLID_424_" class="st1" d="M327.2,56.4l-3.4-1.9c5,0.1,10.7,0,16.8-0.1l3.4,1.9C337.9,56.4,332.2,56.5,327.2,56.4z"/>
		</g>
		<g id="XMLID_421_">
			<path id="XMLID_422_" class="st1" d="M326.2,62.5l-3.4-1.9c0-0.6,0-1.2,0.1-1.8c0-0.6,0.1-1.3,0.2-2.1c0.1-0.8,0.2-1.4,0.2-1.8
				l3.4,1.9c0,0.4-0.1,1-0.2,1.8s-0.2,1.5-0.2,2.1C326.3,61.4,326.2,62,326.2,62.5z"/>
		</g>
		<g id="XMLID_419_">
			<polygon id="XMLID_420_" class="st1" points="326.7,56.8 323.3,54.9 323.4,54.5 326.8,56.4 			"/>
		</g>
		<g id="XMLID_417_">
			<polygon id="XMLID_418_" class="st1" points="326.8,56.4 323.4,54.5 323.8,54.5 327.2,56.4 			"/>
		</g>
		<g id="XMLID_415_">
			<polygon id="XMLID_416_" class="st1" points="305.7,94.8 302.3,92.9 302.3,91.6 305.7,93.5 			"/>
		</g>
		<g id="XMLID_413_">
			<path id="XMLID_414_" class="st2" d="M306.7,93.4l-3.4-1.9c-0.1-4.1-0.2-10.2-0.2-18c-0.1-7.9-0.1-13.9-0.2-18l3.4,1.9
				c0.1,4,0.2,10.1,0.2,18C306.5,83.3,306.6,89.3,306.7,93.4z"/>
		</g>
		<g id="XMLID_411_">
			<path id="XMLID_412_" class="st1" d="M305.7,93.5l-3.4-1.9c-0.1-4.1-0.2-10.2-0.2-18c-0.1-7.9-0.1-13.9-0.2-18l3.4,1.9
				c0.1,4,0.2,10.1,0.2,18C305.5,83.3,305.6,89.3,305.7,93.5z"/>
		</g>
		<g id="XMLID_409_">
			<polygon id="XMLID_410_" class="st2" points="306.3,57.5 302.9,55.6 302.6,41.4 306,43.3 			"/>
		</g>
		<g id="XMLID_407_">
			<polygon id="XMLID_408_" class="st2" points="306,43.3 302.6,41.4 342.9,40.5 346.3,42.4 			"/>
		</g>
		<g id="XMLID_403_">
			<path id="XMLID_404_" class="st1" d="M305,42.3l42.3-1l0.3,13.3c0,0.1,0,0.3,0,0.6c0,0.3-0.1,0.6-0.2,0.7l-0.2,0.4
				c-0.2,0.3-0.3,0.5-0.6,0.6c-0.2,0.1-0.4,0.2-0.7,0.3c-0.2,0.1-0.5,0.1-0.7,0.1l-1.2,0c-5.9,0.1-11.4,0.2-16.3,0.1
				c0,0.3-0.1,0.8-0.1,1.3c-0.1,0.8-0.2,1.5-0.2,2.1c0,0.4-0.1,0.8-0.1,1.2l16.4-0.4c0.8,0,1.4,0.1,1.7,0.4c0.4,0.3,0.6,0.7,0.6,1.3
				c0,0.1,0,0.3,0,0.6c0,0.2,0,0.4,0,0.5c0,1.1,0.1,2.7,0.2,5c0.1,2.3,0.2,4,0.2,5.1c-0.1,1.1-0.8,1.2-1,1.2c-0.2,0-0.4,0-0.5-0.1
				c-1.1,0.1-2.1,0.2-3.2,0.2c-5.8,0.4-10.2,0.6-13.3,0.7l-0.4,0l0.1,4.1c1.9-0.1,4.5-0.2,7.7-0.4c0.3,0,0.6,0,0.9-0.1
				c0.3,0,0.7,0,1-0.1c3.5-0.2,6.2-0.4,8-0.4c1.8,0,2.9,0.4,3.2,1.2l0.1,2.9c0,1.1,0.1,2.8,0.2,5c0.1,2.2,0.2,3.9,0.2,5.1
				c0,1.9-1,2.3-1.8,2.3c-1.3,0-3.2,0.1-5.8,0.1c-2.6,0-4.5,0.1-5.8,0.1c-3.4,0.1-8.3,0.3-14.6,0.6c-6.3,0.3-11,0.5-13.8,0.6l-0.2,0
				l-1.3-1.4c-0.1-0.8-0.2-1.3-0.2-1.5l0-1.4c-0.1-4.1-0.2-10.2-0.2-18c-0.1-7.9-0.1-13.9-0.2-18L305,42.3z M346.6,54.6l-0.3-12.3
				L306,43.3l0.3,14.2c0.1,4,0.2,10.1,0.2,18c0.1,7.8,0.1,13.9,0.2,18l0,1.4c0,0.1,0,0.3,0.1,1.1l0.8,0.8c2.8-0.1,7.4-0.3,13.5-0.6
				c6.3-0.3,11.3-0.5,14.6-0.6c1.3,0,3.3-0.1,5.8-0.1c2.6,0,4.5-0.1,5.7-0.1c0.5,0,0.9-0.2,0.9-1.3c0-1.1-0.1-2.8-0.2-5
				c-0.1-2.2-0.2-3.9-0.2-5.1l-0.1-2.6c-0.2-0.4-1-0.6-2.2-0.5c-1.8,0-4.5,0.2-8,0.4c-0.3,0-0.6,0-1,0.1c-0.3,0-0.7,0-1,0.1
				c-3.5,0.2-6.3,0.4-8.2,0.4l-0.5,0l-0.1-6.1l1.4,0c2.9-0.1,7.2-0.3,12.7-0.7c1.2-0.1,2.5-0.2,3.9-0.3l0.2,0l0.2,0.2
				c0,0,0-0.1,0.1-0.3c0-1-0.1-2.7-0.2-5c-0.1-2.3-0.2-4-0.2-5.1c0-0.1,0-0.3,0-0.6c0-0.2,0-0.4,0-0.5c0-0.3-0.1-0.4-0.2-0.5
				c0,0-0.3-0.2-1.1-0.1L326.3,63l0-0.5c0-0.6,0-1.2,0.1-1.8c0-0.6,0.1-1.3,0.2-2.1s0.2-1.4,0.2-1.8l0.1-0.5l0.5,0
				c5,0.1,10.7,0,16.8-0.1l1,0c0.3,0,0.5,0,0.7-0.1c0.2-0.1,0.4-0.1,0.5-0.2c0.1,0,0.1-0.1,0.2-0.2l0.2-0.4c0-0.1,0.1-0.1,0.1-0.4
				C346.6,54.9,346.6,54.7,346.6,54.6"/>
		</g>
		<g id="XMLID_401_">
			<path id="XMLID_402_" class="st2" d="M306,43.3l40.3-0.9l0.3,12.3c0,0.1,0,0.2,0,0.5c0,0.2-0.1,0.3-0.1,0.4l-0.2,0.4
				c-0.1,0.1-0.1,0.2-0.2,0.2c-0.1,0-0.2,0.1-0.5,0.2c-0.2,0-0.3,0.1-0.5,0.1l-1.1,0c-6.1,0.1-11.7,0.2-16.8,0.1l-0.5,0l-0.1,0.5
				c0,0.4-0.1,1-0.2,1.8c-0.1,0.8-0.2,1.5-0.2,2.1c0,0.6-0.1,1.2-0.1,1.8l0,0.5l17.4-0.4c0.9,0,1.1,0.1,1.1,0.1
				c0.1,0.1,0.2,0.3,0.2,0.5c0,0.1,0,0.3,0,0.5c0,0.3,0,0.5,0,0.6c0,1.1,0.1,2.7,0.2,5.1c0.1,2.3,0.2,3.9,0.2,5
				c0,0.2-0.1,0.3-0.1,0.3l-0.2-0.2l-0.2,0c-1.3,0.1-2.6,0.2-3.9,0.3c-5.5,0.4-9.8,0.6-12.7,0.7l-1.4,0l0.1,6.1l0.5,0
				c1.9,0,4.7-0.2,8.2-0.4c0.3,0,0.6,0,1-0.1c0.3,0,0.6,0,1-0.1c3.5-0.2,6.2-0.4,8-0.4c1.2,0,2,0.2,2.2,0.5l0.1,2.6
				c0,1.1,0.1,2.8,0.2,5.1c0.1,2.2,0.2,3.9,0.2,5c0,1.1-0.4,1.3-0.8,1.3c-1.4,0-3.3,0.1-5.8,0.1c-2.6,0-4.5,0.1-5.8,0.1
				c-3.4,0.1-8.3,0.3-14.6,0.6c-6.1,0.3-10.7,0.5-13.5,0.6l-0.8-0.8c-0.1-0.7-0.1-1-0.1-1.1l0-1.4c-0.1-4.1-0.2-10.2-0.2-18
				c-0.1-7.9-0.1-13.9-0.2-18L306,43.3z"/>
		</g>
		<g id="XMLID_399_">
			<polygon id="XMLID_400_" class="st1" points="305,42.3 301.6,40.4 343.9,39.4 347.3,41.3 			"/>
		</g>
		<g id="XMLID_397_">
			<polygon id="XMLID_398_" class="st1" points="305.3,57.5 301.9,55.6 301.6,40.4 305,42.3 			"/>
		</g>
	</g>
	<g id="XMLID_261_" class="st0">
		<g id="XMLID_394_">
			<polygon id="XMLID_395_" class="st1" points="429.3,93.6 425.9,91.7 436.2,39.5 439.6,41.4 			"/>
		</g>
		<g id="XMLID_392_">
			<path id="XMLID_393_" class="st1" d="M439.6,41.4l-3.4-1.9c-0.1-0.7-0.1-1.2-0.2-1.4l3.4,1.9C439.5,40.3,439.6,40.7,439.6,41.4z"
				/>
		</g>
		<g id="XMLID_390_">
			<path id="XMLID_391_" class="st1" d="M436.5,37.1l3.4,1.9c-0.2-0.1-0.3-0.1-0.4-0.1l-3.4-1.9C436.2,37,436.3,37,436.5,37.1z"/>
		</g>
		<g id="XMLID_388_">
			<path id="XMLID_389_" class="st1" d="M407.2,94.2l-3.4-1.9c3.8-0.2,6.3-0.3,6.5-0.3c1,0,2.5,0,4.5-0.1c2,0,3.4,0,4.4-0.1
				c0.4,0,1,0,1.7,0c0.7,0,1.3,0,1.9,0c0.5,0,1.1,0,1.8,0c0.5,0,0.9,0,1.3-0.1l3.4,1.9c-0.4,0-0.8,0.1-1.3,0.1c-0.7,0-1.3,0-1.8,0
				c-0.5,0-1.2,0-1.9,0c-0.7,0-1.3,0-1.7,0c-1,0-2.4,0-4.4,0.1c-2,0-3.5,0-4.5,0.1C413.6,93.9,411,94,407.2,94.2z"/>
		</g>
		<g id="XMLID_386_">
			<polygon id="XMLID_387_" class="st2" points="435.3,40 431.9,38.1 436,38 439.4,39.9 			"/>
		</g>
		<g id="XMLID_384_">
			<polygon id="XMLID_385_" class="st1" points="435.3,39 431.9,37.1 436.1,37 439.5,38.9 			"/>
		</g>
		<g id="XMLID_382_">
			<polygon id="XMLID_383_" class="st2" points="417.7,74.2 414.3,72.3 414.6,68 418,69.9 			"/>
		</g>
		<g id="XMLID_380_">
			<path id="XMLID_381_" class="st2" d="M430.6,40l-3.4-1.9c0.9,0,1.9,0,3,0c1.1,0,1.7,0,1.7,0l3.4,1.9c0,0-0.6,0-1.7,0
				C432.5,40,431.5,40,430.6,40z"/>
		</g>
		<g id="XMLID_378_">
			<path id="XMLID_379_" class="st1" d="M430.6,39l-3.4-1.9c0.9,0,1.9,0,3,0c1.1,0,1.7,0,1.7,0l3.4,1.9c-0.1,0-0.6,0-1.7,0
				C432.5,39,431.5,39,430.6,39z"/>
		</g>
		<g id="XMLID_376_">
			<path id="XMLID_377_" class="st2" d="M418,69.9l-3.4-1.9c0.3-5.4,0.8-10.4,1.4-14.8l3.4,1.9C418.8,59.6,418.3,64.5,418,69.9z"/>
		</g>
		<g id="XMLID_374_">
			<polygon id="XMLID_375_" class="st2" points="427.5,40.1 424.1,38.2 427.2,38.1 430.6,40 			"/>
		</g>
		<g id="XMLID_372_">
			<polygon id="XMLID_373_" class="st1" points="427.5,39.1 424.1,37.2 427.2,37.1 430.6,39 			"/>
		</g>
		<g id="XMLID_370_">
			<path id="XMLID_371_" class="st1" d="M417.3,65.7l-3.4-1.9c0.3-3.8,0.7-7.4,1.1-10.8l3.4,1.9C417.9,58.3,417.6,61.9,417.3,65.7z"
				/>
		</g>
		<g id="XMLID_368_">
			<path id="XMLID_369_" class="st2" d="M424.9,40.1l-3.4-1.9c0.2,0,0.6,0,1.3,0c0.6,0,1.1,0,1.3,0l3.4,1.9c-0.3,0-0.7,0-1.3,0
				C425.5,40,425.1,40.1,424.9,40.1z"/>
		</g>
		<g id="XMLID_366_">
			<path id="XMLID_367_" class="st1" d="M424.8,39.1l-3.4-1.9c0.4,0,0.8,0,1.4,0c0.6,0,1,0,1.3,0l3.4,1.9c-0.3,0-0.7,0-1.3,0
				C425.7,39,425.2,39,424.8,39.1z"/>
		</g>
		<g id="XMLID_364_">
			<polygon id="XMLID_365_" class="st2" points="423.2,40.1 419.8,38.2 421.5,38.2 424.9,40.1 			"/>
		</g>
		<g id="XMLID_362_">
			<polygon id="XMLID_363_" class="st1" points="423.1,39.1 419.7,37.2 421.4,37.2 424.8,39.1 			"/>
		</g>
		<g id="XMLID_360_">
			<polygon id="XMLID_361_" class="st2" points="419.3,55.1 415.9,53.2 417.8,38.8 421.2,40.7 			"/>
		</g>
		<g id="XMLID_358_">
			<path id="XMLID_359_" class="st2" d="M421.2,40.7l-3.4-1.9c0-0.1,0.2-0.4,1.5-0.5c0.1,0,0.3,0,0.5,0l3.4,1.9c-0.2,0-0.3,0-0.5,0
				C421.3,40.2,421.2,40.6,421.2,40.7z"/>
		</g>
		<g id="XMLID_356_">
			<polygon id="XMLID_357_" class="st1" points="418.3,55 414.9,53.1 416.8,38.6 420.2,40.5 			"/>
		</g>
		<g id="XMLID_354_">
			<path id="XMLID_355_" class="st1" d="M420.2,40.5l-3.4-1.9c0.3-1,1.6-1.3,2.4-1.3c0.2,0,0.4,0,0.5,0l3.4,1.9c-0.1,0-0.3,0-0.5,0
				C421.8,39.2,420.5,39.4,420.2,40.5z"/>
		</g>
		<g id="XMLID_352_">
			<polygon id="XMLID_353_" class="st2" points="407.2,94.2 403.8,92.3 398.4,60.9 401.8,62.8 			"/>
		</g>
		<g id="XMLID_350_">
			<polygon id="XMLID_351_" class="st1" points="406.4,95.2 403,93.3 398.6,67.9 402,69.8 			"/>
		</g>
		<g id="XMLID_348_">
			<path id="XMLID_349_" class="st1" d="M396.9,94.7l-3.4-1.9c0,0,0.4-0.1,1-2.2c0.5-1.7,0.9-3.9,1.2-6.5c0.3-2.6,0.7-5.2,0.9-7.9
				c0.3-2.6,0.5-5.1,0.8-7.5c0.2-2.3,0.4-3.9,0.5-4.5l3.4,1.9c-0.1,0.7-0.2,2.2-0.5,4.5c-0.2,2.4-0.5,4.9-0.8,7.5
				c-0.3,2.6-0.6,5.3-0.9,7.9c-0.3,2.6-0.8,4.8-1.2,6.5C397.3,94.6,396.9,94.7,396.9,94.7z"/>
		</g>
		<g id="XMLID_346_">
			<polygon id="XMLID_347_" class="st1" points="401.3,66.1 397.9,64.2 398.4,60.9 401.8,62.8 			"/>
		</g>
		<g id="XMLID_344_">
			<polygon id="XMLID_345_" class="st1" points="417.7,74.2 414.3,72.3 408.5,38.8 411.9,40.7 			"/>
		</g>
		<g id="XMLID_342_">
			<path id="XMLID_343_" class="st1" d="M408.5,38.7l3.4,1.9c0.1,0,0.1,0.1,0.1,0.1L408.5,38.7C408.5,38.8,408.5,38.7,408.5,38.7z"
				/>
		</g>
		<g id="XMLID_340_">
			<path id="XMLID_341_" class="st2" d="M408.1,38.6c0.2,0,0.3,0,0.4,0.1l3.4,1.9c-0.1,0-0.2-0.1-0.4-0.1c0,0,0,0,0,0
				C410.4,39.9,409.2,39.3,408.1,38.6C408.1,38.6,408.1,38.6,408.1,38.6z"/>
		</g>
		<g id="XMLID_338_">
			<path id="XMLID_339_" class="st1" d="M375.4,95.3l-3.4-1.9c0.2,0,0.3,0,0.5,0c3.7-0.3,7.7-0.4,12-0.5c1,0,2.5,0,4.5,0
				c2,0,3.5,0,4.5,0l3.4,1.9c-1,0-2.5,0-4.5,0c-2,0-3.5,0-4.5,0c-4.3,0.1-8.4,0.3-12,0.5C375.7,95.3,375.5,95.3,375.4,95.3z"/>
		</g>
		<g id="XMLID_336_">
			<path id="XMLID_337_" class="st2" d="M375.4,95.3l-3.4-1.9c-0.2-0.1-0.4-0.3-0.6-0.6l3.4,1.9C374.9,95,375.1,95.2,375.4,95.3z"/>
		</g>
		<g id="XMLID_334_">
			<path id="XMLID_335_" class="st2" d="M371.4,92.8c-0.2-0.3-0.4-0.7-0.6-1.1c1.1,0.6,2.3,1.3,3.4,1.9c0.1,0.4,0.3,0.8,0.6,1.1
				C373.7,94.2,372.2,93.6,371.4,92.8z"/>
		</g>
		<g id="XMLID_332_">
			<path id="XMLID_333_" class="st2" d="M369.9,87.7c-4.4-19.3-7.2-31.2-8.3-35.5l3.4,1.9c1.1,4.3,3.9,16.2,8.3,35.5
				c0.1,0.2,0.1,0.6,0.2,1.3c0.1,0.6,0.2,1.1,0.3,1.5c0.1,0.4,0.2,0.8,0.4,1.3c-1.1-0.6-2.3-1.3-3.4-1.9c-0.2-0.5-0.3-0.9-0.4-1.3
				c-0.1-0.4-0.2-0.9-0.3-1.5C370.1,88.4,370,87.9,369.9,87.7z"/>
		</g>
		<g id="XMLID_330_">
			<path id="XMLID_331_" class="st1" d="M374.8,96.1l-3.4-1.9c-0.4-0.2-0.6-0.4-0.8-0.7c-0.3-0.4-0.5-0.9-0.7-1.4
				c-0.2-0.5-0.3-1-0.4-1.4l3.4,1.9c0.1,0.4,0.2,0.9,0.4,1.4c0.2,0.5,0.4,1,0.7,1.4C374.2,95.6,374.4,95.9,374.8,96.1z"/>
		</g>
		<g id="XMLID_328_">
			<polygon id="XMLID_329_" class="st2" points="385.7,67.6 382.3,65.7 383.3,65.8 386.6,67.7 			"/>
		</g>
		<g id="XMLID_326_">
			<path id="XMLID_327_" class="st2" d="M400,38.8c3.6-0.1,6.4-0.2,8.1-0.2c0.6,0.4,1.3,0.7,1.9,1.1c0.3,0.2,0.6,0.3,0.9,0.5
				c0.1,0.1,0.3,0.2,0.4,0.2c0.1,0,0.1,0.1,0.2,0.1c-1.8,0-4.5,0.1-8.1,0.2c-3.6,0.1-6.4,0.2-8.3,0.2l-3.4-1.9
				C393.6,39,396.3,39,400,38.8z"/>
		</g>
		<g id="XMLID_324_">
			<path id="XMLID_325_" class="st1" d="M408.9,37.8l3.4,1.9c-0.2-0.1-0.5-0.2-0.9-0.2c-1.8,0-4.5,0.1-8.2,0.2
				c-3.6,0.1-6.4,0.2-8.3,0.2l-3.4-1.9c1.9,0,4.7-0.1,8.3-0.2c3.6-0.1,6.4-0.2,8.2-0.2C408.5,37.6,408.7,37.7,408.9,37.8z"/>
		</g>
		<g id="XMLID_322_">
			<polygon id="XMLID_323_" class="st2" points="392.8,41 389.4,39.1 391.6,39.1 395,41 			"/>
		</g>
		<g id="XMLID_320_">
			<polygon id="XMLID_321_" class="st1" points="392.8,40 389.4,38.1 391.6,38.1 395,40 			"/>
		</g>
		<g id="XMLID_318_">
			<polygon id="XMLID_319_" class="st2" points="386.6,67.7 383.3,65.8 387.1,39.1 390.5,41 			"/>
		</g>
		<g id="XMLID_316_">
			<path id="XMLID_317_" class="st2" d="M390.5,41l-3.4-1.9c0.9,0.1,1.7,0.1,2.3,0.1l3.4,1.9C392.2,41,391.5,41,390.5,41z"/>
		</g>
		<g id="XMLID_314_">
			<path id="XMLID_315_" class="st1" d="M390.2,39.9l-3.4-1.9c1.1,0.1,2,0.1,2.7,0.1l3.4,1.9C392.2,40,391.3,40,390.2,39.9z"/>
		</g>
		<g id="XMLID_312_">
			<polygon id="XMLID_313_" class="st1" points="389.7,39.9 386.3,38 386.8,38 390.2,39.9 			"/>
		</g>
		<g id="XMLID_310_">
			<polygon id="XMLID_311_" class="st1" points="386.2,63.9 382.8,62 386.3,38 389.7,39.9 			"/>
		</g>
		<g id="XMLID_308_">
			<path id="XMLID_309_" class="st1" d="M385.7,67.6l-3.4-1.9c0-0.1-0.3-2.1-0.5-4.2c-0.4-2.8-0.7-5.2-1-7.2
				c-0.3-1.9-0.6-4.3-1.1-6.9c-0.4-2.6-0.9-4.7-1.3-6.2c-0.5-1.6-0.8-2-0.9-2.1l3.4,1.9c0.1,0.1,0.5,0.4,0.9,2.1
				c0.4,1.5,0.9,3.6,1.3,6.2c0.4,2.7,0.8,5,1.1,6.9c0.3,2,0.6,4.4,1,7.2C385.4,65.6,385.6,67.5,385.7,67.6z"/>
		</g>
		<g id="XMLID_306_">
			<path id="XMLID_307_" class="st1" d="M377.9,38.3l3.4,1.9c-0.1,0-0.2-0.1-0.2-0.1l-3.4-1.9C377.8,38.2,377.8,38.2,377.9,38.3z"/>
		</g>
		<g id="XMLID_304_">
			<polygon id="XMLID_305_" class="st2" points="379.9,41.1 376.5,39.2 377.5,39.2 380.9,41.1 			"/>
		</g>
		<g id="XMLID_302_">
			<polygon id="XMLID_303_" class="st1" points="379.9,40.1 376.5,38.2 377.7,38.2 381.1,40.1 			"/>
		</g>
		<g id="XMLID_300_">
			<path id="XMLID_301_" class="st2" d="M378.7,41l-3.4-1.9c0.3,0,0.7,0.1,1.2,0.1l3.4,1.9C379.4,41.1,379,41.1,378.7,41z"/>
		</g>
		<g id="XMLID_298_">
			<path id="XMLID_299_" class="st1" d="M378.8,40.1l-3.4-1.9c0.3,0,0.6,0.1,1.1,0l3.4,1.9C379.4,40.1,379.1,40.1,378.8,40.1z"/>
		</g>
		<g id="XMLID_296_">
			<polygon id="XMLID_297_" class="st2" points="376.8,41.1 373.4,39.2 375.3,39.1 378.7,41 			"/>
		</g>
		<g id="XMLID_294_">
			<polygon id="XMLID_295_" class="st1" points="376.8,40.1 373.4,38.2 375.4,38.2 378.8,40.1 			"/>
		</g>
		<g id="XMLID_292_">
			<path id="XMLID_293_" class="st2" d="M373.1,41.1l-3.4-1.9c0.6,0,1.2,0,1.9,0c0.9,0,1.5,0,1.7,0l3.4,1.9c-0.3,0-0.8,0-1.7,0
				C374.3,41.1,373.7,41.1,373.1,41.1z"/>
		</g>
		<g id="XMLID_290_">
			<path id="XMLID_291_" class="st1" d="M373.1,40.1l-3.4-1.9c0.4,0,1.1,0,2,0c0.9,0,1.4,0,1.7,0l3.4,1.9c-0.3,0-0.8,0-1.7,0
				C374.2,40.1,373.5,40.1,373.1,40.1z"/>
		</g>
		<g id="XMLID_288_">
			<path id="XMLID_289_" class="st1" d="M372.9,92.6l-3.4-1.9c-0.1-0.4-0.2-0.9-0.3-1.5c-0.1-0.6-0.2-1-0.2-1.2
				c-4.5-19.3-7.3-31.2-8.3-35.5l3.4,1.9c1.1,4.3,3.9,16.2,8.3,35.5c0,0.2,0.1,0.6,0.2,1.2C372.7,91.7,372.8,92.2,372.9,92.6z"/>
		</g>
		<g id="XMLID_286_">
			<path id="XMLID_287_" class="st2" d="M368.3,41.4l-3.4-1.9c0.6,0,1.4-0.1,2.5-0.1c1.1-0.1,1.8-0.1,2.3-0.1l3.4,1.9
				c-0.5,0-1.3,0.1-2.3,0.1C369.7,41.3,368.9,41.3,368.3,41.4z"/>
		</g>
		<g id="XMLID_284_">
			<path id="XMLID_285_" class="st1" d="M368.3,40.4l-3.4-1.9c0.6,0,1.4,0,2.4-0.1c1.1-0.1,1.8-0.1,2.3-0.1l3.4,1.9
				c-0.5,0-1.2,0-2.3,0.1C369.7,40.3,368.9,40.3,368.3,40.4z"/>
		</g>
		<g id="XMLID_282_">
			<polygon id="XMLID_283_" class="st2" points="365.5,41.4 362.1,39.5 364.9,39.5 368.3,41.4 			"/>
		</g>
		<g id="XMLID_280_">
			<polygon id="XMLID_281_" class="st1" points="365.5,40.4 362.1,38.5 364.9,38.5 368.3,40.4 			"/>
		</g>
		<g id="XMLID_278_">
			<path id="XMLID_279_" class="st2" d="M362.9,41.4l-3.4-1.9c0.6,0,1.4,0,2.6,0l3.4,1.9C364.3,41.5,363.4,41.5,362.9,41.4z"/>
		</g>
		<g id="XMLID_276_">
			<polygon id="XMLID_277_" class="st2" points="365,54.1 361.6,52.2 358.9,40.3 362.3,42.2 			"/>
		</g>
		<g id="XMLID_274_">
			<path id="XMLID_275_" class="st2" d="M362.3,42.2l-3.4-1.9c0-0.4,0.2-0.6,0.5-0.8l3.4,1.9C362.5,41.6,362.3,41.8,362.3,42.2z"/>
		</g>
		<g id="XMLID_272_">
			<path id="XMLID_273_" class="st2" d="M362.9,41.4c0.6,0,1.4,0,2.6,0l2.8-0.1c0.6,0,1.4-0.1,2.5-0.1c1.1-0.1,1.8-0.1,2.3-0.1
				c0.6,0,1.2,0,1.9,0c0.9,0,1.5,0,1.7,0l2-0.1c0.3,0,0.7,0.1,1.2,0.1l1,0c0.1,0.1,0.5,0.4,0.9,2.1c0.4,1.5,0.9,3.6,1.3,6.2
				c0.4,2.7,0.8,5,1.1,6.9c0.3,2,0.6,4.4,1,7.2c0.3,2.2,0.5,4.1,0.5,4.2l1,0.1l3.9-26.7c0.9,0.1,1.7,0.1,2.3,0.1L395,41
				c1.9,0,4.7-0.1,8.3-0.2c3.6-0.1,6.4-0.2,8.1-0.2c0.4,0,0.4,0.1,0.4,0.1l5.8,33.5l0.3-4.3c0.3-5.4,0.8-10.4,1.4-14.8l1.8-14.4
				c0-0.1,0.2-0.4,1.5-0.5c0.1,0,0.3,0,0.5,0l1.7,0c0.2,0,0.6,0,1.3,0c0.6,0,1.1,0,1.3,0l3.1-0.1c0.9,0,1.9,0,3,0c1.1,0,1.7,0,1.7,0
				l4.1-0.1c0.1,0.4,0.2,0.8,0.2,1.5l-10.3,52.2c-0.4,0-0.8,0.1-1.3,0.1c-0.7,0-1.3,0-1.8,0c-0.5,0-1.2,0-1.9,0c-0.7,0-1.3,0-1.7,0
				c-1,0-2.4,0-4.4,0.1c-2,0-3.5,0-4.5,0.1c-0.1,0-2.7,0.1-6.5,0.3l-5.5-31.4l-0.4,3.3c-0.1,0.7-0.2,2.2-0.5,4.5
				c-0.2,2.4-0.5,4.9-0.8,7.5c-0.3,2.6-0.6,5.3-0.9,7.9c-0.3,2.6-0.8,4.8-1.2,6.5c-0.6,2.1-1,2.2-1,2.2c-1,0-2.5,0-4.5,0
				c-2,0-3.5,0-4.5,0c-4.3,0.1-8.4,0.3-12,0.5c-0.2,0-0.3,0-0.5,0c-0.2-0.1-0.4-0.3-0.6-0.6c-0.2-0.3-0.4-0.7-0.6-1.1
				c-0.2-0.5-0.3-0.9-0.4-1.3c-0.1-0.4-0.2-0.9-0.3-1.5c-0.1-0.6-0.2-1-0.2-1.3c-4.4-19.3-7.2-31.2-8.3-35.5l-2.7-11.8
				C362.3,41.8,362.5,41.6,362.9,41.4z"/>
		</g>
		<g id="XMLID_270_">
			<path id="XMLID_271_" class="st1" d="M362.6,40.5l-3.4-1.9c0.8,0,1.6,0,2.9,0l3.4,1.9C364.2,40.5,363.3,40.5,362.6,40.5z"/>
		</g>
		<g id="XMLID_268_">
			<polygon id="XMLID_269_" class="st1" points="364,54.3 360.7,52.4 357.9,40.5 361.3,42.4 			"/>
		</g>
		<g id="XMLID_264_">
			<path id="XMLID_265_" class="st1" d="M440.4,39.7c0.1,0.3,0.2,0.9,0.2,1.7l-10.5,53.1l-0.4,0c-0.2,0-0.5,0.1-0.7,0.1
				c-0.3,0-0.7,0-1,0c-0.7,0-1.3,0-1.8,0c-0.5,0-1.2,0-1.9,0c-0.7,0-1.3,0-1.7,0c-1,0-2.5,0-4.4,0.1c-2,0-3.5,0-4.5,0.1
				c-0.1,0-2.3,0.1-6.9,0.4l-0.4,0L402,69.8c0,0.3-0.1,0.6-0.1,0.9c-0.2,2.4-0.5,4.9-0.8,7.5c-0.3,2.7-0.6,5.3-0.9,7.9
				c-0.3,2.6-0.8,4.9-1.3,6.6c-0.6,2-1.2,2.9-1.9,3c-1.1,0-2.6,0-4.6,0c-2,0-3.5,0-4.5,0c-4.4,0.1-8.4,0.3-12.1,0.5
				c-0.2,0-0.3,0-0.5,0c-0.7-0.2-1-0.6-1.3-1c-0.3-0.4-0.5-0.9-0.7-1.4c-0.2-0.5-0.3-1-0.4-1.4c-0.1-0.4-0.2-0.9-0.3-1.5
				c-0.1-0.6-0.2-1-0.2-1.2c-4.5-19.3-7.3-31.2-8.3-35.5l-2.7-12c0-0.9,0.4-1.6,1.3-1.9c0.8,0,1.6,0,2.9,0l2.8-0.1
				c0.6,0,1.4,0,2.4-0.1c1.1-0.1,1.8-0.1,2.3-0.1c0.4,0,1.1,0,2,0c0.9,0,1.4,0,1.7,0l2.1,0c0.3,0,0.6,0.1,1.1,0l1.2,0
				c0.6,0.2,1.1,1,1.7,2.8c0.5,1.5,0.9,3.7,1.4,6.3c0.4,2.7,0.8,5,1.1,6.9c0.3,2,0.6,4.4,0.9,7.2c0,0.2,0.1,0.4,0.1,0.6l3.5-24
				l0.5,0c1.1,0.1,2,0.1,2.7,0.1L395,40c1.9,0,4.7-0.1,8.3-0.2c3.6-0.1,6.4-0.2,8.2-0.2c1,0,1.3,0.5,1.4,0.9l4.3,25.3
				c0.3-3.8,0.7-7.4,1.1-10.8l1.8-14.5c0.3-1,1.6-1.3,2.4-1.3c0.2,0,0.4,0,0.5,0l1.7,0c0.4,0,0.8,0,1.4,0c0.6,0,1,0,1.3,0l3.1-0.1
				c0.9,0,1.9,0,3,0c1.1,0,1.7,0,1.7,0l4.2-0.1C439.7,38.9,440.2,39,440.4,39.7z M429.3,93.6l10.3-52.2c-0.1-0.7-0.1-1.2-0.2-1.4
				l-4.1,0c0,0-0.6,0-1.7,0c-1.1,0-2.1,0-3,0l-3.1,0.1c-0.3,0-0.7,0-1.3,0c-0.7,0-1.1,0-1.3,0l-1.7,0c-0.2,0-0.3,0-0.5,0
				c-1.3,0.1-1.5,0.4-1.5,0.5l-1.8,14.4c-0.6,4.5-1,9.5-1.4,14.8l-0.3,4.3l-5.8-33.5c0,0-0.1-0.1-0.4-0.1c-1.8,0-4.5,0.1-8.1,0.2
				c-3.6,0.1-6.4,0.2-8.3,0.2l-2.2,0.1c-0.6,0-1.4,0-2.3-0.1l-3.9,26.7l-1-0.1c0-0.1-0.3-2.1-0.5-4.2c-0.4-2.8-0.7-5.2-1-7.2
				c-0.3-1.9-0.6-4.3-1.1-6.9c-0.4-2.6-0.9-4.7-1.3-6.2c-0.5-1.6-0.8-2-0.9-2.1l-1,0c-0.5,0-0.9,0-1.2-0.1l-2,0.1
				c-0.3,0-0.8,0-1.7,0c-0.8,0-1.4,0-1.8,0c-0.6,0-1.4,0.1-2.4,0.1c-1.1,0.1-1.9,0.1-2.5,0.1l-2.8,0.1c-1.2,0-2.1,0-2.6,0
				c-0.4,0.2-0.5,0.4-0.5,0.8l2.7,11.8c1.1,4.3,3.9,16.2,8.3,35.5c0.1,0.2,0.1,0.6,0.2,1.3c0.1,0.6,0.2,1.1,0.3,1.5
				c0.1,0.4,0.2,0.8,0.4,1.3c0.1,0.4,0.3,0.8,0.6,1.1c0.2,0.2,0.4,0.4,0.6,0.6c0.2,0,0.3,0,0.5,0c3.7-0.3,7.7-0.4,12-0.5
				c1,0,2.5,0,4.5,0c2,0,3.5,0,4.5,0c0,0,0.4-0.1,1-2.2c0.5-1.7,0.9-3.9,1.2-6.5c0.3-2.6,0.7-5.2,0.9-7.9c0.3-2.6,0.5-5.1,0.8-7.5
				c0.2-2.3,0.4-3.9,0.5-4.5l0.4-3.3l5.5,31.4c3.8-0.2,6.3-0.3,6.5-0.3c1,0,2.5,0,4.5-0.1c2,0,3.4,0,4.4-0.1c0.4,0,1,0,1.7,0
				c0.7,0,1.3,0,1.9,0c0.5,0,1.1,0,1.8,0C428.5,93.7,428.9,93.6,429.3,93.6"/>
		</g>
		<g id="XMLID_262_">
			<path id="XMLID_263_" class="st1" d="M361.3,42.4l-3.4-1.9c0-0.9,0.4-1.6,1.3-1.9l3.4,1.9C361.7,40.8,361.3,41.4,361.3,42.4z"/>
		</g>
	</g>
	<g id="XMLID_119_" class="st0">
		<g id="XMLID_259_">
			<path id="XMLID_260_" class="st1" d="M495.6,60.1L499,62c1.8,1,3.2,2.1,4.2,3.4c2,2.3,3,5.3,3.1,8.9l-3.4-1.9
				c-0.1-3.6-1.1-6.6-3.1-8.9C498.8,62.2,497.4,61.1,495.6,60.1z"/>
		</g>
		<g id="XMLID_257_">
			<path id="XMLID_258_" class="st1" d="M481,93.7l-3.4-1.9c1.8-0.1,3.5-0.3,5-0.5c1.5-0.2,3.2-0.5,5-1c1.8-0.4,3.4-1,4.8-1.6
				c1.4-0.6,2.8-1.4,4.2-2.4c1.3-1,2.5-2.1,3.4-3.4c0.9-1.3,1.6-2.8,2.1-4.6c0.5-1.8,0.8-3.8,0.7-6l3.4,1.9c0,2.2-0.2,4.2-0.7,6
				c-0.5,1.8-1.2,3.3-2.1,4.6c-0.9,1.3-2,2.4-3.4,3.4c-1.4,1-2.8,1.8-4.2,2.4c-1.4,0.6-3,1.1-4.8,1.6c-1.8,0.4-3.5,0.8-5,1
				C484.5,93.4,482.8,93.6,481,93.7z"/>
		</g>
		<g id="XMLID_255_">
			<polygon id="XMLID_256_" class="st1" points="503.4,53.1 500,51.2 501,50.2 504.4,52.1 			"/>
		</g>
		<g id="XMLID_253_">
			<path id="XMLID_254_" class="st2" d="M478.6,79.4C478.6,79.4,478.6,79.4,478.6,79.4c0.1,0,0.1,0.1,0.2,0.1
				c1.1,0.6,2.1,1.2,3.2,1.8c0,0,0,0,0,0c0,0,0,0,0,0C480.9,80.6,479.8,80,478.6,79.4C478.6,79.4,478.6,79.4,478.6,79.4z"/>
		</g>
		<g id="XMLID_251_">
			<path id="XMLID_252_" class="st2" d="M478.6,79.4C478.7,79.4,478.7,79.4,478.6,79.4c1.2,0.7,2.3,1.3,3.4,1.9c-0.1,0-0.2,0-0.3,0
				c-1.1-0.6-2.3-1.3-3.4-1.9c1.1,0.6,2.3,1.3,3.4,1.9c0,0,0,0,0,0c0,0,0,0,0,0c-1.1-0.6-2.3-1.3-3.4-1.9c0,0,0,0,0,0
				C478.5,79.4,478.5,79.4,478.6,79.4z"/>
		</g>
		<g id="XMLID_247_">
			<path id="XMLID_248_" class="st2" d="M481.8,72.7c-0.3-0.2-0.6-0.4-0.9-0.6l3.4,1.9c0.3,0.2,0.6,0.4,0.9,0.6
				c0.9,0.7,1.3,1.5,1.4,2.4c-1.1-0.6-2.3-1.3-3.4-1.9c1.1,0.6,2.3,1.3,3.4,1.9c0,1.3-0.5,2.3-1.5,3.1c-0.9,0.7-1.9,1.1-3.1,1.1
				c-1.1-0.6-2.3-1.3-3.4-1.9c1.2-0.1,2.2-0.5,3.1-1.1c1-0.8,1.5-1.8,1.5-3.1C483.2,74.2,482.7,73.4,481.8,72.7z M485.1,80.1
				L485.1,80.1L485.1,80.1L485.1,80.1L485.1,80.1L485.1,80.1L485.1,80.1L485.1,80.1L485.1,80.1L485.1,80.1L485.1,80.1L485.1,80.1
				L485.1,80.1L485.1,80.1L485.1,80.1L485.1,80.1L485.1,80.1l-0.2-0.1l-0.2-0.1l-0.2-0.1l-0.2-0.1l-0.2-0.1l-0.2-0.1l-0.2-0.1
				l-0.2-0.1l-0.2-0.1l-0.2-0.1L483,79l-0.2-0.1l-0.2-0.1l-0.2-0.1l-0.2-0.1l-0.2-0.1l0,0l0,0l0,0l0,0l0,0l0,0l0,0l0,0l0,0l0,0l0,0
				l0,0l0,0l0,0l0,0l0,0l0,0l0,0l0,0l0,0l0,0l0,0l0,0l0,0l0,0l0,0l0,0l0,0l0,0l0,0l0,0l0,0l0.2,0.1l0.2,0.1l0.2,0.1l0.2,0.1L483,79
				l0.2,0.1l0.2,0.1l0.2,0.1l0.2,0.1l0.2,0.1l0.2,0.1l0.2,0.1l0.2,0.1l0.2,0.1l0.2,0.1L485.1,80.1"/>
		</g>
		<g id="XMLID_245_">
			<path id="XMLID_246_" class="st2" d="M476.2,79.1c1,0.6,2,1.1,3,1.7C478.2,80.2,477.2,79.7,476.2,79.1z"/>
		</g>
		<g id="XMLID_243_">
			<path id="XMLID_244_" class="st1" d="M480.4,73l3.4,1.9c0.3,0.2,0.6,0.3,0.8,0.5c0.7,0.5,1,1,1,1.6c0,1-0.3,1.7-1.1,2.3
				c-0.7,0.5-1.6,0.9-2.5,0.9c-0.1,0-0.2,0-0.3,0c-0.9,0-1.6-0.1-2.1-0.4l-3.4-1.9c0.5,0.3,1.2,0.4,2.1,0.4c0.1,0,0.2,0,0.3,0
				c0.9-0.1,1.8-0.4,2.5-0.9c0.7-0.6,1.1-1.3,1.1-2.3c0-0.6-0.3-1.1-1-1.6C481,73.4,480.7,73.2,480.4,73z"/>
		</g>
		<g id="XMLID_241_">
			<path id="XMLID_242_" class="st1" d="M479.5,79.8l-3.4-1.9c0,0,0.1,0,0.1,0.1l3.4,1.9C479.6,79.9,479.5,79.9,479.5,79.8z"/>
		</g>
		<g id="XMLID_239_">
			<path id="XMLID_240_" class="st2" d="M475.8,78.9c0.7,0.3,1.5,0.5,2.6,0.5c1.1,0.6,2.3,1.3,3.4,1.9c-1,0-1.9-0.1-2.6-0.5
				c0,0,0,0,0,0C478.1,80.2,476.9,79.5,475.8,78.9c1.1,0.6,2.3,1.3,3.4,1.9c-0.1,0-0.1-0.1-0.2-0.1l-3.4-1.9
				C475.7,78.8,475.7,78.9,475.8,78.9z"/>
		</g>
		<g id="XMLID_237_">
			<path id="XMLID_238_" class="st1" d="M504.4,52.1l-3.4-1.9c-0.1-1.3-0.3-2.3-0.5-3.2c-0.2-0.9-0.7-1.8-1.3-2.8
				c-0.6-0.9-1.3-1.8-2-2.5c-0.7-0.7-1.7-1.7-3.2-3.2l3.4,1.9c1.5,1.4,2.5,2.4,3.2,3.2c0.7,0.7,1.3,1.6,2,2.5
				c0.6,0.9,1.1,1.9,1.3,2.8C504.1,49.8,504.3,50.8,504.4,52.1z"/>
		</g>
		<g id="XMLID_235_">
			<path id="XMLID_236_" class="st2" d="M493.7,38.4l3.4,1.9c-3.9-2.2-9-3.2-15.4-3.1c-0.7,0-1.4,0-2.1,0.1l-3.4-1.9
				c0.7,0,1.4-0.1,2.1-0.1C484.7,35.2,489.8,36.2,493.7,38.4z"/>
		</g>
		<g id="XMLID_233_">
			<path id="XMLID_234_" class="st1" d="M493.7,38.4l3.4,1.9c0.1,0.1,0.2,0.1,0.3,0.2l-3.4-1.9C493.9,38.5,493.8,38.4,493.7,38.4z"
				/>
		</g>
		<g id="XMLID_231_">
			<path id="XMLID_232_" class="st1" d="M479,80.7l-3.4-1.9c-0.6-0.3-1-0.7-1.3-1.2c-0.3-0.5-0.5-1-0.7-1.4c-0.2-0.4-0.4-0.7-0.6-1
				c-0.1-0.1-0.1-0.1-0.2-0.2l3.4,1.9c0.1,0,0.2,0.1,0.2,0.2c0.2,0.3,0.5,0.6,0.6,1c0.2,0.5,0.4,1,0.7,1.4
				C478,79.9,478.4,80.3,479,80.7z"/>
		</g>
		<g id="XMLID_229_">
			<path id="XMLID_230_" class="st2" d="M472.2,74.8c0.2,0,0.4,0,0.6,0.1l3.4,1.9c-0.2-0.1-0.4-0.1-0.6-0.1
				C474.4,76.1,473.3,75.4,472.2,74.8C472.2,74.8,472.2,74.8,472.2,74.8z"/>
		</g>
		<g id="XMLID_227_">
			<path id="XMLID_228_" class="st2" d="M472.2,74.8c0,0,0.1,0.1,0.1,0.1c0.1,0.1,0.2,0.1,0.3,0.2c0.2,0.1,0.3,0.2,0.5,0.3
				c0.2,0.1,0.3,0.2,0.5,0.3c0.4,0.2,0.8,0.5,1.2,0.7c0.1,0.1,0.3,0.2,0.4,0.2c0,0,0.1,0,0.1,0.1c0,0,0.1,0.1,0.1,0.1
				c0,0,0.1,0.1,0.1,0.1c-0.6,0-1.3,0-2,0.1c-1.1-0.6-2.3-1.3-3.4-1.9C470.9,74.8,471.6,74.8,472.2,74.8z"/>
		</g>
		<g id="XMLID_225_">
			<path id="XMLID_226_" class="st1" d="M485.3,53.4l-3.4-1.9c0.1,0.1,0.2,0.1,0.4,0.2c0.4,0.1,1,0.2,1.7,0.2
				c5.9-0.1,11.3-0.3,16.1-0.6l3.4,1.9c-4.8,0.3-10.2,0.5-16.1,0.6c-0.7,0-1.3,0-1.7-0.2C485.5,53.5,485.4,53.4,485.3,53.4z"/>
		</g>
		<g id="XMLID_223_">
			<path id="XMLID_224_" class="st2" d="M488.9,57.4c2.6,0.8,4.8,1.7,6.6,2.7L499,62c-1.8-1-4.1-1.9-6.6-2.7c-1-0.3-4.1-1-9.3-2.2
				l-3.4-1.9C484.8,56.4,487.9,57.1,488.9,57.4z"/>
		</g>
		<g id="XMLID_221_">
			<path id="XMLID_222_" class="st1" d="M464.4,90.3l-3.4-1.9c0.9,0.5,1.8,0.9,2.8,1.3c2,0.8,4.2,1.3,6.4,1.6
				c2.2,0.3,4.7,0.5,7.5,0.6l3.4,1.9c-2.8-0.1-5.3-0.2-7.5-0.6c-2.2-0.3-4.3-0.8-6.4-1.6C466.2,91.2,465.2,90.8,464.4,90.3z"/>
		</g>
		<g id="XMLID_219_">
			<path id="XMLID_220_" class="st1" d="M496.1,59.2l3.4,1.9c-1.9-1.1-4.2-2-6.9-2.8c-1-0.3-4.1-1-9.3-2.2l-3.4-1.9
				c5.1,1.2,8.3,1.9,9.3,2.2C491.9,57.2,494.2,58.1,496.1,59.2z"/>
		</g>
		<g id="XMLID_217_">
			<path id="XMLID_218_" class="st2" d="M485.3,53.4l-3.4-1.9c-0.2-0.1-0.2-0.2-0.3-0.2l3.4,1.9C485,53.2,485.1,53.3,485.3,53.4z"/>
		</g>
		<g id="XMLID_215_">
			<path id="XMLID_216_" class="st2" d="M481.3,50.9c1.1,0.6,2.3,1.3,3.4,1.9c0.1,0.1,0.2,0.3,0.2,0.4l-3.4-1.9
				C481.5,51.1,481.4,51,481.3,50.9z"/>
		</g>
		<g id="XMLID_213_">
			<path id="XMLID_214_" class="st2" d="M481.3,50.9c-0.1-0.1-0.2-0.3-0.2-0.4l3.4,1.9c0.1,0.1,0.2,0.3,0.2,0.4
				c-0.6-0.3-1.1-0.6-1.7-1c-0.3-0.2-0.6-0.3-0.8-0.5c-0.1,0-0.2-0.1-0.2-0.1c0,0-0.1,0-0.1-0.1c-0.1,0-0.1-0.1-0.2-0.1
				c0,0-0.1,0-0.1-0.1C481.5,50.9,481.4,50.9,481.3,50.9z"/>
		</g>
		<g id="XMLID_211_">
			<path id="XMLID_212_" class="st2" d="M478,54.8c0.9,0.2,1.4,0.3,1.6,0.4l3.4,1.9c-0.2-0.1-0.8-0.2-1.6-0.4
				c-0.1,0-0.3-0.1-0.4-0.1c-1.1-0.6-2.3-1.3-3.4-1.9C477.7,54.7,477.9,54.8,478,54.8z"/>
		</g>
		<g id="XMLID_209_">
			<path id="XMLID_210_" class="st1" d="M484.8,54.3l-3.4-1.9c-0.3-0.2-0.5-0.4-0.6-0.6c-0.2-0.3-0.3-0.5-0.5-0.8
				c-0.2-0.3-0.3-0.6-0.5-0.8l3.4,1.9c0.1,0.3,0.3,0.5,0.5,0.8c0.2,0.3,0.3,0.6,0.5,0.8C484.3,53.9,484.5,54.1,484.8,54.3z"/>
		</g>
		<g id="XMLID_207_">
			<path id="XMLID_208_" class="st1" d="M479.5,49.9l3.4,1.9c0.1,0.1,0.2,0.2,0.3,0.3l-3.4-1.9C479.7,50,479.6,49.9,479.5,49.9z"/>
		</g>
		<g id="XMLID_205_">
			<path id="XMLID_206_" class="st2" d="M480,49l3.4,1.9c0.3,0.2,0.6,0.4,0.7,0.7c0.1,0.3,0.3,0.5,0.4,0.8l-3.4-1.9
				c-0.2-0.3-0.3-0.5-0.4-0.8C480.5,49.4,480.3,49.2,480,49z"/>
		</g>
		<g id="XMLID_203_">
			<path id="XMLID_204_" class="st1" d="M480,49l3.4,1.9c-0.1-0.1-0.2-0.1-0.4-0.2l-3.4-1.9C479.7,48.9,479.9,48.9,480,49z"/>
		</g>
		<g id="XMLID_201_">
			<path id="XMLID_202_" class="st2" d="M463.2,75.2c2.8-0.1,5.1-0.2,6.9-0.3c1.1,0.6,2.3,1.3,3.4,1.9c-1.8,0.1-4.1,0.2-6.9,0.3
				c0,0,0,0,0,0C465.5,76.4,464.3,75.8,463.2,75.2C463.2,75.2,463.2,75.2,463.2,75.2z"/>
		</g>
		<g id="XMLID_199_">
			<path id="XMLID_200_" class="st1" d="M481,50.5l-3.4-1.9c0.9,0,1.5,0.1,2,0.2l3.4,1.9C482.5,50.5,481.9,50.4,481,50.5z"/>
		</g>
		<g id="XMLID_197_">
			<path id="XMLID_198_" class="st2" d="M475.8,54.2c0.5,0.1,1.1,0.3,1.8,0.5c1.1,0.6,2.3,1.3,3.4,1.9c-0.7-0.2-1.3-0.3-1.8-0.5
				c-0.4-0.1-0.7-0.3-1.1-0.5l-3.4-1.9C475,53.9,475.4,54.1,475.8,54.2z"/>
		</g>
		<g id="XMLID_195_">
			<path id="XMLID_196_" class="st1" d="M478.6,54.8l-3.4-1.9c0.3,0.2,0.6,0.3,0.9,0.4c0.6,0.2,1.3,0.4,2.2,0.6
				c0.9,0.2,1.5,0.3,1.7,0.4l3.4,1.9c-0.2-0.1-0.8-0.2-1.7-0.4c-0.9-0.2-1.6-0.4-2.2-0.6C479.2,55.1,478.8,54.9,478.6,54.8z"/>
		</g>
		<g id="XMLID_193_">
			<path id="XMLID_194_" class="st1" d="M478.1,55.6l-3.4-1.9c-0.3-0.1-0.5-0.3-0.8-0.5c-0.7-0.5-1-1.1-1-1.8c0-0.6,0.2-1.1,0.8-1.5
				c0.4-0.4,1-0.7,1.6-0.8c0.6-0.2,1.1-0.3,1.5-0.4c0.4-0.1,0.7-0.1,0.9-0.1l3.4,1.9c-0.2,0-0.5,0.1-0.9,0.1
				c-0.4,0.1-0.9,0.2-1.5,0.4c-0.6,0.2-1.2,0.5-1.6,0.8c-0.5,0.4-0.8,0.9-0.8,1.5c0,0.7,0.4,1.3,1,1.8
				C477.6,55.3,477.8,55.5,478.1,55.6z"/>
		</g>
		<g id="XMLID_191_">
			<path id="XMLID_192_" class="st1" d="M463.4,67.8l-3.4-1.9c2.4,1.4,5.6,2.5,9.5,3.5c0.1,0,0.6,0.1,2,0.3c1.2,0.2,2.4,0.4,3.5,0.6
				c1.1,0.2,2.3,0.5,3.6,0.9c0.9,0.3,1.6,0.6,2.3,0.9l3.4,1.9c-0.7-0.4-1.4-0.7-2.3-0.9c-1.3-0.4-2.5-0.7-3.6-0.9
				c-1.1-0.3-2.3-0.5-3.5-0.6c-1.5-0.2-1.9-0.3-2-0.3C469,70.3,465.8,69.1,463.4,67.8z"/>
		</g>
		<g id="XMLID_189_">
			<path id="XMLID_190_" class="st2" d="M454.3,75.5c2,0,5-0.2,9-0.3c1.1,0.6,2.3,1.3,3.4,1.9c-4,0.2-7,0.3-9,0.3
				C456.5,76.8,455.4,76.1,454.3,75.5z"/>
		</g>
		<g id="XMLID_187_">
			<path id="XMLID_188_" class="st2" d="M454.3,75.5C454.3,75.5,454.3,75.5,454.3,75.5c1.1,0.6,2.3,1.3,3.4,1.9c0,0,0,0,0,0
				c0,0,0,0,0,0C456.5,76.8,455.4,76.1,454.3,75.5C454.3,75.5,454.3,75.5,454.3,75.5z"/>
		</g>
		<g id="XMLID_185_">
			<path id="XMLID_186_" class="st2" d="M453.5,75.5c0.2,0,0.4,0.1,0.7,0c1.1,0.6,2.3,1.3,3.4,1.9c-0.3,0-0.5,0-0.7,0
				C455.8,76.7,454.7,76.1,453.5,75.5z"/>
		</g>
		<g id="XMLID_183_">
			<path id="XMLID_184_" class="st2" d="M455.2,82.2c-0.9-1.9-1.5-4.1-1.8-6.5l3.4,1.9c0.3,2.4,0.9,4.6,1.8,6.5
				c0.9,1.9,2.1,3.4,3.5,4.6c0.7,0.6,1.5,1.1,2.3,1.6l-3.4-1.9c-0.9-0.5-1.6-1-2.3-1.6C457.3,85.6,456.1,84.1,455.2,82.2z"/>
		</g>
		<g id="XMLID_181_">
			<path id="XMLID_182_" class="st2" d="M456.7,77.6l-3.4-1.9c0-0.1,0-0.2,0.2-0.3l3.4,1.9C456.8,77.4,456.7,77.5,456.7,77.6z"/>
		</g>
		<g id="XMLID_179_">
			<path id="XMLID_180_" class="st1" d="M473.2,74.1l3.4,1.9c-0.3-0.2-0.7-0.3-1.1-0.2c-1.9,0-5,0.2-9,0.3c-4,0.2-7,0.3-8.9,0.3
				c-0.4,0-0.5,0-0.8,0l-3.4-1.9c0.3,0,0.4,0.1,0.8,0c2,0,5-0.2,8.9-0.3c4-0.2,7-0.3,9-0.3C472.6,73.8,472.9,73.9,473.2,74.1z"/>
		</g>
		<g id="XMLID_177_">
			<path id="XMLID_178_" class="st1" d="M463.9,91.2l-3.4-1.9c-0.9-0.5-1.8-1.1-2.5-1.7c-1.5-1.2-2.7-2.9-3.7-4.9
				c-1-2-1.6-4.3-1.9-6.9l3.4,1.9c0.3,2.6,0.9,4.9,1.9,6.9c1,2,2.3,3.6,3.7,4.9C462.1,90.1,463,90.7,463.9,91.2z"/>
		</g>
		<g id="XMLID_175_">
			<path id="XMLID_176_" class="st1" d="M455.7,77.7l-3.4-1.9c0-0.7,0.4-1.2,1.1-1.3l3.4,1.9C456.1,76.5,455.7,77,455.7,77.7z"/>
		</g>
		<g id="XMLID_132_">
			<path id="XMLID_134_" class="st2" d="M471.1,36.1c1.6-0.3,3.3-0.5,5.1-0.7l3.4,1.9c-1.7,0.1-3.4,0.3-5.1,0.7
				c-0.5,0.1-1.1,0.2-1.6,0.3c-1.1-0.6-2.3-1.3-3.4-1.9C470.1,36.3,470.6,36.2,471.1,36.1z"/>
		</g>
		<g id="XMLID_130_">
			<path id="XMLID_131_" class="st2" d="M464.3,38.2c1.7-0.8,3.5-1.4,5.2-1.8c1.1,0.6,2.3,1.3,3.4,1.9c-1.8,0.4-3.5,1-5.2,1.8
				c-2.2,1-4.2,2.2-5.8,3.6c-0.4,0.4-0.8,0.8-1.2,1.2c-1.1-0.6-2.3-1.3-3.4-1.9c0.4-0.4,0.8-0.8,1.2-1.2
				C460.2,40.4,462.1,39.2,464.3,38.2z"/>
		</g>
		<g id="XMLID_128_">
			<path id="XMLID_129_" class="st2" d="M454.7,47.3c0.7-1.6,1.6-3.1,2.7-4.3c1.1,0.6,2.3,1.3,3.4,1.9c-1.1,1.2-1.9,2.6-2.7,4.3
				c-1,2.2-1.4,4.7-1.4,7.5c0.1,3.9,1.4,6.9,3.8,9.1c-1.1-0.6-2.3-1.3-3.4-1.9c1.1,0.6,2.3,1.3,3.4,1.9c0.8,0.7,1.7,1.3,2.8,2
				l-3.4-1.9c-1.1-0.6-2-1.3-2.8-2c-2.4-2.2-3.7-5.2-3.8-9.1C453.3,52,453.8,49.5,454.7,47.3z"/>
		</g>
		<g id="XMLID_126_">
			<path id="XMLID_127_" class="st2" d="M479.6,37.3c0.7,0,1.4-0.1,2.1-0.1c6.5-0.2,11.8,0.9,15.7,3.2c1.5,1.4,2.5,2.4,3.2,3.2
				c0.7,0.7,1.3,1.6,2,2.5c0.6,0.9,1.1,1.9,1.3,2.8c0.2,0.9,0.4,1.9,0.5,3.2l-1,1c-4.8,0.3-10.2,0.5-16.1,0.6c-0.7,0-1.3,0-1.7-0.2
				c-0.4-0.1-0.6-0.3-0.7-0.4c-0.2-0.3-0.3-0.5-0.5-0.8c-0.2-0.3-0.3-0.5-0.4-0.8c-0.2-0.4-0.6-0.7-1.1-0.9
				c-0.5-0.2-1.1-0.3-1.8-0.2c-0.3,0-0.6,0.1-1,0.1c-0.4,0.1-0.9,0.2-1.5,0.4c-0.6,0.2-1.2,0.5-1.6,0.8c-0.5,0.4-0.8,0.9-0.8,1.5
				c0,0.7,0.4,1.3,1,1.8c0.6,0.5,1.2,0.8,1.9,1c0.6,0.2,1.3,0.4,2.2,0.6c0.9,0.2,1.4,0.3,1.6,0.4c5.2,1.2,8.3,1.9,9.3,2.2
				c5.1,1.5,8.8,3.5,10.9,6c2,2.3,3,5.3,3.1,8.9c0,2.2-0.2,4.2-0.7,6c-0.5,1.8-1.2,3.3-2.1,4.6c-0.9,1.3-2,2.4-3.4,3.4
				c-1.4,1-2.8,1.8-4.2,2.4c-1.4,0.6-3,1.1-4.8,1.6c-1.8,0.4-3.5,0.8-5,1c-1.5,0.2-3.2,0.4-5,0.5c-2.8-0.1-5.3-0.2-7.5-0.6
				c-2.2-0.3-4.3-0.8-6.4-1.6c-2-0.7-3.8-1.7-5.1-2.9c-1.4-1.2-2.6-2.7-3.5-4.6c-0.9-1.9-1.5-4.1-1.8-6.5c0-0.1,0-0.2,0.2-0.3
				c0.2,0,0.4,0.1,0.7,0c2,0,5-0.2,9-0.3c4-0.2,7-0.3,8.9-0.3c0.4,0,0.6,0.1,0.8,0.3c0.2,0.3,0.5,0.6,0.6,1c0.2,0.5,0.4,1,0.7,1.4
				c0.3,0.5,0.8,1,1.5,1.3c0.7,0.3,1.5,0.5,2.6,0.5c0.1,0,0.2,0,0.3,0c1.2-0.1,2.2-0.5,3.1-1.1c1-0.8,1.5-1.8,1.5-3.1
				c0-0.9-0.5-1.7-1.4-2.4c-0.8-0.6-1.9-1.1-3.2-1.5c-1.3-0.4-2.5-0.7-3.6-0.9c-1.1-0.3-2.3-0.5-3.5-0.6c-1.5-0.2-1.9-0.3-2-0.3
				c-5.7-1.4-9.8-3.2-12.3-5.4c-2.4-2.2-3.7-5.2-3.8-9.1c-0.1-2.8,0.4-5.3,1.4-7.5c1-2.2,2.3-4,3.8-5.5c1.6-1.4,3.5-2.7,5.8-3.6
				c2.2-1,4.5-1.7,6.8-2.1C476.2,37.7,477.9,37.4,479.6,37.3z"/>
		</g>
		<g id="XMLID_122_">
			<path id="XMLID_123_" class="st1" d="M504,64.7c2.1,2.5,3.2,5.7,3.3,9.5c0,2.3-0.2,4.4-0.8,6.3c-0.6,1.9-1.3,3.6-2.3,4.9
				c-0.9,1.3-2.2,2.6-3.6,3.6c-1.4,1-2.9,1.9-4.4,2.5c-1.5,0.6-3.1,1.2-5,1.6c-1.8,0.4-3.6,0.8-5.1,1c-1.5,0.2-3.2,0.4-5.1,0.5
				c-2.9-0.1-5.4-0.2-7.7-0.6c-2.3-0.3-4.5-0.9-6.6-1.7c-2.1-0.8-4-1.8-5.4-3.1c-1.5-1.2-2.7-2.9-3.7-4.9c-1-2-1.6-4.3-1.9-6.9
				c0-0.7,0.4-1.2,1.1-1.3c0.3,0,0.4,0.1,0.8,0c2,0,5-0.2,8.9-0.3c4-0.2,7-0.3,9-0.3c0.6,0,1.2,0.2,1.6,0.6c0.3,0.4,0.6,0.8,0.8,1.3
				c0.2,0.4,0.4,0.9,0.6,1.3c0.2,0.4,0.6,0.7,1.1,1c0.5,0.3,1.2,0.4,2.1,0.4c0.1,0,0.2,0,0.3,0c0.9-0.1,1.8-0.4,2.5-0.9
				c0.7-0.6,1.1-1.3,1.1-2.3c0-0.6-0.3-1.1-1-1.6c-0.7-0.6-1.7-1-2.9-1.4c-1.2-0.4-2.4-0.7-3.5-0.9c-1.1-0.2-2.3-0.5-3.4-0.6
				c-1.6-0.2-2-0.3-2.1-0.3c-5.8-1.4-10.1-3.3-12.8-5.7c-2.7-2.3-4.1-5.7-4.1-9.8c-0.1-2.9,0.4-5.6,1.4-7.9c1-2.4,2.4-4.3,4.1-5.8
				c1.7-1.5,3.7-2.8,6-3.8c2.3-1,4.7-1.8,7-2.2c1.7-0.3,3.4-0.5,5.2-0.7c0.7,0,1.4-0.1,2.2-0.1c6.7-0.1,12.2,1,16.2,3.4
				c1.6,1.5,2.7,2.6,3.4,3.3c0.7,0.7,1.4,1.6,2.1,2.6c0.7,1,1.2,2,1.4,3c0.3,1,0.5,2.2,0.6,3.6l0,0.2l-1.5,1.6l-0.2,0
				c-4.8,0.3-10.3,0.5-16.3,0.7c-0.8,0-1.5-0.1-2-0.2c-0.6-0.2-1-0.5-1.2-0.8c-0.2-0.3-0.3-0.5-0.5-0.8c-0.2-0.3-0.3-0.6-0.5-0.8
				c-0.1-0.1-0.3-0.3-0.6-0.4c-0.4-0.1-0.8-0.2-1.5-0.2c-0.2,0-0.5,0-0.8,0.1c-0.4,0.1-0.9,0.2-1.4,0.4c-0.5,0.2-0.9,0.4-1.2,0.7
				c-0.4,0.3-0.4,0.6-0.4,0.7c0,0.4,0.2,0.7,0.6,1c0.5,0.4,1,0.6,1.5,0.8c0.6,0.2,1.3,0.4,2.2,0.6c0.9,0.2,1.5,0.3,1.7,0.4
				c5.1,1.2,8.3,1.9,9.3,2.2C497.9,59.9,501.7,62,504,64.7z M506.3,74.2c-0.1-3.6-1.1-6.6-3.1-8.9c-2.1-2.5-5.8-4.5-10.9-6
				c-1-0.3-4.1-1-9.3-2.2c-0.2-0.1-0.8-0.2-1.6-0.4c-0.9-0.2-1.6-0.4-2.2-0.6c-0.7-0.2-1.3-0.5-1.9-1c-0.7-0.5-1-1.1-1-1.8
				c0-0.6,0.2-1.1,0.8-1.5c0.4-0.4,1-0.7,1.6-0.8c0.6-0.2,1.1-0.3,1.5-0.4c0.4-0.1,0.7-0.1,0.9-0.1c0.9,0,1.5,0.1,2,0.2
				c0.5,0.2,0.9,0.5,1.1,0.9c0.1,0.3,0.3,0.5,0.4,0.8c0.2,0.3,0.3,0.5,0.5,0.8c0.1,0.1,0.2,0.3,0.7,0.4c0.4,0.1,1,0.2,1.7,0.2
				c5.9-0.1,11.3-0.3,16.1-0.6l1-1c-0.1-1.3-0.3-2.3-0.5-3.2c-0.2-0.9-0.7-1.8-1.3-2.8c-0.6-0.9-1.3-1.8-2-2.5
				c-0.7-0.7-1.7-1.7-3.2-3.2c-3.9-2.3-9.2-3.4-15.7-3.2c-0.7,0-1.4,0-2.1,0.1c-1.7,0.1-3.4,0.3-5.1,0.7c-2.3,0.4-4.6,1.2-6.8,2.1
				c-2.2,1-4.2,2.2-5.8,3.6c-1.6,1.4-2.9,3.3-3.8,5.5c-1,2.2-1.4,4.7-1.4,7.5c0.1,3.9,1.4,6.9,3.8,9.1c2.5,2.2,6.6,4,12.3,5.4
				c0.1,0,0.6,0.1,2,0.3c1.2,0.2,2.4,0.4,3.5,0.6c1.1,0.2,2.3,0.5,3.6,0.9c1.3,0.4,2.4,0.9,3.2,1.5c0.9,0.7,1.3,1.5,1.4,2.4
				c0,1.3-0.5,2.3-1.5,3.1c-0.9,0.7-1.9,1.1-3.1,1.1c-0.1,0-0.2,0-0.3,0c-1,0-1.9-0.1-2.6-0.5c-0.7-0.3-1.2-0.8-1.5-1.3
				c-0.3-0.5-0.5-1-0.7-1.4c-0.2-0.4-0.4-0.7-0.6-1c-0.2-0.2-0.5-0.3-0.8-0.3c-1.9,0-4.9,0.2-8.9,0.3c-4,0.2-7,0.3-9,0.3
				c-0.3,0-0.5,0-0.7,0c-0.2,0-0.2,0.1-0.2,0.3c0.3,2.4,0.9,4.6,1.8,6.5c0.9,1.9,2.1,3.4,3.5,4.6c1.4,1.2,3.1,2.1,5.1,2.9
				c2,0.8,4.2,1.3,6.4,1.6c2.2,0.3,4.7,0.5,7.5,0.6c1.8-0.1,3.5-0.3,5-0.5c1.5-0.2,3.2-0.5,5-1c1.8-0.4,3.4-1,4.8-1.6
				c1.4-0.6,2.8-1.4,4.2-2.4c1.3-1,2.5-2.1,3.4-3.4c0.9-1.3,1.6-2.8,2.1-4.6C506.1,78.5,506.3,76.4,506.3,74.2"/>
		</g>
		<g id="XMLID_120_">
			<path id="XMLID_121_" class="st1" d="M462.9,68.6l-3.4-1.9c-1.2-0.6-2.2-1.3-3-2.1c-2.7-2.3-4.1-5.7-4.1-9.8
				c-0.1-2.9,0.4-5.6,1.4-7.9c1-2.4,2.4-4.3,4.1-5.8c1.7-1.5,3.7-2.8,6-3.8c2.3-1,4.7-1.8,7-2.2c1.7-0.3,3.4-0.5,5.2-0.7
				c0.7,0,1.4-0.1,2.2-0.1c6.5-0.1,11.8,0.9,15.9,3.2l3.4,1.9c-4-2.3-9.4-3.3-15.9-3.2c-0.7,0-1.4,0-2.2,0.1
				c-1.8,0.1-3.5,0.3-5.2,0.7c-2.4,0.5-4.7,1.2-7,2.2c-2.3,1-4.3,2.3-6,3.8c-1.7,1.5-3.1,3.5-4.1,5.8c-1,2.3-1.5,5-1.4,7.9
				c0.1,4.2,1.5,7.5,4.1,9.8C460.7,67.3,461.7,68,462.9,68.6z"/>
		</g>
	</g>
	<g id="XMLID_64_" class="st0">
		<g id="XMLID_117_">
			<path id="XMLID_118_" class="st1" d="M544.6,68.2l-3.4-1.9c0.2,0,0.2-0.1,0.2-0.1l3.4,1.9C544.8,68.2,544.8,68.2,544.6,68.2z"/>
		</g>
		<g id="XMLID_115_">
			<path id="XMLID_116_" class="st1" d="M544.8,68.2l-3.4-1.9c0.1-0.1,0.1-0.2,0.1-0.3c0-0.2,0-0.5,0-0.8l3.4,1.9c0,0.4,0,0.6,0,0.8
				C544.9,68,544.9,68.1,544.8,68.2z"/>
		</g>
		<g id="XMLID_113_">
			<polygon id="XMLID_114_" class="st1" points="544.9,67.1 541.5,65.2 541.5,65 544.9,66.9 			"/>
		</g>
		<g id="XMLID_111_">
			<polygon id="XMLID_112_" class="st1" points="544.9,66.9 541.5,65 541.3,51.5 544.7,53.4 			"/>
		</g>
		<g id="XMLID_109_">
			<path id="XMLID_110_" class="st1" d="M541.1,51.4l3.4,1.9c0.1,0.1,0.1,0.1,0.1,0.1l-3.4-1.9C541.3,51.5,541.2,51.5,541.1,51.4z"
				/>
		</g>
		<g id="XMLID_107_">
			<path id="XMLID_108_" class="st1" d="M541.6,50.6l3.4,1.9c-0.2-0.1-0.5-0.2-0.8-0.3l-3.4-1.9C541.1,50.3,541.4,50.4,541.6,50.6z"
				/>
		</g>
		<g id="XMLID_105_">
			<path id="XMLID_106_" class="st2" d="M541.1,51.4l3.4,1.9c-0.3-0.2-1.1-0.4-3.6-0.4l-3.4-1.9C540,51,540.8,51.3,541.1,51.4z"/>
		</g>
		<g id="XMLID_103_">
			<path id="XMLID_104_" class="st1" d="M540.9,51.9l-3.4-1.9c1.5,0,2.6,0,3.3,0.2l3.4,1.9C543.4,52,542.3,51.9,540.9,51.9z"/>
		</g>
		<g id="XMLID_101_">
			<polygon id="XMLID_102_" class="st1" points="527.8,68.6 524.4,66.7 541.2,66.3 544.6,68.2 			"/>
		</g>
		<g id="XMLID_99_">
			<polygon id="XMLID_100_" class="st2" points="527.8,68.6 524.4,66.7 523.5,65.9 526.9,67.8 			"/>
		</g>
		<g id="XMLID_97_">
			<path id="XMLID_98_" class="st2" d="M526.9,67.8l-3.4-1.9c0-0.4,0-0.7-0.1-1l3.4,1.9C526.9,67,526.9,67.4,526.9,67.8z"/>
		</g>
		<g id="XMLID_95_">
			<polygon id="XMLID_96_" class="st1" points="527.4,69.6 524,67.7 522.5,66.3 525.9,68.2 			"/>
		</g>
		<g id="XMLID_93_">
			<polygon id="XMLID_94_" class="st1" points="525.9,68.2 522.5,66.3 522.5,66.1 525.9,68 			"/>
		</g>
		<g id="XMLID_91_">
			<polygon id="XMLID_92_" class="st2" points="526.8,66.8 523.4,64.9 523.4,64 526.8,65.9 			"/>
		</g>
		<g id="XMLID_89_">
			<path id="XMLID_90_" class="st1" d="M525.9,68l-3.4-1.9c0-0.6-0.1-0.9-0.1-1l3.4,1.9C525.8,67.1,525.9,67.4,525.9,68z"/>
		</g>
		<g id="XMLID_87_">
			<polygon id="XMLID_88_" class="st1" points="525.8,67 522.4,65.1 522.4,64 525.8,65.9 			"/>
		</g>
		<g id="XMLID_85_">
			<path id="XMLID_86_" class="st2" d="M526.8,65.9l-3.4-1.9c0-0.3,0-0.8,0-1.5c0-0.7,0-1.3,0-1.7l3.4,1.9c0,0.4,0,1,0,1.7
				C526.8,65.1,526.8,65.6,526.8,65.9z"/>
		</g>
		<g id="XMLID_83_">
			<path id="XMLID_84_" class="st1" d="M525.8,65.9l-3.4-1.9c0-0.3,0-0.8,0-1.5c0-0.7,0-1.2,0-1.6l3.4,1.9c0,0.4,0,0.9,0,1.6
				C525.8,65.1,525.8,65.6,525.8,65.9z"/>
		</g>
		<g id="XMLID_81_">
			<polygon id="XMLID_82_" class="st2" points="526.8,62.7 523.4,60.8 523.4,58.8 526.8,60.7 			"/>
		</g>
		<g id="XMLID_79_">
			<polygon id="XMLID_80_" class="st1" points="525.8,62.8 522.4,60.9 522.4,58.9 525.8,60.8 			"/>
		</g>
		<g id="XMLID_77_">
			<polygon id="XMLID_78_" class="st2" points="527.2,53.3 523.9,51.4 537.5,51.1 540.9,53 			"/>
		</g>
		<g id="XMLID_75_">
			<path id="XMLID_76_" class="st2" d="M540.9,53c3.5-0.1,3.8,0.5,3.8,0.5l0.3,13.4l0,0.2c0,0.4,0,0.6,0,0.8c0,0.1,0,0.2-0.1,0.3
				c0,0-0.1,0.1-0.2,0.1l-16.9,0.4l-0.9-0.8c0-0.4,0-0.7-0.1-1l0-0.9c0-0.3,0-0.8,0-1.5c0-0.7,0-1.3,0-1.7l0-2
				c-0.1-6.6,0.5-7.4,0.5-7.5L540.9,53z"/>
		</g>
		<g id="XMLID_73_">
			<path id="XMLID_74_" class="st2" d="M526.8,60.7l-3.4-1.9c-0.1-6.6,0.5-7.4,0.5-7.5l3.4,1.9C527.2,53.3,526.6,54.2,526.8,60.7z"
				/>
		</g>
		<g id="XMLID_71_">
			<polygon id="XMLID_72_" class="st1" points="527.2,52.3 523.8,50.4 537.5,50 540.9,51.9 			"/>
		</g>
		<g id="XMLID_67_">
			<path id="XMLID_68_" class="st1" d="M544.2,52.2c1,0.2,1.5,0.6,1.5,1.3l0.3,13.6c0,0.4,0,0.7,0,0.9c0,0.3-0.1,0.6-0.3,0.8
				c-0.2,0.2-0.4,0.4-0.9,0.5l-0.1,0l-17.3,0.4l-1.5-1.4l0-0.2c0-0.6-0.1-0.9-0.1-1l0-1.1c0-0.3,0-0.8,0-1.5c0-0.7,0-1.2,0-1.6l0-2
				c-0.1-2.7,0-4.7,0.2-6.1c0.2-1.2,0.4-2.4,1.3-2.4l13.7-0.3C542.3,51.9,543.4,52,544.2,52.2z M544.9,66.9l-0.3-13.4
				c0,0-0.3-0.6-3.8-0.5l-13.6,0.3c0,0.1-0.6,0.9-0.5,7.5l0,2c0,0.4,0,1,0,1.7c0,0.7,0,1.2,0,1.5l0,0.9c0,0.2,0.1,0.6,0.1,1l0.9,0.8
				l16.8-0.4c0.2,0,0.2-0.1,0.2-0.1c0.1-0.1,0.1-0.2,0.1-0.3c0-0.2,0-0.5,0-0.8L544.9,66.9"/>
		</g>
		<g id="XMLID_65_">
			<path id="XMLID_66_" class="st1" d="M525.8,60.8l-3.4-1.9c-0.1-2.7,0-4.7,0.2-6.1c0.2-1.2,0.4-2.4,1.3-2.4l3.4,1.9
				c-0.9,0.1-1.1,1.3-1.3,2.4C525.8,56.1,525.7,58.1,525.8,60.8z"/>
		</g>
	</g>
	<g id="XMLID_4_" class="st0">
		<g id="XMLID_62_">
			<polygon id="XMLID_63_" class="st1" points="545.4,90.3 542,88.4 541.7,74.1 545.1,76 			"/>
		</g>
		<g id="XMLID_60_">
			<path id="XMLID_61_" class="st1" d="M541.5,74l3.4,1.9c0.1,0.1,0.1,0.1,0.2,0.1l-3.4-1.9C541.7,74.1,541.6,74.1,541.5,74z"/>
		</g>
		<g id="XMLID_58_">
			<path id="XMLID_59_" class="st1" d="M534.1,91.5l-3.4-1.9c2.3-0.1,4.2-0.1,5.7-0.2c4.4-0.3,5.4-0.7,5.6-1l3.4,1.9
				c-0.2,0.2-1.2,0.6-5.6,1C538.3,91.4,536.5,91.5,534.1,91.5z"/>
		</g>
		<g id="XMLID_56_">
			<path id="XMLID_57_" class="st2" d="M541.5,74l3.4,1.9c-0.4-0.2-1.3-0.5-3.6-0.4l-3.4-1.9C540.3,73.5,541.2,73.8,541.5,74z"/>
		</g>
		<g id="XMLID_54_">
			<path id="XMLID_55_" class="st1" d="M542,73.1l3.4,1.9c-0.7-0.4-2.1-0.6-4.1-0.5l-3.4-1.9C540,72.6,541.3,72.7,542,73.1z"/>
		</g>
		<g id="XMLID_52_">
			<polygon id="XMLID_53_" class="st2" points="538.5,75.6 535.1,73.7 537.9,73.6 541.3,75.5 			"/>
		</g>
		<g id="XMLID_50_">
			<polygon id="XMLID_51_" class="st1" points="538.5,74.6 535.1,72.7 537.9,72.6 541.3,74.5 			"/>
		</g>
		<g id="XMLID_48_">
			<path id="XMLID_49_" class="st2" d="M537.1,75.5l-3.4-1.9c0.4,0,0.8,0.1,1.4,0l3.4,1.9C537.9,75.6,537.5,75.6,537.1,75.5z"/>
		</g>
		<g id="XMLID_46_">
			<polygon id="XMLID_47_" class="st1" points="528.1,91.7 524.7,89.8 530.7,89.6 534.1,91.5 			"/>
		</g>
		<g id="XMLID_44_">
			<path id="XMLID_45_" class="st1" d="M537.2,74.5l-3.4-1.9c0.4,0,0.8,0.1,1.3,0l3.4,1.9C538,74.6,537.6,74.6,537.2,74.5z"/>
		</g>
		<g id="XMLID_42_">
			<polygon id="XMLID_43_" class="st2" points="528.1,91.7 524.7,89.8 523.8,88.6 527.2,90.5 			"/>
		</g>
		<g id="XMLID_40_">
			<polygon id="XMLID_41_" class="st1" points="527.6,92.7 524.2,90.8 522.8,89 526.2,90.9 			"/>
		</g>
		<g id="XMLID_38_">
			<polygon id="XMLID_39_" class="st1" points="526.2,90.9 522.8,89 522.8,88.8 526.2,90.7 			"/>
		</g>
		<g id="XMLID_36_">
			<polygon id="XMLID_37_" class="st2" points="534.2,75.6 530.8,73.7 533.7,73.6 537.1,75.5 			"/>
		</g>
		<g id="XMLID_33_">
			<polygon id="XMLID_35_" class="st1" points="534.2,74.6 530.8,72.7 533.8,72.6 537.2,74.5 			"/>
		</g>
		<g id="XMLID_31_">
			<path id="XMLID_32_" class="st2" d="M527.2,76.4l-3.4-1.9c0.1-0.1,0.8-0.5,3.8-0.7c0.9-0.1,1.9-0.1,3.2-0.1l3.4,1.9
				c-1.3,0-2.4,0.1-3.2,0.1C528,75.9,527.4,76.3,527.2,76.4z"/>
		</g>
		<g id="XMLID_15_">
			<path id="XMLID_30_" class="st2" d="M527.2,90.5l-3.4-1.9c0-0.2,0-0.4-0.1-0.6c0-0.3,0-0.5,0-0.7c-0.1-3.8,0-8.1,0.1-12.8
				l3.4,1.9c-0.1,4.7-0.2,9-0.1,12.8c0,0.2,0,0.4,0,0.7C527.2,90.2,527.2,90.4,527.2,90.5z"/>
		</g>
		<g id="XMLID_11_">
			<path id="XMLID_12_" class="st1" d="M541.3,74.5c2.9-0.1,4.3,0.3,4.7,1.2l0,0.1l0.3,14.9c-0.2,0.5-0.4,1.2-6.6,1.6
				c-1.5,0.1-3.4,0.2-5.7,0.2l-6.6,0.1l-1.3-1.8l0-0.2c0-0.2,0-0.4,0-0.7c0-0.3,0-0.6-0.1-0.8c-0.1-3.9,0-8.2,0.1-12.9
				c0-0.8,1.1-1.1,2.3-1.3c0.6-0.1,1.5-0.2,2.4-0.3c0.9-0.1,2-0.1,3.3-0.1l3-0.1c0.4,0,0.8,0.1,1.3,0L541.3,74.5z M545.4,90.3
				L545.1,76c-0.2-0.2-0.9-0.6-3.8-0.5l-2.8,0.1c-0.6,0-1,0-1.4,0l-2.9,0.1c-1.3,0-2.4,0.1-3.2,0.1c-3,0.2-3.6,0.5-3.8,0.7
				c-0.1,4.7-0.2,9-0.1,12.8c0,0.2,0,0.4,0,0.7c0,0.2,0,0.5,0.1,0.6l0.8,1.1l6.1-0.1c2.3-0.1,4.2-0.1,5.7-0.2
				C544.2,91,545.2,90.5,545.4,90.3"/>
		</g>
		<g id="XMLID_9_">
			<path id="XMLID_10_" class="st2" d="M541.3,75.5c2.9-0.1,3.6,0.4,3.8,0.5l0.3,14.3c-0.2,0.2-1.2,0.6-5.6,1
				c-1.5,0.1-3.3,0.2-5.7,0.2l-6.1,0.1l-0.8-1.1c0-0.2,0-0.4-0.1-0.6c0-0.3,0-0.5,0-0.7c-0.1-3.8,0-8.1,0.1-12.8
				c0.1-0.1,0.8-0.5,3.8-0.7c0.9-0.1,1.9-0.1,3.2-0.1l2.9-0.1c0.4,0,0.8,0.1,1.4,0L541.3,75.5z"/>
		</g>
		<g id="XMLID_7_">
			<path id="XMLID_8_" class="st1" d="M526.2,90.7l-3.4-1.9c0-0.2,0-0.4,0-0.7c0-0.3,0-0.6-0.1-0.8c-0.1-3.9,0-8.2,0.1-12.9l3.4,1.9
				c-0.1,4.7-0.2,9.1-0.1,12.9c0,0.2,0,0.5,0.1,0.8C526.2,90.3,526.2,90.5,526.2,90.7z"/>
		</g>
		<g id="XMLID_5_">
			<path id="XMLID_6_" class="st1" d="M526.2,76.3l-3.4-1.9c0-0.8,1.1-1.1,2.3-1.3c0.6-0.1,1.5-0.2,2.4-0.3c0.9-0.1,2-0.1,3.3-0.1
				l3.4,1.9c-1.2,0-2.3,0.1-3.3,0.1c-1,0.1-1.8,0.2-2.4,0.3C527.4,75.2,526.2,75.5,526.2,76.3z"/>
		</g>
	</g>
</g>
</svg>
